<svg xmlns="http://www.w3.org/2000/svg" xmlns:xlink="http://www.w3.org/1999/xlink" xmlns:lucid="lucid" width="938.5" height="780"><g transform="translate(-280 -200)" lucid:page-tab-id="0_0"><path d="M506.53 697.5v6.78h-117.1v-6.78L448 680.88l58.55 16.62zM387.86 719.3H509.3v140.68H387.85v-140.7z" fill="#00755d"/><path d="M387.86 713.1H509.3v140.1H387.85V713.1zM490.02 680h-82.8l-17.78 17.5h117.08l-16.5-17.5z" fill="#19967d"/><path d="M438.7 772.02c6.75-5.25 15.98-4.44 21.83 1.9l9.15-4.6v-5.44s-13.9-5.7-21.1-5.7c-6.42.37-11.84 1-18.16 2.15v5.45zM465.1 783.6c.1.84.14 1.52.14 2.35 0 8.48-6.64 20.4-14.35 21.96v5.46c13.92-1.5 24.36-13.56 24.56-28.28-.2-4.06-.6-7.48-1.33-11.5zM441.44 801.88v-5.43c-1.15.47-2.3.47-3.45 0-2.82-1.94-7.58-6.38-7.58-9.65-.26-2.15-.26-4 0-6.16l2.25-5.2-8.22-6.2c-2 5.33-2.8 10.28-2.6 16 .07 12.54 7.3 23.05 18.57 27.06z" fill="#00755d"/><path d="M490.36 762.22l-2.3-4.9-28.48 14.32c-.4-.52-.8-.97-1.27-1.48-5.37-5.87-14.23-6-19.77-.3l-24.37-18.47-2.93 4.44 24.37 18.4c-.24.6-.47 1.1-.63 1.78-2.37 7.7 1.66 16.02 9.02 18.54l-2.62 30.5 5.22.5 2.6-30.33c1.04-.08 2-.23 3.02-.52 7.44-2.14 11.8-10.23 9.73-18.1z" fill="#fff"/><path d="M438.7 766.58c6.75-5.25 15.98-4.45 21.83 1.9l9.15-4.6c-.67-.94-1.3-1.7-2.05-2.57-10.05-11.06-26.7-11.48-37.2-.96zM465.08 778.16c.12.82.17 1.54.17 2.37-.02 8.48-5.58 15.55-13.5 17.13l-.88 10.5c1.57-.14 2.87-.38 4.4-.76 14.04-3.77 22.53-18.8 18.95-33.57zM441.43 796.42c-5.96-2.93-9.5-8.84-9.5-15.76 0-1.84.23-3.42.77-5.2l-8.23-6.2c-.4.98-.7 1.8-1.02 2.82-4.43 14.56 3.23 30.14 17.1 34.8z" fill="#fff"/><path d="M448.8 653.03l1.18-148.53" stroke="#19967d" stroke-width="6" fill="none"/><path d="M448.65 670.3l-4.52-14.3 9.27.06z" stroke="#19967d" stroke-width="6" fill="#19967d"/><path d="M452.98 504.6l-6-.05.02-3.05h6z" fill="#19967d"/><path d="M380 866c0-3.3 2.7-6 6-6h128c3.3 0 6 2.7 6 6v48c0 3.3-2.7 6-6 6H386c-3.3 0-6-2.7-6-6z" stroke="#000" stroke-opacity="0" stroke-width="3" fill="#fff" fill-opacity="0"/><use xlink:href="#a" transform="matrix(1,0,0,1,385,865) translate(26.882716049382715 30.27777777777778)"/><path d="M1198.5 770c0 38.66-31.34 70-70 70s-70-31.34-70-70 31.34-70 70-70 70 31.34 70 70z" stroke="#5e5e5e" stroke-width="2" fill="#fff"/><use xlink:href="#b" transform="matrix(1,0,0,1,1063.5,705) translate(15.677777777777813 69.16805555555554)"/><path d="M510.8 770H657" stroke="#5e5e5e" stroke-width="3" fill="none"/><path d="M510.82 768.5v3h-1.53v-3zM658.5 768.5v3h-1.54v-3z" fill="#5e5e5e"/><path d="M961.5 770h75.38M961.54 770H960" stroke="#5e5e5e" stroke-width="3" fill="none"/><path d="M1052.65 770l-14.27 4.64v-9.28z" stroke="#5e5e5e" stroke-width="3" fill="#5e5e5e"/><path d="M300 366c0-3.3 2.7-6 6-6h288c3.3 0 6 2.7 6 6v128c0 3.3-2.7 6-6 6H306c-3.3 0-6-2.7-6-6z" stroke="#5e5e5e" stroke-width="3" fill="#c1e4f7" fill-opacity=".5"/><path d="M351.05 383.58l18.14 13.15v3.55c0 9.3-8.13 16.84-18.15 16.84-10 0-18.14-7.55-18.14-16.84v-3.55zM361.4 421.8c11.48 0 20.74 6.45 20.74 16.95V460H370.2v-14.9h-2.04V460h-33.8v-14.9h-2.06V460H320v-21.25c0-10.5 9.26-16.96 20.76-16.96z" fill="#447e73"/><path d="M351.04 380c9.93.07 17.93 7.62 17.85 16.84-.08 9.22-8.2 16.63-18.15 16.57-9.86-.06-17.82-7.48-17.86-16.66 0-9.26 8.13-16.74 18.1-16.74h.04zM361.4 418.24c11.48 0 20.74 6.46 20.74 16.96v21.24H370.2V441.5h-2.04v14.94h-33.8V441.5h-2.06v14.94H320V435.2c0-10.5 9.26-16.96 20.76-16.96z" fill="#99d5ca"/><use xlink:href="#c" transform="matrix(1,0,0,1,320,460.00000000000006) translate(25.944444444444446 15.999999999999998)"/><path d="M451.05 383.58l18.14 13.15v3.55c0 9.3-8.13 16.84-18.15 16.84-10 0-18.14-7.55-18.14-16.84v-3.55zM461.4 421.8c11.48 0 20.74 6.45 20.74 16.95V460H470.2v-14.9h-2.04V460h-33.8v-14.9h-2.06V460H420v-21.25c0-10.5 9.26-16.96 20.76-16.96z" fill="#447e73"/><path d="M451.04 380c9.93.07 17.93 7.62 17.85 16.84-.08 9.22-8.2 16.63-18.15 16.57-9.86-.06-17.82-7.48-17.86-16.66 0-9.26 8.13-16.74 18.1-16.74h.04zM461.4 418.24c11.48 0 20.74 6.46 20.74 16.96v21.24H470.2V441.5h-2.04v14.94h-33.8V441.5h-2.06v14.94H420V435.2c0-10.5 9.26-16.96 20.76-16.96z" fill="#99d5ca"/><use xlink:href="#d" transform="matrix(1,0,0,1,420.0000000000001,460.00000000000006) translate(25.944444444444446 15.999999999999998)"/><path d="M551.05 383.58l18.14 13.15v3.55c0 9.3-8.13 16.84-18.15 16.84-10 0-18.14-7.55-18.14-16.84v-3.55zM561.4 421.8c11.48 0 20.74 6.45 20.74 16.95V460H570.2v-14.9h-2.04V460h-33.8v-14.9h-2.06V460H520v-21.25c0-10.5 9.26-16.96 20.76-16.96z" fill="#447e73"/><path d="M551.04 380c9.93.07 17.93 7.62 17.85 16.84-.08 9.22-8.2 16.63-18.15 16.57-9.86-.06-17.82-7.48-17.86-16.66 0-9.26 8.13-16.74 18.1-16.74h.04zM561.4 418.24c11.48 0 20.74 6.46 20.74 16.96v21.24H570.2V441.5h-2.04v14.94h-33.8V441.5h-2.06v14.94H520V435.2c0-10.5 9.26-16.96 20.76-16.96z" fill="#99d5ca"/><use xlink:href="#e" transform="matrix(1,0,0,1,520.0000000000001,460.00000000000006) translate(25.944444444444446 15.999999999999998)"/><path d="M450 299.5l-.78-.3c-.3-.1-7.56-2.85-14.82-11.66-4.56-5.6-7.56-11.2-9.9-18.17-3.3-10.04-4.62-19-4.5-29.58v-2.47h2.34c2.04 0 5.94-.7 7.44-2.37 2.16-2.3 2.58-6.6 2.58-6.67l.12-1.62 1.38-.54c5.46-2.14 10.32-3.14 16.14-3.3 5.76.24 10.62 1.23 16.08 3.23l1.44.6.12 1.54s.36 4.3 2.58 6.68c1.44 1.53 5.7 2.22 7.5 2.3l2.28.15v2.38c.12 10.6-1.2 19.63-4.5 29.67-2.34 7.06-5.34 12.57-9.9 18.25-7.26 8.73-14.52 11.5-14.82 11.57z" fill="#056350"/><path d="M450 296.65l-.78-.3c-.3-.08-7.56-2.84-14.82-11.66-4.56-5.6-7.56-11.2-9.9-18.17-3.3-10.04-4.62-19-4.5-29.6v-2.52h2.34c2.04 0 5.94-.68 7.44-2.3 2.16-2.3 2.58-6.66 2.58-6.73l.12-1.54 1.38-.6c5.46-2.08 10.32-3.08 16.14-3.23 5.76.23 10.62 1.23 16.08 3.22l1.44.6.12 1.55s.36 4.3 2.58 6.66c1.44 1.54 5.7 2.23 7.5 2.3l2.28.16v2.36c.12 10.58-1.2 19.63-4.5 29.67-2.34 7.05-5.34 12.57-9.9 18.24-7.26 8.82-14.52 11.5-14.82 11.65z" fill="#5abaa7"/><path d="M450 290.32l-.9-.45c-4.7-2.37-8.32-5.32-11.7-9.6-7.58-9.38-11.8-22.9-12.14-39v-2.05l1.93-.26c2.82-.38 5.05-1.35 6.24-2.63 1.48-1.8 2.33-3.72 2.72-6.1l.2-1.27 1.24-.45c4.22-1.47 8-2.17 12.45-2.3 4.46.13 8.18.83 12.44 2.3l1.23.4.25 1.34c.35 2.37 1.2 4.3 2.73 6.1 1.1 1.15 3.33 2.04 6.2 2.43l1.94.32v2.04c-.35 16.1-4.56 29.7-12.2 39.12-3.32 4.3-6.94 7.24-11.65 9.68zm-20.33-47.2c.6 14.18 4.36 25.9 11.06 34.12 2.72 3.46 5.55 5.9 9.27 8.02 3.72-2.12 6.6-4.56 9.32-8.02 6.64-8.2 10.46-20 11.06-34.24-2.63-.45-4.76-1.54-6.8-3.46-1.83-2.05-2.97-4.3-3.62-7.05-3.42-1.1-6.4-1.62-9.96-1.68-3.52.06-6.55.58-9.92 1.67-.64 2.8-1.78 5.05-3.62 7.1-2.03 1.93-4.16 3.08-6.8 3.53z" fill="#fff"/><path d="M458.87 252.4v-7.07c-.5-4.33-3.63-7.65-7.72-8.17-4.87-.62-9.27 3.03-9.9 8.17v7.07h-4.53v15.67h26.56V252.4zm-4.35 0h-9v-7.07c.02-2.4 1.88-4.33 4.16-4.3h.35c2.36-.1 4.38 1.8 4.54 4.3z" fill="#056350"/><path d="M660 586c0-3.3 2.7-6 6-6h288c3.3 0 6 2.7 6 6v368c0 3.3-2.7 6-6 6H666c-3.3 0-6-2.7-6-6z" stroke="#5e5e5e" stroke-width="3" fill="#c1e4f7" fill-opacity=".5"/><path d="M300 306c0-3.3 2.7-6 6-6h288c3.3 0 6 2.7 6 6v48c0 3.3-2.7 6-6 6H306c-3.3 0-6-2.7-6-6z" stroke="#000" stroke-opacity="0" stroke-width="3" fill="#fff" fill-opacity="0"/><use xlink:href="#f" transform="matrix(1,0,0,1,305,305.00000000000006) translate(63.67283950617285 30.27777777777778)"/><use xlink:href="#g" transform="matrix(1,0,0,1,305,305.00000000000006) translate(162.3148148148148 30.27777777777778)"/><path d="M711.05 603.58l18.14 13.15v3.55c0 9.3-8.13 16.84-18.15 16.84-10 0-18.14-7.55-18.14-16.84v-3.55zM721.4 641.8c11.48 0 20.74 6.45 20.74 16.95V680H730.2v-14.9h-2.04V680h-33.8v-14.9h-2.06V680H680v-21.25c0-10.5 9.26-16.96 20.76-16.96z" fill="#447e73"/><path d="M711.04 600c9.93.07 17.93 7.62 17.85 16.84-.08 9.22-8.2 16.63-18.15 16.57-9.86-.06-17.82-7.48-17.86-16.66 0-9.26 8.13-16.74 18.1-16.74h.04zM721.4 638.24c11.48 0 20.74 6.46 20.74 16.96v21.24H730.2V661.5h-2.04v14.94h-33.8V661.5h-2.06v14.94H680V655.2c0-10.5 9.26-16.96 20.76-16.96z" fill="#99d5ca"/><use xlink:href="#c" transform="matrix(1,0,0,1,679.9999999999999,680) translate(25.944444444444446 15.999999999999998)"/><path d="M811.05 603.58l18.14 13.15v3.55c0 9.3-8.13 16.84-18.15 16.84-10 0-18.14-7.55-18.14-16.84v-3.55zM821.4 641.8c11.48 0 20.74 6.45 20.74 16.95V680H830.2v-14.9h-2.04V680h-33.8v-14.9h-2.06V680H780v-21.25c0-10.5 9.26-16.96 20.76-16.96z" fill="#447e73"/><path d="M811.04 600c9.93.07 17.93 7.62 17.85 16.84-.08 9.22-8.2 16.63-18.15 16.57-9.86-.06-17.82-7.48-17.86-16.66 0-9.26 8.13-16.74 18.1-16.74h.04zM821.4 638.24c11.48 0 20.74 6.46 20.74 16.96v21.24H830.2V661.5h-2.04v14.94h-33.8V661.5h-2.06v14.94H780V655.2c0-10.5 9.26-16.96 20.76-16.96z" fill="#99d5ca"/><use xlink:href="#d" transform="matrix(1,0,0,1,780.0000000000001,680) translate(25.944444444444446 15.999999999999998)"/><path d="M911.05 603.58l18.14 13.15v3.55c0 9.3-8.13 16.84-18.15 16.84-10 0-18.14-7.55-18.14-16.84v-3.55zM921.4 641.8c11.48 0 20.74 6.45 20.74 16.95V680H930.2v-14.9h-2.04V680h-33.8v-14.9h-2.06V680H880v-21.25c0-10.5 9.26-16.96 20.76-16.96z" fill="#447e73"/><path d="M911.04 600c9.93.07 17.93 7.62 17.85 16.84-.08 9.22-8.2 16.63-18.15 16.57-9.86-.06-17.82-7.48-17.86-16.66 0-9.26 8.13-16.74 18.1-16.74h.04zM921.4 638.24c11.48 0 20.74 6.46 20.74 16.96v21.24H930.2V661.5h-2.04v14.94h-33.8V661.5h-2.06v14.94H880V655.2c0-10.5 9.26-16.96 20.76-16.96z" fill="#99d5ca"/><use xlink:href="#e" transform="matrix(1,0,0,1,880.0000000000001,680) translate(25.944444444444446 15.999999999999998)"/><path d="M759.98 723.58l18.14 13.15v3.55c0 9.3-8.13 16.84-18.14 16.84-10 0-18.14-7.55-18.14-16.84v-3.55zM770.32 761.8c11.5 0 20.75 6.45 20.75 16.95V800h-11.93v-14.9h-2.05V800h-33.82v-14.9h-2.05V800h-12.3v-21.25c0-10.5 9.26-16.96 20.75-16.96z" fill="#7d7c7c"/><path d="M759.97 720c9.93.07 17.92 7.62 17.85 16.84-.07 9.22-8.2 16.63-18.14 16.57-9.86-.06-17.82-7.48-17.86-16.66 0-9.26 8.14-16.74 18.1-16.74h.05zM770.32 758.24c11.5 0 20.75 6.46 20.75 16.96v21.24h-11.93V781.5h-2.05v14.94h-33.82V781.5h-2.05v14.94h-12.3V775.2c0-10.5 9.26-16.96 20.75-16.96z" fill="#d2d3d3"/><use xlink:href="#h" transform="matrix(1,0,0,1,728.9285714285714,800) translate(25.944444444444446 15.999999999999998)"/><path d="M851.05 723.58l18.14 13.15v3.55c0 9.3-8.13 16.84-18.15 16.84-10 0-18.14-7.55-18.14-16.84v-3.55zM861.4 761.8c11.48 0 20.74 6.45 20.74 16.95V800H870.2v-14.9h-2.04V800h-33.8v-14.9h-2.06V800H820v-21.25c0-10.5 9.26-16.96 20.76-16.96z" fill="#7d7c7c"/><path d="M851.04 720c9.93.07 17.93 7.62 17.85 16.84-.08 9.22-8.2 16.63-18.15 16.57-9.86-.06-17.82-7.48-17.86-16.66 0-9.26 8.13-16.74 18.1-16.74h.04zM861.4 758.24c11.48 0 20.74 6.46 20.74 16.96v21.24H870.2V781.5h-2.04v14.94h-33.8V781.5h-2.06v14.94H820V775.2c0-10.5 9.26-16.96 20.76-16.96z" fill="#d2d3d3"/><use xlink:href="#i" transform="matrix(1,0,0,1,820.0000000000001,800) translate(25.944444444444446 15.999999999999998)"/><path d="M759.98 843.58l18.14 13.15v3.55c0 9.3-8.13 16.84-18.14 16.84-10 0-18.14-7.55-18.14-16.84v-3.55zM770.32 881.8c11.5 0 20.75 6.45 20.75 16.95V920h-11.93v-14.9h-2.05V920h-33.82v-14.9h-2.05V920h-12.3v-21.25c0-10.5 9.26-16.96 20.75-16.96z" fill="#7d7c7c"/><path d="M759.97 840c9.93.07 17.92 7.62 17.85 16.84-.07 9.22-8.2 16.63-18.14 16.57-9.86-.06-17.82-7.48-17.86-16.66 0-9.26 8.14-16.74 18.1-16.74h.05zM770.32 878.24c11.5 0 20.75 6.46 20.75 16.96v21.24h-11.93V901.5h-2.05v14.94h-33.82V901.5h-2.05v14.94h-12.3V895.2c0-10.5 9.26-16.96 20.75-16.96z" fill="#d2d3d3"/><use xlink:href="#j" transform="matrix(1,0,0,1,728.9285714285714,920) translate(25.944444444444446 15.999999999999998)"/><path d="M851.05 843.58l18.14 13.15v3.55c0 9.3-8.13 16.84-18.15 16.84-10 0-18.14-7.55-18.14-16.84v-3.55zM861.4 881.8c11.48 0 20.74 6.45 20.74 16.95V920H870.2v-14.9h-2.04V920h-33.8v-14.9h-2.06V920H820v-21.25c0-10.5 9.26-16.96 20.76-16.96z" fill="#7d7c7c"/><path d="M851.04 840c9.93.07 17.93 7.62 17.85 16.84-.08 9.22-8.2 16.63-18.15 16.57-9.86-.06-17.82-7.48-17.86-16.66 0-9.26 8.13-16.74 18.1-16.74h.04zM861.4 878.24c11.48 0 20.74 6.46 20.74 16.96v21.24H870.2V901.5h-2.04v14.94h-33.8V901.5h-2.06v14.94H820V895.2c0-10.5 9.26-16.96 20.76-16.96z" fill="#d2d3d3"/><use xlink:href="#k" transform="matrix(1,0,0,1,820.0000000000001,920) translate(25.944444444444446 15.999999999999998)"/><path d="M660 526c0-3.3 2.7-6 6-6h288c3.3 0 6 2.7 6 6v48c0 3.3-2.7 6-6 6H666c-3.3 0-6-2.7-6-6z" stroke="#000" stroke-opacity="0" stroke-width="3" fill="#fff" fill-opacity="0"/><use xlink:href="#l" transform="matrix(1,0,0,1,665,525) translate(79.69135802469135 30.27777777777778)"/><defs><path fill="#333" d="M182-130c37 4 62 22 62 59C244 23 116-4 24 0v-248c84 5 203-23 205 63 0 31-19 50-47 55zM76-148c40-3 101 13 101-30 0-44-60-28-101-31v61zm0 110c48-3 116 14 116-37 0-48-69-32-116-35v72" id="m"/><path fill="#333" d="M85 4C-2 5 27-109 22-190h50c7 57-23 150 33 157 60-5 35-97 40-157h50l1 190h-47c-2-12 1-28-3-38-12 25-28 42-61 42" id="n"/><path fill="#333" d="M88-194c31-1 46 15 58 34l-1-101h50l1 261h-48c-2-10 0-23-3-31C134-8 116 4 84 4 32 4 16-41 15-95c0-56 19-97 73-99zm17 164c33 0 40-30 41-66 1-37-9-64-41-64s-38 30-39 65c0 43 13 65 39 65" id="o"/><path fill="#333" d="M195-6C206 82 75 100 31 46c-4-6-6-13-8-21l49-6c3 16 16 24 34 25 40 0 42-37 40-79-11 22-30 35-61 35-53 0-70-43-70-97 0-56 18-96 73-97 30 0 46 14 59 34l2-30h47zm-90-29c32 0 41-27 41-63 0-35-9-62-40-62-32 0-39 29-40 63 0 36 9 62 39 62" id="p"/><path fill="#333" d="M185-48c-13 30-37 53-82 52C43 2 14-33 14-96s30-98 90-98c62 0 83 45 84 108H66c0 31 8 55 39 56 18 0 30-7 34-22zm-45-69c5-46-57-63-70-21-2 6-4 13-4 21h74" id="q"/><path fill="#333" d="M115-3C79 11 28 4 28-45v-112H4v-33h27l15-45h31v45h36v33H77v99c-1 23 16 31 38 25v30" id="r"/><g id="a"><use transform="matrix(0.06172839506172839,0,0,0.06172839506172839,0,0)" xlink:href="#m"/><use transform="matrix(0.06172839506172839,0,0,0.06172839506172839,15.987654320987653,0)" xlink:href="#n"/><use transform="matrix(0.06172839506172839,0,0,0.06172839506172839,29.50617283950617,0)" xlink:href="#o"/><use transform="matrix(0.06172839506172839,0,0,0.06172839506172839,43.02469135802469,0)" xlink:href="#p"/><use transform="matrix(0.06172839506172839,0,0,0.06172839506172839,56.54320987654321,0)" xlink:href="#q"/><use transform="matrix(0.06172839506172839,0,0,0.06172839506172839,68.88888888888889,0)" xlink:href="#r"/></g><path d="M24-248c93 1 206-16 204 79-1 75-69 88-152 82V0H24v-248zm52 121c47 0 100 7 100-41 0-47-54-39-100-39v80" id="s"/><path d="M135-150c-39-12-60 13-60 57V0H25l-1-190h47c2 13-1 29 3 40 6-28 27-53 61-41v41" id="t"/><path d="M110-194c64 0 96 36 96 99 0 64-35 99-97 99-61 0-95-36-95-99 0-62 34-99 96-99zm-1 164c35 0 45-28 45-65 0-40-10-65-43-65-34 0-45 26-45 65 0 36 10 65 43 65" id="u"/><path d="M135-194c53 0 70 44 70 98 0 56-19 98-73 100-31 1-45-17-59-34 3 33 2 69 2 105H25l-1-265h48c2 10 0 23 3 31 11-24 29-35 60-35zM114-30c33 0 39-31 40-66 0-38-9-64-40-64-56 0-55 130 0 130" id="v"/><path d="M137-138c1-29-70-34-71-4 15 46 118 7 119 86 1 83-164 76-172 9l43-7c4 19 20 25 44 25 33 8 57-30 24-41C81-84 22-81 20-136c-2-80 154-74 161-7" id="w"/><path d="M133-34C117-15 103 5 69 4 32 3 11-16 11-54c-1-60 55-63 116-61 1-26-3-47-28-47-18 1-26 9-28 27l-52-2c7-38 36-58 82-57s74 22 75 68l1 82c-1 14 12 18 25 15v27c-30 8-71 5-69-32zm-48 3c29 0 43-24 42-57-32 0-66-3-65 30 0 17 8 27 23 27" id="x"/><path d="M25 0v-261h50V0H25" id="y"/><g id="b"><use transform="matrix(0.05679012345679008,0,0,0.05679012345679008,0,0)" xlink:href="#s"/><use transform="matrix(0.05679012345679008,0,0,0.05679012345679008,13.629629629629619,0)" xlink:href="#t"/><use transform="matrix(0.05679012345679008,0,0,0.05679012345679008,21.580246913580233,0)" xlink:href="#u"/><use transform="matrix(0.05679012345679008,0,0,0.05679012345679008,34.01728395061726,0)" xlink:href="#v"/><use transform="matrix(0.05679012345679008,0,0,0.05679012345679008,46.45432098765429,0)" xlink:href="#u"/><use transform="matrix(0.05679012345679008,0,0,0.05679012345679008,58.891358024691314,0)" xlink:href="#w"/><use transform="matrix(0.05679012345679008,0,0,0.05679012345679008,70.24938271604934,0)" xlink:href="#x"/><use transform="matrix(0.05679012345679008,0,0,0.05679012345679008,81.60740740740735,0)" xlink:href="#y"/><use transform="matrix(0.05679012345679008,0,0,0.05679012345679008,87.28641975308636,0)" xlink:href="#w"/></g><path fill="#333" d="M23 0v-37h61v-169l-59 37v-38l62-41h46v211h57V0H23" id="z"/><use transform="matrix(0.055555555555555546,0,0,0.055555555555555546,0,0)" xlink:href="#z" id="c"/><path fill="#333" d="M182-182c0 78-84 86-111 141h115V0H12c-6-101 99-100 120-180 1-22-12-31-33-32-23 0-32 14-35 34l-49-3c5-45 32-70 84-70 51 0 83 22 83 69" id="A"/><use transform="matrix(0.055555555555555546,0,0,0.055555555555555546,0,0)" xlink:href="#A" id="d"/><path fill="#333" d="M128-127c34 4 56 21 59 58 7 91-148 94-172 28-4-9-6-17-7-26l51-5c1 24 16 35 40 36 23 0 39-12 38-36-1-31-31-36-65-34v-40c32 2 59-3 59-33 0-20-13-33-34-33s-33 13-35 32l-50-3c6-44 37-68 86-68 50 0 83 20 83 66 0 35-22 52-53 58" id="B"/><use transform="matrix(0.055555555555555546,0,0,0.055555555555555546,0,0)" xlink:href="#B" id="e"/><path fill="#333" d="M136-208V0H84v-208H4v-40h212v40h-80" id="C"/><path fill="#333" d="M135-150c-39-12-60 13-60 57V0H25l-1-190h47c2 13-1 29 3 40 6-28 27-53 61-41v41" id="D"/><path fill="#333" d="M133-34C117-15 103 5 69 4 32 3 11-16 11-54c-1-60 55-63 116-61 1-26-3-47-28-47-18 1-26 9-28 27l-52-2c7-38 36-58 82-57s74 22 75 68l1 82c-1 14 12 18 25 15v27c-30 8-71 5-69-32zm-48 3c29 0 43-24 42-57-32 0-66-3-65 30 0 17 8 27 23 27" id="E"/><path fill="#333" d="M137-138c1-29-70-34-71-4 15 46 118 7 119 86 1 83-164 76-172 9l43-7c4 19 20 25 44 25 33 8 57-30 24-41C81-84 22-81 20-136c-2-80 154-74 161-7" id="F"/><path fill="#333" d="M123 10C108 53 80 86 19 72V37c35 8 53-11 59-39L3-190h52l48 148c12-52 28-100 44-148h51" id="G"/><g id="f"><use transform="matrix(0.06172839506172839,0,0,0.06172839506172839,0,0)" xlink:href="#C"/><use transform="matrix(0.06172839506172839,0,0,0.06172839506172839,12.28395061728395,0)" xlink:href="#D"/><use transform="matrix(0.06172839506172839,0,0,0.06172839506172839,20.925925925925924,0)" xlink:href="#q"/><use transform="matrix(0.06172839506172839,0,0,0.06172839506172839,33.2716049382716,0)" xlink:href="#E"/><use transform="matrix(0.06172839506172839,0,0,0.06172839506172839,45.61728395061728,0)" xlink:href="#F"/><use transform="matrix(0.06172839506172839,0,0,0.06172839506172839,57.962962962962955,0)" xlink:href="#n"/><use transform="matrix(0.06172839506172839,0,0,0.06172839506172839,71.48148148148147,0)" xlink:href="#D"/><use transform="matrix(0.06172839506172839,0,0,0.06172839506172839,80.12345679012344,0)" xlink:href="#G"/></g><path fill="#333" d="M110-194c64 0 96 36 96 99 0 64-35 99-97 99-61 0-95-36-95-99 0-62 34-99 96-99zm-1 164c35 0 45-28 45-65 0-40-10-65-43-65-34 0-45 26-45 65 0 36 10 65 43 65" id="H"/><g id="g"><use transform="matrix(0.06172839506172839,0,0,0.06172839506172839,0,0)" xlink:href="#m"/><use transform="matrix(0.06172839506172839,0,0,0.06172839506172839,15.987654320987653,0)" xlink:href="#H"/><use transform="matrix(0.06172839506172839,0,0,0.06172839506172839,29.50617283950617,0)" xlink:href="#E"/><use transform="matrix(0.06172839506172839,0,0,0.06172839506172839,41.85185185185185,0)" xlink:href="#D"/><use transform="matrix(0.06172839506172839,0,0,0.06172839506172839,50.49382716049382,0)" xlink:href="#o"/></g><path fill="#333" d="M165-50V0h-47v-50H5v-38l105-160h55v161h33v37h-33zm-47-37l2-116L46-87h72" id="I"/><use transform="matrix(0.055555555555555546,0,0,0.055555555555555546,0,0)" xlink:href="#I" id="h"/><path fill="#333" d="M139-81c0-46-55-55-73-27H18l9-140h149v37H72l-4 63c44-38 133-4 122 66C201 21 21 35 11-62l49-4c5 18 15 30 39 30 26 0 40-18 40-45" id="J"/><use transform="matrix(0.055555555555555546,0,0,0.055555555555555546,0,0)" xlink:href="#J" id="i"/><path fill="#333" d="M115-159c48 0 72 30 72 78 0 54-30 85-83 85-64 0-91-50-91-122 0-98 58-163 141-120 15 8 21 24 27 44l-47 6c-5-31-48-31-61-4-7 14-11 33-11 60 9-17 28-27 53-27zM102-35c24 0 36-20 36-45s-11-43-37-43c-23 0-36 14-36 38 0 27 11 50 37 50" id="K"/><use transform="matrix(0.055555555555555546,0,0,0.055555555555555546,0,0)" xlink:href="#K" id="j"/><path fill="#333" d="M52 0c1-96 47-148 87-207H15v-41h169v40c-36 62-79 113-81 208H52" id="L"/><use transform="matrix(0.055555555555555546,0,0,0.055555555555555546,0,0)" xlink:href="#L" id="k"/><path fill="#333" d="M67-125c0 54 23 88 75 88 28 0 53-7 68-21v-34h-60v-39h108v91C232-14 192 4 140 4 58 4 20-42 15-125 8-236 126-280 215-234c19 10 29 26 37 47l-47 15c-11-23-29-39-63-39-53 1-75 33-75 86" id="M"/><path fill="#333" d="M128 0H69L1-190h53L99-40l48-150h52" id="N"/><path fill="#333" d="M135-194c87-1 58 113 63 194h-50c-7-57 23-157-34-157-59 0-34 97-39 157H25l-1-190h47c2 12-1 28 3 38 12-26 28-41 61-42" id="O"/><path fill="#333" d="M220-157c-53 9-28 100-34 157h-49v-107c1-27-5-49-29-50C55-147 81-57 75 0H25l-1-190h47c2 12-1 28 3 38 10-53 101-56 108 0 13-22 24-43 59-42 82 1 51 116 57 194h-49v-107c-1-25-5-48-29-50" id="P"/><g id="l"><use transform="matrix(0.06172839506172839,0,0,0.06172839506172839,0,0)" xlink:href="#M"/><use transform="matrix(0.06172839506172839,0,0,0.06172839506172839,17.28395061728395,0)" xlink:href="#H"/><use transform="matrix(0.06172839506172839,0,0,0.06172839506172839,30.80246913580247,0)" xlink:href="#N"/><use transform="matrix(0.06172839506172839,0,0,0.06172839506172839,43.148148148148145,0)" xlink:href="#q"/><use transform="matrix(0.06172839506172839,0,0,0.06172839506172839,55.49382716049382,0)" xlink:href="#D"/><use transform="matrix(0.06172839506172839,0,0,0.06172839506172839,64.1358024691358,0)" xlink:href="#O"/><use transform="matrix(0.06172839506172839,0,0,0.06172839506172839,77.65432098765432,0)" xlink:href="#P"/><use transform="matrix(0.06172839506172839,0,0,0.06172839506172839,97.4074074074074,0)" xlink:href="#q"/><use transform="matrix(0.06172839506172839,0,0,0.06172839506172839,109.75308641975309,0)" xlink:href="#O"/><use transform="matrix(0.06172839506172839,0,0,0.06172839506172839,123.27160493827161,0)" xlink:href="#r"/></g></defs></g></svg>