<svg xmlns="http://www.w3.org/2000/svg" xmlns:xlink="http://www.w3.org/1999/xlink" xmlns:lucid="lucid" width="1100" height="400"><g transform="translate(-240 -60)" lucid:page-tab-id="0_0"><path d="M1060 100c0 11.05-8.95 20-20 20s-20-8.95-20-20 8.95-20 20-20 20 8.95 20 20zM980 100c0 11.05-8.95 20-20 20s-20-8.95-20-20 8.95-20 20-20 20 8.95 20 20zM1300 100c0 11.05-8.95 20-20 20s-20-8.95-20-20 8.95-20 20-20 20 8.95 20 20zM1220 100c0 11.05-8.95 20-20 20s-20-8.95-20-20 8.95-20 20-20 20 8.95 20 20z" stroke="#5e5e5e" fill="#e5e5e5"/><path d="M920 206c0-3.3 2.7-6 6-6h388c3.3 0 6 2.7 6 6v68c0 3.3-2.7 6-6 6H926c-3.3 0-6-2.7-6-6z" stroke="#5e5e5e" stroke-width="2" fill-opacity="0"/><path d="M1140 340c0 11.05-8.95 20-20 20s-20-8.95-20-20 8.95-20 20-20 20 8.95 20 20z" stroke="#5e5e5e" stroke-width="3" fill="#ff8f80"/><path d="M980 240c0 11.05-8.95 20-20 20s-20-8.95-20-20 8.95-20 20-20 20 8.95 20 20z" fill-opacity="0"/><path d="M981 240c0 .55-.45 1-1 1s-1-.45-1-1 .45-1 1-1 1 .45 1 1zm-.5 3.9c0 .54-.43 1-1 1-.54 0-1-.46-1-1 0-.56.46-1 1-1 .57 0 1 .44 1 1zm-1.16 3.7c0 .55-.45 1-1 1s-1-.45-1-1 .45-1 1-1 1 .45 1 1zm-1.83 3.43c0 .55-.43 1-1 1-.54 0-1-.45-1-1s.46-1 1-1c.57 0 1 .45 1 1zm-2.4 3.06c0 .54-.46 1-1 1-.56 0-1-.46-1-1 0-.57.44-1 1-1 .54 0 1 .43 1 1zm-3.02 2.5c0 .55-.44 1-1 1-.55 0-1-.45-1-1s.45-1 1-1c.56 0 1 .45 1 1zm-3.48 1.77c0 .55-.45 1-1 1s-1-.45-1-1 .45-1 1-1 1 .45 1 1zm-3.73 1.1c0 .55-.45 1-1 1s-1-.45-1-1 .45-1 1-1 1 .45 1 1zM961 260c0 .55-.45 1-1 1s-1-.45-1-1 .45-1 1-1 1 .45 1 1zm-3.9-.5c0 .57-.44 1-1 1-.54 0-1-.43-1-1 0-.54.46-1 1-1 .56 0 1 .46 1 1zm-3.7-1.16c0 .55-.45 1-1 1s-1-.45-1-1 .45-1 1-1 1 .45 1 1zm-3.43-1.83c0 .57-.45 1-1 1s-1-.43-1-1c0-.54.45-1 1-1s1 .46 1 1zm-3.06-2.4c0 .54-.43 1-1 1-.54 0-1-.46-1-1 0-.56.46-1 1-1 .57 0 1 .44 1 1zm-2.5-3.02c0 .56-.45 1-1 1s-1-.44-1-1c0-.55.45-1 1-1s1 .45 1 1zm-1.77-3.48c0 .55-.45 1-1 1s-1-.45-1-1 .45-1 1-1 1 .45 1 1zm-1.1-3.73c0 .55-.45 1-1 1s-1-.45-1-1 .45-1 1-1 1 .45 1 1zM941 240c0 .55-.45 1-1 1s-1-.45-1-1 .45-1 1-1 1 .45 1 1zm.5-3.9c0 .56-.46 1-1 1-.57 0-1-.44-1-1 0-.54.43-1 1-1 .54 0 1 .46 1 1zm1.16-3.7c0 .55-.45 1-1 1s-1-.45-1-1 .45-1 1-1 1 .45 1 1zm1.83-3.43c0 .55-.46 1-1 1-.57 0-1-.45-1-1s.43-1 1-1c.54 0 1 .45 1 1zm2.4-3.06c0 .57-.44 1-1 1-.54 0-1-.43-1-1 0-.54.46-1 1-1 .56 0 1 .46 1 1zm3.02-2.5c0 .55-.45 1-1 1-.56 0-1-.45-1-1s.44-1 1-1c.55 0 1 .45 1 1zm3.48-1.77c0 .55-.45 1-1 1s-1-.45-1-1 .45-1 1-1 1 .45 1 1zm3.73-1.1c0 .55-.45 1-1 1s-1-.45-1-1 .45-1 1-1 1 .45 1 1zM961 220c0 .55-.45 1-1 1s-1-.45-1-1 .45-1 1-1 1 .45 1 1zm3.9.5c0 .54-.46 1-1 1-.56 0-1-.46-1-1 0-.57.44-1 1-1 .54 0 1 .43 1 1zm3.7 1.16c0 .55-.45 1-1 1s-1-.45-1-1 .45-1 1-1 1 .45 1 1zm3.43 1.83c0 .54-.45 1-1 1s-1-.46-1-1c0-.57.45-1 1-1s1 .43 1 1zm3.06 2.4c0 .56-.46 1-1 1-.57 0-1-.44-1-1 0-.54.43-1 1-1 .54 0 1 .46 1 1zm2.5 3.02c0 .55-.45 1-1 1s-1-.45-1-1c0-.56.45-1 1-1s1 .44 1 1zm1.77 3.48c0 .55-.45 1-1 1s-1-.45-1-1 .45-1 1-1 1 .45 1 1zm1.1 3.73c0 .55-.45 1-1 1s-1-.45-1-1 .45-1 1-1 1 .45 1 1z" fill="#5e5e5e"/><path d="M1060 240c0 11.05-8.95 20-20 20s-20-8.95-20-20 8.95-20 20-20 20 8.95 20 20z" fill-opacity="0"/><path d="M1061 240c0 .55-.45 1-1 1s-1-.45-1-1 .45-1 1-1 1 .45 1 1zm-.5 3.9c0 .54-.43 1-1 1-.54 0-1-.46-1-1 0-.56.46-1 1-1 .57 0 1 .44 1 1zm-1.16 3.7c0 .55-.45 1-1 1s-1-.45-1-1 .45-1 1-1 1 .45 1 1zm-1.83 3.43c0 .55-.43 1-1 1-.54 0-1-.45-1-1s.46-1 1-1c.57 0 1 .45 1 1zm-2.4 3.06c0 .54-.46 1-1 1-.56 0-1-.46-1-1 0-.57.44-1 1-1 .54 0 1 .43 1 1zm-3.02 2.5c0 .55-.44 1-1 1-.55 0-1-.45-1-1s.45-1 1-1c.56 0 1 .45 1 1zm-3.48 1.77c0 .55-.45 1-1 1s-1-.45-1-1 .45-1 1-1 1 .45 1 1zm-3.73 1.1c0 .55-.45 1-1 1s-1-.45-1-1 .45-1 1-1 1 .45 1 1zm-3.87.53c0 .55-.45 1-1 1s-1-.45-1-1 .45-1 1-1 1 .45 1 1zm-3.9-.5c0 .57-.44 1-1 1-.54 0-1-.43-1-1 0-.54.46-1 1-1 .56 0 1 .46 1 1zm-3.7-1.16c0 .55-.45 1-1 1s-1-.45-1-1 .45-1 1-1 1 .45 1 1zm-3.43-1.83c0 .57-.45 1-1 1s-1-.43-1-1c0-.54.45-1 1-1s1 .46 1 1zm-3.06-2.4c0 .54-.43 1-1 1-.54 0-1-.46-1-1 0-.56.46-1 1-1 .57 0 1 .44 1 1zm-2.5-3.02c0 .56-.45 1-1 1s-1-.44-1-1c0-.55.45-1 1-1s1 .45 1 1zm-1.77-3.48c0 .55-.45 1-1 1s-1-.45-1-1 .45-1 1-1 1 .45 1 1zm-1.1-3.73c0 .55-.45 1-1 1s-1-.45-1-1 .45-1 1-1 1 .45 1 1zM1021 240c0 .55-.45 1-1 1s-1-.45-1-1 .45-1 1-1 1 .45 1 1zm.5-3.9c0 .56-.46 1-1 1-.57 0-1-.44-1-1 0-.54.43-1 1-1 .54 0 1 .46 1 1zm1.16-3.7c0 .55-.45 1-1 1s-1-.45-1-1 .45-1 1-1 1 .45 1 1zm1.83-3.43c0 .55-.46 1-1 1-.57 0-1-.45-1-1s.43-1 1-1c.54 0 1 .45 1 1zm2.4-3.06c0 .57-.44 1-1 1-.54 0-1-.43-1-1 0-.54.46-1 1-1 .56 0 1 .46 1 1zm3.02-2.5c0 .55-.45 1-1 1-.56 0-1-.45-1-1s.44-1 1-1c.55 0 1 .45 1 1zm3.48-1.77c0 .55-.45 1-1 1s-1-.45-1-1 .45-1 1-1 1 .45 1 1zm3.73-1.1c0 .55-.45 1-1 1s-1-.45-1-1 .45-1 1-1 1 .45 1 1zm3.87-.53c0 .55-.45 1-1 1s-1-.45-1-1 .45-1 1-1 1 .45 1 1zm3.9.5c0 .54-.46 1-1 1-.56 0-1-.46-1-1 0-.57.44-1 1-1 .54 0 1 .43 1 1zm3.7 1.16c0 .55-.45 1-1 1s-1-.45-1-1 .45-1 1-1 1 .45 1 1zm3.43 1.83c0 .54-.45 1-1 1s-1-.46-1-1c0-.57.45-1 1-1s1 .43 1 1zm3.06 2.4c0 .56-.46 1-1 1-.57 0-1-.44-1-1 0-.54.43-1 1-1 .54 0 1 .46 1 1zm2.5 3.02c0 .55-.45 1-1 1s-1-.45-1-1c0-.56.45-1 1-1s1 .44 1 1zm1.77 3.48c0 .55-.45 1-1 1s-1-.45-1-1 .45-1 1-1 1 .45 1 1zm1.1 3.73c0 .55-.45 1-1 1s-1-.45-1-1 .45-1 1-1 1 .45 1 1z" fill="#5e5e5e"/><path d="M1140 240c0 11.05-8.95 20-20 20s-20-8.95-20-20 8.95-20 20-20 20 8.95 20 20z" fill="#ff8f80"/><path d="M1141 240c0 .55-.45 1-1 1s-1-.45-1-1 .45-1 1-1 1 .45 1 1zm-.5 3.9c0 .54-.43 1-1 1-.54 0-1-.46-1-1 0-.56.46-1 1-1 .57 0 1 .44 1 1zm-1.16 3.7c0 .55-.45 1-1 1s-1-.45-1-1 .45-1 1-1 1 .45 1 1zm-1.83 3.43c0 .55-.43 1-1 1-.54 0-1-.45-1-1s.46-1 1-1c.57 0 1 .45 1 1zm-2.4 3.06c0 .54-.46 1-1 1-.56 0-1-.46-1-1 0-.57.44-1 1-1 .54 0 1 .43 1 1zm-3.02 2.5c0 .55-.44 1-1 1-.55 0-1-.45-1-1s.45-1 1-1c.56 0 1 .45 1 1zm-3.48 1.77c0 .55-.45 1-1 1s-1-.45-1-1 .45-1 1-1 1 .45 1 1zm-3.73 1.1c0 .55-.45 1-1 1s-1-.45-1-1 .45-1 1-1 1 .45 1 1zm-3.87.53c0 .55-.45 1-1 1s-1-.45-1-1 .45-1 1-1 1 .45 1 1zm-3.9-.5c0 .57-.44 1-1 1-.54 0-1-.43-1-1 0-.54.46-1 1-1 .56 0 1 .46 1 1zm-3.7-1.16c0 .55-.45 1-1 1s-1-.45-1-1 .45-1 1-1 1 .45 1 1zm-3.43-1.83c0 .57-.45 1-1 1s-1-.43-1-1c0-.54.45-1 1-1s1 .46 1 1zm-3.06-2.4c0 .54-.43 1-1 1-.54 0-1-.46-1-1 0-.56.46-1 1-1 .57 0 1 .44 1 1zm-2.5-3.02c0 .56-.45 1-1 1s-1-.44-1-1c0-.55.45-1 1-1s1 .45 1 1zm-1.77-3.48c0 .55-.45 1-1 1s-1-.45-1-1 .45-1 1-1 1 .45 1 1zm-1.1-3.73c0 .55-.45 1-1 1s-1-.45-1-1 .45-1 1-1 1 .45 1 1zM1101 240c0 .55-.45 1-1 1s-1-.45-1-1 .45-1 1-1 1 .45 1 1zm.5-3.9c0 .56-.46 1-1 1-.57 0-1-.44-1-1 0-.54.43-1 1-1 .54 0 1 .46 1 1zm1.16-3.7c0 .55-.45 1-1 1s-1-.45-1-1 .45-1 1-1 1 .45 1 1zm1.83-3.43c0 .55-.46 1-1 1-.57 0-1-.45-1-1s.43-1 1-1c.54 0 1 .45 1 1zm2.4-3.06c0 .57-.44 1-1 1-.54 0-1-.43-1-1 0-.54.46-1 1-1 .56 0 1 .46 1 1zm3.02-2.5c0 .55-.45 1-1 1-.56 0-1-.45-1-1s.44-1 1-1c.55 0 1 .45 1 1zm3.48-1.77c0 .55-.45 1-1 1s-1-.45-1-1 .45-1 1-1 1 .45 1 1zm3.73-1.1c0 .55-.45 1-1 1s-1-.45-1-1 .45-1 1-1 1 .45 1 1zm3.87-.53c0 .55-.45 1-1 1s-1-.45-1-1 .45-1 1-1 1 .45 1 1zm3.9.5c0 .54-.46 1-1 1-.56 0-1-.46-1-1 0-.57.44-1 1-1 .54 0 1 .43 1 1zm3.7 1.16c0 .55-.45 1-1 1s-1-.45-1-1 .45-1 1-1 1 .45 1 1zm3.43 1.83c0 .54-.45 1-1 1s-1-.46-1-1c0-.57.45-1 1-1s1 .43 1 1zm3.06 2.4c0 .56-.46 1-1 1-.57 0-1-.44-1-1 0-.54.43-1 1-1 .54 0 1 .46 1 1zm2.5 3.02c0 .55-.45 1-1 1s-1-.45-1-1c0-.56.45-1 1-1s1 .44 1 1zm1.77 3.48c0 .55-.45 1-1 1s-1-.45-1-1 .45-1 1-1 1 .45 1 1zm1.1 3.73c0 .55-.45 1-1 1s-1-.45-1-1 .45-1 1-1 1 .45 1 1z" fill="#5e5e5e"/><path d="M1220 240c0 11.05-8.95 20-20 20s-20-8.95-20-20 8.95-20 20-20 20 8.95 20 20z" fill-opacity="0"/><path d="M1221 240c0 .55-.45 1-1 1s-1-.45-1-1 .45-1 1-1 1 .45 1 1zm-.5 3.9c0 .54-.43 1-1 1-.54 0-1-.46-1-1 0-.56.46-1 1-1 .57 0 1 .44 1 1zm-1.16 3.7c0 .55-.45 1-1 1s-1-.45-1-1 .45-1 1-1 1 .45 1 1zm-1.83 3.43c0 .55-.43 1-1 1-.54 0-1-.45-1-1s.46-1 1-1c.57 0 1 .45 1 1zm-2.4 3.06c0 .54-.46 1-1 1-.56 0-1-.46-1-1 0-.57.44-1 1-1 .54 0 1 .43 1 1zm-3.02 2.5c0 .55-.44 1-1 1-.55 0-1-.45-1-1s.45-1 1-1c.56 0 1 .45 1 1zm-3.48 1.77c0 .55-.45 1-1 1s-1-.45-1-1 .45-1 1-1 1 .45 1 1zm-3.73 1.1c0 .55-.45 1-1 1s-1-.45-1-1 .45-1 1-1 1 .45 1 1zm-3.87.53c0 .55-.45 1-1 1s-1-.45-1-1 .45-1 1-1 1 .45 1 1zm-3.9-.5c0 .57-.44 1-1 1-.54 0-1-.43-1-1 0-.54.46-1 1-1 .56 0 1 .46 1 1zm-3.7-1.16c0 .55-.45 1-1 1s-1-.45-1-1 .45-1 1-1 1 .45 1 1zm-3.43-1.83c0 .57-.45 1-1 1s-1-.43-1-1c0-.54.45-1 1-1s1 .46 1 1zm-3.06-2.4c0 .54-.43 1-1 1-.54 0-1-.46-1-1 0-.56.46-1 1-1 .57 0 1 .44 1 1zm-2.5-3.02c0 .56-.45 1-1 1s-1-.44-1-1c0-.55.45-1 1-1s1 .45 1 1zm-1.77-3.48c0 .55-.45 1-1 1s-1-.45-1-1 .45-1 1-1 1 .45 1 1zm-1.1-3.73c0 .55-.45 1-1 1s-1-.45-1-1 .45-1 1-1 1 .45 1 1zM1181 240c0 .55-.45 1-1 1s-1-.45-1-1 .45-1 1-1 1 .45 1 1zm.5-3.9c0 .56-.46 1-1 1-.57 0-1-.44-1-1 0-.54.43-1 1-1 .54 0 1 .46 1 1zm1.16-3.7c0 .55-.45 1-1 1s-1-.45-1-1 .45-1 1-1 1 .45 1 1zm1.83-3.43c0 .55-.46 1-1 1-.57 0-1-.45-1-1s.43-1 1-1c.54 0 1 .45 1 1zm2.4-3.06c0 .57-.44 1-1 1-.54 0-1-.43-1-1 0-.54.46-1 1-1 .56 0 1 .46 1 1zm3.02-2.5c0 .55-.45 1-1 1-.56 0-1-.45-1-1s.44-1 1-1c.55 0 1 .45 1 1zm3.48-1.77c0 .55-.45 1-1 1s-1-.45-1-1 .45-1 1-1 1 .45 1 1zm3.73-1.1c0 .55-.45 1-1 1s-1-.45-1-1 .45-1 1-1 1 .45 1 1zm3.87-.53c0 .55-.45 1-1 1s-1-.45-1-1 .45-1 1-1 1 .45 1 1zm3.9.5c0 .54-.46 1-1 1-.56 0-1-.46-1-1 0-.57.44-1 1-1 .54 0 1 .43 1 1zm3.7 1.16c0 .55-.45 1-1 1s-1-.45-1-1 .45-1 1-1 1 .45 1 1zm3.43 1.83c0 .54-.45 1-1 1s-1-.46-1-1c0-.57.45-1 1-1s1 .43 1 1zm3.06 2.4c0 .56-.46 1-1 1-.57 0-1-.44-1-1 0-.54.43-1 1-1 .54 0 1 .46 1 1zm2.5 3.02c0 .55-.45 1-1 1s-1-.45-1-1c0-.56.45-1 1-1s1 .44 1 1zm1.77 3.48c0 .55-.45 1-1 1s-1-.45-1-1 .45-1 1-1 1 .45 1 1zm1.1 3.73c0 .55-.45 1-1 1s-1-.45-1-1 .45-1 1-1 1 .45 1 1z" fill="#5e5e5e"/><path d="M1300 240c0 11.05-8.95 20-20 20s-20-8.95-20-20 8.95-20 20-20 20 8.95 20 20z" fill-opacity="0"/><path d="M1301 240c0 .55-.45 1-1 1s-1-.45-1-1 .45-1 1-1 1 .45 1 1zm-.5 3.9c0 .54-.43 1-1 1-.54 0-1-.46-1-1 0-.56.46-1 1-1 .57 0 1 .44 1 1zm-1.16 3.7c0 .55-.45 1-1 1s-1-.45-1-1 .45-1 1-1 1 .45 1 1zm-1.83 3.43c0 .55-.43 1-1 1-.54 0-1-.45-1-1s.46-1 1-1c.57 0 1 .45 1 1zm-2.4 3.06c0 .54-.46 1-1 1-.56 0-1-.46-1-1 0-.57.44-1 1-1 .54 0 1 .43 1 1zm-3.02 2.5c0 .55-.44 1-1 1-.55 0-1-.45-1-1s.45-1 1-1c.56 0 1 .45 1 1zm-3.48 1.77c0 .55-.45 1-1 1s-1-.45-1-1 .45-1 1-1 1 .45 1 1zm-3.73 1.1c0 .55-.45 1-1 1s-1-.45-1-1 .45-1 1-1 1 .45 1 1zm-3.87.53c0 .55-.45 1-1 1s-1-.45-1-1 .45-1 1-1 1 .45 1 1zm-3.9-.5c0 .57-.44 1-1 1-.54 0-1-.43-1-1 0-.54.46-1 1-1 .56 0 1 .46 1 1zm-3.7-1.16c0 .55-.45 1-1 1s-1-.45-1-1 .45-1 1-1 1 .45 1 1zm-3.43-1.83c0 .57-.45 1-1 1s-1-.43-1-1c0-.54.45-1 1-1s1 .46 1 1zm-3.06-2.4c0 .54-.43 1-1 1-.54 0-1-.46-1-1 0-.56.46-1 1-1 .57 0 1 .44 1 1zm-2.5-3.02c0 .56-.45 1-1 1s-1-.44-1-1c0-.55.45-1 1-1s1 .45 1 1zm-1.77-3.48c0 .55-.45 1-1 1s-1-.45-1-1 .45-1 1-1 1 .45 1 1zm-1.1-3.73c0 .55-.45 1-1 1s-1-.45-1-1 .45-1 1-1 1 .45 1 1zM1261 240c0 .55-.45 1-1 1s-1-.45-1-1 .45-1 1-1 1 .45 1 1zm.5-3.9c0 .56-.46 1-1 1-.57 0-1-.44-1-1 0-.54.43-1 1-1 .54 0 1 .46 1 1zm1.16-3.7c0 .55-.45 1-1 1s-1-.45-1-1 .45-1 1-1 1 .45 1 1zm1.83-3.43c0 .55-.46 1-1 1-.57 0-1-.45-1-1s.43-1 1-1c.54 0 1 .45 1 1zm2.4-3.06c0 .57-.44 1-1 1-.54 0-1-.43-1-1 0-.54.46-1 1-1 .56 0 1 .46 1 1zm3.02-2.5c0 .55-.45 1-1 1-.56 0-1-.45-1-1s.44-1 1-1c.55 0 1 .45 1 1zm3.48-1.77c0 .55-.45 1-1 1s-1-.45-1-1 .45-1 1-1 1 .45 1 1zm3.73-1.1c0 .55-.45 1-1 1s-1-.45-1-1 .45-1 1-1 1 .45 1 1zm3.87-.53c0 .55-.45 1-1 1s-1-.45-1-1 .45-1 1-1 1 .45 1 1zm3.9.5c0 .54-.46 1-1 1-.56 0-1-.46-1-1 0-.57.44-1 1-1 .54 0 1 .43 1 1zm3.7 1.16c0 .55-.45 1-1 1s-1-.45-1-1 .45-1 1-1 1 .45 1 1zm3.43 1.83c0 .54-.45 1-1 1s-1-.46-1-1c0-.57.45-1 1-1s1 .43 1 1zm3.06 2.4c0 .56-.46 1-1 1-.57 0-1-.44-1-1 0-.54.43-1 1-1 .54 0 1 .46 1 1zm2.5 3.02c0 .55-.45 1-1 1s-1-.45-1-1c0-.56.45-1 1-1s1 .44 1 1zm1.77 3.48c0 .55-.45 1-1 1s-1-.45-1-1 .45-1 1-1 1 .45 1 1zm1.1 3.73c0 .55-.45 1-1 1s-1-.45-1-1 .45-1 1-1 1 .45 1 1z" fill="#5e5e5e"/><path d="M1120 317.5V262" stroke="#5e5e5e" stroke-width="2" fill="none"/><path d="M1121 318.6l-.93-.1-1.07.03v-1.06h2zM1119.96 261l1.04-.03v1.06h-2v-1.15z" fill="#5e5e5e"/><path d="M580 100c0 11.05-8.95 20-20 20s-20-8.95-20-20 8.95-20 20-20 20 8.95 20 20zM500 100c0 11.05-8.95 20-20 20s-20-8.95-20-20 8.95-20 20-20 20 8.95 20 20zM820 100c0 11.05-8.95 20-20 20s-20-8.95-20-20 8.95-20 20-20 20 8.95 20 20zM740 100c0 11.05-8.95 20-20 20s-20-8.95-20-20 8.95-20 20-20 20 8.95 20 20z" stroke="#5e5e5e" fill="#e5e5e5"/><path d="M440 206c0-3.3 2.7-6 6-6h388c3.3 0 6 2.7 6 6v68c0 3.3-2.7 6-6 6H446c-3.3 0-6-2.7-6-6z" stroke="#5e5e5e" stroke-width="2" fill-opacity="0"/><path d="M660 340c0 11.05-8.95 20-20 20s-20-8.95-20-20 8.95-20 20-20 20 8.95 20 20z" stroke="#5e5e5e" stroke-width="3" fill="#e5e5e5"/><path d="M500 240c0 11.05-8.95 20-20 20s-20-8.95-20-20 8.95-20 20-20 20 8.95 20 20z" fill-opacity="0"/><path d="M501 240c0 .55-.45 1-1 1s-1-.45-1-1 .45-1 1-1 1 .45 1 1zm-.5 3.9c0 .54-.43 1-1 1-.54 0-1-.46-1-1 0-.56.46-1 1-1 .57 0 1 .44 1 1zm-1.16 3.7c0 .55-.45 1-1 1s-1-.45-1-1 .45-1 1-1 1 .45 1 1zm-1.83 3.43c0 .55-.43 1-1 1-.54 0-1-.45-1-1s.46-1 1-1c.57 0 1 .45 1 1zm-2.4 3.06c0 .54-.46 1-1 1-.56 0-1-.46-1-1 0-.57.44-1 1-1 .54 0 1 .43 1 1zm-3.02 2.5c0 .55-.44 1-1 1-.55 0-1-.45-1-1s.45-1 1-1c.56 0 1 .45 1 1zm-3.48 1.77c0 .55-.45 1-1 1s-1-.45-1-1 .45-1 1-1 1 .45 1 1zm-3.73 1.1c0 .55-.45 1-1 1s-1-.45-1-1 .45-1 1-1 1 .45 1 1zM481 260c0 .55-.45 1-1 1s-1-.45-1-1 .45-1 1-1 1 .45 1 1zm-3.9-.5c0 .57-.44 1-1 1-.54 0-1-.43-1-1 0-.54.46-1 1-1 .56 0 1 .46 1 1zm-3.7-1.16c0 .55-.45 1-1 1s-1-.45-1-1 .45-1 1-1 1 .45 1 1zm-3.43-1.83c0 .57-.45 1-1 1s-1-.43-1-1c0-.54.45-1 1-1s1 .46 1 1zm-3.06-2.4c0 .54-.43 1-1 1-.54 0-1-.46-1-1 0-.56.46-1 1-1 .57 0 1 .44 1 1zm-2.5-3.02c0 .56-.45 1-1 1s-1-.44-1-1c0-.55.45-1 1-1s1 .45 1 1zm-1.77-3.48c0 .55-.45 1-1 1s-1-.45-1-1 .45-1 1-1 1 .45 1 1zm-1.1-3.73c0 .55-.45 1-1 1s-1-.45-1-1 .45-1 1-1 1 .45 1 1zM461 240c0 .55-.45 1-1 1s-1-.45-1-1 .45-1 1-1 1 .45 1 1zm.5-3.9c0 .56-.46 1-1 1-.57 0-1-.44-1-1 0-.54.43-1 1-1 .54 0 1 .46 1 1zm1.16-3.7c0 .55-.45 1-1 1s-1-.45-1-1 .45-1 1-1 1 .45 1 1zm1.83-3.43c0 .55-.46 1-1 1-.57 0-1-.45-1-1s.43-1 1-1c.54 0 1 .45 1 1zm2.4-3.06c0 .57-.44 1-1 1-.54 0-1-.43-1-1 0-.54.46-1 1-1 .56 0 1 .46 1 1zm3.02-2.5c0 .55-.45 1-1 1-.56 0-1-.45-1-1s.44-1 1-1c.55 0 1 .45 1 1zm3.48-1.77c0 .55-.45 1-1 1s-1-.45-1-1 .45-1 1-1 1 .45 1 1zm3.73-1.1c0 .55-.45 1-1 1s-1-.45-1-1 .45-1 1-1 1 .45 1 1zM481 220c0 .55-.45 1-1 1s-1-.45-1-1 .45-1 1-1 1 .45 1 1zm3.9.5c0 .54-.46 1-1 1-.56 0-1-.46-1-1 0-.57.44-1 1-1 .54 0 1 .43 1 1zm3.7 1.16c0 .55-.45 1-1 1s-1-.45-1-1 .45-1 1-1 1 .45 1 1zm3.43 1.83c0 .54-.45 1-1 1s-1-.46-1-1c0-.57.45-1 1-1s1 .43 1 1zm3.06 2.4c0 .56-.46 1-1 1-.57 0-1-.44-1-1 0-.54.43-1 1-1 .54 0 1 .46 1 1zm2.5 3.02c0 .55-.45 1-1 1s-1-.45-1-1c0-.56.45-1 1-1s1 .44 1 1zm1.77 3.48c0 .55-.45 1-1 1s-1-.45-1-1 .45-1 1-1 1 .45 1 1zm1.1 3.73c0 .55-.45 1-1 1s-1-.45-1-1 .45-1 1-1 1 .45 1 1z" fill="#5e5e5e"/><path d="M580 240c0 11.05-8.95 20-20 20s-20-8.95-20-20 8.95-20 20-20 20 8.95 20 20z" fill-opacity="0"/><path d="M581 240c0 .55-.45 1-1 1s-1-.45-1-1 .45-1 1-1 1 .45 1 1zm-.5 3.9c0 .54-.43 1-1 1-.54 0-1-.46-1-1 0-.56.46-1 1-1 .57 0 1 .44 1 1zm-1.16 3.7c0 .55-.45 1-1 1s-1-.45-1-1 .45-1 1-1 1 .45 1 1zm-1.83 3.43c0 .55-.43 1-1 1-.54 0-1-.45-1-1s.46-1 1-1c.57 0 1 .45 1 1zm-2.4 3.06c0 .54-.46 1-1 1-.56 0-1-.46-1-1 0-.57.44-1 1-1 .54 0 1 .43 1 1zm-3.02 2.5c0 .55-.44 1-1 1-.55 0-1-.45-1-1s.45-1 1-1c.56 0 1 .45 1 1zm-3.48 1.77c0 .55-.45 1-1 1s-1-.45-1-1 .45-1 1-1 1 .45 1 1zm-3.73 1.1c0 .55-.45 1-1 1s-1-.45-1-1 .45-1 1-1 1 .45 1 1zM561 260c0 .55-.45 1-1 1s-1-.45-1-1 .45-1 1-1 1 .45 1 1zm-3.9-.5c0 .57-.44 1-1 1-.54 0-1-.43-1-1 0-.54.46-1 1-1 .56 0 1 .46 1 1zm-3.7-1.16c0 .55-.45 1-1 1s-1-.45-1-1 .45-1 1-1 1 .45 1 1zm-3.43-1.83c0 .57-.45 1-1 1s-1-.43-1-1c0-.54.45-1 1-1s1 .46 1 1zm-3.06-2.4c0 .54-.43 1-1 1-.54 0-1-.46-1-1 0-.56.46-1 1-1 .57 0 1 .44 1 1zm-2.5-3.02c0 .56-.45 1-1 1s-1-.44-1-1c0-.55.45-1 1-1s1 .45 1 1zm-1.77-3.48c0 .55-.45 1-1 1s-1-.45-1-1 .45-1 1-1 1 .45 1 1zm-1.1-3.73c0 .55-.45 1-1 1s-1-.45-1-1 .45-1 1-1 1 .45 1 1zM541 240c0 .55-.45 1-1 1s-1-.45-1-1 .45-1 1-1 1 .45 1 1zm.5-3.9c0 .56-.46 1-1 1-.57 0-1-.44-1-1 0-.54.43-1 1-1 .54 0 1 .46 1 1zm1.16-3.7c0 .55-.45 1-1 1s-1-.45-1-1 .45-1 1-1 1 .45 1 1zm1.83-3.43c0 .55-.46 1-1 1-.57 0-1-.45-1-1s.43-1 1-1c.54 0 1 .45 1 1zm2.4-3.06c0 .57-.44 1-1 1-.54 0-1-.43-1-1 0-.54.46-1 1-1 .56 0 1 .46 1 1zm3.02-2.5c0 .55-.45 1-1 1-.56 0-1-.45-1-1s.44-1 1-1c.55 0 1 .45 1 1zm3.48-1.77c0 .55-.45 1-1 1s-1-.45-1-1 .45-1 1-1 1 .45 1 1zm3.73-1.1c0 .55-.45 1-1 1s-1-.45-1-1 .45-1 1-1 1 .45 1 1zM561 220c0 .55-.45 1-1 1s-1-.45-1-1 .45-1 1-1 1 .45 1 1zm3.9.5c0 .54-.46 1-1 1-.56 0-1-.46-1-1 0-.57.44-1 1-1 .54 0 1 .43 1 1zm3.7 1.16c0 .55-.45 1-1 1s-1-.45-1-1 .45-1 1-1 1 .45 1 1zm3.43 1.83c0 .54-.45 1-1 1s-1-.46-1-1c0-.57.45-1 1-1s1 .43 1 1zm3.06 2.4c0 .56-.46 1-1 1-.57 0-1-.44-1-1 0-.54.43-1 1-1 .54 0 1 .46 1 1zm2.5 3.02c0 .55-.45 1-1 1s-1-.45-1-1c0-.56.45-1 1-1s1 .44 1 1zm1.77 3.48c0 .55-.45 1-1 1s-1-.45-1-1 .45-1 1-1 1 .45 1 1zm1.1 3.73c0 .55-.45 1-1 1s-1-.45-1-1 .45-1 1-1 1 .45 1 1z" fill="#5e5e5e"/><path d="M660 240c0 11.05-8.95 20-20 20s-20-8.95-20-20 8.95-20 20-20 20 8.95 20 20z" fill-opacity="0"/><path d="M661 240c0 .55-.45 1-1 1s-1-.45-1-1 .45-1 1-1 1 .45 1 1zm-.5 3.9c0 .54-.43 1-1 1-.54 0-1-.46-1-1 0-.56.46-1 1-1 .57 0 1 .44 1 1zm-1.16 3.7c0 .55-.45 1-1 1s-1-.45-1-1 .45-1 1-1 1 .45 1 1zm-1.83 3.43c0 .55-.43 1-1 1-.54 0-1-.45-1-1s.46-1 1-1c.57 0 1 .45 1 1zm-2.4 3.06c0 .54-.46 1-1 1-.56 0-1-.46-1-1 0-.57.44-1 1-1 .54 0 1 .43 1 1zm-3.02 2.5c0 .55-.44 1-1 1-.55 0-1-.45-1-1s.45-1 1-1c.56 0 1 .45 1 1zm-3.48 1.77c0 .55-.45 1-1 1s-1-.45-1-1 .45-1 1-1 1 .45 1 1zm-3.73 1.1c0 .55-.45 1-1 1s-1-.45-1-1 .45-1 1-1 1 .45 1 1zM641 260c0 .55-.45 1-1 1s-1-.45-1-1 .45-1 1-1 1 .45 1 1zm-3.9-.5c0 .57-.44 1-1 1-.54 0-1-.43-1-1 0-.54.46-1 1-1 .56 0 1 .46 1 1zm-3.7-1.16c0 .55-.45 1-1 1s-1-.45-1-1 .45-1 1-1 1 .45 1 1zm-3.43-1.83c0 .57-.45 1-1 1s-1-.43-1-1c0-.54.45-1 1-1s1 .46 1 1zm-3.06-2.4c0 .54-.43 1-1 1-.54 0-1-.46-1-1 0-.56.46-1 1-1 .57 0 1 .44 1 1zm-2.5-3.02c0 .56-.45 1-1 1s-1-.44-1-1c0-.55.45-1 1-1s1 .45 1 1zm-1.77-3.48c0 .55-.45 1-1 1s-1-.45-1-1 .45-1 1-1 1 .45 1 1zm-1.1-3.73c0 .55-.45 1-1 1s-1-.45-1-1 .45-1 1-1 1 .45 1 1zM621 240c0 .55-.45 1-1 1s-1-.45-1-1 .45-1 1-1 1 .45 1 1zm.5-3.9c0 .56-.46 1-1 1-.57 0-1-.44-1-1 0-.54.43-1 1-1 .54 0 1 .46 1 1zm1.16-3.7c0 .55-.45 1-1 1s-1-.45-1-1 .45-1 1-1 1 .45 1 1zm1.83-3.43c0 .55-.46 1-1 1-.57 0-1-.45-1-1s.43-1 1-1c.54 0 1 .45 1 1zm2.4-3.06c0 .57-.44 1-1 1-.54 0-1-.43-1-1 0-.54.46-1 1-1 .56 0 1 .46 1 1zm3.02-2.5c0 .55-.45 1-1 1-.56 0-1-.45-1-1s.44-1 1-1c.55 0 1 .45 1 1zm3.48-1.77c0 .55-.45 1-1 1s-1-.45-1-1 .45-1 1-1 1 .45 1 1zm3.73-1.1c0 .55-.45 1-1 1s-1-.45-1-1 .45-1 1-1 1 .45 1 1zM641 220c0 .55-.45 1-1 1s-1-.45-1-1 .45-1 1-1 1 .45 1 1zm3.9.5c0 .54-.46 1-1 1-.56 0-1-.46-1-1 0-.57.44-1 1-1 .54 0 1 .43 1 1zm3.7 1.16c0 .55-.45 1-1 1s-1-.45-1-1 .45-1 1-1 1 .45 1 1zm3.43 1.83c0 .54-.45 1-1 1s-1-.46-1-1c0-.57.45-1 1-1s1 .43 1 1zm3.06 2.4c0 .56-.46 1-1 1-.57 0-1-.44-1-1 0-.54.43-1 1-1 .54 0 1 .46 1 1zm2.5 3.02c0 .55-.45 1-1 1s-1-.45-1-1c0-.56.45-1 1-1s1 .44 1 1zm1.77 3.48c0 .55-.45 1-1 1s-1-.45-1-1 .45-1 1-1 1 .45 1 1zm1.1 3.73c0 .55-.45 1-1 1s-1-.45-1-1 .45-1 1-1 1 .45 1 1z" fill="#5e5e5e"/><path d="M740 240c0 11.05-8.95 20-20 20s-20-8.95-20-20 8.95-20 20-20 20 8.95 20 20z" fill-opacity="0"/><path d="M741 240c0 .55-.45 1-1 1s-1-.45-1-1 .45-1 1-1 1 .45 1 1zm-.5 3.9c0 .54-.43 1-1 1-.54 0-1-.46-1-1 0-.56.46-1 1-1 .57 0 1 .44 1 1zm-1.16 3.7c0 .55-.45 1-1 1s-1-.45-1-1 .45-1 1-1 1 .45 1 1zm-1.83 3.43c0 .55-.43 1-1 1-.54 0-1-.45-1-1s.46-1 1-1c.57 0 1 .45 1 1zm-2.4 3.06c0 .54-.46 1-1 1-.56 0-1-.46-1-1 0-.57.44-1 1-1 .54 0 1 .43 1 1zm-3.02 2.5c0 .55-.44 1-1 1-.55 0-1-.45-1-1s.45-1 1-1c.56 0 1 .45 1 1zm-3.48 1.77c0 .55-.45 1-1 1s-1-.45-1-1 .45-1 1-1 1 .45 1 1zm-3.73 1.1c0 .55-.45 1-1 1s-1-.45-1-1 .45-1 1-1 1 .45 1 1zM721 260c0 .55-.45 1-1 1s-1-.45-1-1 .45-1 1-1 1 .45 1 1zm-3.9-.5c0 .57-.44 1-1 1-.54 0-1-.43-1-1 0-.54.46-1 1-1 .56 0 1 .46 1 1zm-3.7-1.16c0 .55-.45 1-1 1s-1-.45-1-1 .45-1 1-1 1 .45 1 1zm-3.43-1.83c0 .57-.45 1-1 1s-1-.43-1-1c0-.54.45-1 1-1s1 .46 1 1zm-3.06-2.4c0 .54-.43 1-1 1-.54 0-1-.46-1-1 0-.56.46-1 1-1 .57 0 1 .44 1 1zm-2.5-3.02c0 .56-.45 1-1 1s-1-.44-1-1c0-.55.45-1 1-1s1 .45 1 1zm-1.77-3.48c0 .55-.45 1-1 1s-1-.45-1-1 .45-1 1-1 1 .45 1 1zm-1.1-3.73c0 .55-.45 1-1 1s-1-.45-1-1 .45-1 1-1 1 .45 1 1zM701 240c0 .55-.45 1-1 1s-1-.45-1-1 .45-1 1-1 1 .45 1 1zm.5-3.9c0 .56-.46 1-1 1-.57 0-1-.44-1-1 0-.54.43-1 1-1 .54 0 1 .46 1 1zm1.16-3.7c0 .55-.45 1-1 1s-1-.45-1-1 .45-1 1-1 1 .45 1 1zm1.83-3.43c0 .55-.46 1-1 1-.57 0-1-.45-1-1s.43-1 1-1c.54 0 1 .45 1 1zm2.4-3.06c0 .57-.44 1-1 1-.54 0-1-.43-1-1 0-.54.46-1 1-1 .56 0 1 .46 1 1zm3.02-2.5c0 .55-.45 1-1 1-.56 0-1-.45-1-1s.44-1 1-1c.55 0 1 .45 1 1zm3.48-1.77c0 .55-.45 1-1 1s-1-.45-1-1 .45-1 1-1 1 .45 1 1zm3.73-1.1c0 .55-.45 1-1 1s-1-.45-1-1 .45-1 1-1 1 .45 1 1zM721 220c0 .55-.45 1-1 1s-1-.45-1-1 .45-1 1-1 1 .45 1 1zm3.9.5c0 .54-.46 1-1 1-.56 0-1-.46-1-1 0-.57.44-1 1-1 .54 0 1 .43 1 1zm3.7 1.16c0 .55-.45 1-1 1s-1-.45-1-1 .45-1 1-1 1 .45 1 1zm3.43 1.83c0 .54-.45 1-1 1s-1-.46-1-1c0-.57.45-1 1-1s1 .43 1 1zm3.06 2.4c0 .56-.46 1-1 1-.57 0-1-.44-1-1 0-.54.43-1 1-1 .54 0 1 .46 1 1zm2.5 3.02c0 .55-.45 1-1 1s-1-.45-1-1c0-.56.45-1 1-1s1 .44 1 1zm1.77 3.48c0 .55-.45 1-1 1s-1-.45-1-1 .45-1 1-1 1 .45 1 1zm1.1 3.73c0 .55-.45 1-1 1s-1-.45-1-1 .45-1 1-1 1 .45 1 1z" fill="#5e5e5e"/><path d="M820 240c0 11.05-8.95 20-20 20s-20-8.95-20-20 8.95-20 20-20 20 8.95 20 20z" fill-opacity="0"/><path d="M821 240c0 .55-.45 1-1 1s-1-.45-1-1 .45-1 1-1 1 .45 1 1zm-.5 3.9c0 .54-.43 1-1 1-.54 0-1-.46-1-1 0-.56.46-1 1-1 .57 0 1 .44 1 1zm-1.16 3.7c0 .55-.45 1-1 1s-1-.45-1-1 .45-1 1-1 1 .45 1 1zm-1.83 3.43c0 .55-.43 1-1 1-.54 0-1-.45-1-1s.46-1 1-1c.57 0 1 .45 1 1zm-2.4 3.06c0 .54-.46 1-1 1-.56 0-1-.46-1-1 0-.57.44-1 1-1 .54 0 1 .43 1 1zm-3.02 2.5c0 .55-.44 1-1 1-.55 0-1-.45-1-1s.45-1 1-1c.56 0 1 .45 1 1zm-3.48 1.77c0 .55-.45 1-1 1s-1-.45-1-1 .45-1 1-1 1 .45 1 1zm-3.73 1.1c0 .55-.45 1-1 1s-1-.45-1-1 .45-1 1-1 1 .45 1 1zM801 260c0 .55-.45 1-1 1s-1-.45-1-1 .45-1 1-1 1 .45 1 1zm-3.9-.5c0 .57-.44 1-1 1-.54 0-1-.43-1-1 0-.54.46-1 1-1 .56 0 1 .46 1 1zm-3.7-1.16c0 .55-.45 1-1 1s-1-.45-1-1 .45-1 1-1 1 .45 1 1zm-3.43-1.83c0 .57-.45 1-1 1s-1-.43-1-1c0-.54.45-1 1-1s1 .46 1 1zm-3.06-2.4c0 .54-.43 1-1 1-.54 0-1-.46-1-1 0-.56.46-1 1-1 .57 0 1 .44 1 1zm-2.5-3.02c0 .56-.45 1-1 1s-1-.44-1-1c0-.55.45-1 1-1s1 .45 1 1zm-1.77-3.48c0 .55-.45 1-1 1s-1-.45-1-1 .45-1 1-1 1 .45 1 1zm-1.1-3.73c0 .55-.45 1-1 1s-1-.45-1-1 .45-1 1-1 1 .45 1 1zM781 240c0 .55-.45 1-1 1s-1-.45-1-1 .45-1 1-1 1 .45 1 1zm.5-3.9c0 .56-.46 1-1 1-.57 0-1-.44-1-1 0-.54.43-1 1-1 .54 0 1 .46 1 1zm1.16-3.7c0 .55-.45 1-1 1s-1-.45-1-1 .45-1 1-1 1 .45 1 1zm1.83-3.43c0 .55-.46 1-1 1-.57 0-1-.45-1-1s.43-1 1-1c.54 0 1 .45 1 1zm2.4-3.06c0 .57-.44 1-1 1-.54 0-1-.43-1-1 0-.54.46-1 1-1 .56 0 1 .46 1 1zm3.02-2.5c0 .55-.45 1-1 1-.56 0-1-.45-1-1s.44-1 1-1c.55 0 1 .45 1 1zm3.48-1.77c0 .55-.45 1-1 1s-1-.45-1-1 .45-1 1-1 1 .45 1 1zm3.73-1.1c0 .55-.45 1-1 1s-1-.45-1-1 .45-1 1-1 1 .45 1 1zM801 220c0 .55-.45 1-1 1s-1-.45-1-1 .45-1 1-1 1 .45 1 1zm3.9.5c0 .54-.46 1-1 1-.56 0-1-.46-1-1 0-.57.44-1 1-1 .54 0 1 .43 1 1zm3.7 1.16c0 .55-.45 1-1 1s-1-.45-1-1 .45-1 1-1 1 .45 1 1zm3.43 1.83c0 .54-.45 1-1 1s-1-.46-1-1c0-.57.45-1 1-1s1 .43 1 1zm3.06 2.4c0 .56-.46 1-1 1-.57 0-1-.44-1-1 0-.54.43-1 1-1 .54 0 1 .46 1 1zm2.5 3.02c0 .55-.45 1-1 1s-1-.45-1-1c0-.56.45-1 1-1s1 .44 1 1zm1.77 3.48c0 .55-.45 1-1 1s-1-.45-1-1 .45-1 1-1 1 .45 1 1zm1.1 3.73c0 .55-.45 1-1 1s-1-.45-1-1 .45-1 1-1 1 .45 1 1zM481 121.5c0 .55-.45 1-1 1s-1-.45-1-1 .45-1 1-1 1 .45 1 1zm0 4.02c0 .55-.45 1-1 1s-1-.45-1-1 .45-1 1-1 1 .45 1 1zm0 4.02c0 .55-.45 1-1 1s-1-.45-1-1 .45-1 1-1 1 .45 1 1zm0 4.02c0 .55-.45 1-1 1s-1-.45-1-1 .45-1 1-1 1 .45 1 1zm0 4.02c0 .56-.45 1-1 1s-1-.44-1-1c0-.55.45-1 1-1s1 .45 1 1zm0 4.02c0 .56-.45 1-1 1s-1-.44-1-1c0-.55.45-1 1-1s1 .45 1 1zm0 4.03c0 .55-.45 1-1 1s-1-.45-1-1c0-.56.45-1 1-1s1 .44 1 1zm0 4.02c0 .55-.45 1-1 1s-1-.45-1-1c0-.56.45-1 1-1s1 .44 1 1zm0 4.02c0 .55-.45 1-1 1s-1-.45-1-1c0-.56.45-1 1-1s1 .44 1 1zm0 4.02c0 .54-.45 1-1 1s-1-.46-1-1c0-.56.45-1 1-1s1 .44 1 1zm0 4c0 .56-.45 1-1 1s-1-.44-1-1c0-.54.45-1 1-1s1 .46 1 1zm0 4.03c0 .55-.45 1-1 1s-1-.45-1-1 .45-1 1-1 1 .45 1 1zm0 4.02c0 .55-.45 1-1 1s-1-.45-1-1 .45-1 1-1 1 .45 1 1zm0 4.02c0 .55-.45 1-1 1s-1-.45-1-1 .45-1 1-1 1 .45 1 1zm0 4.02c0 .54-.45 1-1 1s-1-.46-1-1c0-.56.45-1 1-1s1 .44 1 1zm0 4c0 .56-.45 1-1 1s-1-.44-1-1c0-.54.45-1 1-1s1 .46 1 1zm0 4.03c0 .56-.45 1-1 1s-1-.44-1-1c0-.55.45-1 1-1s1 .45 1 1zm0 4.02c0 .56-.45 1-1 1s-1-.44-1-1c0-.55.45-1 1-1s1 .45 1 1zm0 4.02c0 .56-.45 1-1 1s-1-.44-1-1c0-.55.45-1 1-1s1 .45 1 1zm0 4.03c0 .55-.45 1-1 1s-1-.45-1-1c0-.56.45-1 1-1s1 .44 1 1zm0 4.02c0 .55-.45 1-1 1s-1-.45-1-1c0-.56.45-1 1-1s1 .44 1 1zm0 4.02c0 .55-.45 1-1 1s-1-.45-1-1c0-.56.45-1 1-1s1 .44 1 1zm0 4.02c0 .55-.45 1-1 1s-1-.45-1-1 .45-1 1-1 1 .45 1 1zm0 4.02c0 .55-.45 1-1 1s-1-.45-1-1 .45-1 1-1 1 .45 1 1zm0 4.02c0 .55-.45 1-1 1s-1-.45-1-1 .45-1 1-1 1 .45 1 1z" fill="#5e5e5e"/><path d="M479.98 120.5l1.02-.04v1.07h-2v-1.15zM481 219.12l-.96-.12-1.04.03v-1.06h2zM561 121.5c0 .55-.45 1-1 1s-1-.45-1-1 .45-1 1-1 1 .45 1 1zm0 4.02c0 .55-.45 1-1 1s-1-.45-1-1 .45-1 1-1 1 .45 1 1zm0 4.02c0 .55-.45 1-1 1s-1-.45-1-1 .45-1 1-1 1 .45 1 1zm0 4.02c0 .55-.45 1-1 1s-1-.45-1-1 .45-1 1-1 1 .45 1 1zm0 4.02c0 .56-.45 1-1 1s-1-.44-1-1c0-.55.45-1 1-1s1 .45 1 1zm0 4.02c0 .56-.45 1-1 1s-1-.44-1-1c0-.55.45-1 1-1s1 .45 1 1zm0 4.03c0 .55-.45 1-1 1s-1-.45-1-1c0-.56.45-1 1-1s1 .44 1 1zm0 4.02c0 .55-.45 1-1 1s-1-.45-1-1c0-.56.45-1 1-1s1 .44 1 1zm0 4.02c0 .55-.45 1-1 1s-1-.45-1-1c0-.56.45-1 1-1s1 .44 1 1zm0 4.02c0 .54-.45 1-1 1s-1-.46-1-1c0-.56.45-1 1-1s1 .44 1 1zm0 4c0 .56-.45 1-1 1s-1-.44-1-1c0-.54.45-1 1-1s1 .46 1 1zm0 4.03c0 .55-.45 1-1 1s-1-.45-1-1 .45-1 1-1 1 .45 1 1zm0 4.02c0 .55-.45 1-1 1s-1-.45-1-1 .45-1 1-1 1 .45 1 1zm0 4.02c0 .55-.45 1-1 1s-1-.45-1-1 .45-1 1-1 1 .45 1 1zm0 4.02c0 .54-.45 1-1 1s-1-.46-1-1c0-.56.45-1 1-1s1 .44 1 1zm0 4c0 .56-.45 1-1 1s-1-.44-1-1c0-.54.45-1 1-1s1 .46 1 1zm0 4.03c0 .56-.45 1-1 1s-1-.44-1-1c0-.55.45-1 1-1s1 .45 1 1zm0 4.02c0 .56-.45 1-1 1s-1-.44-1-1c0-.55.45-1 1-1s1 .45 1 1zm0 4.02c0 .56-.45 1-1 1s-1-.44-1-1c0-.55.45-1 1-1s1 .45 1 1zm0 4.03c0 .55-.45 1-1 1s-1-.45-1-1c0-.56.45-1 1-1s1 .44 1 1zm0 4.02c0 .55-.45 1-1 1s-1-.45-1-1c0-.56.45-1 1-1s1 .44 1 1zm0 4.02c0 .55-.45 1-1 1s-1-.45-1-1c0-.56.45-1 1-1s1 .44 1 1zm0 4.02c0 .55-.45 1-1 1s-1-.45-1-1 .45-1 1-1 1 .45 1 1zm0 4.02c0 .55-.45 1-1 1s-1-.45-1-1 .45-1 1-1 1 .45 1 1zm0 4.02c0 .55-.45 1-1 1s-1-.45-1-1 .45-1 1-1 1 .45 1 1z" fill="#5e5e5e"/><path d="M559.98 120.5l1.02-.04v1.07h-2v-1.15zM561 219.12l-.96-.12-1.04.03v-1.06h2zM721 121.5c0 .55-.45 1-1 1s-1-.45-1-1 .45-1 1-1 1 .45 1 1zm0 4.02c0 .55-.45 1-1 1s-1-.45-1-1 .45-1 1-1 1 .45 1 1zm0 4.02c0 .55-.45 1-1 1s-1-.45-1-1 .45-1 1-1 1 .45 1 1zm0 4.02c0 .55-.45 1-1 1s-1-.45-1-1 .45-1 1-1 1 .45 1 1zm0 4.02c0 .56-.45 1-1 1s-1-.44-1-1c0-.55.45-1 1-1s1 .45 1 1zm0 4.02c0 .56-.45 1-1 1s-1-.44-1-1c0-.55.45-1 1-1s1 .45 1 1zm0 4.03c0 .55-.45 1-1 1s-1-.45-1-1c0-.56.45-1 1-1s1 .44 1 1zm0 4.02c0 .55-.45 1-1 1s-1-.45-1-1c0-.56.45-1 1-1s1 .44 1 1zm0 4.02c0 .55-.45 1-1 1s-1-.45-1-1c0-.56.45-1 1-1s1 .44 1 1zm0 4.02c0 .54-.45 1-1 1s-1-.46-1-1c0-.56.45-1 1-1s1 .44 1 1zm0 4c0 .56-.45 1-1 1s-1-.44-1-1c0-.54.45-1 1-1s1 .46 1 1zm0 4.03c0 .55-.45 1-1 1s-1-.45-1-1 .45-1 1-1 1 .45 1 1zm0 4.02c0 .55-.45 1-1 1s-1-.45-1-1 .45-1 1-1 1 .45 1 1zm0 4.02c0 .55-.45 1-1 1s-1-.45-1-1 .45-1 1-1 1 .45 1 1zm0 4.02c0 .54-.45 1-1 1s-1-.46-1-1c0-.56.45-1 1-1s1 .44 1 1zm0 4c0 .56-.45 1-1 1s-1-.44-1-1c0-.54.45-1 1-1s1 .46 1 1zm0 4.03c0 .56-.45 1-1 1s-1-.44-1-1c0-.55.45-1 1-1s1 .45 1 1zm0 4.02c0 .56-.45 1-1 1s-1-.44-1-1c0-.55.45-1 1-1s1 .45 1 1zm0 4.02c0 .56-.45 1-1 1s-1-.44-1-1c0-.55.45-1 1-1s1 .45 1 1zm0 4.03c0 .55-.45 1-1 1s-1-.45-1-1c0-.56.45-1 1-1s1 .44 1 1zm0 4.02c0 .55-.45 1-1 1s-1-.45-1-1c0-.56.45-1 1-1s1 .44 1 1zm0 4.02c0 .55-.45 1-1 1s-1-.45-1-1c0-.56.45-1 1-1s1 .44 1 1zm0 4.02c0 .55-.45 1-1 1s-1-.45-1-1 .45-1 1-1 1 .45 1 1zm0 4.02c0 .55-.45 1-1 1s-1-.45-1-1 .45-1 1-1 1 .45 1 1zm0 4.02c0 .55-.45 1-1 1s-1-.45-1-1 .45-1 1-1 1 .45 1 1z" fill="#5e5e5e"/><path d="M719.98 120.5l1.02-.04v1.07h-2v-1.15zM721 219.12l-.96-.12-1.04.03v-1.06h2zM801 121.5c0 .55-.45 1-1 1s-1-.45-1-1 .45-1 1-1 1 .45 1 1zm0 4.02c0 .55-.45 1-1 1s-1-.45-1-1 .45-1 1-1 1 .45 1 1zm0 4.02c0 .55-.45 1-1 1s-1-.45-1-1 .45-1 1-1 1 .45 1 1zm0 4.02c0 .55-.45 1-1 1s-1-.45-1-1 .45-1 1-1 1 .45 1 1zm0 4.02c0 .56-.45 1-1 1s-1-.44-1-1c0-.55.45-1 1-1s1 .45 1 1zm0 4.02c0 .56-.45 1-1 1s-1-.44-1-1c0-.55.45-1 1-1s1 .45 1 1zm0 4.03c0 .55-.45 1-1 1s-1-.45-1-1c0-.56.45-1 1-1s1 .44 1 1zm0 4.02c0 .55-.45 1-1 1s-1-.45-1-1c0-.56.45-1 1-1s1 .44 1 1zm0 4.02c0 .55-.45 1-1 1s-1-.45-1-1c0-.56.45-1 1-1s1 .44 1 1zm0 4.02c0 .54-.45 1-1 1s-1-.46-1-1c0-.56.45-1 1-1s1 .44 1 1zm0 4c0 .56-.45 1-1 1s-1-.44-1-1c0-.54.45-1 1-1s1 .46 1 1zm0 4.03c0 .55-.45 1-1 1s-1-.45-1-1 .45-1 1-1 1 .45 1 1zm0 4.02c0 .55-.45 1-1 1s-1-.45-1-1 .45-1 1-1 1 .45 1 1zm0 4.02c0 .55-.45 1-1 1s-1-.45-1-1 .45-1 1-1 1 .45 1 1zm0 4.02c0 .54-.45 1-1 1s-1-.46-1-1c0-.56.45-1 1-1s1 .44 1 1zm0 4c0 .56-.45 1-1 1s-1-.44-1-1c0-.54.45-1 1-1s1 .46 1 1zm0 4.03c0 .56-.45 1-1 1s-1-.44-1-1c0-.55.45-1 1-1s1 .45 1 1zm0 4.02c0 .56-.45 1-1 1s-1-.44-1-1c0-.55.45-1 1-1s1 .45 1 1zm0 4.02c0 .56-.45 1-1 1s-1-.44-1-1c0-.55.45-1 1-1s1 .45 1 1zm0 4.03c0 .55-.45 1-1 1s-1-.45-1-1c0-.56.45-1 1-1s1 .44 1 1zm0 4.02c0 .55-.45 1-1 1s-1-.45-1-1c0-.56.45-1 1-1s1 .44 1 1zm0 4.02c0 .55-.45 1-1 1s-1-.45-1-1c0-.56.45-1 1-1s1 .44 1 1zm0 4.02c0 .55-.45 1-1 1s-1-.45-1-1 .45-1 1-1 1 .45 1 1zm0 4.02c0 .55-.45 1-1 1s-1-.45-1-1 .45-1 1-1 1 .45 1 1zm0 4.02c0 .55-.45 1-1 1s-1-.45-1-1 .45-1 1-1 1 .45 1 1z" fill="#5e5e5e"/><path d="M799.98 120.5l1.02-.04v1.07h-2v-1.15zM801 219.12l-.96-.12-1.04.03v-1.06h2z" fill="#5e5e5e"/><path d="M640 317.5V262" stroke="#5e5e5e" stroke-width="2" fill="none"/><path d="M641 318.6l-.93-.1-1.07.03v-1.06h2zM639.96 261l1.04-.03v1.06h-2v-1.15zM1121.02 218c0 .55-.44 1-1 1-.55 0-1-.45-1-1s.45-1 1-1c.56 0 1 .45 1 1zm.54-3.93c0 .55-.44 1-1 1-.55 0-1-.45-1-1s.45-1 1-1c.56 0 1 .45 1 1zm1.25-3.77c0 .56-.44 1-1 1-.54 0-1-.44-1-1 0-.55.46-1 1-1 .56 0 1 .45 1 1zm1.88-3.5c0 .56-.45 1-1 1-.56 0-1-.44-1-1 0-.55.44-1 1-1 .55 0 1 .45 1 1zm2.36-3.2c0 .57-.45 1-1 1-.56 0-1-.43-1-1 0-.54.44-1 1-1 .55 0 1 .46 1 1zm2.72-2.87c0 .55-.45 1-1 1s-1-.45-1-1 .45-1 1-1 1 .45 1 1zm3-2.6c0 .54-.46 1-1 1-.56 0-1-.46-1-1 0-.57.44-1 1-1 .54 0 1 .43 1 1zm3.17-2.4c0 .55-.45 1-1 1-.56 0-1-.45-1-1s.44-1 1-1c.55 0 1 .45 1 1zm3.32-2.17c0 .55-.45 1-1 1s-1-.45-1-1 .45-1 1-1 1 .45 1 1zm3.43-2c0 .55-.45 1-1 1s-1-.45-1-1c0-.56.45-1 1-1s1 .44 1 1zm3.5-1.88c0 .56-.45 1-1 1s-1-.44-1-1c0-.55.45-1 1-1s1 .45 1 1zm3.56-1.76c0 .55-.45 1-1 1s-1-.45-1-1 .45-1 1-1 1 .45 1 1zm3.63-1.62c0 .55-.45 1-1 1-.56 0-1-.45-1-1s.44-1 1-1c.55 0 1 .45 1 1zm3.64-1.58c0 .55-.44 1-1 1-.54 0-1-.45-1-1s.46-1 1-1c.56 0 1 .45 1 1zm3.7-1.46c0 .56-.44 1-1 1-.55 0-1-.44-1-1 0-.55.45-1 1-1 .56 0 1 .45 1 1zm3.7-1.45c0 .56-.45 1-1 1s-1-.44-1-1c0-.54.45-1 1-1s1 .46 1 1zm3.74-1.33c0 .55-.45 1-1 1s-1-.45-1-1 .45-1 1-1 1 .45 1 1zm3.75-1.3c0 .56-.45 1-1 1-.56 0-1-.44-1-1 0-.55.44-1 1-1 .55 0 1 .45 1 1zm3.75-1.3c0 .56-.45 1-1 1s-1-.44-1-1c0-.54.45-1 1-1s1 .46 1 1zm3.75-1.3c0 .57-.45 1-1 1s-1-.43-1-1c0-.54.45-1 1-1s1 .46 1 1zm3.77-1.25c0 .55-.45 1-1 1s-1-.45-1-1 .45-1 1-1 1 .45 1 1zm3.78-1.22c0 .55-.45 1-1 1s-1-.45-1-1 .45-1 1-1 1 .45 1 1zm3.78-1.22c0 .56-.45 1-1 1s-1-.44-1-1c0-.55.45-1 1-1s1 .45 1 1zm3.78-1.22c0 .56-.44 1-1 1-.54 0-1-.44-1-1 0-.55.46-1 1-1 .56 0 1 .45 1 1zm3.8-1.22c0 .56-.46 1-1 1-.56 0-1-.44-1-1 0-.55.44-1 1-1 .54 0 1 .45 1 1zm3.77-1.22c0 .56-.45 1-1 1s-1-.44-1-1c0-.55.45-1 1-1s1 .45 1 1zm3.78-1.22c0 .56-.45 1-1 1-.56 0-1-.44-1-1 0-.55.44-1 1-1 .55 0 1 .45 1 1zm3.78-1.22c0 .56-.45 1-1 1-.56 0-1-.44-1-1 0-.55.44-1 1-1 .55 0 1 .45 1 1zm3.78-1.2c0 .54-.44 1-1 1-.55 0-1-.46-1-1 0-.57.45-1 1-1 .56 0 1 .43 1 1zm3.8-1.23c0 .55-.46 1-1 1-.57 0-1-.45-1-1 0-.56.43-1 1-1 .54 0 1 .44 1 1zm3.77-1.22c0 .55-.45 1-1 1-.56 0-1-.45-1-1 0-.56.44-1 1-1 .55 0 1 .44 1 1zm3.78-1.22c0 .56-.45 1-1 1-.56 0-1-.44-1-1 0-.55.44-1 1-1 .55 0 1 .45 1 1zm3.78-1.2c0 .54-.45 1-1 1-.56 0-1-.46-1-1 0-.57.44-1 1-1 .55 0 1 .43 1 1zm3.78-1.23c0 .55-.44 1-1 1-.55 0-1-.45-1-1 0-.56.45-1 1-1 .56 0 1 .44 1 1zm3.8-1.22c0 .55-.46 1-1 1-.57 0-1-.45-1-1 0-.56.43-1 1-1 .54 0 1 .44 1 1zm3.7-1.42c0 .55-.45 1-1 1-.56 0-1-.45-1-1 0-.56.44-1 1-1 .55 0 1 .44 1 1zm3.7-1.46c0 .55-.46 1-1 1-.56 0-1-.45-1-1s.44-1 1-1c.54 0 1 .45 1 1zm3.66-1.52c0 .56-.45 1-1 1s-1-.44-1-1c0-.55.45-1 1-1s1 .45 1 1zm3.63-1.6c0 .54-.46 1-1 1-.56 0-1-.46-1-1 0-.56.44-1 1-1 .54 0 1 .44 1 1zm3.57-1.72c0 .55-.45 1-1 1s-1-.45-1-1 .45-1 1-1 1 .45 1 1zm3.54-1.8c0 .54-.44 1-1 1-.55 0-1-.46-1-1 0-.56.45-1 1-1 .56 0 1 .44 1 1zm3.47-1.96c0 .55-.45 1-1 1-.56 0-1-.45-1-1s.44-1 1-1c.55 0 1 .45 1 1zm3.36-2.1c0 .55-.45 1-1 1s-1-.45-1-1c0-.56.45-1 1-1s1 .44 1 1zm3.25-2.3c0 .57-.45 1-1 1s-1-.43-1-1c0-.54.45-1 1-1s1 .46 1 1zm3.07-2.5c0 .55-.44 1-1 1-.55 0-1-.45-1-1 0-.56.45-1 1-1 .56 0 1 .44 1 1z" fill="#5e5e5e"/><path d="M1121.02 218l-.02 1.12-.96-.12-1.04.03.02-1.08z" fill="#5e5e5e"/><path d="M1278.73 123.48l-1.36 14.93-8.52-3.63z" stroke="#5e5e5e" stroke-width="2" fill="#5e5e5e"/><path d="M1121.03 218c0 .55-.45 1-1 1-.56 0-1-.45-1-1s.44-1 1-1c.55 0 1 .45 1 1zm.26-3.92c0 .55-.46 1-1 1-.56 0-1-.45-1-1 0-.56.44-1 1-1 .54 0 1 .44 1 1zm.63-3.88c0 .55-.44 1-1 1-.55 0-1-.45-1-1s.45-1 1-1c.56 0 1 .45 1 1zm1.04-3.8c0 .56-.44 1-1 1-.55 0-1-.44-1-1 0-.54.45-1 1-1 .56 0 1 .46 1 1zm1.43-3.65c0 .55-.44 1-1 1-.55 0-1-.45-1-1s.45-1 1-1c.56 0 1 .45 1 1zm1.8-3.5c0 .56-.45 1-1 1s-1-.44-1-1c0-.55.45-1 1-1s1 .45 1 1zm2.12-3.3c0 .55-.45 1-1 1s-1-.45-1-1c0-.56.45-1 1-1s1 .44 1 1zm2.4-3.1c0 .54-.44 1-1 1-.55 0-1-.46-1-1 0-.56.45-1 1-1 .56 0 1 .44 1 1zm2.64-2.93c0 .55-.45 1-1 1-.56 0-1-.45-1-1s.44-1 1-1c.55 0 1 .45 1 1zm2.82-2.73c0 .54-.44 1-1 1-.55 0-1-.46-1-1 0-.56.45-1 1-1 .56 0 1 .44 1 1zm2.97-2.6c0 .56-.44 1-1 1-.55 0-1-.44-1-1 0-.54.45-1 1-1 .56 0 1 .46 1 1zm3.08-2.43c0 .55-.45 1-1 1s-1-.45-1-1c0-.56.45-1 1-1s1 .44 1 1zm3.18-2.32c0 .55-.44 1-1 1-.55 0-1-.45-1-1s.45-1 1-1c.56 0 1 .45 1 1zm3.26-2.2c0 .54-.45 1-1 1s-1-.46-1-1c0-.56.45-1 1-1s1 .44 1 1zm3.3-2.15c0 .55-.45 1-1 1-.56 0-1-.45-1-1s.44-1 1-1c.55 0 1 .45 1 1zm3.3-2.14c0 .55-.45 1-1 1-.56 0-1-.45-1-1 0-.56.44-1 1-1 .55 0 1 .44 1 1zm3.3-2.13c0 .55-.45 1-1 1s-1-.45-1-1 .45-1 1-1 1 .45 1 1zm3.32-2.1c0 .54-.45 1-1 1s-1-.46-1-1c0-.56.45-1 1-1s1 .44 1 1zm3.32-2.12c0 .56-.45 1-1 1s-1-.44-1-1c0-.54.45-1 1-1s1 .46 1 1zm3.32-2.1c0 .55-.45 1-1 1-.56 0-1-.45-1-1s.44-1 1-1c.55 0 1 .45 1 1zm3.3-2.1c0 .55-.43 1-1 1-.54 0-1-.45-1-1 0-.56.46-1 1-1 .57 0 1 .44 1 1zm3.33-2.12c0 .56-.44 1-1 1-.55 0-1-.44-1-1 0-.55.45-1 1-1 .56 0 1 .45 1 1zm3.2-2.3c0 .55-.46 1-1 1-.56 0-1-.45-1-1s.44-1 1-1c.54 0 1 .45 1 1zm3.12-2.38c0 .56-.45 1-1 1s-1-.44-1-1c0-.55.45-1 1-1s1 .45 1 1zm3.03-2.5c0 .55-.45 1-1 1s-1-.45-1-1c0-.56.45-1 1-1s1 .44 1 1zm2.9-2.67c0 .55-.46 1-1 1-.56 0-1-.45-1-1s.44-1 1-1c.54 0 1 .45 1 1zm2.7-2.83c0 .55-.44 1-1 1-.54 0-1-.45-1-1 0-.56.46-1 1-1 .56 0 1 .44 1 1zm2.53-3.02c0 .55-.45 1-1 1s-1-.45-1-1 .45-1 1-1 1 .45 1 1zm2.26-3.22c0 .55-.46 1-1 1-.57 0-1-.45-1-1s.43-1 1-1c.54 0 1 .45 1 1zm1.93-3.4c0 .54-.45 1-1 1s-1-.46-1-1c0-.56.45-1 1-1s1 .44 1 1z" fill="#5e5e5e"/><path d="M1121.03 218l-.03 1.12-.96-.12-1.04.03.03-1.08z" fill="#5e5e5e"/><path d="M1199.26 123.65l1.27 14.95-9.02-2.1z" stroke="#5e5e5e" stroke-width="2" fill="#5e5e5e"/><path d="M1120.97 218c0 .55-.44 1-1 1-.55 0-1-.45-1-1s.45-1 1-1c.56 0 1 .45 1 1zm-.26-3.92c0 .55-.44 1-1 1-.54 0-1-.45-1-1 0-.56.46-1 1-1 .56 0 1 .44 1 1zm-.63-3.88c0 .55-.45 1-1 1-.56 0-1-.45-1-1s.44-1 1-1c.55 0 1 .45 1 1zm-1.04-3.8c0 .56-.45 1-1 1-.56 0-1-.44-1-1 0-.54.44-1 1-1 .55 0 1 .46 1 1zm-1.43-3.65c0 .55-.45 1-1 1-.56 0-1-.45-1-1s.44-1 1-1c.55 0 1 .45 1 1zm-1.8-3.5c0 .56-.45 1-1 1s-1-.44-1-1c0-.55.45-1 1-1s1 .45 1 1zm-2.12-3.3c0 .55-.45 1-1 1s-1-.45-1-1c0-.56.45-1 1-1s1 .44 1 1zm-2.4-3.1c0 .54-.45 1-1 1-.56 0-1-.46-1-1 0-.56.44-1 1-1 .55 0 1 .44 1 1zm-2.64-2.93c0 .55-.44 1-1 1-.55 0-1-.45-1-1s.45-1 1-1c.56 0 1 .45 1 1zm-2.82-2.73c0 .54-.45 1-1 1-.56 0-1-.46-1-1 0-.56.44-1 1-1 .55 0 1 .44 1 1zm-2.97-2.6c0 .56-.45 1-1 1-.56 0-1-.44-1-1 0-.54.44-1 1-1 .55 0 1 .46 1 1zm-3.08-2.43c0 .55-.45 1-1 1s-1-.45-1-1c0-.56.45-1 1-1s1 .44 1 1zm-3.18-2.32c0 .55-.45 1-1 1-.56 0-1-.45-1-1s.44-1 1-1c.55 0 1 .45 1 1zm-3.26-2.2c0 .54-.45 1-1 1s-1-.46-1-1c0-.56.45-1 1-1s1 .44 1 1zm-3.3-2.15c0 .55-.44 1-1 1-.55 0-1-.45-1-1s.45-1 1-1c.56 0 1 .45 1 1zm-3.3-2.14c0 .55-.44 1-1 1-.55 0-1-.45-1-1 0-.56.45-1 1-1 .56 0 1 .44 1 1zm-3.3-2.13c0 .55-.45 1-1 1s-1-.45-1-1 .45-1 1-1 1 .45 1 1zm-3.32-2.1c0 .54-.45 1-1 1s-1-.46-1-1c0-.56.45-1 1-1s1 .44 1 1zm-3.32-2.12c0 .56-.45 1-1 1s-1-.44-1-1c0-.54.45-1 1-1s1 .46 1 1zm-3.32-2.1c0 .55-.44 1-1 1-.55 0-1-.45-1-1s.45-1 1-1c.56 0 1 .45 1 1zm-3.3-2.1c0 .55-.46 1-1 1-.57 0-1-.45-1-1 0-.56.43-1 1-1 .54 0 1 .44 1 1zm-3.33-2.12c0 .56-.45 1-1 1-.56 0-1-.44-1-1 0-.55.44-1 1-1 .55 0 1 .45 1 1zm-3.2-2.3c0 .55-.44 1-1 1-.54 0-1-.45-1-1s.46-1 1-1c.56 0 1 .45 1 1zm-3.12-2.38c0 .56-.45 1-1 1s-1-.44-1-1c0-.55.45-1 1-1s1 .45 1 1zm-3.03-2.5c0 .55-.45 1-1 1s-1-.45-1-1c0-.56.45-1 1-1s1 .44 1 1zm-2.9-2.67c0 .55-.44 1-1 1-.54 0-1-.45-1-1s.46-1 1-1c.56 0 1 .45 1 1zm-2.7-2.83c0 .55-.46 1-1 1-.56 0-1-.45-1-1 0-.56.44-1 1-1 .54 0 1 .44 1 1zm-2.53-3.02c0 .55-.45 1-1 1s-1-.45-1-1 .45-1 1-1 1 .45 1 1zm-2.26-3.22c0 .55-.43 1-1 1-.54 0-1-.45-1-1s.46-1 1-1c.57 0 1 .45 1 1z" fill="#5e5e5e"/><path d="M1121 219.12l-.96-.12-1.04.03-.03-1.03 2-.05z" fill="#5e5e5e"/><path d="M1040.74 123.65l7.75 12.84-9.03 2.1z" stroke="#5e5e5e" stroke-width="2" fill="#5e5e5e"/><path d="M1120.98 218c0 .55-.45 1-1 1-.56 0-1-.45-1-1s.44-1 1-1c.55 0 1 .45 1 1zm-.54-3.93c0 .55-.45 1-1 1-.56 0-1-.45-1-1s.44-1 1-1c.55 0 1 .45 1 1zm-1.25-3.77c0 .56-.46 1-1 1-.56 0-1-.44-1-1 0-.55.44-1 1-1 .54 0 1 .45 1 1zm-1.88-3.5c0 .56-.44 1-1 1-.55 0-1-.44-1-1 0-.55.45-1 1-1 .56 0 1 .45 1 1zm-2.36-3.2c0 .57-.44 1-1 1-.55 0-1-.43-1-1 0-.54.45-1 1-1 .56 0 1 .46 1 1zm-2.72-2.87c0 .55-.45 1-1 1s-1-.45-1-1 .45-1 1-1 1 .45 1 1zm-3-2.6c0 .54-.44 1-1 1-.54 0-1-.46-1-1 0-.57.46-1 1-1 .56 0 1 .43 1 1zm-3.17-2.4c0 .55-.44 1-1 1-.55 0-1-.45-1-1s.45-1 1-1c.56 0 1 .45 1 1zm-3.32-2.17c0 .55-.45 1-1 1s-1-.45-1-1 .45-1 1-1 1 .45 1 1zm-3.43-2c0 .55-.45 1-1 1s-1-.45-1-1c0-.56.45-1 1-1s1 .44 1 1zm-3.5-1.88c0 .56-.45 1-1 1s-1-.44-1-1c0-.55.45-1 1-1s1 .45 1 1zm-3.56-1.76c0 .55-.45 1-1 1s-1-.45-1-1 .45-1 1-1 1 .45 1 1zm-3.63-1.62c0 .55-.44 1-1 1-.55 0-1-.45-1-1s.45-1 1-1c.56 0 1 .45 1 1zm-3.64-1.58c0 .55-.46 1-1 1-.56 0-1-.45-1-1s.44-1 1-1c.54 0 1 .45 1 1zm-3.7-1.46c0 .56-.45 1-1 1-.56 0-1-.44-1-1 0-.55.44-1 1-1 .55 0 1 .45 1 1zm-3.7-1.45c0 .56-.45 1-1 1s-1-.44-1-1c0-.54.45-1 1-1s1 .46 1 1zm-3.74-1.33c0 .55-.45 1-1 1s-1-.45-1-1 .45-1 1-1 1 .45 1 1zm-3.75-1.3c0 .56-.44 1-1 1-.55 0-1-.44-1-1 0-.55.45-1 1-1 .56 0 1 .45 1 1zm-3.75-1.3c0 .56-.45 1-1 1s-1-.44-1-1c0-.54.45-1 1-1s1 .46 1 1zm-3.75-1.3c0 .57-.45 1-1 1s-1-.43-1-1c0-.54.45-1 1-1s1 .46 1 1zm-3.77-1.25c0 .55-.45 1-1 1s-1-.45-1-1 .45-1 1-1 1 .45 1 1zm-3.78-1.22c0 .55-.45 1-1 1s-1-.45-1-1 .45-1 1-1 1 .45 1 1zm-3.78-1.22c0 .56-.45 1-1 1s-1-.44-1-1c0-.55.45-1 1-1s1 .45 1 1zm-3.78-1.22c0 .56-.46 1-1 1-.56 0-1-.44-1-1 0-.55.44-1 1-1 .54 0 1 .45 1 1zm-3.8-1.22c0 .56-.44 1-1 1-.54 0-1-.44-1-1 0-.55.46-1 1-1 .56 0 1 .45 1 1zm-3.77-1.22c0 .56-.45 1-1 1s-1-.44-1-1c0-.55.45-1 1-1s1 .45 1 1zm-3.78-1.22c0 .56-.44 1-1 1-.55 0-1-.44-1-1 0-.55.45-1 1-1 .56 0 1 .45 1 1zm-3.78-1.22c0 .56-.44 1-1 1-.55 0-1-.44-1-1 0-.55.45-1 1-1 .56 0 1 .45 1 1zm-3.78-1.2c0 .54-.45 1-1 1-.56 0-1-.46-1-1 0-.57.44-1 1-1 .55 0 1 .43 1 1zm-3.8-1.23c0 .55-.43 1-1 1-.54 0-1-.45-1-1 0-.56.46-1 1-1 .57 0 1 .44 1 1zm-3.77-1.22c0 .55-.44 1-1 1-.55 0-1-.45-1-1 0-.56.45-1 1-1 .56 0 1 .44 1 1zm-3.78-1.22c0 .56-.44 1-1 1-.55 0-1-.44-1-1 0-.55.45-1 1-1 .56 0 1 .45 1 1zm-3.78-1.2c0 .54-.44 1-1 1-.55 0-1-.46-1-1 0-.57.45-1 1-1 .56 0 1 .43 1 1zm-3.78-1.23c0 .55-.45 1-1 1-.56 0-1-.45-1-1 0-.56.44-1 1-1 .55 0 1 .44 1 1zm-3.8-1.22c0 .55-.43 1-1 1-.54 0-1-.45-1-1 0-.56.46-1 1-1 .57 0 1 .44 1 1zm-3.7-1.42c0 .55-.44 1-1 1-.55 0-1-.45-1-1 0-.56.45-1 1-1 .56 0 1 .44 1 1zm-3.7-1.46c0 .55-.44 1-1 1-.54 0-1-.45-1-1s.46-1 1-1c.56 0 1 .45 1 1zm-3.66-1.52c0 .56-.45 1-1 1s-1-.44-1-1c0-.55.45-1 1-1s1 .45 1 1zm-3.63-1.6c0 .54-.44 1-1 1-.54 0-1-.46-1-1 0-.56.46-1 1-1 .56 0 1 .44 1 1zm-3.57-1.72c0 .55-.45 1-1 1s-1-.45-1-1 .45-1 1-1 1 .45 1 1zm-3.54-1.8c0 .54-.45 1-1 1-.56 0-1-.46-1-1 0-.56.44-1 1-1 .55 0 1 .44 1 1zm-3.47-1.96c0 .55-.44 1-1 1-.55 0-1-.45-1-1s.45-1 1-1c.56 0 1 .45 1 1zm-3.36-2.1c0 .55-.45 1-1 1s-1-.45-1-1c0-.56.45-1 1-1s1 .44 1 1zm-3.25-2.3c0 .57-.45 1-1 1s-1-.43-1-1c0-.54.45-1 1-1s1 .46 1 1zm-3.07-2.5c0 .55-.45 1-1 1-.56 0-1-.45-1-1 0-.56.44-1 1-1 .55 0 1 .44 1 1z" fill="#5e5e5e"/><path d="M1121 219.12l-.96-.12-1.04.03-.02-1.04 2-.05z" fill="#5e5e5e"/><path d="M961.27 123.48l9.88 11.3-8.52 3.63z" stroke="#5e5e5e" stroke-width="2" fill="#5e5e5e"/><path d="M1020 386c0-3.3 2.7-6 6-6h188c3.3 0 6 2.7 6 6v48c0 3.3-2.7 6-6 6h-188c-3.3 0-6-2.7-6-6z" stroke="#000" stroke-opacity="0" stroke-width="3" fill="#fff" fill-opacity="0"/><use xlink:href="#a" transform="matrix(1,0,0,1,1025,385) translate(2.5000000000000284 15.999999999999998)"/><use xlink:href="#b" transform="matrix(1,0,0,1,1025,385) translate(69.00000000000001 15.999999999999998)"/><use xlink:href="#c" transform="matrix(1,0,0,1,1025,385) translate(152.05555555555554 15.999999999999998)"/><use xlink:href="#d" transform="matrix(1,0,0,1,1025,385) translate(15.194444444444457 39.99999999999999)"/><use xlink:href="#e" transform="matrix(1,0,0,1,1025,385) translate(56.19444444444445 39.99999999999999)"/><use xlink:href="#f" transform="matrix(1,0,0,1,1025,385) translate(133.80555555555554 39.99999999999999)"/><path d="M260 206c0-3.3 2.7-6 6-6h168c3.3 0 6 2.7 6 6v68c0 3.3-2.7 6-6 6H266c-3.3 0-6-2.7-6-6z" stroke="#000" stroke-opacity="0" stroke-width="3" fill="#fff" fill-opacity="0"/><g><use xlink:href="#g" transform="matrix(1,0,0,1,265,205) translate(11.500000000000014 40.0625)"/><use xlink:href="#h" transform="matrix(1,0,0,1,265,205) translate(77.55555555555556 40.0625)"/></g><defs><path fill="#333" d="M169-182c-1-43-94-46-97-3 18 66 151 10 154 114 3 95-165 93-204 36-6-8-10-19-12-30l50-8c3 46 112 56 116 5-17-69-150-10-154-114-4-87 153-88 188-35 5 8 8 18 10 28" id="i"/><path fill="#333" d="M115-3C79 11 28 4 28-45v-112H4v-33h27l15-45h31v45h36v33H77v99c-1 23 16 31 38 25v30" id="j"/><path fill="#333" d="M133-34C117-15 103 5 69 4 32 3 11-16 11-54c-1-60 55-63 116-61 1-26-3-47-28-47-18 1-26 9-28 27l-52-2c7-38 36-58 82-57s74 22 75 68l1 82c-1 14 12 18 25 15v27c-30 8-71 5-69-32zm-48 3c29 0 43-24 42-57-32 0-66-3-65 30 0 17 8 27 23 27" id="k"/><path fill="#333" d="M85 4C-2 5 27-109 22-190h50c7 57-23 150 33 157 60-5 35-97 40-157h50l1 190h-47c-2-12 1-28-3-38-12 25-28 42-61 42" id="l"/><path fill="#333" d="M137-138c1-29-70-34-71-4 15 46 118 7 119 86 1 83-164 76-172 9l43-7c4 19 20 25 44 25 33 8 57-30 24-41C81-84 22-81 20-136c-2-80 154-74 161-7" id="m"/><g id="a"><use transform="matrix(0.055555555555555546,0,0,0.055555555555555546,0,0)" xlink:href="#i"/><use transform="matrix(0.055555555555555546,0,0,0.055555555555555546,13.33333333333333,0)" xlink:href="#j"/><use transform="matrix(0.055555555555555546,0,0,0.055555555555555546,19.94444444444444,0)" xlink:href="#k"/><use transform="matrix(0.055555555555555546,0,0,0.055555555555555546,31.05555555555555,0)" xlink:href="#j"/><use transform="matrix(0.055555555555555546,0,0,0.055555555555555546,37.66666666666666,0)" xlink:href="#l"/><use transform="matrix(0.055555555555555546,0,0,0.055555555555555546,49.83333333333332,0)" xlink:href="#m"/></g><path fill="#333" d="M135-194c53 0 70 44 70 98 0 56-19 98-73 100-31 1-45-17-59-34 3 33 2 69 2 105H25l-1-265h48c2 10 0 23 3 31 11-24 29-35 60-35zM114-30c33 0 39-31 40-66 0-38-9-64-40-64-56 0-55 130 0 130" id="n"/><path fill="#333" d="M88-194c31-1 46 15 58 34l-1-101h50l1 261h-48c-2-10 0-23-3-31C134-8 116 4 84 4 32 4 16-41 15-95c0-56 19-97 73-99zm17 164c33 0 40-30 41-66 1-37-9-64-41-64s-38 30-39 65c0 43 13 65 39 65" id="o"/><path fill="#333" d="M185-48c-13 30-37 53-82 52C43 2 14-33 14-96s30-98 90-98c62 0 83 45 84 108H66c0 31 8 55 39 56 18 0 30-7 34-22zm-45-69c5-46-57-63-70-21-2 6-4 13-4 21h74" id="p"/><g id="b"><use transform="matrix(0.055555555555555546,0,0,0.055555555555555546,0,0)" xlink:href="#l"/><use transform="matrix(0.055555555555555546,0,0,0.055555555555555546,12.166666666666664,0)" xlink:href="#n"/><use transform="matrix(0.055555555555555546,0,0,0.055555555555555546,24.33333333333333,0)" xlink:href="#o"/><use transform="matrix(0.055555555555555546,0,0,0.055555555555555546,36.49999999999999,0)" xlink:href="#k"/><use transform="matrix(0.055555555555555546,0,0,0.055555555555555546,47.6111111111111,0)" xlink:href="#j"/><use transform="matrix(0.055555555555555546,0,0,0.055555555555555546,54.22222222222221,0)" xlink:href="#p"/><use transform="matrix(0.055555555555555546,0,0,0.055555555555555546,65.33333333333331,0)" xlink:href="#o"/></g><path fill="#333" d="M135-194c87-1 58 113 63 194h-50c-7-57 23-157-34-157-59 0-34 97-39 157H25l-1-190h47c2 12-1 28 3 38 12-26 28-41 61-42" id="q"/><g id="c"><use transform="matrix(0.055555555555555546,0,0,0.055555555555555546,0,0)" xlink:href="#k"/><use transform="matrix(0.055555555555555546,0,0,0.055555555555555546,11.111111111111109,0)" xlink:href="#q"/><use transform="matrix(0.055555555555555546,0,0,0.055555555555555546,23.27777777777777,0)" xlink:href="#o"/></g><path fill="#333" d="M114-157C55-157 80-60 75 0H25v-261h50l-1 109c12-26 28-41 61-42 86-1 58 113 63 194h-50c-7-57 23-157-34-157" id="r"/><path fill="#333" d="M25 0v-261h50V0H25" id="s"/><g id="d"><use transform="matrix(0.055555555555555546,0,0,0.055555555555555546,0,0)" xlink:href="#r"/><use transform="matrix(0.055555555555555546,0,0,0.055555555555555546,12.166666666666664,0)" xlink:href="#k"/><use transform="matrix(0.055555555555555546,0,0,0.055555555555555546,23.27777777777777,0)" xlink:href="#s"/><use transform="matrix(0.055555555555555546,0,0,0.055555555555555546,28.83333333333333,0)" xlink:href="#j"/></g><path fill="#333" d="M135-150c-39-12-60 13-60 57V0H25l-1-190h47c2 13-1 29 3 40 6-28 27-53 61-41v41" id="t"/><path fill="#333" d="M84 4C32 4 15-41 15-95c0-55 18-99 73-99 29 0 47 12 58 34l2-30h48l-1 265h-49V-32C136-9 114 4 84 4zm21-34c32 0 41-29 41-66 0-36-9-64-40-64-33 0-39 30-40 65 0 43 13 65 39 65" id="u"/><g id="e"><use transform="matrix(0.055555555555555546,0,0,0.055555555555555546,0,0)" xlink:href="#t"/><use transform="matrix(0.055555555555555546,0,0,0.055555555555555546,7.777777777777777,0)" xlink:href="#p"/><use transform="matrix(0.055555555555555546,0,0,0.055555555555555546,18.888888888888886,0)" xlink:href="#u"/><use transform="matrix(0.055555555555555546,0,0,0.055555555555555546,31.05555555555555,0)" xlink:href="#l"/><use transform="matrix(0.055555555555555546,0,0,0.055555555555555546,43.222222222222214,0)" xlink:href="#p"/><use transform="matrix(0.055555555555555546,0,0,0.055555555555555546,54.33333333333332,0)" xlink:href="#m"/><use transform="matrix(0.055555555555555546,0,0,0.055555555555555546,65.44444444444443,0)" xlink:href="#j"/></g><g id="f"><use transform="matrix(0.055555555555555546,0,0,0.055555555555555546,0,0)" xlink:href="#m"/><use transform="matrix(0.055555555555555546,0,0,0.055555555555555546,11.111111111111109,0)" xlink:href="#p"/><use transform="matrix(0.055555555555555546,0,0,0.055555555555555546,22.222222222222218,0)" xlink:href="#q"/><use transform="matrix(0.055555555555555546,0,0,0.055555555555555546,34.388888888888886,0)" xlink:href="#j"/></g><path fill="#333" d="M147 0H94L2-248h55l64 206c17-72 42-137 63-206h54" id="v"/><path fill="#333" d="M110-194c64 0 96 36 96 99 0 64-35 99-97 99-61 0-95-36-95-99 0-62 34-99 96-99zm-1 164c35 0 45-28 45-65 0-40-10-65-43-65-34 0-45 26-45 65 0 36 10 65 43 65" id="w"/><path fill="#333" d="M25-224v-37h50v37H25zM25 0v-190h50V0H25" id="x"/><path fill="#333" d="M195-6C206 82 75 100 31 46c-4-6-6-13-8-21l49-6c3 16 16 24 34 25 40 0 42-37 40-79-11 22-30 35-61 35-53 0-70-43-70-97 0-56 18-96 73-97 30 0 46 14 59 34l2-30h47zm-90-29c32 0 41-27 41-63 0-35-9-62-40-62-32 0-39 29-40 63 0 36 9 62 39 62" id="y"/><g id="g"><use transform="matrix(0.055555555555555546,0,0,0.055555555555555546,0,0)" xlink:href="#v"/><use transform="matrix(0.055555555555555546,0,0,0.055555555555555546,11.83333333333333,0)" xlink:href="#w"/><use transform="matrix(0.055555555555555546,0,0,0.055555555555555546,23.999999999999993,0)" xlink:href="#j"/><use transform="matrix(0.055555555555555546,0,0,0.055555555555555546,30.611111111111107,0)" xlink:href="#x"/><use transform="matrix(0.055555555555555546,0,0,0.055555555555555546,36.16666666666666,0)" xlink:href="#q"/><use transform="matrix(0.055555555555555546,0,0,0.055555555555555546,48.33333333333332,0)" xlink:href="#y"/></g><g id="h"><use transform="matrix(0.055555555555555546,0,0,0.055555555555555546,0,0)" xlink:href="#m"/><use transform="matrix(0.055555555555555546,0,0,0.055555555555555546,11.111111111111109,0)" xlink:href="#j"/><use transform="matrix(0.055555555555555546,0,0,0.055555555555555546,17.722222222222218,0)" xlink:href="#k"/><use transform="matrix(0.055555555555555546,0,0,0.055555555555555546,28.83333333333333,0)" xlink:href="#j"/><use transform="matrix(0.055555555555555546,0,0,0.055555555555555546,35.444444444444436,0)" xlink:href="#l"/><use transform="matrix(0.055555555555555546,0,0,0.055555555555555546,47.6111111111111,0)" xlink:href="#m"/><use transform="matrix(0.055555555555555546,0,0,0.055555555555555546,58.722222222222214,0)" xlink:href="#p"/><use transform="matrix(0.055555555555555546,0,0,0.055555555555555546,69.83333333333331,0)" xlink:href="#m"/></g></defs></g></svg>