<svg width="340" height="210" viewBox="0 0 340 210" fill="none" xmlns="http://www.w3.org/2000/svg">
<g opacity="0.4" filter="url(#filter0_f)">
<ellipse cx="170.168" cy="193.316" rx="152.629" ry="1.68394" fill="black"/>
</g>
<path d="M33.3948 9.50001C33.3948 4.44069 37.4962 0.339286 42.5555 0.339286H298.794C303.853 0.339286 307.954 4.44068 307.954 9.5V185.223C307.954 185.785 307.499 186.241 306.937 186.241H34.4127C33.8505 186.241 33.3948 185.785 33.3948 185.223V9.50001Z" fill="#E2E8F0" stroke="#CBD5E0" stroke-width="0.678571"/>
<path d="M34.7422 9.14815C34.7422 5.02574 38.0841 1.68387 42.2065 1.68387H299.143C303.265 1.68387 306.607 5.02574 306.607 9.14815V179.508H34.7422V9.14815Z" fill="#E2E8F0"/>
<rect x="41.8256" y="11.1139" width="256.687" height="160.984" fill="white"/>
<rect x="299.24" y="171.726" width="257.485" height="160.807" transform="rotate(-180 299.24 171.726)" fill="#FBFCFE"/>
<rect x="299.24" y="171.726" width="257.485" height="160.807" transform="rotate(-180 299.24 171.726)" fill="url(#paint0_linear)"/>
<path d="M0 185.912C0 185.537 0.303807 185.233 0.678571 185.233H339.321C339.696 185.233 340 185.537 340 185.912V187.254H0V185.912Z" fill="#E2E8F0"/>
<path d="M0 185.912C0 185.537 0.303807 185.233 0.678571 185.233H339.321C339.696 185.233 340 185.537 340 185.912V187.254H0V185.912Z" fill="url(#paint1_linear)"/>
<path d="M0 187.254H340L333.193 188.625C324.373 190.401 315.399 191.296 306.402 191.296H33.0898C23.2024 191.296 13.3446 190.215 3.69198 188.073L0 187.254Z" fill="#E2E8F0"/>
<path d="M0 187.254H340L333.193 188.625C324.373 190.401 315.399 191.296 306.402 191.296H33.0898C23.2024 191.296 13.3446 190.215 3.69198 188.073L0 187.254Z" fill="url(#paint2_linear)"/>
<path fill-rule="evenodd" clip-rule="evenodd" d="M145.051 185.233C145.225 186.362 144.383 187.254 147.064 187.254H193.274C195.955 187.254 195.113 186.362 195.287 185.233H145.051Z" fill="#E2E8F0"/>
<path fill-rule="evenodd" clip-rule="evenodd" d="M145.051 185.233C145.225 186.362 144.383 187.254 147.064 187.254H193.274C195.955 187.254 195.113 186.362 195.287 185.233H145.051Z" fill="url(#paint3_linear)"/>
<path d="M169.935 131.36L170.181 131.51L170.434 131.372L206.744 111.604L206.997 111.466L207.005 111.177L208.012 69.9003L208.019 69.6116L207.773 69.4614L172.472 47.9532L172.225 47.8032L171.972 47.9411L135.663 67.7095L135.409 67.8477L135.402 68.1366L134.394 109.413L134.387 109.702L134.634 109.852L169.935 131.36ZM204.198 109.765L170.26 128.243L137.265 108.134L138.208 69.5487L172.147 51.0707L205.142 71.1793L204.198 109.765Z" fill="#093353" stroke="#093353"/>
<path d="M176.459 53.9219C178.941 51.5621 179.037 47.6405 176.673 45.1627C174.31 42.6849 170.382 42.5893 167.901 44.9491C165.419 47.3089 165.324 51.2305 167.687 53.7083C170.05 56.1861 173.978 56.2817 176.459 53.9219Z" fill="#093353"/>
<path d="M174.502 134.363C176.984 132.003 177.08 128.081 174.716 125.603C172.353 123.126 168.425 123.03 165.944 125.39C163.462 127.75 163.366 131.671 165.73 134.149C168.093 136.627 172.021 136.722 174.502 134.363Z" fill="#093353"/>
<path d="M202.086 74.6693C199.723 72.1947 199.816 68.2708 202.294 65.9115C204.773 63.5522 208.703 63.6452 211.066 66.1198C213.429 68.5945 213.335 72.5184 210.857 74.8777C208.377 77.2468 204.449 77.144 202.086 74.6693Z" fill="#093353"/>
<path d="M132.313 72.8964C129.95 70.4218 130.043 66.4979 132.522 64.1386C135 61.7793 138.93 61.8723 141.293 64.3469C143.656 66.8216 143.563 70.7455 141.084 73.1048C138.604 75.4739 134.674 75.3809 132.313 72.8964Z" fill="#093353"/>
<path d="M201.104 114.965C198.741 112.491 198.834 108.567 201.312 106.207C203.791 103.848 207.721 103.941 210.084 106.416C212.446 108.89 212.353 112.814 209.875 115.174C207.396 117.533 203.467 117.44 201.104 114.965Z" fill="#093353"/>
<path d="M131.331 113.192C128.968 110.717 129.061 106.793 131.539 104.434C134.018 102.075 137.948 102.168 140.311 104.642C142.674 107.117 142.58 111.041 140.102 113.4C137.622 115.769 133.694 115.666 131.331 113.192Z" fill="#093353"/>
<path d="M161.246 97.9941L161.547 97.6599L161.246 97.3253L155.371 90.7904L161.246 84.2554L161.547 83.9209L161.246 83.5866L159.345 81.4765L158.973 81.0641L158.602 81.4765L150.511 90.4557L150.209 90.7904L150.511 91.125L158.602 100.104L158.973 100.517L159.345 100.104L161.246 97.9941Z" fill="#B2B2D4" stroke="#B2B2D4"/>
<path d="M180.503 97.308L180.155 97.6599L180.504 98.0114L182.595 100.122L182.95 100.48L183.306 100.122L192.206 91.1423L192.554 90.7904L192.206 90.4385L183.306 81.4592L182.95 81.1008L182.595 81.4592L180.504 83.5693L180.155 83.9208L180.503 84.2727L186.949 90.7904L180.503 97.308Z" fill="#B2B2D4" stroke="#B2B2D4"/>
<path d="M177.347 75.9475L177.504 75.325L176.862 75.325L173.696 75.325L173.307 75.325L173.211 75.7023L165.386 106.631L165.228 107.253L165.871 107.253L169.036 107.253L169.426 107.253L169.521 106.876L177.347 75.9475Z" fill="#B2B2D4" stroke="#B2B2D4"/>
<defs>
<filter id="filter0_f" x="2.61086" y="176.704" width="335.115" height="33.225" filterUnits="userSpaceOnUse" color-interpolation-filters="sRGB">
<feFlood flood-opacity="0" result="BackgroundImageFix"/>
<feBlend mode="normal" in="SourceGraphic" in2="BackgroundImageFix" result="shape"/>
<feGaussianBlur stdDeviation="7.46429" result="effect1_foregroundBlur"/>
</filter>
<linearGradient id="paint0_linear" x1="664.094" y1="146.414" x2="293.891" y2="157.743" gradientUnits="userSpaceOnUse">
<stop stop-color="#ECECFF"/>
<stop offset="1" stop-color="white" stop-opacity="0"/>
</linearGradient>
<linearGradient id="paint1_linear" x1="0" y1="186.244" x2="340" y2="186.244" gradientUnits="userSpaceOnUse">
<stop stop-color="#B7C2D0"/>
<stop offset="0.0295345" stop-color="#CAD4DB"/>
<stop offset="0.0625" stop-color="#BECCDE"/>
<stop offset="0.133609" stop-color="#B7C2D0" stop-opacity="0.3"/>
<stop offset="0.865967" stop-color="#B7C2D0" stop-opacity="0.3"/>
<stop offset="0.941937" stop-color="#BECCDE"/>
<stop offset="0.971275" stop-color="#CAD4DB"/>
<stop offset="0.996436" stop-color="#B7C2D0"/>
</linearGradient>
<linearGradient id="paint2_linear" x1="170" y1="187.254" x2="170" y2="191.296" gradientUnits="userSpaceOnUse">
<stop stop-color="#D1DBE9" stop-opacity="0.6"/>
<stop offset="1" stop-color="#AAB5C6" stop-opacity="0.6"/>
</linearGradient>
<linearGradient id="paint3_linear" x1="150.007" y1="186.46" x2="191.234" y2="186.46" gradientUnits="userSpaceOnUse">
<stop stop-color="#CFD9E7"/>
<stop offset="0.317518" stop-color="#CFD9E7" stop-opacity="0"/>
<stop offset="0.660584" stop-color="#CFD9E7" stop-opacity="0"/>
<stop offset="1" stop-color="#CFD9E7"/>
</linearGradient>
</defs>
</svg>
