<?xml version="1.0" encoding="iso-8859-1"?>
<!-- Generator: Adobe Illustrator 16.0.0, SVG Export Plug-In . SVG Version: 6.00 Build 0)  -->
<!DOCTYPE svg PUBLIC "-//W3C//DTD SVG 1.1//EN" "http://www.w3.org/Graphics/SVG/1.1/DTD/svg11.dtd">
<svg version="1.1" id="Capa_1" xmlns="http://www.w3.org/2000/svg" xmlns:xlink="http://www.w3.org/1999/xlink" x="0px" y="0px"
	 width="938.2px" height="938.2px" viewBox="0 0 938.2 938.2" style="enable-background:new 0 0 938.2 938.2;" xml:space="preserve"
	>
<g>
	<g>
		<path d="M59.95,938.2H878.25c27.6,0,50-22.4,50-50v-8c0-27.6-22.4-50-50-50H826.95v-371H699.25v371h-68.4v-371h-127.6v371H434.85
			v-371h-127.6v371h-68.4v-371h-127.6v371h-51.3c-27.6,0-50,22.4-50,50v8C9.95,915.8,32.35,938.2,59.95,938.2z"/>
		<path d="M889.149,319.9l-389.1-309c-9-7.3-20-10.9-31-10.9c-11,0-22,3.6-31,10.8L48.15,319.7c-12,9.5-19,23.9-19,39.2v20.3
			c0,27.6,22.4,50,50,50h32.1h127.6h68.4h127.6h68.401h127.6h68.4h127.6h31.5c27.799,0,50.299-22.7,50-50.6l-0.201-20.2
			C907.85,343.4,900.95,329.2,889.149,319.9z"/>
	</g>
</g>
<g>
</g>
<g>
</g>
<g>
</g>
<g>
</g>
<g>
</g>
<g>
</g>
<g>
</g>
<g>
</g>
<g>
</g>
<g>
</g>
<g>
</g>
<g>
</g>
<g>
</g>
<g>
</g>
<g>
</g>
</svg>
