<svg xmlns="http://www.w3.org/2000/svg" style="fill-rule:evenodd;clip-rule:evenodd;stroke-linejoin:round;stroke-miterlimit:2" width="100%" height="100%" version="1.1" viewBox="0 0 307 65"><g><path d="M352.64,357.25C348.366,374.393 331.003,384.826 313.858,380.551C296.72,376.277 286.287,358.913 290.563,341.771C294.835,324.626 312.198,314.192 329.338,318.466C346.482,322.74 356.914,340.106 352.64,357.25Z" transform="matrix(1,0,0,1,-289.607,-317.505)" style="fill:#f7931a;fill-rule:nonzero"/><path d="M335.71,344.95C336.347,340.692 333.105,338.403 328.672,336.876L330.11,331.108L326.599,330.233L325.199,335.849C324.276,335.619 323.328,335.402 322.386,335.187L323.796,329.534L320.287,328.659L318.848,334.425C318.084,334.251 317.334,334.079 316.606,333.898L316.61,333.88L311.768,332.671L310.834,336.421C310.834,336.421 313.439,337.018 313.384,337.055C314.806,337.41 315.063,338.351 315.02,339.097L313.382,345.668C313.48,345.693 313.607,345.729 313.747,345.785C313.63,345.756 313.505,345.724 313.376,345.693L311.08,354.898C310.906,355.33 310.465,355.978 309.471,355.732C309.506,355.783 306.919,355.095 306.919,355.095L305.176,359.114L309.745,360.253C310.595,360.466 311.428,360.689 312.248,360.899L310.795,366.733L314.302,367.608L315.741,361.836C316.699,362.096 317.629,362.336 318.539,362.562L317.105,368.307L320.616,369.182L322.069,363.359C328.056,364.492 332.558,364.035 334.453,358.62C335.98,354.26 334.377,351.745 331.227,350.105C333.521,349.576 335.249,348.067 335.71,344.95ZM327.688,356.199C326.603,360.559 319.262,358.202 316.882,357.611L318.81,349.882C321.19,350.476 328.822,351.652 327.688,356.199ZM328.774,344.887C327.784,348.853 321.674,346.838 319.692,346.344L321.44,339.334C323.422,339.828 329.805,340.75 328.774,344.887Z" transform="matrix(1,0,0,1,-289.607,-317.505)" style="fill:#fff;fill-rule:nonzero"/><path d="M383.38,336.87C385.975,336.87 388.217,337.335 390.101,338.248C391.994,339.17 393.556,340.412 394.809,341.974C396.045,343.544 396.965,345.379 397.559,347.482C398.149,349.591 398.445,351.858 398.445,354.285C398.445,358.013 397.762,361.535 396.383,364.855C395.004,368.18 393.133,371.064 390.753,373.524C388.375,375.981 385.567,377.918 382.329,379.349C379.096,380.781 375.581,381.497 371.807,381.497C371.319,381.497 370.461,381.483 369.249,381.458C368.037,381.433 366.644,381.308 365.084,381.097C363.514,380.878 361.854,380.554 360.101,380.12C358.349,379.694 356.685,379.097 355.118,378.339L369.13,319.463L381.68,317.518L376.663,338.411C377.737,337.927 378.819,337.552 379.899,337.279C380.98,337.01 382.14,336.87 383.38,336.87ZM372.853,371.541C374.743,371.541 376.524,371.076 378.197,370.163C379.875,369.249 381.323,368.015 382.536,366.478C383.749,364.934 384.709,363.195 385.409,361.252C386.109,359.309 386.463,357.282 386.463,355.173C386.463,352.582 386.03,350.561 385.167,349.1C384.304,347.645 382.707,346.913 380.388,346.913C379.628,346.913 378.649,347.058 377.435,347.317C376.217,347.592 375.127,348.163 374.15,349.022L368.808,371.21C369.13,371.267 369.415,371.321 369.658,371.372C369.896,371.427 370.159,371.466 370.421,371.493C370.698,371.524 371.015,371.54 371.398,371.54C371.781,371.54 372.26,371.541 372.853,371.541Z" transform="matrix(1,0,0,1,-289.607,-317.505)" style="fill:#4d4d4d;fill-rule:nonzero"/><path d="M411.46,380.37L399.473,380.37L409.596,337.773L421.665,337.773L411.46,380.37ZM417.293,332.583C415.62,332.583 414.103,332.085 412.757,331.087C411.4,330.095 410.728,328.568 410.728,326.51C410.728,325.378 410.958,324.316 411.414,323.314C411.877,322.314 412.482,321.453 413.24,320.721C413.997,319.995 414.874,319.415 415.87,318.978C416.872,318.548 417.938,318.333 419.074,318.333C420.746,318.333 422.255,318.831 423.606,319.829C424.952,320.832 425.629,322.359 425.629,324.406C425.629,325.542 425.4,326.608 424.94,327.608C424.483,328.608 423.878,329.469 423.12,330.201C422.369,330.928 421.484,331.506 420.49,331.939C419.487,332.376 418.425,332.583 417.293,332.583Z" transform="matrix(1,0,0,1,-289.607,-317.505)" style="fill:#4d4d4d;fill-rule:nonzero"/><path d="M432.17,327.16L444.725,325.215L441.642,337.771L455.088,337.771L452.66,347.649L439.295,347.649L435.735,362.549C435.407,363.791 435.221,364.951 435.169,366.029C435.11,367.112 435.247,368.042 435.571,368.825C435.893,369.61 436.472,370.215 437.312,370.643C438.148,371.078 439.345,371.297 440.915,371.297C442.208,371.297 443.468,371.174 444.686,370.93C445.897,370.69 447.124,370.356 448.366,369.919L449.26,379.155C447.64,379.749 445.886,380.26 443.996,380.69C442.103,381.126 439.862,381.336 437.272,381.336C433.548,381.336 430.661,380.783 428.604,379.682C426.55,378.573 425.098,377.058 424.229,375.14C423.372,373.229 422.989,371.026 423.096,368.544C423.207,366.056 423.582,363.441 424.229,360.687L432.17,327.16Z" transform="matrix(1,0,0,1,-289.607,-317.505)" style="fill:#4d4d4d;fill-rule:nonzero"/><path d="M454.56,363.36C454.56,359.691 455.154,356.231 456.341,352.992C457.526,349.75 459.233,346.915 461.448,344.482C463.655,342.061 466.344,340.143 469.509,338.735C472.659,337.335 476.186,336.629 480.073,336.629C482.506,336.629 484.679,336.859 486.591,337.32C488.511,337.785 490.248,338.386 491.819,339.14L487.685,348.54C486.605,348.102 485.484,347.716 484.325,347.366C483.165,347.009 481.749,346.837 480.074,346.837C476.073,346.837 472.91,348.216 470.556,350.965C468.211,353.716 467.03,357.419 467.03,362.064C467.03,364.817 467.624,367.043 468.816,368.746C470.002,370.449 472.193,371.296 475.374,371.296C476.944,371.296 478.459,371.132 479.91,370.812C481.372,370.488 482.663,370.08 483.8,369.598L484.695,379.234C483.179,379.822 481.507,380.353 479.673,380.818C477.835,381.267 475.647,381.5 473.11,381.5C469.761,381.5 466.926,381.01 464.607,380.045C462.287,379.065 460.37,377.764 458.86,376.116C457.342,374.464 456.252,372.535 455.578,370.321C454.904,368.109 454.56,365.785 454.56,363.36Z" transform="matrix(1,0,0,1,-289.607,-317.505)" style="fill:#4d4d4d;fill-rule:nonzero"/><path d="M507.81,381.5C504.949,381.5 502.464,381.064 500.356,380.201C498.254,379.338 496.513,378.127 495.136,376.557C493.757,374.995 492.725,373.144 492.018,371.011C491.311,368.879 490.971,366.518 490.971,363.931C490.971,360.686 491.492,357.442 492.545,354.207C493.593,350.965 495.148,348.052 497.206,345.463C499.248,342.87 501.767,340.75 504.733,339.097C507.696,337.455 511.104,336.629 514.932,336.629C517.741,336.629 520.213,337.066 522.35,337.929C524.477,338.79 526.229,340.011 527.614,341.573C528.984,343.143 530.025,344.986 530.725,347.122C531.43,349.25 531.778,351.617 531.778,354.206C531.778,357.441 531.264,360.685 530.244,363.93C529.223,367.159 527.708,370.079 525.708,372.674C523.712,375.263 521.216,377.382 518.218,379.028C515.224,380.674 511.752,381.5 507.81,381.5ZM513.801,346.838C512.024,346.838 510.453,347.354 509.108,348.373C507.758,349.404 506.624,350.7 505.71,352.263C504.786,353.833 504.101,355.545 503.638,357.406C503.179,359.271 502.954,361.034 502.954,362.709C502.954,365.412 503.39,367.517 504.247,369.032C505.116,370.539 506.677,371.297 508.946,371.297C510.729,371.297 512.292,370.785 513.645,369.755C514.987,368.732 516.122,367.435 517.043,365.869C517.961,364.307 518.652,362.59 519.115,360.726C519.568,358.867 519.799,357.094 519.799,355.422C519.799,352.726 519.365,350.616 518.5,349.103C517.636,347.596 516.068,346.838 513.801,346.838Z" transform="matrix(1,0,0,1,-289.607,-317.505)" style="fill:#4d4d4d;fill-rule:nonzero"/><path d="M544.84,380.37L532.843,380.37L542.966,337.773L555.041,337.773L544.84,380.37ZM550.664,332.583C548.992,332.583 547.476,332.085 546.132,331.087C544.782,330.095 544.104,328.568 544.104,326.51C544.104,325.378 544.337,324.316 544.794,323.314C545.251,322.314 545.86,321.453 546.618,320.721C547.371,319.995 548.256,319.415 549.25,318.978C550.246,318.548 551.312,318.333 552.444,318.333C554.12,318.333 555.634,318.831 556.982,319.829C558.331,320.832 559.012,322.359 559.012,324.406C559.012,325.542 558.77,326.608 558.317,327.608C557.864,328.608 557.255,329.469 556.5,330.201C555.74,330.928 554.866,331.506 553.87,331.939C552.866,332.376 551.802,332.583 550.664,332.583Z" transform="matrix(1,0,0,1,-289.607,-317.505)" style="fill:#4d4d4d;fill-rule:nonzero"/><path d="M563.68,339.71C564.59,339.444 565.606,339.124 566.711,338.776C567.82,338.428 569.059,338.104 570.443,337.812C571.812,337.511 573.357,337.267 575.056,337.078C576.755,336.885 578.691,336.791 580.842,336.791C587.164,336.791 591.522,338.632 593.928,342.303C596.332,345.974 596.748,350.998 595.188,357.366L589.674,380.366L577.608,380.366L582.952,357.85C583.278,356.444 583.534,355.085 583.723,353.757C583.914,352.441 583.903,351.281 583.68,350.277C583.467,349.285 582.965,348.473 582.186,347.844C581.395,347.225 580.2,346.914 578.579,346.914C577.016,346.914 575.426,347.082 573.803,347.406L565.946,380.365L553.875,380.365L563.68,339.71Z" transform="matrix(1,0,0,1,-289.607,-317.505)" style="fill:#4d4d4d;fill-rule:nonzero"/></g></svg>