<svg width="24" height="24" viewBox="0 0 24 24" fill="none" xmlns="http://www.w3.org/2000/svg">
<g clip-path="url(#clip0)">
<path d="M8.84296 12.6511C7.45096 12.6511 6.32196 13.7801 6.32196 15.1721V21.4781C6.32196 22.87 7.45096 23.999 8.84296 23.999C10.235 23.999 11.364 22.87 11.364 21.4781V15.1721C11.363 13.7801 10.234 12.6511 8.84296 12.6511Z" fill="white"/>
<path d="M0.019043 15.1721C0.019043 16.5651 1.14904 17.6951 2.54204 17.6951C3.93504 17.6951 5.06504 16.5651 5.06504 15.1721V12.6491H2.54404C2.54304 12.6491 2.54304 12.6491 2.54204 12.6491C1.14904 12.6491 0.019043 13.7791 0.019043 15.1721Z" fill="white"/>
<path d="M8.846 -0.000976562C8.845 -0.000976562 8.844 -0.000976562 8.843 -0.000976562C7.45001 -0.000976562 6.32001 1.12902 6.32001 2.52202C6.32001 3.91502 7.45001 5.04502 8.843 5.04502H11.364C11.364 3.61402 11.364 3.96202 11.364 2.51702C11.363 1.12602 10.236 -0.000976562 8.846 -0.000976562Z" fill="white"/>
<path d="M2.52507 11.37H8.84307C10.2361 11.37 11.3661 10.24 11.3661 8.84697C11.3661 7.45397 10.2361 6.32397 8.84307 6.32397H2.52507C1.13208 6.32397 0.0020752 7.45397 0.0020752 8.84697C0.0020752 10.24 1.13208 11.37 2.52507 11.37Z" fill="white"/>
<path d="M21.457 6.323C20.066 6.323 18.939 7.45 18.939 8.841V8.846V11.369H21.46C22.853 11.369 23.983 10.239 23.983 8.846C23.983 7.453 22.853 6.323 21.46 6.323C21.459 6.323 21.458 6.323 21.457 6.323Z" fill="white"/>
<path d="M12.641 2.52198V8.84698C12.641 10.239 13.77 11.368 15.162 11.368C16.554 11.368 17.683 10.239 17.683 8.84698V2.52198C17.683 1.12998 16.554 0.000976562 15.162 0.000976562C13.77 0.000976562 12.641 1.12998 12.641 2.52198Z" fill="white"/>
<path d="M17.682 21.476C17.682 20.084 16.553 18.955 15.161 18.955H12.64V21.478C12.641 22.869 13.769 23.997 15.161 23.997C16.553 23.997 17.682 22.868 17.682 21.476Z" fill="white"/>
<path d="M21.479 12.6491H15.161C13.768 12.6491 12.638 13.7791 12.638 15.1721C12.638 16.5651 13.768 17.6951 15.161 17.6951H21.479C22.872 17.6951 24.002 16.5651 24.002 15.1721C24.002 13.7791 22.872 12.6491 21.479 12.6491Z" fill="white"/>
</g>
<defs>
<clipPath id="clip0">
<rect width="24" height="24" fill="white"/>
</clipPath>
</defs>
</svg>
