<svg xmlns="http://www.w3.org/2000/svg" width="185" height="30" fill="none" viewBox="0 0 185 30"><circle cx="15" cy="15" r="15" fill="#DC0D16"/><path fill="#fff" d="M14.1667 5.83331L9.16669 5.83331L18.3334 15L9.16669 24.1666H14.1667L23.3334 15L14.1667 5.83331Z"/><mask id="mask0" width="30" height="30" x="0" y="0" mask-type="alpha" maskUnits="userSpaceOnUse"><circle cx="15" cy="15" r="15" fill="#C4C4C4"/></mask><g mask="url(#mask0)"><path fill="url(#paint0_linear)" d="M18.3334 15L9.16669 24.1666L4.58335 28.75L-4.58331 19.5833L9.16669 5.83331L18.3334 15Z"/></g><path fill="#042235" d="M48.5199 12.0909H46.2827V9.47727H44.1591V12.0909H42.5611V13.7955H44.1591V20.2372C44.152 22.2188 45.6648 23.1776 47.3409 23.142C48.0156 23.1349 48.4702 23.0071 48.7188 22.9148L48.3352 21.1605C48.1932 21.1889 47.9304 21.2528 47.5895 21.2528C46.9006 21.2528 46.2827 21.0256 46.2827 19.7969V13.7955H48.5199V12.0909ZM53.2269 16.5227C53.2269 14.7827 54.3278 13.7884 55.8406 13.7884C57.3036 13.7884 58.1772 14.7188 58.1772 16.3168V23H60.3008V16.0611C60.3008 13.3409 58.8093 11.9489 56.565 11.9489C54.8675 11.9489 53.8448 12.6875 53.3335 13.8665H53.1985V8.45455H51.1033V23H53.2269V16.5227ZM67.8363 23.2202C70.2156 23.2202 71.8988 22.0483 72.3817 20.2727L70.3718 19.9105C69.9883 20.9403 69.065 21.4659 67.8576 21.4659C66.0394 21.4659 64.8178 20.2869 64.761 18.1847H72.5167V17.4318C72.5167 13.4901 70.1587 11.9489 67.6871 11.9489C64.6474 11.9489 62.6445 14.2642 62.6445 17.6165C62.6445 21.0043 64.619 23.2202 67.8363 23.2202ZM64.7681 16.5938C64.8533 15.0455 65.9755 13.7031 67.7013 13.7031C69.3491 13.7031 70.4286 14.9247 70.4357 16.5938H64.7681ZM76.9964 16.5227C76.9964 14.7827 78.0618 13.7884 79.5391 13.7884C80.9808 13.7884 81.8544 14.733 81.8544 16.3168V23H83.978V16.0611C83.978 13.3622 82.4936 11.9489 80.2635 11.9489C78.6229 11.9489 77.5504 12.7088 77.0462 13.8665H76.9112V12.0909H74.8729V23H76.9964V16.5227ZM91.5277 23.2202C93.907 23.2202 95.5902 22.0483 96.0732 20.2727L94.0632 19.9105C93.6797 20.9403 92.7564 21.4659 91.549 21.4659C89.7308 21.4659 88.5092 20.2869 88.4524 18.1847H96.2081V17.4318C96.2081 13.4901 93.8501 11.9489 91.3786 11.9489C88.3388 11.9489 86.3359 14.2642 86.3359 17.6165C86.3359 21.0043 88.3104 23.2202 91.5277 23.2202ZM88.4595 16.5938C88.5447 15.0455 89.6669 13.7031 91.3928 13.7031C93.0405 13.7031 94.12 14.9247 94.1271 16.5938H88.4595ZM100.91 23H103.069L105.285 15.1236H105.448L107.664 23H109.83L113.033 12.0909H110.839L108.715 20.0668H108.609L106.478 12.0909H104.283L102.138 20.1023H102.032L99.8942 12.0909H97.6996L100.91 23ZM115.219 23H117.293V21.3026H117.471C117.854 21.9986 118.635 23.2131 120.624 23.2131C123.266 23.2131 125.184 21.0966 125.184 17.5668C125.184 14.0298 123.238 11.9489 120.603 11.9489C118.578 11.9489 117.847 13.1847 117.471 13.8594H117.343V8.45455H115.219V23ZM117.3 17.5455C117.3 15.2656 118.294 13.7528 120.148 13.7528C122.073 13.7528 123.039 15.3793 123.039 17.5455C123.039 19.733 122.044 21.402 120.148 21.402C118.323 21.402 117.3 19.8395 117.3 17.5455ZM132.163 23.2202C135.239 23.2202 137.249 20.9688 137.249 17.5952C137.249 14.2003 135.239 11.9489 132.163 11.9489C129.088 11.9489 127.078 14.2003 127.078 17.5952C127.078 20.9688 129.088 23.2202 132.163 23.2202ZM132.17 21.4375C130.161 21.4375 129.223 19.6832 129.223 17.5881C129.223 15.5 130.161 13.7244 132.17 13.7244C134.166 13.7244 135.104 15.5 135.104 17.5881C135.104 19.6832 134.166 21.4375 132.17 21.4375ZM147.794 14.7543C147.353 13.0568 146.025 11.9489 143.667 11.9489C141.203 11.9489 139.456 13.2486 139.456 15.1804C139.456 16.7287 140.393 17.7585 142.439 18.2131L144.285 18.6179C145.336 18.8523 145.826 19.321 145.826 20.0028C145.826 20.848 144.924 21.5085 143.532 21.5085C142.261 21.5085 141.444 20.9616 141.189 19.8892L139.136 20.2017C139.491 22.1335 141.096 23.2202 143.547 23.2202C146.181 23.2202 148.007 21.821 148.007 19.8466C148.007 18.3054 147.027 17.3537 145.024 16.892L143.291 16.4943C142.091 16.2102 141.572 15.8054 141.579 15.0668C141.572 14.2287 142.481 13.6321 143.689 13.6321C145.01 13.6321 145.62 14.3636 145.869 15.0952L147.794 14.7543ZM155.434 12.0909H153.197V9.47727H151.073V12.0909H149.475V13.7955H151.073V20.2372C151.066 22.2188 152.579 23.1776 154.255 23.142C154.93 23.1349 155.384 23.0071 155.633 22.9148L155.249 21.1605C155.107 21.1889 154.844 21.2528 154.504 21.2528C153.815 21.2528 153.197 21.0256 153.197 19.7969V13.7955H155.434V12.0909ZM162.261 23.2202C165.336 23.2202 167.346 20.9688 167.346 17.5952C167.346 14.2003 165.336 11.9489 162.261 11.9489C159.186 11.9489 157.176 14.2003 157.176 17.5952C157.176 20.9688 159.186 23.2202 162.261 23.2202ZM162.268 21.4375C160.258 21.4375 159.321 19.6832 159.321 17.5881C159.321 15.5 160.258 13.7244 162.268 13.7244C164.264 13.7244 165.201 15.5 165.201 17.5881C165.201 19.6832 164.264 21.4375 162.268 21.4375ZM171.84 16.5227C171.84 14.7827 172.906 13.7884 174.383 13.7884C175.825 13.7884 176.698 14.733 176.698 16.3168V23H178.822V16.0611C178.822 13.3622 177.337 11.9489 175.107 11.9489C173.467 11.9489 172.394 12.7088 171.89 13.8665H171.755V12.0909H169.717V23H171.84V16.5227Z"/><defs><linearGradient id="paint0_linear" x1="13.75" x2="5.833" y1="10.417" y2="18.333" gradientUnits="userSpaceOnUse"><stop stop-color="#B10910"/><stop offset="1" stop-color="#B10910" stop-opacity="0"/></linearGradient></defs></svg>