<svg xmlns="http://www.w3.org/2000/svg" style="fill-rule:evenodd;clip-rule:evenodd;stroke-linejoin:round;stroke-miterlimit:2" width="100%" height="100%" version="1.1" viewBox="0 0 246 36"> <g> <g> <circle cx="18" cy="18" r="18" style="fill:#dc0c17"/> <path d="M17,7L11,7L22,18L11,29L17,29L28,18L17,7Z" style="fill:#fff;fill-rule:nonzero"/> </g> <g> <g> <path d="M0.008,-0.432L0.008,-0.517L0.094,-0.517L0.094,-0.672L0.208,-0.672L0.208,-0.517L0.311,-0.517L0.311,-0.432L0.208,-0.432L0.208,-0.156C0.208,-0.129 0.211,-0.112 0.216,-0.103C0.223,-0.091 0.239,-0.085 0.263,-0.085C0.284,-0.085 0.3,-0.086 0.311,-0.089L0.311,-0.001C0.261,0.003 0.236,0.005 0.237,0.005C0.181,0.005 0.142,-0.006 0.121,-0.029C0.103,-0.048 0.094,-0.08 0.094,-0.127L0.094,-0.432L0.008,-0.432Z" transform="matrix(2.51832,0,0,2.51832,-1162.99,-1049.69) matrix(12,0,0,12,480.775,428.171)" style="fill:#042235;fill-rule:nonzero"/> </g> <g> <path d="M0.06,0L0.06,-0.714L0.174,-0.714L0.174,-0.449L0.176,-0.449C0.191,-0.473 0.212,-0.493 0.239,-0.508C0.267,-0.523 0.298,-0.531 0.331,-0.531C0.388,-0.531 0.433,-0.516 0.466,-0.486C0.498,-0.456 0.514,-0.412 0.514,-0.355L0.514,0L0.4,0L0.4,-0.325C0.4,-0.402 0.366,-0.441 0.299,-0.441C0.262,-0.441 0.232,-0.428 0.209,-0.402C0.186,-0.376 0.174,-0.344 0.174,-0.305L0.174,0L0.06,0Z" transform="matrix(2.51832,0,0,2.51832,-1162.99,-1049.69) matrix(12,0,0,12,484.771,428.171)" style="fill:#042235;fill-rule:nonzero"/> </g> <g> <path d="M0.529,-0.229L0.149,-0.229C0.149,-0.186 0.16,-0.15 0.183,-0.122C0.208,-0.091 0.243,-0.076 0.288,-0.076C0.352,-0.076 0.394,-0.105 0.414,-0.162L0.522,-0.162C0.51,-0.107 0.483,-0.064 0.44,-0.033C0.397,-0.002 0.346,0.014 0.288,0.014C0.209,0.014 0.147,-0.011 0.102,-0.061C0.057,-0.111 0.035,-0.177 0.035,-0.258C0.035,-0.334 0.057,-0.398 0.102,-0.45C0.149,-0.504 0.21,-0.531 0.285,-0.531C0.358,-0.531 0.417,-0.504 0.464,-0.451C0.509,-0.401 0.531,-0.34 0.531,-0.267C0.531,-0.254 0.53,-0.242 0.529,-0.229ZM0.149,-0.304L0.415,-0.304C0.413,-0.342 0.4,-0.374 0.377,-0.401C0.353,-0.428 0.322,-0.441 0.285,-0.441C0.246,-0.441 0.214,-0.428 0.189,-0.402C0.164,-0.376 0.15,-0.343 0.149,-0.304Z" transform="matrix(2.51832,0,0,2.51832,-1162.99,-1049.69) matrix(12,0,0,12,491.659,428.171)" style="fill:#042235;fill-rule:nonzero"/> </g> <g> <path d="M0.06,0L0.06,-0.517L0.168,-0.517L0.168,-0.441L0.17,-0.439C0.207,-0.5 0.26,-0.531 0.331,-0.531C0.388,-0.531 0.433,-0.516 0.466,-0.486C0.498,-0.456 0.514,-0.412 0.514,-0.355L0.514,0L0.4,0L0.4,-0.325C0.4,-0.402 0.366,-0.441 0.299,-0.441C0.262,-0.441 0.232,-0.428 0.209,-0.402C0.186,-0.376 0.174,-0.344 0.174,-0.305L0.174,0L0.06,0Z" transform="matrix(2.51832,0,0,2.51832,-1162.99,-1049.69) matrix(12,0,0,12,498.331,428.171)" style="fill:#042235;fill-rule:nonzero"/> </g> <g> <path d="M0.529,-0.229L0.149,-0.229C0.149,-0.186 0.16,-0.15 0.183,-0.122C0.208,-0.091 0.243,-0.076 0.288,-0.076C0.352,-0.076 0.394,-0.105 0.414,-0.162L0.522,-0.162C0.51,-0.107 0.483,-0.064 0.44,-0.033C0.397,-0.002 0.346,0.014 0.288,0.014C0.209,0.014 0.147,-0.011 0.102,-0.061C0.057,-0.111 0.035,-0.177 0.035,-0.258C0.035,-0.334 0.057,-0.398 0.102,-0.45C0.149,-0.504 0.21,-0.531 0.285,-0.531C0.358,-0.531 0.417,-0.504 0.464,-0.451C0.509,-0.401 0.531,-0.34 0.531,-0.267C0.531,-0.254 0.53,-0.242 0.529,-0.229ZM0.149,-0.304L0.415,-0.304C0.413,-0.342 0.4,-0.374 0.377,-0.401C0.353,-0.428 0.322,-0.441 0.285,-0.441C0.246,-0.441 0.214,-0.428 0.189,-0.402C0.164,-0.376 0.15,-0.343 0.149,-0.304Z" transform="matrix(2.51832,0,0,2.51832,-1162.99,-1049.69) matrix(12,0,0,12,505.219,428.171)" style="fill:#042235;fill-rule:nonzero"/> </g> <g> <path d="M0.173,0L0.013,-0.517L0.134,-0.517L0.235,-0.131L0.237,-0.131L0.334,-0.517L0.449,-0.517L0.542,-0.131L0.544,-0.131L0.649,-0.517L0.765,-0.517L0.603,0L0.486,0L0.39,-0.384L0.388,-0.384L0.293,0L0.173,0Z" transform="matrix(2.51832,0,0,2.51832,-1162.99,-1049.69) matrix(12,0,0,12,511.891,428.171)" style="fill:#042235;fill-rule:nonzero"/> </g> <g> <path d="M0.461,-0.258C0.461,-0.308 0.449,-0.35 0.425,-0.385C0.398,-0.422 0.363,-0.441 0.318,-0.441C0.271,-0.441 0.235,-0.425 0.211,-0.392C0.186,-0.359 0.173,-0.315 0.173,-0.258C0.173,-0.205 0.186,-0.161 0.212,-0.127C0.238,-0.093 0.273,-0.076 0.318,-0.076C0.366,-0.076 0.403,-0.095 0.429,-0.133C0.45,-0.166 0.461,-0.207 0.461,-0.258ZM0.063,0L0.063,-0.714L0.177,-0.714L0.177,-0.45L0.179,-0.45C0.194,-0.475 0.216,-0.494 0.245,-0.509C0.274,-0.524 0.303,-0.531 0.333,-0.531C0.411,-0.531 0.472,-0.504 0.515,-0.45C0.555,-0.401 0.575,-0.336 0.575,-0.256C0.575,-0.181 0.557,-0.118 0.521,-0.069C0.48,-0.014 0.424,0.014 0.352,0.014C0.261,0.014 0.202,-0.014 0.173,-0.071L0.171,-0.071L0.171,0L0.063,0Z" transform="matrix(2.51832,0,0,2.51832,-1162.99,-1049.69) matrix(12,0,0,12,521.227,428.171)" style="fill:#042235;fill-rule:nonzero"/> </g> <g> <path d="M0.297,-0.076C0.345,-0.076 0.382,-0.095 0.409,-0.134C0.432,-0.167 0.444,-0.209 0.444,-0.259C0.444,-0.308 0.432,-0.35 0.409,-0.383C0.382,-0.422 0.345,-0.441 0.297,-0.441C0.249,-0.441 0.212,-0.422 0.185,-0.383C0.162,-0.35 0.15,-0.308 0.15,-0.259C0.15,-0.209 0.162,-0.167 0.185,-0.134C0.212,-0.095 0.249,-0.076 0.297,-0.076ZM0.297,0.014C0.216,0.014 0.151,-0.012 0.104,-0.063C0.059,-0.112 0.036,-0.178 0.036,-0.259C0.036,-0.34 0.059,-0.405 0.106,-0.456C0.152,-0.506 0.216,-0.531 0.297,-0.531C0.378,-0.531 0.443,-0.505 0.49,-0.454C0.535,-0.405 0.558,-0.34 0.558,-0.259C0.558,-0.178 0.535,-0.112 0.49,-0.063C0.443,-0.012 0.378,0.014 0.297,0.014Z" transform="matrix(2.51832,0,0,2.51832,-1162.99,-1049.69) matrix(12,0,0,12,528.559,428.171)" style="fill:#042235;fill-rule:nonzero"/> </g> <g> <path d="M0.032,-0.166L0.146,-0.166C0.151,-0.106 0.19,-0.076 0.263,-0.076C0.342,-0.076 0.38,-0.099 0.378,-0.144C0.377,-0.176 0.347,-0.199 0.288,-0.213C0.19,-0.237 0.137,-0.251 0.129,-0.255C0.072,-0.28 0.043,-0.323 0.043,-0.383C0.043,-0.434 0.067,-0.473 0.116,-0.499C0.155,-0.52 0.202,-0.531 0.259,-0.531C0.317,-0.531 0.365,-0.519 0.402,-0.495C0.444,-0.467 0.468,-0.426 0.475,-0.372L0.356,-0.372C0.347,-0.418 0.312,-0.441 0.251,-0.441C0.188,-0.441 0.157,-0.423 0.157,-0.388C0.157,-0.364 0.175,-0.346 0.21,-0.333C0.217,-0.33 0.255,-0.321 0.325,-0.305C0.377,-0.293 0.415,-0.278 0.44,-0.261C0.475,-0.236 0.492,-0.2 0.492,-0.154C0.492,-0.097 0.467,-0.054 0.417,-0.024C0.375,0.001 0.323,0.014 0.261,0.014C0.193,0.014 0.139,-0.001 0.099,-0.03C0.055,-0.062 0.033,-0.107 0.032,-0.166Z" transform="matrix(2.51832,0,0,2.51832,-1162.99,-1049.69) matrix(12,0,0,12,535.675,428.171)" style="fill:#042235;fill-rule:nonzero"/> </g> <g> <path d="M0.008,-0.432L0.008,-0.517L0.094,-0.517L0.094,-0.672L0.208,-0.672L0.208,-0.517L0.311,-0.517L0.311,-0.432L0.208,-0.432L0.208,-0.156C0.208,-0.129 0.211,-0.112 0.216,-0.103C0.223,-0.091 0.239,-0.085 0.263,-0.085C0.284,-0.085 0.3,-0.086 0.311,-0.089L0.311,-0.001C0.261,0.003 0.236,0.005 0.237,0.005C0.181,0.005 0.142,-0.006 0.121,-0.029C0.103,-0.048 0.094,-0.08 0.094,-0.127L0.094,-0.432L0.008,-0.432Z" transform="matrix(2.51832,0,0,2.51832,-1162.99,-1049.69) matrix(12,0,0,12,541.903,428.171)" style="fill:#042235;fill-rule:nonzero"/> </g> <g> <path d="M0.297,-0.076C0.345,-0.076 0.382,-0.095 0.409,-0.134C0.432,-0.167 0.444,-0.209 0.444,-0.259C0.444,-0.308 0.432,-0.35 0.409,-0.383C0.382,-0.422 0.345,-0.441 0.297,-0.441C0.249,-0.441 0.212,-0.422 0.185,-0.383C0.162,-0.35 0.15,-0.308 0.15,-0.259C0.15,-0.209 0.162,-0.167 0.185,-0.134C0.212,-0.095 0.249,-0.076 0.297,-0.076ZM0.297,0.014C0.216,0.014 0.151,-0.012 0.104,-0.063C0.059,-0.112 0.036,-0.178 0.036,-0.259C0.036,-0.34 0.059,-0.405 0.106,-0.456C0.152,-0.506 0.216,-0.531 0.297,-0.531C0.378,-0.531 0.443,-0.505 0.49,-0.454C0.535,-0.405 0.558,-0.34 0.558,-0.259C0.558,-0.178 0.535,-0.112 0.49,-0.063C0.443,-0.012 0.378,0.014 0.297,0.014Z" transform="matrix(2.51832,0,0,2.51832,-1162.99,-1049.69) matrix(12,0,0,12,545.899,428.171)" style="fill:#042235;fill-rule:nonzero"/> </g> <g> <path d="M0.06,0L0.06,-0.517L0.168,-0.517L0.168,-0.441L0.17,-0.439C0.207,-0.5 0.26,-0.531 0.331,-0.531C0.388,-0.531 0.433,-0.516 0.466,-0.486C0.498,-0.456 0.514,-0.412 0.514,-0.355L0.514,0L0.4,0L0.4,-0.325C0.4,-0.402 0.366,-0.441 0.299,-0.441C0.262,-0.441 0.232,-0.428 0.209,-0.402C0.186,-0.376 0.174,-0.344 0.174,-0.305L0.174,0L0.06,0Z" transform="matrix(2.51832,0,0,2.51832,-1162.99,-1049.69) matrix(12,0,0,12,553.015,428.171)" style="fill:#042235;fill-rule:nonzero"/> </g> </g> </g></svg>