<svg xmlns="http://www.w3.org/2000/svg" width="564" height="372" fill="none" viewBox="0 0 564 372"><path fill="#C1C9D2" d="M564 321.075H0V321.357H564V321.075Z"/><path fill="#C1C9D2" d="M147.057 331.822H59.1749V332.104H147.057V331.822Z"/><path fill="#C1C9D2" d="M507.487 340.392H464.736V340.674H507.487V340.392Z"/><path fill="#C1C9D2" d="M169.832 342.286H148.185V342.568H169.832V342.286Z"/><path fill="#C1C9D2" d="M276.766 328.754H228.048V329.036H276.766V328.754Z"/><path fill="#C1C9D2" d="M293.945 328.754H286.805V329.036H293.945V328.754Z"/><path fill="#C1C9D2" d="M418.364 335.633H369.612V335.915H418.364V335.633Z"/><path fill="#C1C9D2" d="M149.877 295.298H94.4475C91.9771 295.298 89.8791 293.482 89.5181 291.046L75.6437 196.245C75.2038 193.245 77.5274 190.55 80.5731 190.55H135.992C138.462 190.55 140.56 192.366 140.921 194.802L154.795 289.603C155.235 292.603 152.912 295.298 149.877 295.298Z"/><path fill="#F5FBFF" d="M101.046 295.298H74.9105C72.4401 295.298 70.3421 293.482 69.9811 291.046L56.1067 196.245C55.6668 193.245 57.9905 190.55 61.0361 190.55H87.1718C89.6421 190.55 91.7402 192.366 92.1012 194.802L105.976 289.603C106.404 292.603 104.081 295.298 101.046 295.298Z"/><path fill="#A3ACB9" d="M431.821 166.52H162.455C155.619 166.52 149.595 171.651 149.009 177.977L142.229 251.173C141.643 257.499 146.719 262.63 153.555 262.63H422.921C429.757 262.63 435.78 257.499 436.367 251.173L443.146 177.977C443.733 171.64 438.668 166.52 431.821 166.52Z"/><path fill="#C1C9D2" d="M413.536 166.52H144.17C137.334 166.52 131.31 171.651 130.724 177.977L123.945 251.173C123.358 257.499 128.434 262.63 135.27 262.63H404.636C411.472 262.63 417.495 257.499 418.082 251.173L424.861 177.977C425.448 171.64 420.383 166.52 413.536 166.52Z"/><path fill="#C1C9D2" d="M110.161 287.19V261.13C110.161 256.653 113.793 253.022 118.271 253.022H219.723C224.201 253.022 227.833 256.653 227.833 261.13V287.19C227.833 291.666 224.201 295.298 219.723 295.298H118.271C113.793 295.298 110.161 291.666 110.161 287.19Z"/><path fill="#A3ACB9" d="M256.868 287.878V260.442C256.868 256.337 260.196 253.022 264.29 253.022H382.697C386.803 253.022 390.119 256.349 390.119 260.442V287.878C390.119 291.982 386.791 295.298 382.697 295.298H264.29C260.184 295.298 256.868 291.971 256.868 287.878Z"/><path fill="#C1C9D2" d="M227.845 287.878V260.442C227.845 256.337 231.172 253.022 235.267 253.022H353.673C357.779 253.022 361.095 256.349 361.095 260.442V287.878C361.095 291.982 357.768 295.298 353.673 295.298H235.278C231.172 295.298 227.845 291.971 227.845 287.878Z"/><path fill="#C1C9D2" d="M431.088 295.298H389.859C386.825 295.298 384.84 292.603 385.663 289.603L411.63 194.802C412.295 192.355 414.63 190.55 417.101 190.55H458.329C461.363 190.55 463.349 193.245 462.525 196.245L436.559 291.046C435.882 293.482 433.558 295.298 431.088 295.298Z"/><path fill="#F5FBFF" d="M396.447 295.298H370.311C367.277 295.298 365.292 292.603 366.115 289.603L392.082 194.802C392.747 192.355 395.082 190.55 397.552 190.55H423.688C426.722 190.55 428.708 193.245 427.884 196.245L401.918 291.046C401.241 293.482 398.917 295.298 396.447 295.298Z"/><path fill="#A3ACB9" d="M374.586 321.075H370.616L361.118 295.297H370.932L374.586 321.075Z"/><path fill="#A3ACB9" d="M424.918 321.075H420.947L411.438 295.297H421.263L424.918 321.075Z"/><path fill="#A3ACB9" d="M138.823 321.075H142.794L152.291 295.297H142.466L138.823 321.075Z"/><path fill="#A3ACB9" d="M88.4916 321.075H92.4621L101.96 295.297H92.1463L88.4916 321.075Z"/><path fill="#A3ACB9" d="M432.396 0H131.604V107.251H432.396V0Z"/><path fill="#C1C9D2" d="M429.633 0H128.84V107.251H429.633V0Z"/><path fill="#F5FBFF" d="M420.621 98.2298V9.02148L137.876 9.02148V98.2298L420.621 98.2298Z"/><path fill="#C1C9D2" d="M279.248 80.3789C294.025 80.3789 306.004 68.4035 306.004 53.6311C306.004 38.8587 294.025 26.8833 279.248 26.8833C264.471 26.8833 252.491 38.8587 252.491 53.6311C252.491 68.4035 264.471 80.3789 279.248 80.3789Z"/><path fill="#fff" d="M183.774 98.2293L202.51 9.021H243.874L225.126 98.2293H183.774Z"/><path fill="#fff" d="M242.576 98.2293L261.324 9.021H282L263.264 98.2293H242.576Z"/><path fill="#fff" d="M368.845 98.2293L387.592 9.021H408.268L389.532 98.2293H368.845Z"/><path fill="#C1C9D2" d="M498.892 173.771C491.876 204.172 509.044 235.577 502.028 265.99C499.715 265.888 497.392 265.798 495.079 265.696C492.767 265.595 490.443 265.505 488.131 265.403C499.772 235.194 487.24 203.98 498.892 173.771Z"/><path fill="#C1C9D2" d="M480.9 186.953C486.653 216.023 468.199 245.083 473.94 274.154C476.264 274.154 478.577 274.154 480.9 274.154C483.224 274.154 485.536 274.154 487.86 274.154C477.471 245.083 491.289 216.023 480.9 186.953Z"/><path fill="#C1C9D2" d="M493.748 162.776C484.544 193.775 501.656 227.232 492.451 258.231C489.936 257.995 487.409 257.758 484.893 257.521C482.378 257.284 479.851 257.047 477.336 256.811C491.571 226.296 479.502 193.313 493.748 162.776Z"/><path fill="#C1C9D2" d="M507.295 207.419C510.262 224.188 493.714 237.359 496.681 254.127C498.553 254.465 500.415 254.815 502.287 255.153C504.16 255.491 506.021 255.841 507.893 256.179C501.193 238.734 513.996 224.864 507.295 207.419Z"/><path fill="#A3ACB9" d="M490.703 329.532C511.666 329.532 528.66 310.509 528.66 287.043C528.66 263.576 511.666 244.553 490.703 244.553C469.739 244.553 452.745 263.576 452.745 287.043C452.745 310.509 469.739 329.532 490.703 329.532Z"/><path fill="#fff" d="M282 372C402.789 372 500.708 366.285 500.708 359.235C500.708 352.185 402.789 346.47 282 346.47C161.211 346.47 63.2921 352.185 63.2921 359.235C63.2921 366.285 161.211 372 282 372Z"/><path fill="#F5FBFF" d="M432.926 199.515H189.165C186.537 199.515 184.507 197.361 184.653 194.734L192.865 45.3428C193.012 42.7153 195.279 40.5615 197.907 40.5615H441.668C444.296 40.5615 446.327 42.7153 446.18 45.3428L437.968 194.734C437.822 197.361 435.554 199.515 432.926 199.515Z"/><path fill="#042235" d="M330.38 65.9673H306.816C298.954 65.9673 292.885 59.551 293.314 51.7025L293.551 47.3498C293.968 39.7495 300.533 33.5361 308.147 33.5361H331.7C339.562 33.5361 345.642 39.9637 345.213 47.8122L344.976 52.1536C344.57 59.754 337.994 65.9673 330.38 65.9673Z"/><path fill="#042235" d="M351.834 354.533H344.288L323.499 36.8628H331.045L351.834 354.533Z"/><path fill="#042235" d="M295.164 354.533H302.721L323.499 36.8628H315.953L295.164 354.533Z"/><path fill="#131F41" d="M431.629 199.515H187.868C185.24 199.515 183.21 197.361 183.356 194.734L191.568 45.3428C191.715 42.7153 193.982 40.5615 196.61 40.5615H440.371C442.999 40.5615 445.03 42.7153 444.883 45.3428L436.671 194.734C436.525 197.361 434.257 199.515 431.629 199.515Z"/><path fill="#F5FBFF" d="M191.737 194.936C189.628 194.936 188.015 193.222 188.128 191.125L195.945 48.9623C196.058 46.8536 197.862 45.1509 199.972 45.1509H436.491C438.6 45.1509 440.213 46.8649 440.1 48.9623L432.283 191.125C432.171 193.234 430.366 194.936 428.256 194.936H191.737Z"/><path fill="#fff" d="M429.723 119.576H358.523C356.73 119.576 355.365 118.121 355.455 116.339L359.008 51.6235C359.02 51.3754 358.828 51.1611 358.58 51.1611C358.332 51.1611 358.106 51.3641 358.095 51.6235L354.542 116.339C354.44 118.132 352.917 119.576 351.124 119.576H277.149C275.356 119.576 273.991 118.121 274.081 116.339L277.635 51.6235C277.646 51.3754 277.454 51.1611 277.206 51.1611C276.958 51.1611 276.732 51.3641 276.721 51.6235L273.168 116.339C273.066 118.132 271.543 119.576 269.75 119.576H198.55C198.302 119.576 198.077 119.779 198.065 120.038C198.054 120.286 198.246 120.5 198.494 120.5H269.693C271.487 120.5 272.852 121.955 272.762 123.737L269.208 188.452C269.197 188.7 269.389 188.915 269.637 188.915C269.885 188.915 270.111 188.712 270.122 188.452L273.675 123.737C273.777 121.944 275.3 120.5 277.093 120.5H351.079C352.872 120.5 354.237 121.955 354.147 123.737L350.594 188.452C350.582 188.7 350.774 188.915 351.022 188.915C351.27 188.915 351.496 188.712 351.507 188.452L355.06 123.737C355.162 121.944 356.685 120.5 358.478 120.5H429.678C429.926 120.5 430.151 120.297 430.163 120.038C430.174 119.79 429.982 119.576 429.723 119.576Z" opacity=".1"/><path fill="#042235" d="M313.64 62.9004H285.046L283.455 91.9712L312.005 92.738L313.64 62.9004Z" opacity=".4"/><path fill="#fff" d="M310.55 91.4861C300.984 91.0238 291.419 90.5502 281.842 90.0879C283.433 80.2097 284.425 70.2976 284.831 60.4194C294.453 60.8818 304.075 61.3554 313.697 61.8177C313.246 71.6959 312.185 81.6079 310.55 91.4861Z"/><path fill="#042235" d="M348.123 82.3184L319.483 84.506L320.115 113.498L348.766 112.077L348.123 82.3184Z" opacity=".4"/><path fill="#CD3D64" d="M347.21 110.949C337.599 111.22 327.977 111.479 318.367 111.75C319.201 101.815 319.438 91.9033 319.089 82.059C328.767 81.7883 338.434 81.5177 348.101 81.2471C348.394 91.0914 348.089 101.015 347.21 110.949Z"/><path fill="#042235" d="M264.493 135.205L211.703 133.187L206.965 180.131L259.632 183.378L264.493 135.205Z" opacity=".4"/><path fill="#fff" d="M257.003 181.258C239.373 179.826 221.742 178.405 204.1 176.973C207.642 161.084 210.09 145.128 211.432 129.161C229.176 130.593 246.908 132.025 264.64 133.457C263.207 149.413 260.647 165.381 257.003 181.258Z"/><g opacity=".3"><path fill="#042235" d="M210.158 69.4633C208.522 69.4633 207.259 68.1214 207.349 66.4863C207.439 64.8512 208.849 63.5093 210.485 63.5093C212.12 63.5093 213.384 64.8512 213.293 66.4863C213.203 68.1326 211.793 69.4633 210.158 69.4633Z" opacity=".3"/><path fill="#042235" d="M256.801 69.4633H220.174C218.539 69.4633 217.275 68.1214 217.366 66.4863C217.456 64.8512 218.866 63.5093 220.501 63.5093H257.128C258.763 63.5093 260.027 64.8512 259.936 66.4863C259.857 68.1326 258.436 69.4633 256.801 69.4633Z" opacity=".8"/><path fill="#042235" d="M209.447 82.4423C207.811 82.4423 206.548 81.1004 206.638 79.4653C206.729 77.8302 208.139 76.4883 209.774 76.4883C211.41 76.4883 212.673 77.8302 212.583 79.4653C212.493 81.1004 211.083 82.4423 209.447 82.4423Z" opacity=".3"/><path fill="#042235" d="M262.576 82.4423H219.452C217.817 82.4423 216.553 81.1004 216.644 79.4653C216.734 77.8302 218.144 76.4883 219.78 76.4883H262.903C264.539 76.4883 265.802 77.8302 265.712 79.4653C265.633 81.1004 264.211 82.4423 262.576 82.4423Z" opacity=".8"/><path fill="#042235" d="M208.725 95.4218C207.09 95.4218 205.826 94.0799 205.916 92.4448C206.007 90.8097 207.417 89.4678 209.052 89.4678C210.688 89.4678 211.951 90.8097 211.861 92.4448C211.782 94.0799 210.361 95.4218 208.725 95.4218Z" opacity=".3"/><path fill="#042235" d="M239.734 95.4218H218.753C217.117 95.4218 215.854 94.0799 215.944 92.4448C216.034 90.8097 217.444 89.4678 219.08 89.4678H240.072C241.708 89.4678 242.971 90.8097 242.881 92.4448C242.779 94.0799 241.369 95.4218 239.734 95.4218Z" opacity=".8"/><path fill="#042235" d="M259.169 108.39H238.177C236.542 108.39 235.278 107.048 235.368 105.413C235.459 103.777 236.869 102.436 238.504 102.436H259.496C261.132 102.436 262.395 103.777 262.305 105.413C262.215 107.059 260.805 108.39 259.169 108.39Z" opacity=".8"/><path fill="#042235" d="M208.014 108.39C206.379 108.39 205.115 107.048 205.206 105.413C205.296 103.777 206.706 102.436 208.342 102.436C209.977 102.436 211.241 103.777 211.15 105.413C211.06 107.059 209.65 108.39 208.014 108.39Z" opacity=".3"/><path fill="#042235" d="M227.721 108.39H218.031C216.395 108.39 215.132 107.048 215.222 105.413C215.313 103.777 216.723 102.436 218.358 102.436H228.048C229.683 102.436 230.947 103.777 230.856 105.413C230.777 107.059 229.367 108.39 227.721 108.39Z" opacity=".8"/></g><path fill="#CD3D64" d="M299.078 147H284.876L282.925 182.533H297.126L299.078 147Z"/><path fill="#CD3D64" d="M320.634 154.33H306.421L304.876 182.533H319.077L320.634 154.33Z"/><path fill="#CD3D64" d="M343.611 135.408H329.41L326.827 182.533H341.028L343.611 135.408Z"/><path fill="#fff" d="M288.046 167.05C286.636 167.05 285.226 167.016 283.782 166.937C281.301 166.813 278.086 166.497 275.187 165.201C274.724 164.998 274.521 164.456 274.724 163.994C274.927 163.532 275.469 163.329 275.931 163.532C278.548 164.705 281.549 164.998 283.872 165.11C300.917 165.99 315.84 161.547 330.865 151.15C334.441 148.669 339.799 144.08 343.081 139.31C343.363 138.893 343.938 138.791 344.356 139.073C344.773 139.355 344.875 139.93 344.593 140.347C341.175 145.309 335.806 149.955 331.914 152.65C317.803 162.427 303.759 167.05 288.046 167.05Z"/><path fill="#fff" d="M346.702 146.324C346.589 146.324 346.465 146.301 346.352 146.256C345.89 146.064 345.664 145.523 345.856 145.061C347.153 141.926 347.424 138.396 346.646 135.194C343.07 137.596 339.269 139.614 335.298 141.215C334.824 141.407 334.294 141.182 334.102 140.708C333.911 140.234 334.136 139.704 334.61 139.513C338.84 137.81 342.889 135.611 346.646 132.972C346.883 132.803 347.187 132.758 347.458 132.848C347.729 132.938 347.954 133.153 348.044 133.423C349.364 137.325 349.184 141.813 347.559 145.749C347.401 146.121 347.063 146.324 346.702 146.324Z"/><path fill="#8792A2" d="M421.5 111.299H368.664C367.773 111.299 366.938 110.949 366.34 110.318C365.731 109.675 365.427 108.841 365.483 107.938L367.942 63.2835C368.044 61.4568 369.612 59.9683 371.439 59.9683H424.275C425.166 59.9683 426 60.3178 426.598 60.9493C427.207 61.5921 427.512 62.4265 427.456 63.3287L424.996 107.984C424.895 109.81 423.327 111.299 421.5 111.299ZM371.428 60.8817C370.074 60.8817 368.912 61.9868 368.845 63.3287L366.386 107.984C366.352 108.626 366.566 109.235 366.995 109.686C367.423 110.137 368.01 110.385 368.653 110.385H421.488C422.842 110.385 424.004 109.28 424.072 107.938L426.531 63.2835C426.564 62.6408 426.35 62.0319 425.921 61.5808C425.493 61.1297 424.906 60.8817 424.263 60.8817H371.428Z"/><path fill="#8792A2" d="M426.497 72.7782H367.886C367.638 72.7782 367.423 72.5752 367.423 72.3158C367.423 72.0678 367.626 71.8535 367.886 71.8535H426.497C426.745 71.8535 426.959 72.0565 426.959 72.3158C426.959 72.5639 426.756 72.7782 426.497 72.7782Z"/><path fill="#8792A2" d="M379.617 111.299C379.606 111.299 379.594 111.299 379.594 111.299C379.346 111.288 379.143 111.073 379.166 110.814L381.286 72.2823C381.298 72.0342 381.512 71.8312 381.771 71.8538C382.02 71.865 382.223 72.0793 382.2 72.3387L380.079 110.87C380.057 111.107 379.854 111.299 379.617 111.299Z"/><path fill="#8792A2" d="M419.785 77.3568H387.964C387.716 77.3568 387.502 77.1538 387.502 76.8945C387.502 76.6351 387.705 76.4321 387.964 76.4321H419.785C420.033 76.4321 420.248 76.6351 420.248 76.8945C420.248 77.1538 420.045 77.3568 419.785 77.3568Z"/><path fill="#8792A2" d="M414.991 82.9725H387.66C387.412 82.9725 387.197 82.7695 387.197 82.5102C387.197 82.2621 387.4 82.0479 387.66 82.0479H414.991C415.239 82.0479 415.454 82.2508 415.454 82.5102C415.454 82.7695 415.251 82.9725 414.991 82.9725Z"/><path fill="#8792A2" d="M403.249 88.7684H387.333C387.084 88.7684 386.87 88.5654 386.87 88.3061C386.87 88.0467 387.073 87.8438 387.333 87.8438H403.249C403.497 87.8438 403.711 88.0467 403.711 88.3061C403.711 88.5654 403.508 88.7684 403.249 88.7684Z"/><path fill="#8792A2" d="M406.136 100.079H386.712C386.464 100.079 386.25 99.876 386.25 99.6166C386.25 99.3685 386.453 99.1543 386.712 99.1543H406.136C406.385 99.1543 406.599 99.3573 406.599 99.6166C406.599 99.876 406.396 100.079 406.136 100.079Z"/><path fill="#8792A2" d="M402.312 105.875H386.396C386.148 105.875 385.934 105.672 385.934 105.413C385.934 105.164 386.137 104.95 386.396 104.95H402.312C402.561 104.95 402.775 105.153 402.775 105.413C402.764 105.672 402.561 105.875 402.312 105.875Z"/><path fill="#8792A2" d="M411.63 105.875H406.531C406.283 105.875 406.069 105.672 406.069 105.413C406.069 105.164 406.272 104.95 406.531 104.95H411.63C411.878 104.95 412.092 105.153 412.092 105.413C412.081 105.672 411.878 105.875 411.63 105.875Z"/><path fill="#8792A2" d="M416.83 94.3841H387.039C386.791 94.3841 386.577 94.1812 386.577 93.9218C386.577 93.6625 386.78 93.4595 387.039 93.4595H416.83C417.078 93.4595 417.292 93.6625 417.292 93.9218C417.292 94.1812 417.078 94.3841 416.83 94.3841Z"/><path fill="#fff" d="M389.047 176.262C382.144 176.262 376.493 174.221 372.973 170.433C369.228 166.384 367.672 160.013 368.709 152.954C369.341 148.635 370.762 145.004 372.905 142.174C375.06 139.332 378.185 136.998 382.189 135.216C391.01 131.292 401.23 131.427 409.52 135.588C413.231 137.449 415.555 139.806 416.435 142.591C416.582 143.076 416.322 143.583 415.837 143.741C415.352 143.888 414.845 143.628 414.687 143.143C413.965 140.854 411.946 138.858 408.697 137.235C400.891 133.322 391.269 133.198 382.933 136.908C379.222 138.554 376.335 140.708 374.372 143.301C372.409 145.884 371.112 149.221 370.525 153.236C369.567 159.742 370.954 165.561 374.327 169.203C379.019 174.267 386.769 174.627 390.976 174.391C398.804 173.962 405.527 171.222 409.926 166.7C415.07 161.4 416.514 153.484 413.277 148.274C412.645 147.271 411.303 145.545 409.329 145.342C408.821 145.297 408.46 144.846 408.505 144.339C408.55 143.831 409.001 143.47 409.509 143.516C411.551 143.719 413.446 145.06 414.833 147.304C418.499 153.202 416.954 162.088 411.235 167.974C406.52 172.834 399.357 175.755 391.066 176.217C390.389 176.251 389.713 176.262 389.047 176.262Z"/><path fill="#FBB5B2" d="M154.897 80.8185L151.648 86.4905L148.456 92.2754C146.358 96.1432 144.35 100.045 142.523 103.958C141.609 105.92 140.741 107.882 139.951 109.844L139.804 110.205C139.793 110.239 139.77 110.261 139.759 110.284C139.703 110.34 139.692 110.397 139.658 110.442C139.601 110.543 139.556 110.634 139.5 110.769C139.421 111.028 139.443 111.457 139.635 112.032C139.996 113.205 141.056 114.727 142.354 116.148C143.628 117.58 145.275 119.034 146.753 120.32L144.113 125.947C142.771 125.564 141.654 125.18 140.47 124.661C139.297 124.165 138.157 123.568 137.029 122.891C134.785 121.504 132.54 119.801 130.668 116.993C129.765 115.595 128.987 113.859 128.682 111.851C128.547 110.848 128.49 109.81 128.626 108.784C128.682 108.277 128.761 107.758 128.885 107.284L129.066 106.551L129.201 106.112C129.923 103.811 130.679 101.522 131.559 99.3232C133.273 94.8915 135.202 90.6177 137.311 86.4567C138.36 84.3706 139.455 82.3182 140.605 80.2885C141.767 78.2474 142.884 76.274 144.215 74.2104L154.897 80.8185Z"/><path fill="#FBB5B2" d="M143.933 119.677L149.855 118.132L150.193 127.695C150.193 127.695 145.557 128.383 142.714 125.552L143.933 119.677Z"/><path fill="#FBB5B2" d="M158.258 116.52L156.916 124.921L150.193 127.706L149.855 118.133L158.258 116.52Z"/><path fill="#042235" d="M182.77 35.735C182.905 36.389 183.356 36.8514 183.785 36.7611C184.214 36.6709 184.451 36.0733 184.315 35.4192C184.18 34.7652 183.729 34.3029 183.3 34.3931C182.883 34.4833 182.646 35.081 182.77 35.735Z"/><path fill="#ED5F74" d="M183.3 36.8628C183.3 36.8628 185.556 40.336 187.564 41.8245C186.628 43.1438 184.552 43.0423 184.552 43.0423L183.3 36.8628Z"/><path fill="#042235" d="M179.634 32.5893C179.544 32.5893 179.442 32.5555 179.363 32.4878C179.205 32.3412 179.194 32.0931 179.341 31.9353C180.818 30.3453 182.601 30.6272 182.68 30.6385C182.894 30.6723 183.041 30.8753 182.995 31.0895C182.962 31.3038 182.759 31.4504 182.544 31.4053C182.488 31.394 181.089 31.191 179.916 32.4653C179.848 32.5442 179.747 32.5893 179.634 32.5893Z"/><path fill="#FBB5B2" d="M164.113 44.9482C165.297 51.0037 166.493 62.111 162.251 66.1593C162.251 66.1593 163.91 72.305 175.178 72.305C187.564 72.305 181.1 66.1593 181.1 66.1593C174.344 64.5468 174.513 59.5287 175.697 54.8264L164.113 44.9482Z"/><path fill="#042235" d="M159.804 67.2755C158.901 65.5953 157.897 63.667 159.962 63.0581C162.229 62.3928 176.814 61.1636 181.089 62.4041C179.769 64.7496 182.003 67.6251 182.003 67.6251L159.804 67.2755Z"/><path fill="#067AB8" d="M123.11 349.808C123.945 349.989 124.768 350.034 125.174 349.695C125.343 349.549 125.513 349.278 125.366 348.782C125.287 348.523 125.118 348.331 124.858 348.207C123.742 347.677 121.17 348.726 121.057 348.771C120.989 348.804 120.933 348.872 120.933 348.951C120.933 349.03 120.978 349.098 121.046 349.131C121.44 349.323 122.275 349.628 123.11 349.808ZM124.452 348.489C124.531 348.511 124.61 348.534 124.678 348.568C124.836 348.647 124.926 348.748 124.971 348.906C125.073 349.256 124.949 349.368 124.903 349.402C124.464 349.786 122.805 349.436 121.632 348.962C122.444 348.692 123.719 348.331 124.452 348.489Z"/><path fill="#067AB8" d="M121.091 349.142C121.125 349.154 121.158 349.154 121.192 349.142C122.129 348.872 124.136 347.451 124.159 346.504C124.159 346.335 124.103 346.03 123.651 345.872C123.358 345.771 123.065 345.793 122.783 345.94C121.677 346.504 120.978 348.804 120.944 348.894C120.922 348.962 120.944 349.041 120.989 349.086C121.023 349.12 121.057 349.131 121.091 349.142ZM123.437 346.211C123.471 346.222 123.493 346.222 123.527 346.233C123.775 346.323 123.764 346.436 123.764 346.493C123.753 347.045 122.433 348.161 121.463 348.612C121.711 347.947 122.264 346.639 122.975 346.278C123.121 346.199 123.279 346.177 123.437 346.211Z"/><path fill="#067AB8" d="M184.293 351.206C185.353 351.206 186.379 351.06 186.729 350.586C186.853 350.417 186.943 350.135 186.718 349.729C186.594 349.503 186.379 349.346 186.097 349.267C184.721 348.894 181.822 350.541 181.698 350.609C181.631 350.654 181.585 350.733 181.597 350.811C181.608 350.89 181.676 350.958 181.755 350.969C182.273 351.071 183.3 351.206 184.293 351.206ZM185.601 349.594C185.736 349.594 185.872 349.605 185.985 349.639C186.165 349.684 186.289 349.774 186.368 349.909C186.503 350.157 186.458 350.27 186.402 350.338C186.018 350.868 183.92 350.89 182.386 350.665C183.153 350.281 184.631 349.594 185.601 349.594Z"/><path fill="#067AB8" d="M181.788 350.969C181.811 350.969 181.845 350.958 181.867 350.947C182.871 350.496 184.845 348.703 184.699 347.767C184.665 347.541 184.507 347.271 183.965 347.214C183.559 347.169 183.198 347.282 182.883 347.553C181.834 348.421 181.608 350.654 181.597 350.744C181.585 350.811 181.619 350.879 181.676 350.924C181.709 350.958 181.743 350.969 181.788 350.969ZM183.808 347.62C183.841 347.62 183.886 347.62 183.92 347.631C184.27 347.665 184.293 347.801 184.304 347.857C184.394 348.421 183.052 349.83 182.025 350.439C182.127 349.785 182.431 348.455 183.119 347.88C183.334 347.699 183.559 347.62 183.808 347.62Z"/><path fill="#FBB5B2" d="M172.674 350.777H180.965L181.788 331.596H173.498L172.674 350.777Z"/><path fill="#FBB5B2" d="M111.852 346.944L119.951 348.691L128.084 330.829L119.985 329.07L111.852 346.944Z"/><path fill="#042235" d="M120.73 347.88L111.627 345.906C111.3 345.839 110.961 346.008 110.815 346.312L107.656 353.168C107.329 353.879 107.758 354.713 108.525 354.86C111.717 355.491 113.296 355.638 117.301 356.506C119.76 357.036 125.321 358.389 128.716 359.134C132.044 359.855 133.284 356.608 131.965 355.999C126.02 353.281 123.538 350.891 121.925 348.669C121.643 348.263 121.215 347.993 120.73 347.88Z"/><path fill="#042235" d="M180.909 349.819H171.862C171.524 349.819 171.23 350.056 171.151 350.383L169.516 357.747C169.347 358.513 169.922 359.235 170.711 359.224C173.971 359.168 178.698 358.976 182.792 358.976C187.586 358.976 191.737 359.235 197.355 359.235C200.761 359.235 201.698 355.796 200.276 355.48C193.79 354.059 188.5 353.913 182.894 350.462C182.296 350.09 181.619 349.819 180.909 349.819Z"/><path fill="#CD3D64" d="M147.407 68.0313C139.635 69.813 133.239 89.637 133.239 89.637L148.839 101.522C148.839 101.522 154.558 96.1323 157.108 86.209C159.781 75.8121 155.348 66.2045 147.407 68.0313Z"/><path fill="#000" d="M154.062 82.6001C149.843 86.7724 148.467 94.3728 148.14 100.981L148.828 101.511C148.828 101.511 154.558 96.1093 157.108 86.1973C157.266 85.5771 157.401 84.9569 157.514 84.348L154.062 82.6001Z" opacity=".2"/><path fill="#A41C4E" d="M193.835 68.4594C193.835 68.4594 202.656 78.4166 194.321 140.065C180.965 140.065 156.499 140.065 150.001 140.065C149.697 133.265 153.972 100.079 147.407 68.0309C147.407 68.0309 155.01 66.5086 162.24 66.159C167.903 65.8884 176.103 65.708 181.078 66.159C187.654 66.7567 193.835 68.4594 193.835 68.4594Z"/><path fill="#F5FBFF" d="M265.26 105.191C265.26 105.191 274.081 115.148 265.745 176.797C252.39 176.797 227.924 176.797 221.426 176.797C221.122 169.997 225.397 136.811 218.832 104.763C218.832 104.763 226.435 103.241 233.665 102.891C239.328 102.62 247.528 102.44 252.503 102.891C259.079 103.489 265.26 105.191 265.26 105.191Z" opacity=".2"/><path fill="#000" d="M197.705 87.2911L197.535 87.1445L187.462 89.5577C186.887 96.3687 193.892 104.51 197.502 108.232C197.998 99.5374 197.987 92.6813 197.705 87.2911Z" opacity=".2"/><path fill="#000" d="M181.788 331.596L181.36 341.486H173.069L173.498 331.596H181.788Z" opacity=".2"/><path fill="#000" d="M119.974 329.082L128.084 330.829L123.888 340.042L115.789 338.283L119.974 329.082Z" opacity=".2"/><path fill="#FBB5B2" d="M160.65 38.7913C162.782 46.7299 163.616 51.4886 168.523 54.7926C175.9 59.7543 185.082 54.0596 185.364 45.6474C185.624 38.0696 182.093 26.3533 173.577 24.7521C165.173 23.1733 158.518 30.8414 160.65 38.7913Z"/><path fill="#042235" d="M164.293 51.7367C167.666 53.665 179.984 47.2149 177.457 37.4269C177.457 37.4269 182.149 31.7886 181.619 25.564C181.089 19.3394 176.814 16.9713 172.268 18.302C168.264 19.4747 168.377 21.6736 168.377 21.6736C168.377 21.6736 149.437 23.9064 153.487 31.5969C145.771 39.9979 160.074 49.3236 164.293 51.7367Z"/><path fill="#042235" d="M154.017 32.2395C154.017 32.2395 151.761 28.3378 148.467 30.5254C150.013 30.5367 152.551 30.8074 154.017 32.2395Z"/><path fill="#042235" d="M181.01 29.6572C181.01 29.6572 185.139 20.3428 178.698 17.3433C180.875 20.3654 182.059 25.2368 181.01 29.6572Z"/><path fill="#FBB5B2" d="M174.163 39.1182C174.705 41.2044 176.069 42.9974 177.502 44.0573C179.657 45.6586 181.27 44.0799 181.112 41.6442C180.976 39.4453 179.69 35.9721 177.31 35.3181C174.975 34.6753 173.543 36.7389 174.163 39.1182Z"/><path fill="#042235" d="M178.607 140.054C178.607 140.054 169.2 203.36 164.045 227.086C158.394 253.056 128.073 338.994 128.073 338.994L113.24 335.78C113.24 335.78 134.435 265.753 139.184 229.443C142.827 201.556 150.013 140.065 150.013 140.065H178.607V140.054Z"/><path fill="#CD3D64" d="M131.615 334.032C131.683 334.043 128.851 339.399 128.851 339.399L112.157 335.791L113.567 330.773L131.615 334.032Z"/><path fill="#000" d="M172.663 162.618C161.789 164.75 162.94 205.289 164.248 226.139C167.384 211.4 171.975 183.04 175.111 162.912C174.389 162.551 173.577 162.438 172.663 162.618Z" opacity=".3"/><path fill="#042235" d="M194.321 140.054C194.321 140.054 195.46 201.996 194.557 227.255C193.621 253.529 184.439 339.569 184.439 339.569H170.396C170.396 339.569 169.877 255.063 169.256 229.262C168.58 201.128 165.173 140.054 165.173 140.054H194.321Z"/><path fill="#042235" d="M272.254 96.3916H243.659L242.057 125.462L270.618 126.229L272.254 96.3916Z" opacity=".4"/><path fill="#CD3D64" d="M257.229 115.099C247.686 113.926 238.132 112.742 228.589 111.57C230.902 101.872 232.627 92.1063 233.755 82.3296C243.355 83.5136 252.965 84.6977 262.564 85.8704C261.38 95.6471 259.598 105.413 257.229 115.099Z"/><path fill="#CD3D64" d="M187.146 333.987C187.214 333.987 186.357 339.817 186.357 339.817H169.279L168.816 334.618L187.146 333.987Z"/><path fill="#FBB5B2" d="M197.919 76.0146C199.193 77.9993 200.649 80.2208 202.092 82.2844C203.57 84.3592 205.048 86.4341 206.604 88.4301C209.684 92.4219 212.955 96.2672 216.474 99.4472C217.343 100.248 218.234 101.003 219.137 101.691L219.813 102.199C219.757 102.165 219.543 102.086 219.419 102.063C219.125 102.007 218.979 102.052 219.058 102.097C219.227 102.187 220.05 102.041 220.919 101.669C221.799 101.297 222.791 100.789 223.773 100.191C227.743 97.7332 231.838 94.2938 235.684 90.956L240.523 94.8689C237.523 99.7065 234.218 104.082 229.672 108.096C228.521 109.089 227.281 110.07 225.792 110.949C224.291 111.806 222.599 112.697 220.095 113.058C218.855 113.216 217.343 113.193 215.786 112.697C215.031 112.472 214.218 112.066 213.598 111.682L212.617 111.062C211.331 110.228 210.101 109.348 208.928 108.423C204.258 104.725 200.367 100.564 196.78 96.2334C195.009 94.0457 193.294 91.8356 191.715 89.5352C190.102 87.2122 188.602 84.9907 187.101 82.4084L197.919 76.0146Z"/><path fill="#CD3D64" d="M181.642 80.9878C178.991 92.0952 199.092 102.966 199.092 102.966L212.154 87.6748C212.154 87.6748 206.21 78.6649 198.81 71.572C189.684 62.8101 183.661 72.5305 181.642 80.9878Z"/><path fill="#FBB5B2" d="M234.376 93.2679L237.455 83.3784L245.565 87.4154C245.565 87.4154 244.381 94.6323 238.482 95.884L234.376 93.2679Z"/><path fill="#FBB5B2" d="M240.715 80.627L248.025 82.6454L245.577 87.4154L237.467 83.3784L240.715 80.627Z"/></svg>