<svg xmlns="http://www.w3.org/2000/svg" width="768" height="200" fill="none" viewBox="0 0 768 200"><g clip-path="url(#clip0)" filter="url(#filter0_i)" opacity=".9"><path fill="#fff" d="M768 0H0V200H768V0Z"/><path fill="#F5F8FF" d="M836.857 0C836.857 0 758.143 2 724.667 85C691.19 168 579 200 579 200H864V0H836.857Z"/><path fill="#E6E8FC" d="M708.049 200.25C708.479 193.45 707.779 183.77 704.769 175.07C701.649 166.04 696.079 158.12 689.909 160.43C687.539 161.32 687.219 165.3 688.219 169C691.159 179.93 697.969 186.53 700.589 200.25"/><path stroke="#fff" stroke-linejoin="round" stroke-miterlimit="10" d="M704.009 200.25C702.959 178.95 691.049 160.07 691.049 160.07"/><path fill="#CDD2F9" d="M700.329 200.25C699.479 191.76 696.859 181.17 692.649 174.83C689.279 169.76 684.009 167.48 680.889 170.65C679.159 172.41 679.809 177.49 682.449 181.32C687.109 188.09 692.679 190.51 695.779 200.26"/><path stroke="#fff" stroke-linejoin="round" stroke-miterlimit="10" d="M698.139 200.25C694.099 181.1 681.669 170 681.669 170"/><path fill="#E6E8FC" d="M695.969 200.25C693.149 192.3 685.779 183.13 680.199 181.46C677.939 180.79 674.469 181.03 674.039 183.56C673.689 185.58 675.729 188.65 678.029 190.37C682.279 193.53 686.289 194.81 690.979 200.25"/><path stroke="#fff" stroke-linejoin="round" stroke-miterlimit="10" d="M692.989 200.25C684.669 185.53 674.599 182.35 674.599 182.35"/><path stroke="url(#paint0_linear)" stroke-miterlimit="10" stroke-width="4" d="M715.905 181.701L700.319 89"/><path fill="url(#paint1_linear)" d="M749.384 65.1358C749.952 64.3733 750.053 62.5527 749.244 62.0547L724.929 48.0339C724.883 48.0028 724.82 47.995 724.766 48.0028L724.696 48.4774L642.384 61.7046C641.785 61.7979 643.427 64.5678 643.52 65.2059L649.395 93.4964L645.473 98.2037L645.738 99.9699C645.831 100.608 646.399 101.051 646.998 100.966L730.111 88.5012C730.633 88.4234 731.107 88.1511 731.45 87.7387C731.45 87.7387 745.424 70.4111 749.384 65.1358Z"/><path fill="url(#paint2_linear)" d="M749.19 63.8676C749.765 63.144 749.563 62.078 748.762 61.6268L724.929 48.0339C724.883 48.0028 724.82 47.995 724.766 48.0028L640.937 60.5764C640.338 60.6697 639.926 61.2222 640.011 61.8213L645.364 97.519C645.458 98.1181 646.01 98.5305 646.609 98.4449L729.722 85.9802C730.244 85.9024 730.718 85.6457 731.068 85.2566C731.076 85.2566 745.19 68.855 749.19 63.8676Z"/><path fill="#fff" d="M670.291 75.7564C670.664 78.4174 669.03 80.2926 666.595 80.6349C663.856 81.0162 661.607 79.2733 661.265 76.7757C660.915 74.247 662.634 71.9595 665.194 71.6016C666.859 71.3681 668.384 71.9906 669.279 73.0643L667.723 74.2703C667.279 73.749 666.439 73.4067 665.451 73.5467C663.981 73.749 663.039 74.9861 663.249 76.5189C663.459 77.9973 664.65 78.9387 666.346 78.6975C667.505 78.5341 668.19 77.9195 668.384 77.0402L666.058 77.367L665.817 75.6242L670.182 75.0173L670.291 75.7564Z"/><path fill="#fff" d="M671.473 76.9076L670.648 71.0098L672.64 70.7297L673.442 76.4563C673.535 77.1176 673.924 77.6312 674.982 77.4833C676.04 77.3355 676.274 76.7286 676.18 76.075L675.379 70.3485L677.371 70.0684L678.196 75.9661C678.453 77.8335 677.169 79.1562 675.255 79.4207C673.333 79.693 671.73 78.7749 671.473 76.9076Z"/><path fill="#fff" d="M680.787 69.6025L682.001 78.3091L680.009 78.5892L678.795 69.8826L680.787 69.6025Z"/><path fill="#fff" d="M690.606 72.6672C690.948 75.1337 689.384 77.2734 686.98 77.608L683.494 78.0904L682.281 69.3838L685.766 68.9014C688.163 68.5746 690.256 70.2085 690.606 72.6672ZM688.684 72.9396C688.474 71.4457 687.4 70.6365 686.031 70.8232L684.537 71.0333L685.214 75.9118L686.708 75.7017C688.085 75.5072 688.894 74.4335 688.684 72.9396Z"/><path fill="#fff" d="M697.539 74.1929L697.803 76.107L692.325 76.8695L691.112 68.1629L696.527 67.4082L696.792 69.3222L693.368 69.7969L693.57 71.2441L696.683 70.8084L696.947 72.6991L693.835 73.1348L694.053 74.6753L697.539 74.1929Z"/><path fill="#fff" d="M703.755 73.3211L704.02 75.2352L698.916 75.9432L697.702 67.2366L699.694 66.9565L700.643 73.7491L703.755 73.3211Z"/><path fill="#fff" d="M705.669 66.1323L706.883 74.8389L704.891 75.119L703.677 66.4124L705.669 66.1323Z"/><path fill="#fff" d="M714.01 64.9648L715.224 73.6714L713.73 73.8815L709.715 69.6255L710.377 74.3561L708.385 74.6362L707.171 65.9296L708.665 65.7196L712.687 69.9756L712.026 65.2449L714.01 64.9648Z"/><path fill="#fff" d="M721.923 70.7847L722.188 72.6988L716.71 73.4613L715.496 64.7547L720.912 64L721.176 65.914L717.753 66.3887L717.955 67.8359L721.067 67.4002L721.332 69.2909L718.219 69.7266L718.437 71.2671L721.923 70.7847Z"/><path fill="#E6E8FC" d="M33.0124 201.713C34.3237 181.137 32.2031 151.842 23.0938 125.518C13.6356 98.2037 -3.18811 74.2375 -21.8672 81.2265C-29.0376 83.9189 -30 95.9578 -26.9728 107.174C-18.0727 140.235 2.53147 160.226 10.4551 201.713"/><path stroke="#fff" stroke-linejoin="round" stroke-miterlimit="10" d="M20.8062 201.714C17.6395 137.278 -18.4076 80.1528 -18.4076 80.1528"/><path fill="#CDD2F9" d="M9.64615 201.713C7.07934 176.031 -0.858285 143.988 -13.5947 124.807C-23.7922 109.448 -39.7231 102.57 -49.1673 112.14C-54.4125 117.455 -52.4316 132.842 -44.4522 144.407C-30.3487 164.885 -13.4971 172.209 -4.10875 201.699"/><path stroke="#fff" stroke-linejoin="round" stroke-miterlimit="10" d="M3.03357 201.714C-9.20062 143.779 -46.8099 110.201 -46.8099 110.201"/><path fill="#E6E8FC" d="M33.6773 201.719C32.9094 189.67 34.1512 172.515 39.4855 157.1C45.0241 141.105 54.8758 127.071 65.814 131.164C70.0129 132.74 70.5764 139.79 68.8038 146.358C63.592 165.718 51.5265 177.424 46.8865 201.719"/><path stroke="#fff" stroke-linejoin="round" stroke-miterlimit="10" d="M40.8252 201.719C42.6796 163.987 63.7882 130.535 63.7882 130.535"/><path fill="#CDD2F9" d="M47.3602 201.719C48.8633 186.68 53.5114 167.916 60.9697 156.683C66.9412 147.689 76.2701 143.662 81.8005 149.266C84.872 152.378 83.712 161.389 79.0394 168.161C70.7806 180.153 60.9126 184.441 55.4149 201.711"/><path stroke="#fff" stroke-linejoin="round" stroke-miterlimit="10" d="M51.2323 201.719C58.3965 167.794 80.42 148.131 80.42 148.131"/><path fill="#E6E8FC" d="M55.072 201.718C60.0714 187.635 73.1253 171.378 83.0179 168.438C87.0125 167.245 93.1637 167.686 93.9316 172.163C94.5443 175.749 90.95 181.189 86.8574 184.228C79.3256 189.824 72.2267 192.087 63.9107 201.726"/><path stroke="#fff" stroke-linejoin="round" stroke-miterlimit="10" d="M60.3572 201.718C75.1022 175.634 92.9432 170.006 92.9432 170.006"/><path fill="#E6E8FC" d="M706.319 200.25C705.379 185.5 706.899 164.5 713.429 145.63C720.209 126.05 732.269 108.87 745.659 113.88C750.799 115.81 751.489 124.44 749.319 132.48C742.939 156.18 728.169 170.51 722.489 200.25"/><path stroke="#fff" stroke-linejoin="round" stroke-miterlimit="10" d="M715.069 200.25C717.339 154.06 743.179 113.11 743.179 113.11"/><path fill="#CDD2F9" d="M723.069 200.25C724.909 181.84 730.599 158.87 739.729 145.12C747.039 134.11 758.459 129.18 765.229 136.04C768.989 139.85 767.569 150.88 761.849 159.17C751.739 173.85 739.659 179.1 732.929 200.24"/><path stroke="#fff" stroke-linejoin="round" stroke-miterlimit="10" d="M727.809 200.25C736.579 158.72 763.539 134.65 763.539 134.65"/><path fill="#E6E8FC" d="M732.509 200.25C738.629 183.01 754.609 163.11 766.719 159.51C771.609 158.05 779.139 158.59 780.079 164.07C780.829 168.46 776.429 175.12 771.419 178.84C762.199 185.69 753.509 188.46 743.329 200.26"/><path stroke="#fff" stroke-linejoin="round" stroke-miterlimit="10" d="M738.979 200.25C757.029 168.32 778.869 161.43 778.869 161.43"/></g><defs><filter id="filter0_i" width="768" height="210" x="0" y="-10" color-interpolation-filters="sRGB" filterUnits="userSpaceOnUse"><feFlood flood-opacity="0" result="BackgroundImageFix"/><feBlend in="SourceGraphic" in2="BackgroundImageFix" mode="normal" result="shape"/><feColorMatrix in="SourceAlpha" result="hardAlpha" type="matrix" values="0 0 0 0 0 0 0 0 0 0 0 0 0 0 0 0 0 0 127 0"/><feOffset dy="-20"/><feGaussianBlur stdDeviation="5"/><feComposite in2="hardAlpha" k2="-1" k3="1" operator="arithmetic"/><feColorMatrix type="matrix" values="0 0 0 0 0 0 0 0 0 0 0 0 0 0 0 0 0 0 0.01 0"/><feBlend in2="shape" mode="normal" result="effect1_innerShadow"/></filter><linearGradient id="paint0_linear" x1="706.569" x2="709.611" y1="135.594" y2="135.082" gradientUnits="userSpaceOnUse"><stop stop-color="#E1473D"/><stop offset="1" stop-color="#E9605A"/></linearGradient><linearGradient id="paint1_linear" x1="775.869" x2="707.413" y1="-80.049" y2="42.708" gradientUnits="userSpaceOnUse"><stop stop-color="#E1473D"/><stop offset="1" stop-color="#E9605A"/></linearGradient><linearGradient id="paint2_linear" x1="733.244" x2="606.343" y1="40.005" y2="128.333" gradientUnits="userSpaceOnUse"><stop stop-color="#FF928E"/><stop offset="1" stop-color="#FE7062"/></linearGradient><clipPath id="clip0"><rect width="768" height="200" fill="#fff"/></clipPath></defs></svg>