<svg xmlns="http://www.w3.org/2000/svg" width="992" height="200" fill="none" viewBox="0 0 992 200"><g clip-path="url(#clip0)" filter="url(#filter0_i)" opacity=".9"><path fill="#fff" d="M992 0H0V200H992V0Z"/><path fill="#F5F8FF" d="M1012 0C1012 0 925 2 888 85C851 168 727 200 727 200H1042V0H1012Z"/><path stroke="url(#paint0_linear)" stroke-miterlimit="10" stroke-width="4" d="M911 218L892 105"/><path fill="url(#paint1_linear)" d="M960.03 71.8882C960.722 70.9587 960.845 68.7394 959.859 68.1324L930.22 51.0414C930.163 51.0034 930.087 50.9939 930.021 51.0034L929.935 51.582L829.599 67.7056C828.869 67.8194 830.87 71.1958 830.984 71.9736L838.145 106.459L833.365 112.197L833.687 114.35C833.801 115.128 834.493 115.668 835.224 115.564L936.537 100.37C937.172 100.275 937.751 99.9432 938.168 99.4406C938.168 99.4406 955.202 78.3187 960.03 71.8882Z"/><path fill="url(#paint2_linear)" d="M959.793 70.3422C960.494 69.4602 960.248 68.1608 959.271 67.6107L930.22 51.0414C930.163 51.0034 930.087 50.9939 930.021 51.0034L827.835 66.3303C827.105 66.4441 826.602 67.1175 826.707 67.8478L833.232 111.363C833.346 112.093 834.019 112.596 834.749 112.491L936.062 97.2971C936.698 97.2022 937.276 96.8893 937.703 96.415C937.713 96.415 954.917 76.4218 959.793 70.3422Z"/><path fill="#E6E8FC" d="M892.32 200.25C891.38 185.5 892.9 164.5 899.43 145.63C906.21 126.05 918.27 108.87 931.66 113.88C936.8 115.81 937.49 124.44 935.32 132.48C928.94 156.18 914.17 170.51 908.49 200.25"/><path stroke="#fff" stroke-linejoin="round" stroke-miterlimit="10" d="M901.07 200.25C903.34 154.06 929.18 113.11 929.18 113.11"/><path fill="#CDD2F9" d="M909.07 200.25C910.91 181.84 916.6 158.87 925.73 145.12C933.04 134.11 944.46 129.18 951.23 136.04C954.99 139.85 953.57 150.88 947.85 159.17C937.74 173.85 925.66 179.1 918.93 200.24"/><path stroke="#fff" stroke-linejoin="round" stroke-miterlimit="10" d="M913.81 200.25C922.58 158.72 949.54 134.65 949.54 134.65"/><path fill="#E6E8FC" d="M918.51 200.25C924.63 183.01 940.61 163.11 952.72 159.51C957.61 158.05 965.14 158.59 966.08 164.07C966.83 168.46 962.43 175.12 957.42 178.84C948.2 185.69 939.51 188.46 929.33 200.26"/><path stroke="#fff" stroke-linejoin="round" stroke-miterlimit="10" d="M924.98 200.25C943.03 168.32 964.87 161.43 964.87 161.43"/><path fill="#E6E8FC" d="M894.05 200.25C894.48 193.45 893.78 183.77 890.77 175.07C887.65 166.04 882.08 158.12 875.91 160.43C873.54 161.32 873.22 165.3 874.22 169C877.16 179.93 883.97 186.53 886.59 200.25"/><path stroke="#fff" stroke-linejoin="round" stroke-miterlimit="10" d="M890.01 200.25C888.96 178.95 877.05 160.07 877.05 160.07"/><path fill="#CDD2F9" d="M886.33 200.25C885.48 191.76 882.86 181.17 878.65 174.83C875.28 169.76 870.01 167.48 866.89 170.65C865.16 172.41 865.81 177.49 868.45 181.32C873.11 188.09 878.68 190.51 881.78 200.26"/><path stroke="#fff" stroke-linejoin="round" stroke-miterlimit="10" d="M884.14 200.25C880.1 181.1 867.67 170 867.67 170"/><path fill="#E6E8FC" d="M881.97 200.25C879.15 192.3 871.78 183.13 866.2 181.46C863.94 180.79 860.47 181.03 860.04 183.56C859.69 185.58 861.73 188.65 864.03 190.37C868.28 193.53 872.29 194.81 876.98 200.25"/><path stroke="#fff" stroke-linejoin="round" stroke-miterlimit="10" d="M878.99 200.25C870.67 185.53 860.6 182.35 860.6 182.35"/><path fill="#fff" d="M857.834 86.1052C858.29 89.3489 856.298 91.6346 853.329 92.0519C849.991 92.5167 847.25 90.3922 846.833 87.3476C846.406 84.2652 848.502 81.4768 851.622 81.0405C853.652 80.7559 855.511 81.5147 856.601 82.8235L854.705 84.2936C854.164 83.6582 853.14 83.2409 851.935 83.4116C850.143 83.6582 848.995 85.1662 849.251 87.0347C849.507 88.8367 850.958 89.9843 853.026 89.6903C854.439 89.4911 855.274 88.7419 855.511 87.6701L852.675 88.0685L852.381 85.9439L857.702 85.2042L857.834 86.1052Z"/><path fill="#fff" d="M859.276 87.5087L858.271 80.3195L860.699 79.9781L861.676 86.9586C861.79 87.7648 862.264 88.3908 863.554 88.2106C864.844 88.0304 865.128 87.2906 865.014 86.4939L864.037 79.5133L866.465 79.1719L867.471 86.3611C867.784 88.6374 866.219 90.2497 863.886 90.5722C861.543 90.9042 859.589 89.785 859.276 87.5087Z"/><path fill="#fff" d="M870.629 78.6035L872.109 89.2166L869.681 89.5581L868.201 78.945L870.629 78.6035Z"/><path fill="#fff" d="M882.598 82.3398C883.016 85.3464 881.109 87.9546 878.179 88.3625L873.93 88.9505L872.45 78.3374L876.699 77.7494C879.62 77.351 882.172 79.3427 882.598 82.3398ZM880.256 82.6718C880 80.8508 878.691 79.8644 877.022 80.092L875.201 80.3481L876.026 86.2949L877.847 86.0388C879.525 85.8017 880.512 84.4928 880.256 82.6718Z"/><path fill="#fff" d="M891.049 84.1992L891.372 86.5323L884.694 87.4618L883.215 76.8487L889.816 75.9287L890.139 78.2619L885.965 78.8404L886.212 80.6046L890.006 80.0734L890.328 82.3781L886.534 82.9093L886.8 84.7872L891.049 84.1992Z"/><path fill="#fff" d="M898.627 83.1367L898.95 85.4699L892.728 86.333L891.248 75.7199L893.676 75.3784L894.833 83.6583L898.627 83.1367Z"/><path fill="#fff" d="M900.96 74.3735L902.44 84.9866L900.012 85.3281L898.532 74.715L900.96 74.3735Z"/><path fill="#fff" d="M911.128 72.9507L912.607 83.5638L910.786 83.8199L905.892 78.6319L906.698 84.3984L904.27 84.7399L902.791 74.1268L904.612 73.8707L909.515 79.0587L908.709 73.2921L911.128 72.9507Z"/><path fill="#fff" d="M920.773 80.0449L921.096 82.378L914.419 83.3075L912.939 72.6944L919.54 71.7744L919.863 74.1076L915.69 74.6861L915.936 76.4503L919.73 75.9191L920.053 78.2238L916.259 78.755L916.524 80.6329L920.773 80.0449Z"/><path fill="#E6E8FC" d="M38.4693 200.244C39.9901 176.381 37.5308 142.405 26.9661 111.876C15.997 80.1983 -3.51446 52.4034 -25.1777 60.5089C-33.4935 63.6314 -34.6097 77.5936 -31.0989 90.6012C-20.777 128.945 3.11886 152.129 12.3083 200.244"/><path stroke="#fff" stroke-linejoin="round" stroke-miterlimit="10" d="M24.313 200.244C20.6405 125.515 -21.1654 59.2632 -21.1654 59.2632"/><path fill="#CDD2F9" d="M11.3701 200.244C8.39324 170.459 -0.812472 133.297 -15.5836 111.051C-27.4102 93.2386 -45.8862 85.2625 -56.8392 96.361C-62.9224 102.525 -60.625 120.37 -51.3708 133.782C-35.0142 157.533 -15.4705 166.026 -4.58222 200.228"/><path stroke="#fff" stroke-linejoin="round" stroke-miterlimit="10" d="M3.70111 200.244C-10.4876 133.054 -54.1052 94.1123 -54.1052 94.1123"/><path fill="#E6E8FC" d="M38.0404 200.25C37.1498 186.276 38.59 166.381 44.7765 148.503C51.1999 129.953 62.6255 113.677 75.3112 118.423C80.1808 120.252 80.8344 128.428 78.7786 136.045C72.7342 158.498 58.7411 172.075 53.3599 200.25"/><path stroke="#fff" stroke-linejoin="round" stroke-miterlimit="10" d="M46.3303 200.251C48.4809 156.49 72.9618 117.694 72.9618 117.694"/><path fill="#CDD2F9" d="M53.9092 200.25C55.6525 182.808 61.0432 161.047 69.6929 148.02C76.6184 137.589 87.4377 132.918 93.8516 139.417C97.4139 143.027 96.0685 153.477 90.6494 161.331C81.0712 175.239 69.6267 180.212 63.2507 200.241"/><path stroke="#fff" stroke-linejoin="round" stroke-miterlimit="10" d="M58.4 200.25C66.7087 160.905 92.2506 138.101 92.2506 138.101"/><path fill="#E6E8FC" d="M62.853 200.249C68.6511 183.916 83.7905 165.063 95.2635 161.652C99.8962 160.269 107.03 160.781 107.921 165.972C108.631 170.131 104.463 176.441 99.7163 179.965C90.9813 186.455 82.7483 189.079 73.1038 200.259"/><path stroke="#fff" stroke-linejoin="round" stroke-miterlimit="10" d="M68.9826 200.249C86.0832 169.999 106.774 163.471 106.774 163.471"/></g><defs><filter id="filter0_i" width="992" height="210" x="0" y="-10" color-interpolation-filters="sRGB" filterUnits="userSpaceOnUse"><feFlood flood-opacity="0" result="BackgroundImageFix"/><feBlend in="SourceGraphic" in2="BackgroundImageFix" mode="normal" result="shape"/><feColorMatrix in="SourceAlpha" result="hardAlpha" type="matrix" values="0 0 0 0 0 0 0 0 0 0 0 0 0 0 0 0 0 0 127 0"/><feOffset dy="-20"/><feGaussianBlur stdDeviation="5"/><feComposite in2="hardAlpha" k2="-1" k3="1" operator="arithmetic"/><feColorMatrix type="matrix" values="0 0 0 0 0 0 0 0 0 0 0 0 0 0 0 0 0 0 0.01 0"/><feBlend in2="shape" mode="normal" result="effect1_innerShadow"/></filter><linearGradient id="paint0_linear" x1="899.619" x2="903.327" y1="161.797" y2="161.173" gradientUnits="userSpaceOnUse"><stop stop-color="#E1473D"/><stop offset="1" stop-color="#E9605A"/></linearGradient><linearGradient id="paint1_linear" x1="992.314" x2="908.867" y1="-105.089" y2="44.549" gradientUnits="userSpaceOnUse"><stop stop-color="#E1473D"/><stop offset="1" stop-color="#E9605A"/></linearGradient><linearGradient id="paint2_linear" x1="940.355" x2="785.666" y1="41.255" y2="148.924" gradientUnits="userSpaceOnUse"><stop stop-color="#FF928E"/><stop offset="1" stop-color="#FE7062"/></linearGradient><clipPath id="clip0"><rect width="992" height="200" fill="#fff"/></clipPath></defs></svg>