<svg xmlns="http://www.w3.org/2000/svg" width="1360" height="200" fill="none" viewBox="0 0 1360 200"><g clip-path="url(#clip0)" filter="url(#filter0_i)"><path fill="#fff" d="M1360 0H0V200H1360V0Z" opacity=".9"/><path fill="#F5F8FF" d="M1330 0C1330 0 1243 2 1206 85C1169 168 1045 200 1045 200H1360V0H1330Z" opacity=".9"/><path stroke="url(#paint0_linear)" stroke-miterlimit="10" stroke-width="4" d="M1257.22 218.3L1237 99" opacity=".9"/><g opacity=".9"><path fill="url(#paint1_linear)" d="M1309 63.9299C1309.73 62.9499 1309.86 60.6099 1308.82 59.9699L1277.57 41.9499C1277.51 41.9099 1277.43 41.8999 1277.36 41.9099L1277.27 42.5199L1171.48 59.5199C1170.71 59.6399 1172.82 63.1999 1172.94 64.0199L1180.49 100.38L1175.45 106.43L1175.79 108.7C1175.91 109.52 1176.64 110.09 1177.41 109.98L1284.23 93.9599C1284.9 93.8599 1285.51 93.5099 1285.95 92.9799C1285.95 92.9799 1303.91 70.7099 1309 63.9299Z"/><path fill="url(#paint2_linear)" d="M1308.75 62.2999C1309.49 61.3699 1309.23 59.9999 1308.2 59.4199L1277.57 41.9499C1277.51 41.9099 1277.43 41.8999 1277.36 41.9099L1169.62 58.0699C1168.85 58.1899 1168.32 58.8999 1168.43 59.6699L1175.31 105.55C1175.43 106.32 1176.14 106.85 1176.91 106.74L1283.73 90.7199C1284.4 90.6199 1285.01 90.2899 1285.46 89.7899C1285.47 89.7899 1303.61 68.7099 1308.75 62.2999Z"/></g><g opacity=".9"><path fill="#E6E8FC" d="M1241.32 200.25C1240.38 185.5 1241.9 164.5 1248.43 145.63C1255.21 126.05 1267.27 108.87 1280.66 113.88C1285.8 115.81 1286.49 124.44 1284.32 132.48C1277.94 156.18 1263.17 170.51 1257.49 200.25"/><path stroke="#fff" stroke-linejoin="round" stroke-miterlimit="10" d="M1250.07 200.25C1252.34 154.06 1278.18 113.11 1278.18 113.11"/><path fill="#CDD2F9" d="M1258.07 200.25C1259.91 181.84 1265.6 158.87 1274.73 145.12C1282.04 134.11 1293.46 129.18 1300.23 136.04C1303.99 139.85 1302.57 150.88 1296.85 159.17C1286.74 173.85 1274.66 179.1 1267.93 200.24"/><path stroke="#fff" stroke-linejoin="round" stroke-miterlimit="10" d="M1262.81 200.25C1271.58 158.72 1298.54 134.65 1298.54 134.65"/><path fill="#E6E8FC" d="M1267.51 200.25C1273.63 183.01 1289.61 163.11 1301.72 159.51C1306.61 158.05 1314.14 158.59 1315.08 164.07C1315.83 168.46 1311.43 175.12 1306.42 178.84C1297.2 185.69 1288.51 188.46 1278.33 200.26"/><path stroke="#fff" stroke-linejoin="round" stroke-miterlimit="10" d="M1273.98 200.25C1292.03 168.32 1313.87 161.43 1313.87 161.43"/></g><g opacity=".9"><path fill="#E6E8FC" d="M1243.05 200.25C1243.48 193.45 1242.78 183.77 1239.77 175.07C1236.65 166.04 1231.08 158.12 1224.91 160.43C1222.54 161.32 1222.22 165.3 1223.22 169C1226.16 179.93 1232.97 186.53 1235.59 200.25"/><path stroke="#fff" stroke-linejoin="round" stroke-miterlimit="10" d="M1239.01 200.25C1237.96 178.95 1226.05 160.07 1226.05 160.07"/><path fill="#CDD2F9" d="M1235.33 200.25C1234.48 191.76 1231.86 181.17 1227.65 174.83C1224.28 169.76 1219.01 167.48 1215.89 170.65C1214.16 172.41 1214.81 177.49 1217.45 181.32C1222.11 188.09 1227.68 190.51 1230.78 200.26"/><path stroke="#fff" stroke-linejoin="round" stroke-miterlimit="10" d="M1233.14 200.25C1229.1 181.1 1216.67 170 1216.67 170"/><path fill="#E6E8FC" d="M1230.97 200.25C1228.15 192.3 1220.78 183.13 1215.2 181.46C1212.94 180.79 1209.47 181.03 1209.04 183.56C1208.69 185.58 1210.73 188.65 1213.03 190.37C1217.28 193.53 1221.29 194.81 1225.98 200.25"/><path stroke="#fff" stroke-linejoin="round" stroke-miterlimit="10" d="M1227.99 200.25C1219.67 185.53 1209.6 182.35 1209.6 182.35"/></g><g opacity=".9"><path fill="#E6E8FC" d="M64.4692 200.244C65.99 176.381 63.5307 142.405 52.966 111.876C41.9969 80.1983 22.4855 52.4034 0.822243 60.5089C-7.49359 63.6314 -8.60977 77.5936 -5.09901 90.6012C5.22298 128.945 29.1188 152.129 38.3083 200.244"/><path stroke="#fff" stroke-linejoin="round" stroke-miterlimit="10" d="M50.313 200.244C46.6404 125.515 4.83459 59.2632 4.83459 59.2632"/><path fill="#CDD2F9" d="M37.3701 200.244C34.3932 170.459 25.1875 133.297 10.4164 111.051C-1.41019 93.2386 -19.8862 85.2625 -30.8392 96.361C-36.9224 102.525 -34.625 120.37 -25.3708 133.782C-9.01416 157.533 10.5295 166.026 21.4178 200.228"/><path stroke="#fff" stroke-linejoin="round" stroke-miterlimit="10" d="M29.7012 200.244C15.5125 133.054 -28.1052 94.1123 -28.1052 94.1123"/><path fill="#E6E8FC" d="M22.0974 200.244C12.1961 172.352 -13.6574 140.156 -33.2497 134.332C-41.1611 131.97 -53.3436 132.843 -54.8644 141.709C-56.0778 148.812 -48.9593 159.587 -40.8538 165.605C-25.9371 176.688 -11.8777 181.169 4.59218 200.26"/><path stroke="#fff" stroke-linejoin="round" stroke-miterlimit="10" d="M11.6299 200.244C-17.5726 148.586 -52.9068 137.438 -52.9068 137.438"/></g><g opacity=".9"><path fill="#E6E8FC" d="M64.0404 200.25C63.1498 186.276 64.59 166.381 70.7765 148.503C77.1999 129.953 88.6255 113.677 101.311 118.423C106.181 120.252 106.834 128.428 104.779 136.045C98.7342 158.498 84.7411 172.075 79.3599 200.25"/><path stroke="#fff" stroke-linejoin="round" stroke-miterlimit="10" d="M72.3302 200.251C74.4808 156.49 98.9617 117.694 98.9617 117.694"/><path fill="#CDD2F9" d="M79.9092 200.25C81.6524 182.808 87.0431 161.047 95.6929 148.02C102.618 137.589 113.438 132.918 119.852 139.417C123.414 143.027 122.068 153.477 116.649 161.331C107.071 175.239 95.6266 180.212 89.2506 200.241"/><path stroke="#fff" stroke-linejoin="round" stroke-miterlimit="10" d="M84.3999 200.25C92.7086 160.905 118.25 138.101 118.25 138.101"/><path fill="#E6E8FC" d="M88.8529 200.25C94.651 183.917 109.79 165.063 121.263 161.653C125.896 160.27 133.03 160.781 133.921 165.973C134.631 170.132 130.463 176.442 125.716 179.966C116.981 186.456 108.748 189.08 99.1037 200.259"/><path stroke="#fff" stroke-linejoin="round" stroke-miterlimit="10" d="M94.9825 200.25C112.083 169.999 132.774 163.472 132.774 163.472"/></g><path fill="#fff" d="M1201.25 78.9198C1201.73 82.3398 1199.63 84.7498 1196.5 85.1898C1192.98 85.6798 1190.09 83.4398 1189.65 80.2298C1189.2 76.9798 1191.41 74.0398 1194.7 73.5798C1196.84 73.2798 1198.8 74.0798 1199.95 75.4598L1197.95 77.0098C1197.38 76.3398 1196.3 75.8998 1195.03 76.0798C1193.14 76.3398 1191.93 77.9298 1192.2 79.8998C1192.47 81.7998 1194 83.0098 1196.18 82.6998C1197.67 82.4898 1198.55 81.6998 1198.8 80.5698L1195.81 80.9898L1195.5 78.7498L1201.11 77.9698L1201.25 78.9198Z"/><path fill="#fff" d="M1202.77 80.3999L1201.71 72.8199L1204.27 72.4599L1205.3 79.8199C1205.42 80.6699 1205.92 81.3299 1207.28 81.1399C1208.64 80.9499 1208.94 80.1699 1208.82 79.3299L1207.79 71.9699L1210.35 71.6099L1211.41 79.1899C1211.74 81.5899 1210.09 83.2899 1207.63 83.6299C1205.16 83.9799 1203.1 82.7999 1202.77 80.3999Z"/><path fill="#fff" d="M1214.74 71.0103L1216.3 82.2002L1213.74 82.5602L1212.18 71.3703L1214.74 71.0103Z"/><path fill="#fff" d="M1227.36 74.95C1227.8 78.12 1225.79 80.87 1222.7 81.3L1218.22 81.92L1216.66 70.73L1221.14 70.11C1224.22 69.69 1226.91 71.79 1227.36 74.95ZM1224.89 75.3C1224.62 73.38 1223.24 72.34 1221.48 72.58L1219.56 72.85L1220.43 79.12L1222.35 78.85C1224.12 78.6 1225.16 77.22 1224.89 75.3Z"/><path fill="#fff" d="M1236.27 76.9099L1236.61 79.3699L1229.57 80.3499L1228.01 69.1599L1234.97 68.1899L1235.31 70.6499L1230.91 71.2599L1231.17 73.1199L1235.17 72.5599L1235.51 74.9899L1231.51 75.5499L1231.79 77.5299L1236.27 76.9099Z"/><path fill="#fff" d="M1244.26 75.7899L1244.6 78.2499L1238.04 79.1599L1236.48 67.9699L1239.04 67.6099L1240.26 76.3399L1244.26 75.7899Z"/><path fill="#fff" d="M1246.72 66.5503L1248.28 77.7403L1245.72 78.1003L1244.16 66.9103L1246.72 66.5503Z"/><path fill="#fff" d="M1257.44 65.0503L1259 76.2403L1257.08 76.5103L1251.92 71.0403L1252.77 77.1203L1250.21 77.4803L1248.65 66.2903L1250.57 66.0203L1255.74 71.4903L1254.89 65.4103L1257.44 65.0503Z"/><path fill="#fff" d="M1267.61 72.5301L1267.95 74.9901L1260.91 75.9701L1259.35 64.7801L1266.31 63.8101L1266.65 66.2701L1262.25 66.8801L1262.51 68.7401L1266.51 68.1801L1266.85 70.6101L1262.85 71.1701L1263.13 73.1501L1267.61 72.5301Z"/></g><defs><filter id="filter0_i" width="1360" height="210" x="0" y="-10" color-interpolation-filters="sRGB" filterUnits="userSpaceOnUse"><feFlood flood-opacity="0" result="BackgroundImageFix"/><feBlend in="SourceGraphic" in2="BackgroundImageFix" mode="normal" result="shape"/><feColorMatrix in="SourceAlpha" result="hardAlpha" type="matrix" values="0 0 0 0 0 0 0 0 0 0 0 0 0 0 0 0 0 0 127 0"/><feOffset dy="-20"/><feGaussianBlur stdDeviation="5"/><feComposite in2="hardAlpha" k2="-1" k3="1" operator="arithmetic"/><feColorMatrix type="matrix" values="0 0 0 0 0 0 0 0 0 0 0 0 0 0 0 0 0 0 0.01 0"/><feBlend in2="shape" mode="normal" result="effect1_innerShadow"/></filter><linearGradient id="paint0_linear" x1="1245.11" x2="1249.05" y1="158.964" y2="158.295" gradientUnits="userSpaceOnUse"><stop stop-color="#E1473D"/><stop offset="1" stop-color="#E9605A"/></linearGradient><linearGradient id="paint1_linear" x1="1343.04" x2="1255.06" y1="-122.667" y2="35.105" gradientUnits="userSpaceOnUse"><stop stop-color="#E1473D"/><stop offset="1" stop-color="#E9605A"/></linearGradient><linearGradient id="paint2_linear" x1="1288.26" x2="1125.16" y1="31.631" y2="145.153" gradientUnits="userSpaceOnUse"><stop stop-color="#FF928E"/><stop offset="1" stop-color="#FE7062"/></linearGradient><clipPath id="clip0"><rect width="1360" height="200" fill="#fff"/></clipPath></defs></svg>