<svg xmlns="http://www.w3.org/2000/svg" width="408" height="214" fill="none" viewBox="0 0 408 214"><g clip-path="url(#clip0)" filter="url(#filter0_i)" opacity=".9"><path fill="#fff" d="M408 0H0V214H408V0Z"/><path fill="#E6E8FC" d="M27.0124 219.713C28.3237 199.137 26.2031 169.842 17.0938 143.518C7.63562 116.204 -9.18811 92.2375 -27.8672 99.2265C-35.0376 101.919 -36 113.958 -32.9728 125.174C-24.0727 158.235 -3.46853 178.226 4.4551 219.713"/><path stroke="#fff" stroke-linejoin="round" stroke-miterlimit="10" d="M14.8062 219.714C11.6395 155.278 -24.4076 98.1528 -24.4076 98.1528"/><path fill="#CDD2F9" d="M3.64612 219.713C1.07931 194.031 -6.85832 161.988 -19.5947 142.807C-29.7922 127.448 -45.7231 120.57 -55.1673 130.14C-60.4125 135.455 -58.4316 150.842 -50.4522 162.407C-36.3487 182.885 -19.4972 190.209 -10.1088 219.699"/><path fill="#E6E8FC" d="M27.6773 219.719C26.9094 207.67 28.1512 190.515 33.4855 175.1C39.0241 159.105 48.8758 145.071 59.814 149.164C64.0129 150.74 64.5764 157.79 62.8038 164.358C57.592 183.718 45.5265 195.424 40.8865 219.719"/><path stroke="#fff" stroke-linejoin="round" stroke-miterlimit="10" d="M34.8252 219.719C36.6795 181.987 57.7882 148.535 57.7882 148.535"/><path fill="#CDD2F9" d="M41.3602 219.719C42.8633 204.68 47.5115 185.916 54.9697 174.683C60.9412 165.689 70.2702 161.662 75.8005 167.266C78.8721 170.378 77.7121 179.389 73.0394 186.161C64.7806 198.153 54.9126 202.441 49.4149 219.711"/><path stroke="#fff" stroke-linejoin="round" stroke-miterlimit="10" d="M45.2324 219.719C52.3966 185.794 74.4201 166.131 74.4201 166.131"/><path fill="#E6E8FC" d="M49.0719 219.718C54.0713 205.635 67.1252 189.378 77.0178 186.438C81.0125 185.245 87.1637 185.686 87.9315 190.163C88.5442 193.749 84.9499 199.189 80.8573 202.228C73.3255 207.824 66.2266 210.087 57.9107 219.726"/><path stroke="#fff" stroke-linejoin="round" stroke-miterlimit="10" d="M54.3572 219.718C69.1021 193.634 86.9431 188.006 86.9431 188.006"/><path fill="#F5F8FF" d="M477.857 16C477.857 16 393.343 18.36 357.4 116.3C321.457 214.24 201 252 201 252H507V16H477.857Z"/><path stroke="url(#paint0_linear)" stroke-miterlimit="10" stroke-width="2" d="M353.587 219.701L341.5 143.5"/><path fill="#E6E8FC" d="M360.319 225.249C359.379 210.499 360.899 189.499 367.429 170.629C374.209 151.049 386.269 133.869 399.659 138.879C404.799 140.809 405.489 149.439 403.319 157.479C396.939 181.179 382.169 195.509 376.489 225.249"/><path stroke="#fff" stroke-linejoin="round" stroke-miterlimit="10" d="M369.069 225.249C371.339 179.059 397.179 138.109 397.179 138.109"/><path fill="#CDD2F9" d="M377.069 225.249C378.909 206.839 384.599 183.869 393.729 170.119C401.039 159.109 412.459 154.179 419.229 161.039C422.989 164.849 421.569 175.879 415.849 184.169C405.739 198.849 393.659 204.099 386.929 225.239"/><path stroke="#fff" stroke-linejoin="round" stroke-miterlimit="10" d="M381.809 225.249C390.579 183.719 417.539 159.649 417.539 159.649"/><path fill="#E6E8FC" d="M386.509 225.249C392.629 208.009 408.609 188.109 420.719 184.509C425.609 183.049 433.139 183.589 434.079 189.069C434.829 193.459 430.429 200.119 425.419 203.839C416.199 210.689 407.509 213.459 397.329 225.259"/><path stroke="#fff" stroke-linejoin="round" stroke-miterlimit="10" d="M392.979 225.249C411.029 193.319 432.869 186.429 432.869 186.429"/><path fill="#E6E8FC" d="M369.049 225.249C369.479 218.449 368.779 208.769 365.769 200.069C362.649 191.039 357.079 183.119 350.909 185.429C348.539 186.319 348.219 190.299 349.219 193.999C352.159 204.929 358.969 211.529 361.589 225.249"/><path stroke="#fff" stroke-linejoin="round" stroke-miterlimit="10" d="M365.009 225.249C363.959 203.949 352.049 185.069 352.049 185.069"/><path fill="#CDD2F9" d="M361.329 225.249C360.479 216.759 357.859 206.169 353.649 199.829C350.279 194.759 345.009 192.479 341.889 195.649C340.159 197.409 340.809 202.489 343.449 206.319C348.109 213.089 353.679 215.509 356.779 225.259"/><path stroke="#fff" stroke-linejoin="round" stroke-miterlimit="10" d="M359.139 225.249C355.099 206.099 342.669 194.999 342.669 194.999"/><path fill="#E6E8FC" d="M356.969 225.249C354.149 217.299 346.779 208.129 341.199 206.459C338.939 205.789 335.469 206.029 335.039 208.559C334.689 210.579 336.729 213.649 339.029 215.369C343.279 218.529 347.289 219.809 351.979 225.249"/><path stroke="#fff" stroke-linejoin="round" stroke-miterlimit="10" d="M353.989 225.249C345.669 210.529 335.599 207.349 335.599 207.349"/><path fill="url(#paint1_linear)" d="M379.856 137.04C380.255 136.504 380.326 135.225 379.757 134.875L362.673 125.024C362.64 125.002 362.597 124.997 362.558 125.002L362.509 125.335L304.675 134.629C304.254 134.695 305.408 136.641 305.473 137.089L309.601 156.967L306.845 160.274L307.031 161.515C307.097 161.964 307.496 162.275 307.917 162.215L366.314 153.457C366.68 153.402 367.014 153.211 367.254 152.921C367.254 152.921 377.073 140.747 379.856 137.04Z"/><path fill="url(#paint2_linear)" d="M379.719 136.149C380.124 135.641 379.981 134.892 379.418 134.575L362.673 125.024C362.641 125.002 362.597 124.997 362.559 125.002L303.658 133.837C303.237 133.903 302.948 134.291 303.008 134.712L306.769 159.794C306.835 160.215 307.223 160.504 307.644 160.444L366.041 151.686C366.407 151.632 366.741 151.451 366.987 151.178C366.992 151.178 376.909 139.654 379.719 136.149Z"/><path fill="#fff" d="M324.298 145.204C324.56 147.072 323.413 148.388 321.704 148.629C319.781 148.896 318.203 147.673 317.962 145.919C317.717 144.144 318.924 142.538 320.721 142.287C321.89 142.123 322.96 142.56 323.588 143.314L322.496 144.161C322.184 143.795 321.595 143.554 320.901 143.653C319.869 143.795 319.208 144.663 319.355 145.739C319.503 146.777 320.338 147.438 321.529 147.269C322.343 147.154 322.824 146.722 322.96 146.105L321.327 146.335L321.158 145.111L324.222 144.685L324.298 145.204Z"/><path fill="#fff" d="M325.129 146.012L324.55 141.872L325.948 141.675L326.51 145.695C326.576 146.16 326.849 146.52 327.592 146.416C328.335 146.312 328.499 145.886 328.433 145.428L327.871 141.408L329.269 141.211L329.848 145.351C330.028 146.662 329.127 147.591 327.783 147.776C326.434 147.967 325.309 147.323 325.129 146.012Z"/><path fill="#fff" d="M331.667 140.884L332.519 146.996L331.12 147.192L330.268 141.08L331.667 140.884Z"/><path fill="#fff" d="M338.56 143.035C338.8 144.767 337.702 146.269 336.014 146.503L333.567 146.842L332.715 140.73L335.162 140.391C336.844 140.162 338.314 141.309 338.56 143.035ZM337.21 143.226C337.063 142.178 336.309 141.609 335.348 141.741L334.299 141.888L334.774 145.313L335.823 145.165C336.79 145.029 337.358 144.275 337.21 143.226Z"/><path fill="#fff" d="M343.426 144.106L343.612 145.449L339.767 145.985L338.915 139.873L342.716 139.343L342.902 140.686L340.499 141.02L340.641 142.036L342.825 141.73L343.011 143.057L340.826 143.363L340.979 144.444L343.426 144.106Z"/><path fill="#fff" d="M347.79 143.494L347.976 144.838L344.393 145.335L343.541 139.223L344.939 139.026L345.606 143.795L347.79 143.494Z"/><path fill="#fff" d="M349.134 138.448L349.986 144.56L348.588 144.756L347.736 138.644L349.134 138.448Z"/><path fill="#fff" d="M354.989 137.628L355.841 143.74L354.793 143.887L351.974 140.9L352.439 144.221L351.04 144.417L350.188 138.305L351.237 138.158L354.061 141.145L353.597 137.825L354.989 137.628Z"/><path fill="#fff" d="M360.544 141.714L360.73 143.057L356.885 143.592L356.032 137.48L359.834 136.951L360.02 138.294L357.616 138.628L357.758 139.643L359.943 139.338L360.129 140.665L357.944 140.971L358.097 142.052L360.544 141.714Z"/></g><defs><filter id="filter0_i" width="408" height="224" x="0" y="-10" color-interpolation-filters="sRGB" filterUnits="userSpaceOnUse"><feFlood flood-opacity="0" result="BackgroundImageFix"/><feBlend in="SourceGraphic" in2="BackgroundImageFix" mode="normal" result="shape"/><feColorMatrix in="SourceAlpha" result="hardAlpha" type="matrix" values="0 0 0 0 0 0 0 0 0 0 0 0 0 0 0 0 0 0 127 0"/><feOffset dy="-20"/><feGaussianBlur stdDeviation="5"/><feComposite in2="hardAlpha" k2="-1" k3="1" operator="arithmetic"/><feColorMatrix type="matrix" values="0 0 0 0 0 0 0 0 0 0 0 0 0 0 0 0 0 0 0.01 0"/><feBlend in2="shape" mode="normal" result="effect1_innerShadow"/></filter><linearGradient id="paint0_linear" x1="344.251" x2="347.292" y1="173.594" y2="173.082" gradientUnits="userSpaceOnUse"><stop stop-color="#E1473D"/><stop offset="1" stop-color="#E9605A"/></linearGradient><linearGradient id="paint1_linear" x1="398.464" x2="350.365" y1="35.03" y2="121.282" gradientUnits="userSpaceOnUse"><stop stop-color="#E1473D"/><stop offset="1" stop-color="#E9605A"/></linearGradient><linearGradient id="paint2_linear" x1="368.515" x2="279.352" y1="119.383" y2="181.444" gradientUnits="userSpaceOnUse"><stop stop-color="#FF928E"/><stop offset="1" stop-color="#FE7062"/></linearGradient><clipPath id="clip0"><rect width="408" height="214" fill="#fff"/></clipPath></defs></svg>