<svg class="HomeValues__illustration" viewBox="0 0 456 376" fill="none" xmlns="http://www.w3.org/2000/svg"><rect width="456" height="376" fill="#FBFDFF"></rect><path d="M381.004 113.902L263.134 74.24L263.048 74.1429L200.773 10.5493L150.842 56.0056L150.105 55.2072L200.816 9.04956L263.73 73.3013L380.592 112.629L428.552 46.8777L429.429 47.5143L381.004 113.902Z" fill="#D1E1FD"></path><path d="M14.6516 211.526C14.6516 214.731 12.0419 217.331 8.82579 217.331C5.60969 217.331 3 214.731 3 211.526C3 208.322 5.60969 205.721 8.82579 205.721C12.0419 205.721 14.6516 208.322 14.6516 211.526Z" fill="#D6ECFF"></path><path d="M206.621 9.80477C206.621 13.0093 204.012 15.6095 200.796 15.6095C197.579 15.6095 194.97 13.0093 194.97 9.80477C194.97 6.60028 197.579 4 200.796 4C204.012 4 206.621 6.60028 206.621 9.80477Z" fill="#D6ECFF"></path><path d="M434.823 47.2013C434.823 50.4057 432.213 53.006 428.997 53.006C425.781 53.006 423.171 50.4057 423.171 47.2013C423.171 43.9968 425.781 41.3965 428.997 41.3965C432.213 41.3965 434.823 43.9968 434.823 47.2013Z" fill="#D6ECFF"></path><path d="M435.332 353.516C435.332 356.721 432.723 359.321 429.506 359.321C426.29 359.321 423.681 356.721 423.681 353.516C423.681 350.312 426.29 347.712 429.506 347.712C432.723 347.712 435.332 350.312 435.332 353.516Z" fill="#D6ECFF"></path><path d="M161.638 353.667L161.184 353.581L15.084 326.089L15.2897 325.032L160.935 352.437L262.929 73.5817L263.947 73.9593L161.638 353.667Z" fill="#D1E1FD"></path><path d="M22.0811 99.4455L21.3633 100.253L71.2156 144.233L71.9334 143.426L22.0811 99.4455Z" fill="#F0F0F0"></path><path d="M429.213 353.98L356.986 309.376L358.556 308.945L434.454 236.191L380.3 113.482L381.297 113.05L435.743 236.45L435.472 236.709L359.423 309.614L429.787 353.063L429.213 353.98Z" fill="#D1E1FD"></path><path d="M15.6475 325.852L14.7379 325.269L58.388 258.083L8.05664 211.558L8.42481 211.159L71.469 143.163L71.848 143.379L359.109 308.956L358.568 309.894L71.6747 144.523L9.5943 211.504L59.7957 257.899L15.6475 325.852Z" fill="#D1E1FD"></path><path d="M210.296 284.77L210.428 283.779C211.991 283.987 213.567 284.157 215.156 284.288C215.921 284.35 216.683 284.403 217.443 284.447L217.385 285.446C218.936 285.536 220.479 285.588 222.016 285.603L222.026 284.603C222.791 284.61 223.555 284.608 224.318 284.596H224.318C225.879 284.574 227.432 284.512 228.976 284.413L229.04 285.411C232.199 285.207 235.321 284.846 238.396 284.335L238.232 283.349C241.316 282.836 244.354 282.172 247.335 281.362L247.597 282.327C250.642 281.5 253.63 280.524 256.551 279.406L256.193 278.472C259.105 277.358 261.949 276.101 264.718 274.71L265.167 275.604C267.979 274.191 270.714 272.641 273.361 270.962L272.825 270.118C275.452 268.451 277.992 266.657 280.436 264.741L281.053 265.529C283.526 263.591 285.901 261.531 288.168 259.358L287.476 258.636C288.598 257.562 289.692 256.459 290.76 255.329L291.487 256.015L290.76 255.329C291.95 254.069 293.105 252.775 294.225 251.449L294.989 252.094C297.245 249.421 299.357 246.617 301.309 243.694L300.477 243.138C302.397 240.265 304.161 237.275 305.758 234.18L306.646 234.638C308.245 231.539 309.677 228.335 310.929 225.038L309.994 224.683C311.217 221.465 312.266 218.157 313.131 214.769L314.1 215.017C314.959 211.653 315.638 208.211 316.125 204.702L315.134 204.564C315.371 202.857 315.562 201.132 315.706 199.393C315.706 199.393 315.706 199.392 315.706 199.392L316.703 199.475C316.714 199.333 316.726 199.19 316.737 199.048C316.76 198.763 316.782 198.477 316.802 198.193L315.804 198.123C315.81 198.049 315.815 197.974 315.819 197.9C315.824 197.834 315.828 197.769 315.832 197.704L315.832 197.701C315.924 196.284 315.984 194.872 316.011 193.466L317.011 193.486C317.068 190.605 316.991 187.749 316.789 184.924L315.791 184.996C315.587 182.157 315.254 179.351 314.796 176.582L315.783 176.419C315.315 173.585 314.718 170.79 313.999 168.042L313.032 168.295C312.674 166.925 312.285 165.567 311.866 164.222L311.82 164.076V164.066C311.33 162.505 310.8 160.96 310.23 159.434L311.167 159.084C309.973 155.886 308.609 152.766 307.084 149.736L306.19 150.186C304.674 147.173 302.997 144.25 301.17 141.43L302.009 140.886C300.158 138.028 298.154 135.274 296.008 132.636L295.233 133.267C293.109 130.656 290.845 128.16 288.45 125.791L289.154 125.08C286.738 122.691 284.192 120.43 281.524 118.308L280.902 119.091C278.274 117.001 275.528 115.048 272.673 113.245L273.207 112.399C270.343 110.59 267.37 108.929 264.3 107.428L263.86 108.326C260.854 106.857 257.753 105.543 254.565 104.396L254.904 103.455C251.728 102.311 248.468 101.331 245.132 100.526L244.898 101.498C243.269 101.105 241.622 100.754 239.958 100.446C239.177 100.302 238.393 100.168 237.605 100.043L237.762 99.055C236.182 98.8045 234.589 98.5923 232.98 98.4198L232.874 99.4141C232.085 99.3295 231.293 99.2545 230.497 99.1894L230.497 99.1894C228.594 99.0321 226.7 98.9335 224.817 98.8919L224.839 97.8922C220.963 97.8065 217.131 97.9594 213.357 98.3364L213.456 99.3315C211.561 99.5208 209.681 99.7673 207.817 100.069L207.817 100.069C206.044 100.355 204.286 100.692 202.544 101.077L202.328 100.101C198.775 100.888 195.292 101.876 191.893 103.054L192.22 103.999C188.825 105.176 185.514 106.544 182.301 108.092L181.867 107.191C178.599 108.765 175.433 110.523 172.382 112.452L172.916 113.297C169.887 115.212 166.973 117.298 164.189 119.541L163.561 118.763C160.745 121.033 158.059 123.463 155.52 126.041L156.232 126.743C154.977 128.017 153.758 129.327 152.577 130.673L210.296 284.77ZM210.296 284.77C207.091 284.343 203.941 283.758 200.855 283.025L201.087 282.052C197.98 281.313 194.938 280.421 191.969 279.385L191.639 280.329C188.598 279.268 185.632 278.058 182.749 276.707L183.173 275.801C180.291 274.451 177.494 272.959 174.789 271.336L174.274 272.193C171.52 270.54 168.86 268.752 166.304 266.838L166.904 266.038C164.363 264.135 161.925 262.107 159.599 259.965L158.922 260.7C156.564 258.528 154.321 256.24 152.199 253.844L152.948 253.181C150.848 250.809 148.869 248.332 147.019 245.758L146.207 246.342C144.341 243.744 142.605 241.05 141.008 238.27L141.875 237.772C140.301 235.03 138.864 232.204 137.573 229.303L136.659 229.709C135.361 226.794 134.209 223.805 133.21 220.75L134.161 220.439C133.669 218.937 133.216 217.419 132.801 215.886L132.801 215.886C132.452 214.598 132.131 213.299 131.837 211.991L130.862 212.21C130.273 209.586 129.796 206.923 129.435 204.227L130.426 204.094C130.073 201.461 129.833 198.795 129.709 196.103L128.71 196.149C128.587 193.47 128.578 190.765 128.688 188.04L129.687 188.08C129.741 186.749 129.824 185.414 129.935 184.074L129.935 184.074C130.071 182.43 130.249 180.8 130.468 179.184L129.477 179.05C129.927 175.733 130.548 172.477 131.33 169.289L132.301 169.528C133.089 166.319 134.042 163.181 135.15 160.122L134.21 159.781C135.346 156.647 136.642 153.595 138.089 150.634L138.988 151.073C140.433 148.116 142.03 145.25 143.768 142.486L142.922 141.954C144.69 139.14 146.603 136.431 148.648 133.834M210.296 284.77L148.648 133.834M148.648 133.834L149.434 134.453C150.449 133.165 151.497 131.904 152.577 130.673L148.648 133.834ZM312.811 163.916H312.82V163.921H312.793L312.811 163.916Z" fill="#F9FAFC" stroke="#A4CDFE" stroke-width="2" stroke-dasharray="10 10"></path><path d="M8.82471 99.8542C8.82471 104.612 11.4236 108.777 15.2894 110.989C17.1844 112.079 19.3826 112.705 21.7324 112.705C24.7319 112.705 27.4932 111.69 29.6806 109.975C32.7018 107.623 34.6293 103.965 34.6293 99.8542C34.6293 92.7547 28.8576 87.0039 21.7324 87.0039C14.5964 87.0039 8.82471 92.7655 8.82471 99.8542Z" fill="#91B3FA"></path><path opacity="0.3" d="M23.6709 111.815C30.3003 110.743 34.8023 104.519 33.7264 97.914C32.6505 91.3084 26.4041 86.8227 19.7747 87.8947C13.1452 88.9667 8.6432 95.1906 9.71911 101.796C10.795 108.402 17.0415 112.887 23.6709 111.815Z" fill="white"></path><path d="M14.4881 99.66C14.6397 101.203 15.9824 101.451 15.9824 101.451C15.9824 101.451 15.6684 102.271 16.0366 103.242C16.4047 104.224 18.3864 104.224 18.3864 104.224C18.3864 104.224 18.5596 104.753 19.2851 104.828C19.3285 104.882 19.3718 104.936 19.4151 104.979C19.5017 105.109 19.5992 105.238 19.6966 105.368C19.9457 107.321 19.8915 109.371 18.9386 110.417C18.9386 110.417 18.9495 110.428 18.9603 110.439C18.1265 110.525 17.2818 110.644 16.4589 110.773C16.0582 110.827 15.6684 110.903 15.2786 110.978C17.1736 112.068 19.3718 112.694 21.7216 112.694C24.7211 112.694 27.4824 111.68 29.6698 109.964C29.3016 109.964 28.8793 109.953 28.4245 109.953C27.7531 109.953 26.9951 109.953 26.1613 109.975C26.1613 109.964 26.1505 109.942 26.1396 109.932C24.7536 109.705 24.0714 109.058 23.8007 108.227C23.6599 107.817 23.6274 107.364 23.6491 106.9C24.0172 106.835 24.3746 106.716 24.7211 106.544C25.6848 106.08 26.497 105.238 26.9085 104.148C26.9626 104.008 27.0168 103.857 27.0601 103.706C27.3525 102.616 27.4716 101.235 27.3416 99.8758C27.699 99.66 28.0888 99.2931 28.2187 98.635C28.4786 97.3294 27.3091 97.0165 27.3091 97.0165C27.3091 97.0165 28.5869 96.8115 28.6302 95.2147C28.6844 93.6178 27.3091 93.6178 27.3091 93.6178C27.3091 93.6178 27.7748 92.9381 26.8652 91.6865C25.9556 90.4349 24.6886 91.201 24.6886 91.201C24.6886 91.201 23.7249 89.6904 22.1547 90.0573C20.5846 90.4349 20.1839 91.352 20.1839 91.352C20.1839 91.352 20.1839 90.4349 18.3972 90.942C16.6105 91.4599 16.827 93.5099 16.827 93.5099C16.827 93.5099 15.6251 92.9057 15.0078 94.1897C14.3906 95.4736 15.7334 97.7179 15.7334 97.7179C15.7334 97.7179 14.3365 98.1063 14.4881 99.66Z" fill="#91B3FA"></path><path opacity="0.7" d="M8.82471 99.8542C8.82471 104.612 11.4236 108.777 15.2894 110.989C17.1844 112.079 19.3826 112.705 21.7324 112.705C24.7319 112.705 27.4932 111.69 29.6806 109.975C32.7018 107.623 34.6293 103.965 34.6293 99.8542C34.6293 92.7547 28.8576 87.0039 21.7324 87.0039C14.5964 87.0039 8.82471 92.7655 8.82471 99.8542Z" fill="white"></path><path d="M15.1921 336.987C21.5254 336.987 26.6596 331.871 26.6596 325.561C26.6596 319.25 21.5254 314.135 15.1921 314.135C8.85878 314.135 3.72461 319.25 3.72461 325.561C3.72461 331.871 8.85878 336.987 15.1921 336.987Z" fill="#91B3FA"></path><path opacity="0.3" d="M25.9992 325.561C25.9992 328.042 25.1545 330.34 23.736 332.164C21.7543 334.699 18.6682 336.329 15.1922 336.329C12.929 336.329 10.8391 335.638 9.10653 334.462C6.2586 332.52 4.38525 329.261 4.38525 325.561C4.38525 319.616 9.22564 314.782 15.1922 314.782C21.1588 314.782 25.9992 319.616 25.9992 325.561Z" fill="white"></path><path d="M23.7357 332.164C21.7541 334.699 18.6679 336.329 15.1919 336.329C12.9288 336.329 10.8388 335.638 9.10627 334.462C9.46361 333.642 9.69101 333.156 9.69101 333.156C11.0446 332.725 12.4198 332.39 13.8059 332.153C14.1524 331.84 14.6289 331.592 15.2244 331.452C15.5168 330.589 15.3435 329.639 15.1486 329.002C14.7155 328.711 14.3473 328.344 14.0441 327.913C13.8275 327.762 13.6326 327.567 13.4594 327.341C13.1237 327.201 10.828 326.143 10.7089 322.378C10.7089 322.227 10.7089 322.065 10.7197 321.914C10.005 321.838 9.2687 322.065 9.77764 323.511C10.6656 326.003 9.73433 327.309 9.73433 327.309C9.77764 326.51 9.65853 325.658 9.65853 325.658C9.65853 328.236 8.26163 328.398 8.26163 328.398C8.26163 328.398 9.14958 327.47 7.83932 324.6C6.52906 321.73 6.90806 317.846 9.39864 317.684C10.7414 317.598 11.6185 318.224 12.1599 318.839C13.5677 317.587 15.7009 317.361 17.0653 318.267C17.0653 318.267 19.3068 317.727 19.9457 318.31C20.0865 318.44 19.9782 318.731 19.7075 319.119C20.2814 319.497 20.7579 320.08 20.9636 320.964C21.3101 322.507 20.8661 323.683 20.3464 324.46C20.6496 327.287 20.1623 329.413 17.8991 329.618C17.8991 329.693 17.8883 329.758 17.8883 329.823C17.8883 329.92 17.8774 330.017 17.8774 330.114C17.8666 330.653 17.9316 331.042 18.029 331.322C18.3647 331.387 18.6788 331.473 18.9711 331.581C20.9961 331.581 23.2593 331.797 23.2593 331.797C23.2593 331.797 23.2701 331.797 23.2809 331.808C23.4109 331.894 23.5625 332.013 23.7357 332.164Z" fill="#91B3FA"></path><path opacity="0.7" d="M15.1921 336.987C21.5254 336.987 26.6596 331.871 26.6596 325.561C26.6596 319.25 21.5254 314.135 15.1921 314.135C8.85878 314.135 3.72461 319.25 3.72461 325.561C3.72461 331.871 8.85878 336.987 15.1921 336.987Z" fill="white"></path><path d="M444.049 245.237C448.992 240.311 448.992 232.325 444.049 227.399C439.105 222.474 431.09 222.474 426.147 227.399C421.203 232.325 421.203 240.311 426.147 245.237C431.09 250.162 439.105 250.162 444.049 245.237Z" fill="#91B3FA"></path><path opacity="0.3" d="M447.026 236.321C447.026 238.759 446.29 241.025 445.023 242.902C442.89 246.107 439.241 248.211 435.093 248.211C432.343 248.211 429.809 247.283 427.784 245.707C424.969 243.539 423.16 240.14 423.16 236.31C423.16 229.739 428.499 224.42 435.093 224.42C441.688 224.43 447.026 229.75 447.026 236.321Z" fill="white"></path><path d="M445.034 242.902C442.901 246.107 439.251 248.211 435.104 248.211C432.354 248.211 429.82 247.283 427.795 245.707C427.665 244.984 427.806 244.283 427.86 243.754C428.011 242.298 429.69 241.133 429.657 240.108C429.625 239.093 427.935 237.777 429.029 237.194C430.123 236.612 430.361 234.346 429.484 233.073C428.758 232.231 428.217 230.915 429.549 229.21C430.383 228.153 431.585 227.656 432.798 227.451C433.642 226.998 434.779 226.772 436.328 226.944C437.811 227.106 438.959 227.527 439.836 228.131C440.702 228.735 441.298 229.512 441.666 230.375C441.666 230.375 442.976 232.879 442.045 235.522C441.45 237.216 444.103 237.119 444.178 238.683C444.254 240.237 442.933 240.334 443.171 241.381C443.269 241.866 444.178 242.319 445.034 242.902Z" fill="#91B3FA"></path><path opacity="0.7" d="M444.049 245.237C448.992 240.311 448.992 232.325 444.049 227.399C439.105 222.474 431.09 222.474 426.147 227.399C421.203 232.325 421.203 240.311 426.147 245.237C431.09 250.162 439.105 250.162 444.049 245.237Z" fill="white"></path><path d="M380.323 110.518L283.732 152.245L284.163 153.235L380.754 111.508L380.323 110.518Z" fill="#7DABF8"></path><path d="M150.937 55.3208L150.016 55.8887L191.312 122.366L192.233 121.798L150.937 55.3208Z" fill="#7DABF8"></path><path d="M163.851 232.306L56.7051 254.677L56.9272 255.733L164.073 233.363L163.851 232.306Z" fill="#7DABF8"></path><path opacity="0.8" d="M380.323 110.518L283.732 152.245L284.163 153.235L380.754 111.508L380.323 110.518Z" fill="white" fill-opacity="0.81"></path><path d="M296.767 215.216L295.85 215.788L357.495 313.829L358.413 313.257L296.767 215.216Z" fill="#7DABF8"></path><path opacity="0.8" d="M296.767 215.216L295.85 215.788L357.495 313.829L358.413 313.257L296.767 215.216Z" fill="white" fill-opacity="0.81"></path><path opacity="0.8" d="M150.937 55.3208L150.016 55.8887L191.312 122.366L192.233 121.798L150.937 55.3208Z" fill="white" fill-opacity="0.81"></path><path opacity="0.8" d="M163.851 232.306L56.7051 254.677L56.9272 255.733L164.073 233.363L163.851 232.306Z" fill="white" fill-opacity="0.81"></path><path d="M161.119 353.635L56.2227 255.375L71.0578 143.606L71.1661 143.487L150.204 55.0993L150.399 55.0777L293.64 35.3329L381.103 110.795L381.07 111.075L358.46 313.983L358.07 314.059L161.119 353.635ZM57.3705 254.965L161.455 352.459L357.475 313.077L379.966 111.226L293.304 36.455L150.746 56.1135L72.0866 144.081L57.3705 254.965Z" fill="#7DABF8"></path><path opacity="0.8" d="M161.119 353.635L56.2227 255.375L71.0578 143.606L71.1661 143.487L150.204 55.0993L150.399 55.0777L293.64 35.3329L381.103 110.795L381.07 111.075L358.46 313.983L358.07 314.059L161.119 353.635ZM57.3705 254.965L161.455 352.459L357.475 313.077L379.966 111.226L293.304 36.455L150.746 56.1135L72.0866 144.081L57.3705 254.965Z" fill="white" fill-opacity="0.81"></path><path d="M193.399 122.081L191.775 131.522L190.151 122.081H193.399Z" fill="#7DABF8"></path><path d="M196.475 122.081C196.475 124.67 194.374 126.763 191.775 126.763C189.176 126.763 187.076 124.67 187.076 122.081C187.076 119.491 189.176 117.398 191.775 117.398C194.374 117.387 196.475 119.491 196.475 122.081Z" fill="#7DABF8"></path><path opacity="0.3" d="M192.23 118.779C192.75 119.459 192.338 120.657 191.309 121.433C190.281 122.221 189.014 122.297 188.494 121.617C187.974 120.937 188.386 119.739 189.414 118.963C190.443 118.175 191.71 118.089 192.23 118.779Z" fill="white" fill-opacity="0.81"></path><path d="M285.562 152.755L283.937 162.196L282.313 152.755H285.562Z" fill="#7DABF8"></path><path d="M283.937 157.438C286.533 157.438 288.637 155.342 288.637 152.755C288.637 150.169 286.533 148.073 283.937 148.073C281.342 148.073 279.238 150.169 279.238 152.755C279.238 155.342 281.342 157.438 283.937 157.438Z" fill="#7DABF8"></path><path opacity="0.3" d="M284.403 149.443C284.923 150.123 284.512 151.32 283.483 152.097C282.454 152.885 281.187 152.96 280.667 152.281C280.148 151.601 280.559 150.403 281.588 149.626C282.616 148.839 283.883 148.763 284.403 149.443Z" fill="white" fill-opacity="0.81"></path><path d="M165.57 232.285L163.946 241.726L162.322 232.285H165.57Z" fill="#7DABF8"></path><path d="M163.946 236.968C166.541 236.968 168.645 234.871 168.645 232.285C168.645 229.699 166.541 227.602 163.946 227.602C161.35 227.602 159.246 229.699 159.246 232.285C159.246 234.871 161.35 236.968 163.946 236.968Z" fill="#7DABF8"></path><path opacity="0.3" d="M164.401 228.984C164.921 229.663 164.509 230.861 163.48 231.638C162.452 232.425 161.185 232.501 160.665 231.821C160.145 231.141 160.557 229.944 161.585 229.167C162.625 228.379 163.881 228.293 164.401 228.984Z" fill="white" fill-opacity="0.81"></path><path d="M297.95 215.496L296.325 224.948L294.701 215.496H297.95Z" fill="#7DABF8"></path><path d="M301.025 215.497C301.025 218.086 298.924 220.179 296.326 220.179C293.727 220.179 291.626 218.086 291.626 215.497C291.626 212.907 293.727 210.814 296.326 210.814C298.914 210.814 301.025 212.907 301.025 215.497Z" fill="#7DABF8"></path><path opacity="0.3" d="M296.78 212.195C297.3 212.875 296.888 214.072 295.86 214.849C294.831 215.637 293.564 215.712 293.044 215.033C292.524 214.353 292.936 213.155 293.965 212.378C294.993 211.591 296.26 211.515 296.78 212.195Z" fill="white" fill-opacity="0.81"></path><path d="M408.462 133.741L408.459 133.744C406.927 135.797 405.156 137.665 403.2 139.294L403.189 139.303L403.179 139.312C401.443 140.815 399.529 142.135 397.478 143.25L397.468 143.255C392.531 145.984 386.824 147.546 380.76 147.546C375.661 147.546 370.805 146.439 366.449 144.454L366.422 144.442L366.395 144.431C366.093 144.308 365.783 144.162 365.466 144L365.444 143.978L365.222 143.869C362.789 142.672 360.509 141.176 358.447 139.431L358.447 139.431L358.44 139.425C355.349 136.84 352.715 133.709 350.715 130.189L350.711 130.181C347.806 125.137 346.146 119.309 346.146 113.084C346.146 94.0538 361.637 78.601 380.76 78.601C399.883 78.601 415.362 94.043 415.362 113.073C415.362 120.817 412.79 127.981 408.462 133.741Z" fill="#F9FAFC" stroke="#7DABF8" stroke-width="3"></path><path d="M292.384 57.6996C303.268 57.6996 312.092 48.9078 312.092 38.0626C312.092 27.2174 303.268 18.4257 292.384 18.4257C281.499 18.4257 272.676 27.2174 272.676 38.0626C272.676 48.9078 281.499 57.6996 292.384 57.6996Z" fill="#91B3FA"></path><path opacity="0.3" d="M310.965 38.0627C310.965 42.9288 309.081 47.3525 305.995 50.6541C302.606 54.2902 297.765 56.5668 292.384 56.5668C286.612 56.5668 281.468 53.9557 278.068 49.8557C275.394 46.662 273.802 42.5511 273.802 38.0627C273.802 27.8342 282.118 19.5479 292.384 19.5479C302.649 19.5479 310.965 27.8342 310.965 38.0627Z" fill="white"></path><path opacity="0.5" d="M292.384 57.6996C303.268 57.6996 312.092 48.9078 312.092 38.0626C312.092 27.2174 303.268 18.4257 292.384 18.4257C281.499 18.4257 272.676 27.2174 272.676 38.0626C272.676 48.9078 281.499 57.6996 292.384 57.6996Z" fill="white"></path><path d="M161.36 371.005C172.225 371.005 181.001 362.197 180.961 351.333C180.922 340.468 172.083 331.661 161.218 331.661C150.353 331.661 141.577 340.468 141.617 351.333C141.656 362.197 150.495 371.005 161.36 371.005Z" fill="#91B3FA"></path><path opacity="0.2" d="M179.875 351.337C179.875 356.635 177.633 361.414 174.06 364.77C170.735 367.921 166.231 369.841 161.293 369.841C157.384 369.841 153.767 368.643 150.778 366.593C145.905 363.259 142.711 357.66 142.711 351.337C142.711 341.109 151.027 332.833 161.293 332.833C171.548 332.822 179.875 341.109 179.875 351.337Z" fill="white"></path><path opacity="0.5" d="M161.359 371.005C172.224 371.005 181 362.197 180.961 351.333C180.921 340.468 172.082 331.661 161.217 331.661C150.353 331.661 141.577 340.468 141.616 351.333C141.655 362.197 150.495 371.005 161.359 371.005Z" fill="white"></path><path d="M90.4512 148.749C92.9524 138.195 86.393 127.618 75.8002 125.126C65.2075 122.634 54.5927 129.17 52.0914 139.724C49.5902 150.279 56.1496 160.855 66.7424 163.348C77.3351 165.84 87.9499 159.304 90.4512 148.749Z" fill="#91B3FA"></path><path opacity="0.2" d="M89.8629 144.223C89.8629 148.96 88.0762 153.286 85.1416 156.556C81.7306 160.354 76.782 162.738 71.281 162.738C67.1878 162.738 63.4086 161.422 60.3441 159.188C55.7095 155.822 52.71 150.363 52.71 144.223C52.71 133.995 61.0263 125.719 71.281 125.719C81.5357 125.719 89.8629 133.995 89.8629 144.223Z" fill="white"></path><path opacity="0.5" d="M90.4512 148.749C92.9524 138.195 86.393 127.618 75.8002 125.126C65.2075 122.634 54.5927 129.17 52.0914 139.724C49.5902 150.279 56.1496 160.855 66.7424 163.348C77.3351 165.84 87.9499 159.304 90.4512 148.749Z" fill="white"></path><path d="M180.315 54.3347C180.315 71.6877 166.195 85.7644 148.766 85.7644C131.337 85.7644 117.217 71.6877 117.217 54.3347C117.217 36.9817 131.337 22.905 148.766 22.905C166.195 22.905 180.315 36.9817 180.315 54.3347Z" fill="#F9FAFC" stroke="#7DABF8" stroke-width="3"></path><path d="M87.5945 257.052C87.5945 273.416 74.2795 286.691 57.8432 286.691C41.4068 286.691 28.0918 273.416 28.0918 257.052C28.0918 240.689 41.4068 227.414 57.8432 227.414C74.2795 227.414 87.5945 240.689 87.5945 257.052Z" fill="#F9FAFC" stroke="#7DABF8" stroke-width="3"></path><path d="M385.588 283.979C400.123 298.462 400.123 321.943 385.588 336.426C371.052 350.909 347.486 350.909 332.951 336.426C318.415 321.943 318.415 298.462 332.951 283.979C347.486 269.496 371.052 269.496 385.588 283.979Z" fill="#F9FAFC" stroke="#7DABF8" stroke-width="3"></path><path d="M222.582 275.312C269.108 275.312 306.825 237.759 306.825 191.436C306.825 145.112 269.108 107.56 222.582 107.56C176.056 107.56 138.34 145.112 138.34 191.436C138.34 237.759 176.056 275.312 222.582 275.312Z" fill="#DC0D16"></path><path d="M217.9 140.177H189.815L241.291 191.436L189.815 242.695H217.9L269.375 191.436L217.9 140.177Z" fill="white"></path><mask id="mask0" mask-type="alpha" maskUnits="userSpaceOnUse" x="138" y="107" width="169" height="169"><path d="M222.582 275.312C269.108 275.312 306.825 237.759 306.825 191.436C306.825 145.112 269.108 107.56 222.582 107.56C176.056 107.56 138.34 145.112 138.34 191.436C138.34 237.759 176.056 275.312 222.582 275.312Z" fill="#C4C4C4"></path></mask><g mask="url(#mask0)"><path d="M241.301 191.436L189.826 242.695L164.088 268.319L112.612 217.06L189.836 140.177L241.301 191.436Z" fill="url(#valuesIllustrationPaint0_linear)"></path></g><path d="M56.0133 256.808C56.0133 257.23 56.1816 257.634 56.4812 257.933C56.7807 258.231 57.187 258.399 57.6107 258.399C58.0343 258.399 58.4406 258.231 58.7402 257.933C59.0398 257.634 59.208 257.23 59.208 256.808C59.208 256.386 59.0398 255.981 58.7402 255.683C58.4406 255.384 58.0343 255.217 57.6107 255.217C57.187 255.217 56.7807 255.384 56.4812 255.683C56.1816 255.981 56.0133 256.386 56.0133 256.808ZM62.669 256.808C62.669 257.23 62.8373 257.634 63.1369 257.933C63.4364 258.231 63.8427 258.399 64.2664 258.399C64.69 258.399 65.0963 258.231 65.3959 257.933C65.6955 257.634 65.8638 257.23 65.8638 256.808C65.8638 256.386 65.6955 255.981 65.3959 255.683C65.0963 255.384 64.69 255.217 64.2664 255.217C63.8427 255.217 63.4364 255.384 63.1369 255.683C62.8373 255.981 62.669 256.386 62.669 256.808ZM49.3576 256.808C49.3576 257.23 49.5259 257.634 49.8254 257.933C50.125 258.231 50.5313 258.399 50.9549 258.399C51.3786 258.399 51.7849 258.231 52.0845 257.933C52.384 257.634 52.5523 257.23 52.5523 256.808C52.5523 256.386 52.384 255.981 52.0845 255.683C51.7849 255.384 51.3786 255.217 50.9549 255.217C50.5313 255.217 50.125 255.384 49.8254 255.683C49.5259 255.981 49.3576 256.386 49.3576 256.808ZM71.3614 251.054C70.6093 249.274 69.5311 247.676 68.1567 246.304C66.7919 244.94 65.1717 243.856 63.3878 243.113C61.5575 242.347 59.614 241.959 57.6107 241.959H57.5441C55.5274 241.969 53.574 242.367 51.737 243.149C49.9684 243.9 48.3634 244.986 47.0114 246.347C45.6503 247.716 44.5821 249.307 43.8433 251.08C43.0779 252.917 42.6919 254.869 42.7018 256.877C42.7131 259.179 43.2599 261.447 44.2992 263.503V268.541C44.2992 268.945 44.4605 269.333 44.7476 269.619C45.0347 269.905 45.424 270.065 45.83 270.065H50.8917C52.956 271.101 55.233 271.645 57.5441 271.656H57.614C59.6074 271.656 61.5409 271.272 63.3612 270.52C65.1361 269.785 66.7502 268.713 68.1134 267.364C69.4878 266.009 70.5694 264.424 71.3248 262.658C72.1102 260.828 72.5095 258.883 72.5195 256.874C72.5295 254.856 72.1368 252.897 71.3614 251.054ZM66.333 265.571C64.0002 267.871 60.9053 269.137 57.6107 269.137H57.5541C55.5474 269.127 53.554 268.63 51.7936 267.696L51.514 267.546H46.8284V262.88L46.6786 262.601C45.7402 260.848 45.241 258.863 45.231 256.864C45.2177 253.56 46.4856 250.457 48.8118 248.121C51.1347 245.784 54.2395 244.491 57.5574 244.478H57.614C59.2779 244.478 60.8919 244.8 62.4128 245.436C63.897 246.056 65.2281 246.947 66.3729 248.087C67.5144 249.224 68.4129 250.553 69.0352 252.032C69.6808 253.563 70.0036 255.187 69.997 256.864C69.977 260.165 68.6758 263.258 66.333 265.571Z" fill="#7DABF8"></path><path d="M149.064 59.3509C149.064 59.508 149.186 59.6365 149.333 59.6365H155.963C156.11 59.6365 156.231 59.508 156.231 59.3509V57.6376C156.231 57.4806 156.11 57.3521 155.963 57.3521H149.333C149.186 57.3521 149.064 57.4806 149.064 57.6376V59.3509ZM142.079 59.5686L148.96 53.8219C149.096 53.7077 149.096 53.4971 148.96 53.3829L142.079 47.6398C142.037 47.6046 141.986 47.582 141.932 47.5747C141.878 47.5674 141.823 47.5758 141.774 47.5987C141.725 47.6216 141.683 47.6582 141.654 47.7041C141.624 47.7499 141.609 47.8032 141.609 47.8575V50.0955C141.609 50.1812 141.645 50.2597 141.713 50.3132L145.648 53.6042L141.713 56.8952C141.681 56.9219 141.655 56.9552 141.637 56.9927C141.619 57.0303 141.61 57.0713 141.609 57.1129V59.3509C141.609 59.5936 141.892 59.7257 142.079 59.5686ZM162.109 39.3267H135.732C135.097 39.3267 134.585 39.8371 134.585 40.4689V66.7395C134.585 67.3713 135.097 67.8817 135.732 67.8817H162.109C162.743 67.8817 163.256 67.3713 163.256 66.7395V40.4689C163.256 39.8371 162.743 39.3267 162.109 39.3267ZM160.675 65.3118H137.165V41.8966H160.675V65.3118Z" fill="#7DABF8"></path><path d="M374.55 302.44L361.444 295.261C361.25 295.154 361.033 295.099 360.812 295.099C360.591 295.099 360.374 295.154 360.18 295.261L347.074 302.44C346.868 302.553 346.697 302.718 346.577 302.919C346.458 303.121 346.395 303.35 346.395 303.584C346.395 303.817 346.458 304.047 346.577 304.248C346.697 304.449 346.868 304.614 347.074 304.727L359.501 311.535V325.527L355.522 323.347L354.259 325.633L360.18 328.877C360.374 328.983 360.591 329.039 360.812 329.039C361.033 329.039 361.25 328.983 361.444 328.877L374.55 321.697C374.756 321.584 374.927 321.419 375.047 321.218C375.166 321.017 375.229 320.787 375.229 320.553V303.584C375.229 303.35 375.166 303.121 375.047 302.919C374.927 302.718 374.756 302.553 374.55 302.44ZM360.812 297.895L371.199 303.584L360.812 309.272L350.425 303.584L360.812 297.895ZM372.608 319.782L362.123 325.526V311.533L372.608 305.79V319.782Z" fill="#7DABF8"></path><path d="M349.016 312.069H338.53V309.458H349.016V312.069Z" fill="#7DABF8"></path><path d="M351.637 322.512H341.152V319.901H351.637V322.512Z" fill="#7DABF8"></path><path d="M354.258 317.29H343.773V314.679H354.258V317.29Z" fill="#7DABF8"></path><path d="M385.878 126.705C385.878 129.589 384.187 131.927 381.291 131.927H370.478C367.582 131.927 365.891 129.589 365.891 126.705" stroke="#7DABF8" stroke-width="3" stroke-miterlimit="10" stroke-linecap="round"></path><path d="M387.025 120.178C388.472 120.178 389.646 121.64 389.646 123.442C389.646 125.244 388.472 126.705 387.025 126.705H364.743C363.296 126.705 362.122 125.244 362.122 123.442C362.122 121.64 363.296 120.178 364.743 120.178" stroke="#7DABF8" stroke-width="3" stroke-miterlimit="10" stroke-linecap="round"></path><path d="M387.68 120.178H374.189C374.016 120.178 373.849 120.247 373.726 120.369L371.529 122.558C371.498 122.589 371.462 122.613 371.422 122.629C371.382 122.645 371.34 122.654 371.297 122.654C371.254 122.654 371.211 122.645 371.171 122.629C371.131 122.613 371.095 122.589 371.065 122.558L368.867 120.369C368.744 120.247 368.578 120.178 368.404 120.178H364.088C363.567 120.178 363.067 119.972 362.698 119.605C362.329 119.238 362.122 118.74 362.122 118.22V118.22C362.122 117.701 362.329 117.203 362.698 116.836C363.067 116.469 363.567 116.262 364.088 116.262H387.68C388.201 116.262 388.701 116.469 389.07 116.836C389.439 117.203 389.646 117.701 389.646 118.22C389.646 118.74 389.439 119.238 389.07 119.605C388.701 119.972 388.201 120.178 387.68 120.178Z" stroke="#7DABF8" stroke-width="3" stroke-miterlimit="10" stroke-linecap="round"></path><path d="M364.744 115.283V115.265C364.744 110.778 368.43 108.43 372.935 108.43H378.833C383.339 108.43 387.025 110.796 387.025 115.283V115.265" stroke="#7DABF8" stroke-width="3" stroke-miterlimit="10" stroke-linecap="round"></path><path d="M379.243 101.903L379.852 107.122" stroke="#7DABF8" stroke-width="3" stroke-miterlimit="10" stroke-linecap="round"></path><path d="M380.472 131.927H391.883C392.545 131.927 393.182 131.678 393.666 131.23C394.151 130.782 394.448 130.168 394.497 129.511L397.428 101.903" stroke="#7DABF8" stroke-width="3" stroke-miterlimit="10" stroke-linecap="round"></path><path d="M389.646 101.903L390.957 96.6816L394.807 95.3762" stroke="#7DABF8" stroke-width="3" stroke-linecap="round" stroke-linejoin="round"></path><path d="M377.85 101.903H398.821" stroke="#7DABF8" stroke-width="3" stroke-miterlimit="10" stroke-linecap="round"></path><path d="M81.0933 136.089L80.1845 136.354L63.9211 141.282H61.2148V146.939H63.9219L65.319 147.359L65.2977 147.424V147.447C64.8419 148.94 65.6861 150.601 67.2501 151.07C67.2572 151.072 67.2657 151.068 67.2714 151.07C68.7786 151.526 70.447 150.695 70.9105 149.126L70.9318 149.059L80.1845 151.866L81.0933 152.131V136.089ZM79.6734 137.99V150.231L64.2534 145.546L64.1661 145.524H62.6347V142.696H64.1654L64.2541 142.675L79.6734 137.989V137.99ZM66.6722 147.778L69.5787 148.641L69.5574 148.706V148.728C69.3132 149.555 68.4314 149.959 67.6718 149.722C66.8411 149.48 66.4138 148.624 66.6509 147.866V147.845L66.6722 147.778Z" fill="#7DABF8"></path><path d="M155.431 343.797C155.341 343.705 155.233 343.632 155.114 343.581C154.995 343.531 154.868 343.504 154.738 343.503C154.609 343.502 154.481 343.526 154.361 343.574C154.241 343.622 154.132 343.693 154.04 343.783C152.997 344.816 152.17 346.044 151.606 347.397C151.042 348.75 150.753 350.2 150.754 351.665C150.753 353.186 151.065 354.691 151.672 356.087C152.278 357.482 153.166 358.739 154.281 359.778C154.469 359.951 154.717 360.044 154.972 360.038C155.227 360.032 155.47 359.927 155.649 359.745C156.077 359.319 156.024 358.64 155.612 358.248C154.718 357.398 154.006 356.377 153.52 355.245C153.034 354.114 152.784 352.896 152.786 351.665C152.786 349.175 153.79 346.917 155.417 345.274C155.81 344.876 155.851 344.215 155.431 343.797Z" fill="#7DABF8"></path><path d="M157.816 346.174C157.637 345.991 157.394 345.886 157.138 345.882C156.882 345.878 156.635 345.975 156.451 346.152C155.718 346.873 155.136 347.731 154.739 348.678C154.343 349.624 154.139 350.64 154.14 351.665C154.14 353.947 155.129 355.999 156.704 357.417C156.89 357.58 157.132 357.666 157.38 357.657C157.627 357.648 157.862 357.544 158.035 357.367C158.479 356.924 158.397 356.228 157.98 355.837C157.408 355.302 156.952 354.655 156.641 353.938C156.33 353.22 156.171 352.447 156.172 351.665C156.172 350.114 156.791 348.706 157.797 347.672C158.184 347.276 158.248 346.603 157.816 346.174Z" fill="#7DABF8"></path><path d="M165.362 346.174C165.541 345.991 165.785 345.886 166.041 345.882C166.296 345.878 166.544 345.975 166.728 346.152C167.461 346.873 168.042 347.731 168.439 348.678C168.836 349.624 169.039 350.64 169.038 351.665C169.038 353.947 168.049 355.999 166.474 357.417C166.288 357.58 166.047 357.666 165.799 357.657C165.551 357.648 165.316 357.544 165.143 357.367C164.699 356.924 164.781 356.228 165.199 355.837C165.77 355.302 166.226 354.655 166.537 353.938C166.848 353.22 167.008 352.447 167.007 351.665C167.007 350.114 166.388 348.706 165.381 347.672C164.994 347.276 164.93 346.603 165.362 346.174Z" fill="#7DABF8"></path><path d="M167.747 343.797C167.838 343.705 167.945 343.632 168.064 343.581C168.183 343.531 168.311 343.504 168.44 343.503C168.569 343.502 168.697 343.526 168.817 343.574C168.937 343.622 169.046 343.693 169.138 343.783C170.181 344.816 171.008 346.044 171.572 347.397C172.136 348.75 172.426 350.2 172.424 351.665C172.426 353.186 172.113 354.691 171.507 356.087C170.9 357.482 170.012 358.739 168.897 359.778C168.71 359.951 168.462 360.044 168.206 360.038C167.951 360.032 167.708 359.927 167.529 359.745C167.101 359.319 167.154 358.64 167.567 358.248C168.462 357.398 169.173 356.377 169.659 355.245C170.144 354.114 170.394 352.896 170.392 351.665C170.392 349.175 169.389 346.917 167.761 345.274C167.368 344.876 167.327 344.215 167.747 343.797Z" fill="#7DABF8"></path><path d="M161.589 349.642C161.05 349.642 160.534 349.855 160.153 350.234C159.772 350.614 159.558 351.128 159.558 351.665C159.558 352.202 159.772 352.716 160.153 353.096C160.534 353.475 161.05 353.688 161.589 353.688C162.128 353.688 162.645 353.475 163.026 353.096C163.407 352.716 163.621 352.202 163.621 351.665C163.621 351.128 163.407 350.614 163.026 350.234C162.645 349.855 162.128 349.642 161.589 349.642Z" fill="#7DABF8"></path><path d="M269.264 73.776C269.264 76.9805 266.654 79.5807 263.438 79.5807C260.222 79.5807 257.612 76.9805 257.612 73.776C257.612 70.5715 260.222 67.9712 263.438 67.9712C266.654 67.9712 269.264 70.5607 269.264 73.776Z" fill="#D6ECFF"></path><path d="M300.198 33.9634L290.823 36.9971C290.713 37.0677 290.587 37.1091 290.456 37.1174L287.237 38.1575H300.629C300.832 38.1575 301.026 38.2378 301.17 38.3806C301.313 38.5234 301.394 38.7171 301.394 38.919V46.5337C301.394 47.5435 300.991 48.5119 300.274 49.2259C299.557 49.9399 298.585 50.341 297.571 50.341H286.867C285.853 50.341 284.881 49.9399 284.164 49.2259C283.447 48.5119 283.044 47.5435 283.044 46.5337V38.919C283.044 38.7576 283.095 38.6068 283.182 38.4819L282.884 37.5651C282.571 36.6048 282.653 35.5599 283.113 34.6603C283.574 33.7607 284.374 33.0799 285.338 32.7679L295.517 29.4738C296.482 29.1618 297.531 29.2441 298.434 29.7025C299.337 30.1608 300.021 30.9578 300.334 31.9181L300.689 33.0039C300.751 33.1958 300.735 33.4046 300.643 33.5845C300.552 33.7644 300.392 33.9006 300.199 33.9634H300.198ZM294.473 34.2147L296.439 30.8246C296.287 30.8421 296.136 30.8747 295.99 30.9221L294.086 31.5373L292.086 34.9868L294.473 34.2147ZM297.982 31.2008C297.973 31.2199 297.964 31.2387 297.953 31.2571L296.647 33.5111L298.999 32.7496L298.88 32.3887C298.723 31.9038 298.407 31.4855 297.982 31.2008ZM291.912 32.2409L289.526 33.0131L287.526 36.4625L289.913 35.6904L291.913 32.2409H291.912ZM284.457 37.457L285.355 37.1676L287.355 33.7167L285.811 34.2162C285.232 34.4037 284.753 34.8123 284.477 35.3521C284.201 35.8918 284.152 36.5186 284.34 37.0945L284.457 37.457ZM284.573 39.6805V46.5337C284.573 47.1396 284.815 47.7206 285.245 48.149C285.675 48.5774 286.259 48.8181 286.867 48.8181H297.571C298.179 48.8181 298.763 48.5774 299.193 48.149C299.623 47.7206 299.865 47.1396 299.865 46.5337V39.6805H284.573Z" fill="#7DABF8"></path><defs><linearGradient id="valuesIllustrationPaint0_linear" x1="215.536" y1="165.783" x2="171.268" y2="210.243" gradientUnits="userSpaceOnUse"><stop stop-color="#B10910"></stop><stop offset="1" stop-color="#B10910" stop-opacity="0"></stop></linearGradient></defs></svg>