<svg xmlns="http://www.w3.org/2000/svg" xmlns:xlink="http://www.w3.org/1999/xlink" xmlns:lucid="lucid" width="682.45" height="200.18"><g transform="translate(-312.125 -117.36186344545845)" lucid:page-tab-id="0_0"><path d="M394.1 160h-48.36c-3.17 0-5.74 2.8-5.74 6.2v77.53c0 3.42 2.57 6.2 5.74 6.2h48.35c3.16 0 5.73-2.78 5.73-6.2V166.2c0-3.4-2.57-6.2-5.74-6.2zm-33.16 4.05h18.13c1.56 0 2.63.18 2.63 1.26 0 1.27-1.07 1.27-2.63 1.27h-18.13c-1.5 0-2.57 0-2.57-1.26 0-1.07 1.26-1.25 2.57-1.25zm14.3 79.32h-10.3c-1 0-1.9-.9-1.9-2.16 0-1.07.9-2.14 1.9-2.14h10.3c1.08 0 1.92 1.07 1.92 2.15 0 1.1-.84 2.17-1.92 2.17zm18.2-8.54H346.4V170.7h47.03v64.13z" stroke="#000" stroke-opacity="0" fill="#666"/><use xlink:href="#a" transform="matrix(1,0,0,1,310,258.93798158240935) translate(24.599999999999994 14.4)"/><use xlink:href="#b" transform="matrix(1,0,0,1,310,258.93798158240935) translate(24.124999999999993 36)"/><path d="M586.98 232c-14.9 0-26.98-12.1-26.98-27.03 0-11.95 7.3-22.03 18.64-25.72-.66-35.13 44.3-41.9 62.3-28.37 8.98-20.28 53.94-13.52 53.94 6.76 26.97-6.76 53.95 20.3 35.96 54.1 18 27.03 0 60.84-35.96 47.3-9 17.6-44.96 17.6-53.95 0-18 13.54-53.95 6.78-53.95-27.03z" stroke="#737373" stroke-width="2" fill="#e5e5e5"/><use xlink:href="#c" transform="matrix(1,0,0,1,560,137.36186344545845) translate(53.07999999999999 69.65)"/><path d="M954.1 160h-48.36c-3.17 0-5.74 2.8-5.74 6.2v77.53c0 3.42 2.57 6.2 5.74 6.2h48.35c3.16 0 5.73-2.78 5.73-6.2V166.2c0-3.4-2.57-6.2-5.74-6.2zm-33.16 4.05h18.13c1.56 0 2.63.18 2.63 1.26 0 1.27-1.07 1.27-2.63 1.27h-18.13c-1.5 0-2.57 0-2.57-1.26 0-1.07 1.26-1.25 2.57-1.25zm14.3 79.32h-10.3c-1 0-1.9-.9-1.9-2.16 0-1.07.9-2.14 1.9-2.14h10.3c1.08 0 1.92 1.07 1.92 2.15 0 1.1-.84 2.17-1.92 2.17zm18.2-8.54H906.4V170.7h47.03v64.13z" stroke="#000" stroke-opacity="0" fill="#666"/><use xlink:href="#d" transform="matrix(1,0,0,1,870,258.93798158240935) translate(17.574999999999996 14.4)"/><use xlink:href="#b" transform="matrix(1,0,0,1,870,258.93798158240935) translate(24.124999999999993 36)"/><path d="M400.83 206.14h157.22" stroke="#000" stroke-width="2" fill="none"/><path d="M400.86 207.14h-1.03v-2h1.03zM559.1 207.14h-1.07v-2h.98z"/><path d="M735.77 205.3l145.73-.3" stroke="#000" stroke-width="2" fill="none"/><path d="M735.8 206.3h-1.4l.75-2h.65z"/><path d="M896.76 204.98l-14.25 4.66v-9.27z" stroke="#000" stroke-width="2"/><defs><path d="M169-182c-1-43-94-46-97-3 18 66 151 10 154 114 3 95-165 93-204 36-6-8-10-19-12-30l50-8c3 46 112 56 116 5-17-69-150-10-154-114-4-87 153-88 188-35 5 8 8 18 10 28" id="e"/><path d="M185-48c-13 30-37 53-82 52C43 2 14-33 14-96s30-98 90-98c62 0 83 45 84 108H66c0 31 8 55 39 56 18 0 30-7 34-22zm-45-69c5-46-57-63-70-21-2 6-4 13-4 21h74" id="f"/><path d="M135-194c87-1 58 113 63 194h-50c-7-57 23-157-34-157-59 0-34 97-39 157H25l-1-190h47c2 12-1 28 3 38 12-26 28-41 61-42" id="g"/><path d="M88-194c31-1 46 15 58 34l-1-101h50l1 261h-48c-2-10 0-23-3-31C134-8 116 4 84 4 32 4 16-41 15-95c0-56 19-97 73-99zm17 164c33 0 40-30 41-66 1-37-9-64-41-64s-38 30-39 65c0 43 13 65 39 65" id="h"/><path d="M25-224v-37h50v37H25zM25 0v-190h50V0H25" id="i"/><path d="M195-6C206 82 75 100 31 46c-4-6-6-13-8-21l49-6c3 16 16 24 34 25 40 0 42-37 40-79-11 22-30 35-61 35-53 0-70-43-70-97 0-56 18-96 73-97 30 0 46 14 59 34l2-30h47zm-90-29c32 0 41-27 41-63 0-35-9-62-40-62-32 0-39 29-40 63 0 36 9 62 39 62" id="j"/><g id="a"><use transform="matrix(0.05,0,0,0.05,0,0)" xlink:href="#e"/><use transform="matrix(0.05,0,0,0.05,12,0)" xlink:href="#f"/><use transform="matrix(0.05,0,0,0.05,22,0)" xlink:href="#g"/><use transform="matrix(0.05,0,0,0.05,32.95,0)" xlink:href="#h"/><use transform="matrix(0.05,0,0,0.05,43.900000000000006,0)" xlink:href="#i"/><use transform="matrix(0.05,0,0,0.05,48.900000000000006,0)" xlink:href="#g"/><use transform="matrix(0.05,0,0,0.05,59.85,0)" xlink:href="#j"/></g><path d="M199 0l-22-63H83L61 0H9l90-248h61L250 0h-51zm-33-102l-36-108c-10 38-24 72-36 108h72" id="k"/><path d="M190-63c-7 42-38 67-86 67-59 0-84-38-90-98-12-110 154-137 174-36l-49 2c-2-19-15-32-35-32-30 0-35 28-38 64-6 74 65 87 74 30" id="l"/><path d="M110-194c64 0 96 36 96 99 0 64-35 99-97 99-61 0-95-36-95-99 0-62 34-99 96-99zm-1 164c35 0 45-28 45-65 0-40-10-65-43-65-34 0-45 26-45 65 0 36 10 65 43 65" id="m"/><path d="M85 4C-2 5 27-109 22-190h50c7 57-23 150 33 157 60-5 35-97 40-157h50l1 190h-47c-2-12 1-28-3-38-12 25-28 42-61 42" id="n"/><path d="M115-3C79 11 28 4 28-45v-112H4v-33h27l15-45h31v45h36v33H77v99c-1 23 16 31 38 25v30" id="o"/><g id="b"><use transform="matrix(0.05,0,0,0.05,0,0)" xlink:href="#k"/><use transform="matrix(0.05,0,0,0.05,12.950000000000001,0)" xlink:href="#l"/><use transform="matrix(0.05,0,0,0.05,22.950000000000003,0)" xlink:href="#l"/><use transform="matrix(0.05,0,0,0.05,32.95,0)" xlink:href="#m"/><use transform="matrix(0.05,0,0,0.05,43.900000000000006,0)" xlink:href="#n"/><use transform="matrix(0.05,0,0,0.05,54.85,0)" xlink:href="#g"/><use transform="matrix(0.05,0,0,0.05,65.80000000000001,0)" xlink:href="#o"/></g><path d="M175 0L67-191c6 58 2 128 3 191H24v-248h59L193-55c-6-58-2-129-3-193h46V0h-61" id="p"/><path d="M231 0h-52l-39-155L100 0H48L-1-190h46L77-45c9-52 24-97 36-145h53l37 145 32-145h46" id="q"/><path d="M135-150c-39-12-60 13-60 57V0H25l-1-190h47c2 13-1 29 3 40 6-28 27-53 61-41v41" id="r"/><path d="M147 0L96-86 75-71V0H25v-261h50v150l67-79h53l-66 74L201 0h-54" id="s"/><g id="c"><use transform="matrix(0.05,0,0,0.05,0,0)" xlink:href="#p"/><use transform="matrix(0.05,0,0,0.05,12.950000000000001,0)" xlink:href="#f"/><use transform="matrix(0.05,0,0,0.05,22.950000000000003,0)" xlink:href="#o"/><use transform="matrix(0.05,0,0,0.05,28.900000000000002,0)" xlink:href="#q"/><use transform="matrix(0.05,0,0,0.05,42.900000000000006,0)" xlink:href="#m"/><use transform="matrix(0.05,0,0,0.05,53.85,0)" xlink:href="#r"/><use transform="matrix(0.05,0,0,0.05,60.85,0)" xlink:href="#s"/></g><path d="M240-174c0 40-23 61-54 70L253 0h-59l-57-94H76V0H24v-248c93 4 217-23 216 74zM76-134c48-2 112 12 112-38 0-48-66-32-112-35v73" id="t"/><path d="M128 0H69L1-190h53L99-40l48-150h52" id="u"/><g id="d"><use transform="matrix(0.05,0,0,0.05,0,0)" xlink:href="#t"/><use transform="matrix(0.05,0,0,0.05,12.950000000000001,0)" xlink:href="#f"/><use transform="matrix(0.05,0,0,0.05,22.950000000000003,0)" xlink:href="#l"/><use transform="matrix(0.05,0,0,0.05,32.95,0)" xlink:href="#f"/><use transform="matrix(0.05,0,0,0.05,42.95,0)" xlink:href="#i"/><use transform="matrix(0.05,0,0,0.05,47.95,0)" xlink:href="#u"/><use transform="matrix(0.05,0,0,0.05,57.95,0)" xlink:href="#i"/><use transform="matrix(0.05,0,0,0.05,62.95,0)" xlink:href="#g"/><use transform="matrix(0.05,0,0,0.05,73.9,0)" xlink:href="#j"/></g></defs></g></svg>