<svg xmlns="http://www.w3.org/2000/svg" xmlns:xlink="http://www.w3.org/1999/xlink" xmlns:lucid="lucid" width="600" height="660"><g transform="translate(-500 -120)" lucid:page-tab-id="0_0"><path d="M780 206c0-3.3 2.7-6 6-6h288c3.3 0 6 2.7 6 6v548c0 3.3-2.7 6-6 6H786c-3.3 0-6-2.7-6-6z" stroke="#5e5e5e" stroke-width="3" fill="#c1e4f7" fill-opacity=".5"/><path d="M780 146c0-3.3 2.7-6 6-6h288c3.3 0 6 2.7 6 6v48c0 3.3-2.7 6-6 6H786c-3.3 0-6-2.7-6-6z" stroke="#000" stroke-opacity="0" stroke-width="3" fill="#fff" fill-opacity="0"/><use xlink:href="#a" transform="matrix(1,0,0,1,785,145) translate(73.1604938271605 28.930555555555557)"/><path d="M621.18 467.22c11.06 0 18.8 6.98 18.8 16.92v21.58h-9.72v-14.64h-2.67v14.64H612.6c-1-10.94-9.84-18.38-22.24-18.38h-8.62v-5.97c9.5-.85 17.12-4.5 17.94-14.2h.87zM559.34 467.2h.93c.88 9.68 8.44 13.34 17.93 14.2v5.93h-8.44c-12.4 0-21.3 7.48-22.23 18.4h-14.67v-14.66h-2.68v14.65H520V484.1c0-10 7.74-16.94 18.86-16.94z" fill="#7d7c7c"/><path d="M590.3 496.43c11.06 0 18.8 6.98 18.8 16.93V535h-9.78v-14.7h-2.62v14.65h-33.07V520.3h-2.56v14.65h-10.2v-21.6c0-9.94 7.75-16.92 18.8-16.92zM549.06 425.06l16.32 11.6v5c.1 9.14-7.18 16.6-16.28 16.7h-.04c-8.94 0-16.32-7.47-16.32-17.42v-4.4zM610.86 425.06l16.32 11.6v5c.1 9.14-7.18 16.6-16.28 16.7h-.04c-8.94 0-16.32-7.47-16.32-17.42v-4.4zM580 447.84l14.4 10.2v4.5c.14 8.07-6.28 14.72-14.35 14.87H580c-8.17-.2-14.63-6.94-14.42-15.1 0-.12 0-.2.02-.33v-4.02z" fill="#7d7c7c"/><path d="M610.88 420c9.18-.17 16.76 7.16 16.93 16.35.17 9.2-7.14 16.78-16.32 16.94-9.18.16-16.76-7.17-16.92-16.35v-.34c-.07-9.08 7.2-16.53 16.32-16.6zM579.96 442.7c8.14-.2 14.9 6.25 15.1 14.4.18 8.15-6.25 14.9-14.4 15.12-8.13.18-14.9-6.26-15.1-14.4v-.36c-.08-8.07 6.35-14.65 14.4-14.77zM621.18 462.08c11.06 0 18.8 6.98 18.8 16.94v21.64h-9.72V486h-2.67v14.66H612.6c-1-10.96-9.84-18.36-22.24-18.36h-8.62v-1.9c9.73-.96 17.12-8.52 17.94-18.24h.87zM559.34 462.1h.93c.82 9.75 8.2 17.3 17.93 18.27v1.85h-8.44c-12.4 0-21.3 7.48-22.23 18.4h-14.67V486h-2.68v14.65H520v-21.63c0-10 7.74-16.93 18.86-16.93z" fill="#d2d3d3"/><path d="M590.3 491.37c11.06 0 18.8 6.98 18.8 16.93v21.63h-9.78v-14.65h-2.62v14.65h-33.07v-14.65h-2.56v14.65h-10.2V508.3c0-9.95 7.75-16.93 18.8-16.93zM549.07 420c9.18-.17 16.76 7.16 16.93 16.35.16 9.2-7.15 16.78-16.33 16.94-9.18.16-16.76-7.17-16.93-16.35v-.34c-.06-9.08 7.22-16.5 16.33-16.6z" fill="#d2d3d3"/><use xlink:href="#b" transform="matrix(1,0,0,1,520,535) translate(8.444444444444457 15.999999999999998)"/><use xlink:href="#c" transform="matrix(1,0,0,1,520,535) translate(32.25000000000001 39.99999999999999)"/><path d="M831.05 363.58l18.14 13.15v3.55c0 9.3-8.13 16.84-18.15 16.84-10 0-18.14-7.55-18.14-16.84v-3.55zM841.4 401.8c11.48 0 20.74 6.45 20.74 16.95V440H850.2v-14.9h-2.04V440h-33.8v-14.9h-2.06V440H800v-21.25c0-10.5 9.26-16.96 20.76-16.96z" fill="#447e73"/><path d="M831.04 360c9.93.07 17.93 7.62 17.85 16.84-.08 9.22-8.2 16.63-18.15 16.57-9.86-.06-17.82-7.48-17.86-16.66 0-9.26 8.13-16.74 18.1-16.74h.04zM841.4 398.24c11.48 0 20.74 6.46 20.74 16.96v21.24H850.2V421.5h-2.04v14.94h-33.8V421.5h-2.06v14.94H800V415.2c0-10.5 9.26-16.96 20.76-16.96z" fill="#99d5ca"/><use xlink:href="#d" transform="matrix(1,0,0,1,800,440) translate(25.944444444444446 15.999999999999998)"/><path d="M931.05 363.58l18.14 13.15v3.55c0 9.3-8.13 16.84-18.15 16.84-10 0-18.14-7.55-18.14-16.84v-3.55zM941.4 401.8c11.48 0 20.74 6.45 20.74 16.95V440H950.2v-14.9h-2.04V440h-33.8v-14.9h-2.06V440H900v-21.25c0-10.5 9.26-16.96 20.76-16.96z" fill="#447e73"/><path d="M931.04 360c9.93.07 17.93 7.62 17.85 16.84-.08 9.22-8.2 16.63-18.15 16.57-9.86-.06-17.82-7.48-17.86-16.66 0-9.26 8.13-16.74 18.1-16.74h.04zM941.4 398.24c11.48 0 20.74 6.46 20.74 16.96v21.24H950.2V421.5h-2.04v14.94h-33.8V421.5h-2.06v14.94H900V415.2c0-10.5 9.26-16.96 20.76-16.96z" fill="#99d5ca"/><use xlink:href="#e" transform="matrix(1,0,0,1,900,440) translate(25.944444444444446 15.999999999999998)"/><path d="M1031.05 363.58l18.14 13.15v3.55c0 9.3-8.13 16.84-18.15 16.84-10 0-18.14-7.55-18.14-16.84v-3.55zM1041.4 401.8c11.48 0 20.74 6.45 20.74 16.95V440h-11.93v-14.9h-2.04V440h-33.8v-14.9h-2.06V440H1000v-21.25c0-10.5 9.26-16.96 20.76-16.96z" fill="#447e73"/><path d="M1031.04 360c9.93.07 17.93 7.62 17.85 16.84-.08 9.22-8.2 16.63-18.15 16.57-9.86-.06-17.82-7.48-17.86-16.66 0-9.26 8.13-16.74 18.1-16.74h.04zM1041.4 398.24c11.48 0 20.74 6.46 20.74 16.96v21.24h-11.93V421.5h-2.04v14.94h-33.8V421.5h-2.06v14.94H1000V415.2c0-10.5 9.26-16.96 20.76-16.96z" fill="#99d5ca"/><use xlink:href="#f" transform="matrix(1,0,0,1,1000,440) translate(25.944444444444446 15.999999999999998)"/><path d="M879.98 503.58l18.14 13.15v3.55c0 9.3-8.13 16.84-18.14 16.84-10 0-18.14-7.55-18.14-16.84v-3.55zM890.32 541.8c11.5 0 20.75 6.45 20.75 16.95V580h-11.93v-14.9h-2.05V580h-33.82v-14.9h-2.05V580h-12.3v-21.25c0-10.5 9.26-16.96 20.75-16.96z" fill="#7d7c7c"/><path d="M879.97 500c9.93.07 17.92 7.62 17.85 16.84-.07 9.22-8.2 16.63-18.14 16.57-9.86-.06-17.82-7.48-17.86-16.66 0-9.26 8.14-16.74 18.1-16.74h.05zM890.32 538.24c11.5 0 20.75 6.46 20.75 16.96v21.24h-11.93V561.5h-2.05v14.94h-33.82V561.5h-2.05v14.94h-12.3V555.2c0-10.5 9.26-16.96 20.75-16.96z" fill="#d2d3d3"/><use xlink:href="#g" transform="matrix(1,0,0,1,848.9285714285714,580) translate(25.944444444444446 15.999999999999998)"/><path d="M971.05 503.58l18.14 13.15v3.55c0 9.3-8.13 16.84-18.15 16.84-10 0-18.14-7.55-18.14-16.84v-3.55zM981.4 541.8c11.48 0 20.74 6.45 20.74 16.95V580H990.2v-14.9h-2.04V580h-33.8v-14.9h-2.06V580H940v-21.25c0-10.5 9.26-16.96 20.76-16.96z" fill="#7d7c7c"/><path d="M971.04 500c9.93.07 17.93 7.62 17.85 16.84-.08 9.22-8.2 16.63-18.15 16.57-9.86-.06-17.82-7.48-17.86-16.66 0-9.26 8.13-16.74 18.1-16.74h.04zM981.4 538.24c11.48 0 20.74 6.46 20.74 16.96v21.24H990.2V561.5h-2.04v14.94h-33.8V561.5h-2.06v14.94H940V555.2c0-10.5 9.26-16.96 20.76-16.96z" fill="#d2d3d3"/><use xlink:href="#h" transform="matrix(1,0,0,1,940,580) translate(25.944444444444446 15.999999999999998)"/><path d="M879.98 633.58l18.14 13.15v3.55c0 9.3-8.13 16.84-18.14 16.84-10 0-18.14-7.55-18.14-16.84v-3.55zM890.32 671.8c11.5 0 20.75 6.45 20.75 16.95V710h-11.93v-14.9h-2.05V710h-33.82v-14.9h-2.05V710h-12.3v-21.25c0-10.5 9.26-16.96 20.75-16.96z" fill="#7d7c7c"/><path d="M879.97 630c9.93.07 17.92 7.62 17.85 16.84-.07 9.22-8.2 16.63-18.14 16.57-9.86-.06-17.82-7.48-17.86-16.66 0-9.26 8.14-16.74 18.1-16.74h.05zM890.32 668.24c11.5 0 20.75 6.46 20.75 16.96v21.24h-11.93V691.5h-2.05v14.94h-33.82V691.5h-2.05v14.94h-12.3V685.2c0-10.5 9.26-16.96 20.75-16.96z" fill="#d2d3d3"/><use xlink:href="#i" transform="matrix(1,0,0,1,848.9285714285714,710) translate(25.944444444444446 15.999999999999998)"/><path d="M971.05 633.58l18.14 13.15v3.55c0 9.3-8.13 16.84-18.15 16.84-10 0-18.14-7.55-18.14-16.84v-3.55zM981.4 671.8c11.48 0 20.74 6.45 20.74 16.95V710H990.2v-14.9h-2.04V710h-33.8v-14.9h-2.06V710H940v-21.25c0-10.5 9.26-16.96 20.76-16.96z" fill="#7d7c7c"/><path d="M971.04 630c9.93.07 17.93 7.62 17.85 16.84-.08 9.22-8.2 16.63-18.15 16.57-9.86-.06-17.82-7.48-17.86-16.66 0-9.26 8.13-16.74 18.1-16.74h.04zM981.4 668.24c11.48 0 20.74 6.46 20.74 16.96v21.24H990.2V691.5h-2.04v14.94h-33.8V691.5h-2.06v14.94H940V685.2c0-10.5 9.26-16.96 20.76-16.96z" fill="#d2d3d3"/><use xlink:href="#j" transform="matrix(1,0,0,1,940,710) translate(25.944444444444446 15.999999999999998)"/><path d="M924 283.6l-.62-.25c-.24-.06-6.05-2.27-11.86-9.32-3.65-4.47-6.05-8.95-7.92-14.53-2.64-8.03-3.7-15.2-3.6-23.67v-1.96h1.87c1.63 0 4.75-.56 5.95-1.9 1.73-1.84 2.07-5.28 2.07-5.34l.08-1.3 1.1-.42c4.38-1.7 8.26-2.5 12.92-2.62 4.6.18 8.5.98 12.86 2.57l1.16.5.1 1.22s.28 3.43 2.06 5.33c1.15 1.23 4.56 1.78 6 1.84l1.82.13v1.9c.1 8.46-.96 15.7-3.6 23.73-1.87 5.64-4.27 10.06-7.92 14.6-5.8 6.98-11.62 9.2-11.86 9.25z" fill="#056350"/><path d="M924 281.32l-.62-.24c-.24-.07-6.05-2.27-11.86-9.33-3.65-4.47-6.05-8.95-7.92-14.53-2.64-8.03-3.7-15.2-3.6-23.67v-2.02h1.87c1.63 0 4.75-.55 5.95-1.84 1.73-1.85 2.07-5.35 2.07-5.4l.08-1.23 1.1-.5c4.38-1.65 8.26-2.45 12.92-2.57 4.6.18 8.5.98 12.86 2.58l1.16.5.1 1.2s.28 3.45 2.06 5.35c1.15 1.22 4.56 1.78 6 1.84l1.82.12v1.9c.1 8.45-.96 15.7-3.6 23.72-1.87 5.64-4.27 10.06-7.92 14.6-5.8 7.05-11.62 9.2-11.86 9.32z" fill="#5abaa7"/><path d="M924 276.26l-.72-.36c-3.76-1.9-6.66-4.26-9.36-7.7-6.07-7.48-9.44-18.3-9.72-31.18v-1.65l1.55-.2c2.26-.3 4.05-1.08 5-2.1 1.2-1.44 1.86-2.98 2.18-4.88l.16-1.03.98-.36c3.37-1.17 6.4-1.74 9.96-1.84 3.57.1 6.54.67 9.95 1.85l1 .32.18 1.07c.28 1.9.96 3.43 2.2 4.87.86.92 2.64 1.64 4.94 1.95l1.55.25v1.64c-.28 12.9-3.65 23.76-9.76 31.3-2.64 3.44-5.54 5.8-9.3 7.75zm-16.26-37.76c.47 11.34 3.5 20.73 8.84 27.3 2.18 2.76 4.44 4.7 7.42 6.4 2.97-1.7 5.27-3.64 7.46-6.4 5.3-6.57 8.37-16 8.84-27.4-2.1-.36-3.8-1.23-5.43-2.77-1.47-1.64-2.38-3.44-2.9-5.64-2.74-.88-5.12-1.3-7.97-1.35-2.82.06-5.24.47-7.93 1.34-.52 2.25-1.43 4.04-2.9 5.68-1.63 1.54-3.33 2.46-5.43 2.82z" fill="#fff"/><path d="M931.1 245.92v-5.65c-.4-3.47-2.9-6.12-6.18-6.55-3.9-.5-7.42 2.43-7.9 6.55v5.65h-3.64v12.54h21.25v-12.54zm-3.5 0h-7.2v-5.65c.03-1.94 1.52-3.47 3.35-3.45h.27c1.9-.07 3.5 1.44 3.64 3.45z" fill="#056350"/><path d="M860 283.6h120V340H860z" stroke="#000" stroke-opacity="0" stroke-width="2" fill="#fff" fill-opacity="0"/><use xlink:href="#k" transform="matrix(1,0,0,1,865,288.60424028268557) translate(18.049999999999997 14.4)"/><use xlink:href="#l" transform="matrix(1,0,0,1,865,288.60424028268557) translate(29.574999999999996 36)"/><path d="M642 481.94c0 .55-.46 1-1 1-.56 0-1-.45-1-1s.44-1 1-1c.54 0 1 .45 1 1zm4 0c0 .55-.44 1-1 1-.55 0-1-.45-1-1s.45-1 1-1c.56 0 1 .45 1 1zm4.02 0c0 .55-.45 1-1 1s-1-.45-1-1 .45-1 1-1 1 .45 1 1zm4.02 0c0 .55-.45 1-1 1-.56 0-1-.45-1-1s.44-1 1-1c.55 0 1 .45 1 1zm4 0c0 .55-.44 1-1 1-.54 0-1-.45-1-1s.46-1 1-1c.56 0 1 .45 1 1zm4.03 0c0 .55-.45 1-1 1-.56 0-1-.45-1-1s.44-1 1-1c.55 0 1 .45 1 1zm4 0c0 .55-.44 1-1 1-.54 0-1-.45-1-1s.46-1 1-1c.56 0 1 .45 1 1zm4.03 0c0 .55-.45 1-1 1-.56 0-1-.45-1-1s.44-1 1-1c.55 0 1 .45 1 1zm4 0c0 .55-.44 1-1 1-.54 0-1-.45-1-1s.46-1 1-1c.56 0 1 .45 1 1zm4.03 0c0 .55-.45 1-1 1-.56 0-1-.45-1-1s.44-1 1-1c.55 0 1 .45 1 1zm4 0c0 .55-.44 1-1 1-.54 0-1-.45-1-1s.46-1 1-1c.56 0 1 .45 1 1zm4.03 0c0 .55-.45 1-1 1-.56 0-1-.45-1-1s.44-1 1-1c.55 0 1 .45 1 1zm4 0c0 .55-.44 1-1 1-.54 0-1-.45-1-1s.46-1 1-1c.56 0 1 .45 1 1zm4.03 0c0 .55-.46 1-1 1-.57 0-1-.45-1-1s.43-1 1-1c.54 0 1 .45 1 1zm4 0c0 .55-.45 1-1 1s-1-.45-1-1 .45-1 1-1 1 .45 1 1zm4.02 0c0 .55-.45 1-1 1-.56 0-1-.45-1-1s.44-1 1-1c.55 0 1 .45 1 1zm4 0c0 .55-.44 1-1 1-.54 0-1-.45-1-1s.46-1 1-1c.56 0 1 .45 1 1zm4.03 0c0 .55-.45 1-1 1-.56 0-1-.45-1-1s.44-1 1-1c.55 0 1 .45 1 1zm4 0c0 .55-.44 1-1 1-.54 0-1-.45-1-1s.46-1 1-1c.56 0 1 .45 1 1zm4.03 0c0 .55-.45 1-1 1-.56 0-1-.45-1-1s.44-1 1-1c.55 0 1 .45 1 1zm4 0c0 .55-.44 1-1 1-.54 0-1-.45-1-1s.46-1 1-1c.56 0 1 .45 1 1zm4.03 0c0 .55-.44 1-1 1-.55 0-1-.45-1-1s.45-1 1-1c.56 0 1 .45 1 1zm4.02 0c0 .55-.45 1-1 1s-1-.45-1-1 .45-1 1-1 1 .45 1 1zm4.02 0c0 .55-.45 1-1 1-.56 0-1-.45-1-1s.44-1 1-1c.55 0 1 .45 1 1zm4 0c0 .55-.44 1-1 1-.54 0-1-.45-1-1s.46-1 1-1c.56 0 1 .45 1 1zm4.03 0c0 .55-.45 1-1 1-.56 0-1-.45-1-1s.44-1 1-1c.55 0 1 .45 1 1zm4 0c0 .55-.44 1-1 1-.54 0-1-.45-1-1s.46-1 1-1c.56 0 1 .45 1 1zm4.03 0c0 .55-.45 1-1 1-.56 0-1-.45-1-1s.44-1 1-1c.55 0 1 .45 1 1zm4 0c0 .55-.44 1-1 1-.54 0-1-.45-1-1s.46-1 1-1c.56 0 1 .45 1 1zm4.03 0c0 .55-.45 1-1 1-.56 0-1-.45-1-1s.44-1 1-1c.55 0 1 .45 1 1zm4 0c0 .55-.44 1-1 1-.54 0-1-.45-1-1s.46-1 1-1c.56 0 1 .45 1 1zm4.03 0c0 .55-.45 1-1 1-.56 0-1-.45-1-1s.44-1 1-1c.55 0 1 .45 1 1zm4 0c0 .55-.44 1-1 1-.54 0-1-.45-1-1s.46-1 1-1c.56 0 1 .45 1 1zm4.03 0c0 .55-.46 1-1 1-.57 0-1-.45-1-1s.43-1 1-1c.54 0 1 .45 1 1z" fill="#5e5e5e"/><path d="M641.02 482.94H640v-2H641zM778.5 482.94h-1.03v-2h1.03z" fill="#5e5e5e"/><defs><path fill="#333" d="M67-125c0 54 23 88 75 88 28 0 53-7 68-21v-34h-60v-39h108v91C232-14 192 4 140 4 58 4 20-42 15-125 8-236 126-280 215-234c19 10 29 26 37 47l-47 15c-11-23-29-39-63-39-53 1-75 33-75 86" id="m"/><path fill="#333" d="M110-194c64 0 96 36 96 99 0 64-35 99-97 99-61 0-95-36-95-99 0-62 34-99 96-99zm-1 164c35 0 45-28 45-65 0-40-10-65-43-65-34 0-45 26-45 65 0 36 10 65 43 65" id="n"/><path fill="#333" d="M128 0H69L1-190h53L99-40l48-150h52" id="o"/><path fill="#333" d="M185-48c-13 30-37 53-82 52C43 2 14-33 14-96s30-98 90-98c62 0 83 45 84 108H66c0 31 8 55 39 56 18 0 30-7 34-22zm-45-69c5-46-57-63-70-21-2 6-4 13-4 21h74" id="p"/><path fill="#333" d="M135-150c-39-12-60 13-60 57V0H25l-1-190h47c2 13-1 29 3 40 6-28 27-53 61-41v41" id="q"/><path fill="#333" d="M135-194c87-1 58 113 63 194h-50c-7-57 23-157-34-157-59 0-34 97-39 157H25l-1-190h47c2 12-1 28 3 38 12-26 28-41 61-42" id="r"/><path fill="#333" d="M220-157c-53 9-28 100-34 157h-49v-107c1-27-5-49-29-50C55-147 81-57 75 0H25l-1-190h47c2 12-1 28 3 38 10-53 101-56 108 0 13-22 24-43 59-42 82 1 51 116 57 194h-49v-107c-1-25-5-48-29-50" id="s"/><path fill="#333" d="M115-3C79 11 28 4 28-45v-112H4v-33h27l15-45h31v45h36v33H77v99c-1 23 16 31 38 25v30" id="t"/><g id="a"><use transform="matrix(0.06790123456790123,0,0,0.06790123456790123,0,0)" xlink:href="#m"/><use transform="matrix(0.06790123456790123,0,0,0.06790123456790123,19.012345679012345,0)" xlink:href="#n"/><use transform="matrix(0.06790123456790123,0,0,0.06790123456790123,33.882716049382715,0)" xlink:href="#o"/><use transform="matrix(0.06790123456790123,0,0,0.06790123456790123,47.46296296296296,0)" xlink:href="#p"/><use transform="matrix(0.06790123456790123,0,0,0.06790123456790123,61.04320987654321,0)" xlink:href="#q"/><use transform="matrix(0.06790123456790123,0,0,0.06790123456790123,70.54938271604938,0)" xlink:href="#r"/><use transform="matrix(0.06790123456790123,0,0,0.06790123456790123,85.41975308641975,0)" xlink:href="#s"/><use transform="matrix(0.06790123456790123,0,0,0.06790123456790123,107.14814814814814,0)" xlink:href="#p"/><use transform="matrix(0.06790123456790123,0,0,0.06790123456790123,120.72839506172838,0)" xlink:href="#r"/><use transform="matrix(0.06790123456790123,0,0,0.06790123456790123,135.59876543209876,0)" xlink:href="#t"/></g><path fill="#333" d="M240-174c0 40-23 61-54 70L253 0h-59l-57-94H76V0H24v-248c93 4 217-23 216 74zM76-134c48-2 112 12 112-38 0-48-66-32-112-35v73" id="u"/><path fill="#333" d="M195-6C206 82 75 100 31 46c-4-6-6-13-8-21l49-6c3 16 16 24 34 25 40 0 42-37 40-79-11 22-30 35-61 35-53 0-70-43-70-97 0-56 18-96 73-97 30 0 46 14 59 34l2-30h47zm-90-29c32 0 41-27 41-63 0-35-9-62-40-62-32 0-39 29-40 63 0 36 9 62 39 62" id="v"/><path fill="#333" d="M25-224v-37h50v37H25zM25 0v-190h50V0H25" id="w"/><path fill="#333" d="M137-138c1-29-70-34-71-4 15 46 118 7 119 86 1 83-164 76-172 9l43-7c4 19 20 25 44 25 33 8 57-30 24-41C81-84 22-81 20-136c-2-80 154-74 161-7" id="x"/><path fill="#333" d="M88-194c31-1 46 15 58 34l-1-101h50l1 261h-48c-2-10 0-23-3-31C134-8 116 4 84 4 32 4 16-41 15-95c0-56 19-97 73-99zm17 164c33 0 40-30 41-66 1-37-9-64-41-64s-38 30-39 65c0 43 13 65 39 65" id="y"/><g id="b"><use transform="matrix(0.055555555555555546,0,0,0.055555555555555546,0,0)" xlink:href="#u"/><use transform="matrix(0.055555555555555546,0,0,0.055555555555555546,14.388888888888886,0)" xlink:href="#p"/><use transform="matrix(0.055555555555555546,0,0,0.055555555555555546,25.499999999999993,0)" xlink:href="#v"/><use transform="matrix(0.055555555555555546,0,0,0.055555555555555546,37.66666666666666,0)" xlink:href="#w"/><use transform="matrix(0.055555555555555546,0,0,0.055555555555555546,43.222222222222214,0)" xlink:href="#x"/><use transform="matrix(0.055555555555555546,0,0,0.055555555555555546,54.33333333333332,0)" xlink:href="#t"/><use transform="matrix(0.055555555555555546,0,0,0.055555555555555546,60.944444444444436,0)" xlink:href="#p"/><use transform="matrix(0.055555555555555546,0,0,0.055555555555555546,72.05555555555554,0)" xlink:href="#q"/><use transform="matrix(0.055555555555555546,0,0,0.055555555555555546,79.83333333333331,0)" xlink:href="#p"/><use transform="matrix(0.055555555555555546,0,0,0.055555555555555546,90.94444444444443,0)" xlink:href="#y"/></g><path fill="#333" d="M238-95c0 69-44 99-111 99C63 4 22-25 22-93v-155h51v151c-1 38 19 59 55 60 90 1 49-130 58-211h52v153" id="z"/><g id="c"><use transform="matrix(0.055555555555555546,0,0,0.055555555555555546,0,0)" xlink:href="#z"/><use transform="matrix(0.055555555555555546,0,0,0.055555555555555546,14.388888888888886,0)" xlink:href="#x"/><use transform="matrix(0.055555555555555546,0,0,0.055555555555555546,25.499999999999993,0)" xlink:href="#p"/><use transform="matrix(0.055555555555555546,0,0,0.055555555555555546,36.6111111111111,0)" xlink:href="#q"/><use transform="matrix(0.055555555555555546,0,0,0.055555555555555546,44.38888888888888,0)" xlink:href="#x"/></g><path fill="#333" d="M23 0v-37h61v-169l-59 37v-38l62-41h46v211h57V0H23" id="A"/><use transform="matrix(0.055555555555555546,0,0,0.055555555555555546,0,0)" xlink:href="#A" id="d"/><path fill="#333" d="M182-182c0 78-84 86-111 141h115V0H12c-6-101 99-100 120-180 1-22-12-31-33-32-23 0-32 14-35 34l-49-3c5-45 32-70 84-70 51 0 83 22 83 69" id="B"/><use transform="matrix(0.055555555555555546,0,0,0.055555555555555546,0,0)" xlink:href="#B" id="e"/><path fill="#333" d="M128-127c34 4 56 21 59 58 7 91-148 94-172 28-4-9-6-17-7-26l51-5c1 24 16 35 40 36 23 0 39-12 38-36-1-31-31-36-65-34v-40c32 2 59-3 59-33 0-20-13-33-34-33s-33 13-35 32l-50-3c6-44 37-68 86-68 50 0 83 20 83 66 0 35-22 52-53 58" id="C"/><use transform="matrix(0.055555555555555546,0,0,0.055555555555555546,0,0)" xlink:href="#C" id="f"/><path fill="#333" d="M165-50V0h-47v-50H5v-38l105-160h55v161h33v37h-33zm-47-37l2-116L46-87h72" id="D"/><use transform="matrix(0.055555555555555546,0,0,0.055555555555555546,0,0)" xlink:href="#D" id="g"/><path fill="#333" d="M139-81c0-46-55-55-73-27H18l9-140h149v37H72l-4 63c44-38 133-4 122 66C201 21 21 35 11-62l49-4c5 18 15 30 39 30 26 0 40-18 40-45" id="E"/><use transform="matrix(0.055555555555555546,0,0,0.055555555555555546,0,0)" xlink:href="#E" id="h"/><path fill="#333" d="M115-159c48 0 72 30 72 78 0 54-30 85-83 85-64 0-91-50-91-122 0-98 58-163 141-120 15 8 21 24 27 44l-47 6c-5-31-48-31-61-4-7 14-11 33-11 60 9-17 28-27 53-27zM102-35c24 0 36-20 36-45s-11-43-37-43c-23 0-36 14-36 38 0 27 11 50 37 50" id="F"/><use transform="matrix(0.055555555555555546,0,0,0.055555555555555546,0,0)" xlink:href="#F" id="i"/><path fill="#333" d="M52 0c1-96 47-148 87-207H15v-41h169v40c-36 62-79 113-81 208H52" id="G"/><use transform="matrix(0.055555555555555546,0,0,0.055555555555555546,0,0)" xlink:href="#G" id="j"/><path d="M136-208V0H84v-208H4v-40h212v40h-80" id="H"/><path d="M135-150c-39-12-60 13-60 57V0H25l-1-190h47c2 13-1 29 3 40 6-28 27-53 61-41v41" id="I"/><path d="M185-48c-13 30-37 53-82 52C43 2 14-33 14-96s30-98 90-98c62 0 83 45 84 108H66c0 31 8 55 39 56 18 0 30-7 34-22zm-45-69c5-46-57-63-70-21-2 6-4 13-4 21h74" id="J"/><path d="M133-34C117-15 103 5 69 4 32 3 11-16 11-54c-1-60 55-63 116-61 1-26-3-47-28-47-18 1-26 9-28 27l-52-2c7-38 36-58 82-57s74 22 75 68l1 82c-1 14 12 18 25 15v27c-30 8-71 5-69-32zm-48 3c29 0 43-24 42-57-32 0-66-3-65 30 0 17 8 27 23 27" id="K"/><path d="M137-138c1-29-70-34-71-4 15 46 118 7 119 86 1 83-164 76-172 9l43-7c4 19 20 25 44 25 33 8 57-30 24-41C81-84 22-81 20-136c-2-80 154-74 161-7" id="L"/><path d="M85 4C-2 5 27-109 22-190h50c7 57-23 150 33 157 60-5 35-97 40-157h50l1 190h-47c-2-12 1-28-3-38-12 25-28 42-61 42" id="M"/><path d="M123 10C108 53 80 86 19 72V37c35 8 53-11 59-39L3-190h52l48 148c12-52 28-100 44-148h51" id="N"/><g id="k"><use transform="matrix(0.05,0,0,0.05,0,0)" xlink:href="#H"/><use transform="matrix(0.05,0,0,0.05,9.950000000000001,0)" xlink:href="#I"/><use transform="matrix(0.05,0,0,0.05,16.950000000000003,0)" xlink:href="#J"/><use transform="matrix(0.05,0,0,0.05,26.950000000000003,0)" xlink:href="#K"/><use transform="matrix(0.05,0,0,0.05,36.95,0)" xlink:href="#L"/><use transform="matrix(0.05,0,0,0.05,46.95,0)" xlink:href="#M"/><use transform="matrix(0.05,0,0,0.05,57.900000000000006,0)" xlink:href="#I"/><use transform="matrix(0.05,0,0,0.05,64.9,0)" xlink:href="#N"/></g><path d="M182-130c37 4 62 22 62 59C244 23 116-4 24 0v-248c84 5 203-23 205 63 0 31-19 50-47 55zM76-148c40-3 101 13 101-30 0-44-60-28-101-31v61zm0 110c48-3 116 14 116-37 0-48-69-32-116-35v72" id="O"/><path d="M110-194c64 0 96 36 96 99 0 64-35 99-97 99-61 0-95-36-95-99 0-62 34-99 96-99zm-1 164c35 0 45-28 45-65 0-40-10-65-43-65-34 0-45 26-45 65 0 36 10 65 43 65" id="P"/><path d="M88-194c31-1 46 15 58 34l-1-101h50l1 261h-48c-2-10 0-23-3-31C134-8 116 4 84 4 32 4 16-41 15-95c0-56 19-97 73-99zm17 164c33 0 40-30 41-66 1-37-9-64-41-64s-38 30-39 65c0 43 13 65 39 65" id="Q"/><g id="l"><use transform="matrix(0.05,0,0,0.05,0,0)" xlink:href="#O"/><use transform="matrix(0.05,0,0,0.05,12.950000000000001,0)" xlink:href="#P"/><use transform="matrix(0.05,0,0,0.05,23.900000000000002,0)" xlink:href="#K"/><use transform="matrix(0.05,0,0,0.05,33.900000000000006,0)" xlink:href="#I"/><use transform="matrix(0.05,0,0,0.05,40.900000000000006,0)" xlink:href="#Q"/></g></defs></g></svg>