<svg xmlns="http://www.w3.org/2000/svg" xmlns:xlink="http://www.w3.org/1999/xlink" xmlns:lucid="lucid" width="860" height="500"><g transform="translate(-240 -100)" lucid:page-tab-id="0_0"><path d="M260 206c0-3.3 2.7-6 6-6h68c3.3 0 6 2.7 6 6v68c0 3.3-2.7 6-6 6h-68c-3.3 0-6-2.7-6-6z" stroke="#5e5e5e" stroke-width="3" fill="#d1bcd2"/><use xlink:href="#a" transform="matrix(1,0,0,1,265,205) translate(10.083333333333343 40.06249999999999)"/><path d="M260 326c0-3.3 2.7-6 6-6h68c3.3 0 6 2.7 6 6v68c0 3.3-2.7 6-6 6h-68c-3.3 0-6-2.7-6-6z" stroke="#5e5e5e" stroke-width="3" fill="#d1bcd2"/><use xlink:href="#a" transform="matrix(1,0,0,1,265,325) translate(10.083333333333343 40.06249999999999)"/><path d="M260 446c0-3.3 2.7-6 6-6h68c3.3 0 6 2.7 6 6v68c0 3.3-2.7 6-6 6h-68c-3.3 0-6-2.7-6-6z" stroke="#5e5e5e" stroke-width="3" fill="#d1bcd2"/><use xlink:href="#a" transform="matrix(1,0,0,1,265,445) translate(10.083333333333343 40.06249999999999)"/><path d="M520 306c0-3.3 2.7-6 6-6h108c3.3 0 6 2.7 6 6v108c0 3.3-2.7 6-6 6H526c-3.3 0-6-2.7-6-6z" stroke="#5e5e5e" stroke-width="3" fill="#b2d6ef"/><use xlink:href="#b" transform="matrix(1,0,0,1,525,305) translate(42.16666666666667 61.09375)"/><path d="M660 346c0-3.3 2.7-6 6-6h28c3.3 0 6 2.7 6 6v28c0 3.3-2.7 6-6 6h-28c-3.3 0-6-2.7-6-6z" stroke="#5e5e5e" stroke-width="2" fill="#e5e5e5"/><use xlink:href="#c" transform="matrix(1,0,0,1,665,345) translate(0.6790123456790145 17.97222222222222)"/><path d="M720 346c0-3.3 2.7-6 6-6h28c3.3 0 6 2.7 6 6v28c0 3.3-2.7 6-6 6h-28c-3.3 0-6-2.7-6-6z" stroke="#5e5e5e" stroke-width="2" fill="#e5e5e5"/><use xlink:href="#c" transform="matrix(1,0,0,1,725,345) translate(0.6790123456790145 17.97222222222222)"/><path d="M780 346c0-3.3 2.7-6 6-6h28c3.3 0 6 2.7 6 6v28c0 3.3-2.7 6-6 6h-28c-3.3 0-6-2.7-6-6z" stroke="#5e5e5e" stroke-width="2" fill="#e5e5e5"/><use xlink:href="#c" transform="matrix(1,0,0,1,785,345) translate(0.6790123456790145 17.97222222222222)"/><path d="M840 346c0-3.3 2.7-6 6-6h28c3.3 0 6 2.7 6 6v28c0 3.3-2.7 6-6 6h-28c-3.3 0-6-2.7-6-6z" stroke="#5e5e5e" stroke-width="2" fill="#e5e5e5"/><use xlink:href="#c" transform="matrix(1,0,0,1,845,345) translate(0.6790123456790145 17.97222222222222)"/><path d="M1000 206c0-3.3 2.7-6 6-6h68c3.3 0 6 2.7 6 6v68c0 3.3-2.7 6-6 6h-68c-3.3 0-6-2.7-6-6z" stroke="#5e5e5e" stroke-width="3" fill="#b2d6ef"/><use xlink:href="#d" transform="matrix(1,0,0,1,1005,205) translate(21.638888888888893 40.40624999999999)"/><path d="M1000 326c0-3.3 2.7-6 6-6h68c3.3 0 6 2.7 6 6v68c0 3.3-2.7 6-6 6h-68c-3.3 0-6-2.7-6-6z" stroke="#5e5e5e" stroke-width="3" fill="#b2d6ef"/><use xlink:href="#d" transform="matrix(1,0,0,1,1005,325) translate(21.638888888888893 40.40624999999999)"/><path d="M1000 446c0-3.3 2.7-6 6-6h68c3.3 0 6 2.7 6 6v68c0 3.3-2.7 6-6 6h-68c-3.3 0-6-2.7-6-6z" stroke="#5e5e5e" stroke-width="3" fill="#b2d6ef"/><use xlink:href="#d" transform="matrix(1,0,0,1,1005,445) translate(21.638888888888893 40.40624999999999)"/><path d="M354.33 361H342.5v-2h11.83zm51.74 0h-23.1v-2h23.1zm36.58 0h-7.94v-2h7.95zm57.35 0h-28.7v-2H500z" fill="#5e5e5e"/><path d="M342.53 361h-1.03v-2h1.03zM515.26 360L501 364.64v-9.28z" fill="#5e5e5e"/><path d="M518.5 360l-18.5 6v-12zm-16.5 3.26l10.03-3.26-10.03-3.26z" fill="#5e5e5e"/><use xlink:href="#e" transform="matrix(1,0,0,1,354.33041108555494,349.33333333333337) translate(0 14.222222222222223)"/><use xlink:href="#e" transform="matrix(1,0,0,1,406.06827458077595,349.33333333333337) translate(0 14.222222222222223)"/><use xlink:href="#e" transform="matrix(1,0,0,1,442.6457623511135,349.3333333333333) translate(0 14.222222222222223)"/><path d="M446.98 320.5l5.4 6.27 4.4 4.72 3.9 3.8 3.56 3.2 3.34 2.77 3.17 2.4 3.07 2.14 2.98 1.9 2.94 1.7 2.9 1.53 2.92 1.37 2.92 1.22 2.95 1.1 3 .98 3.06.85 2.86.67-.46 1.95-2.9-.68-3.15-.9-3.08-1-3.03-1.12-3-1.26-2.98-1.4-3-1.56-3-1.74-3.05-1.94-3.12-2.18-3.25-2.46-3.4-2.8-3.62-3.28-3.94-3.87-4.48-4.8-5.46-6.33-8.48-11.18h2.5zm-46.3-57.26l3.96 3.87 4.48 4.8 5.45 6.32 8.23 10.43.46.6h-2.53l-7.7-9.75-5.4-6.27-4.42-4.72-3.88-3.8-1.74-1.57h2.08v-.82zm-55.15-24.16l3.8.24 3.63.38 3.47.5 3.34.65 3.23.76 3.15.9 3.08 1 1.8.66v2.13l-2.46-.92-3-.98-3.06-.85-3.15-.74-3.26-.6-3.4-.5-3.53-.38-3.73-.24-2.96-.06.04-2z" fill="#5e5e5e"/><path d="M342.55 239.02l-.04 2-1-.02v-2zM515.28 359.67l-14.67 3.14.97-9.2z" fill="#5e5e5e"/><path d="M518.5 360l-19.02 4.07 1.24-11.96zm-16.75 1.54l10.3-2.2-9.63-4.28z" fill="#5e5e5e"/><use xlink:href="#e" transform="matrix(1,0,0,1,371.0193504821873,241.79993484735078) translate(0 14.222222222222223)"/><use xlink:href="#e" transform="matrix(1,0,0,1,415.77691549497274,289.25926796823285) translate(0 14.222222222222223)"/><path d="M400.36 520.7l3.33 3.44 2.74 2.55 2.45 2.04 2.26 1.7 2.16 1.47 2.1 1.27 2.06 1.1 2.06.96 1.25.5-.76 1.86-1.3-.54-2.15-1-2.17-1.15-2.18-1.3-2.25-1.52-2.35-1.77-2.53-2.1-2.83-2.63-3.43-3.52-9.25-11.07h2.6zm-55.9-41.62l2.76.2 2.6.34 2.45.45 2.35.56 2.27.66 2.2.75 2.16.9 2.15 1 2.17 1.14 2.18 1.3 2.25 1.52 2.3 1.73h-3.34l-.12-.1-2.16-1.46-2.1-1.27-2.06-1.1-2.06-.96-2.07-.84-2.12-.74-2.17-.64-2.24-.53-2.35-.43-2.48-.32-2.66-.2-1.88-.05.05-2z" fill="#5e5e5e"/><path d="M342.55 479.03l-.05 2-1-.03v-2zM435.32 539.4l-14.87 2 1.68-9.13z" fill="#5e5e5e"/><path d="M438.5 540l-19.3 2.56 2.2-11.83zm-16.82.2l10.46-1.37-9.28-5.03z" fill="#5e5e5e"/><use xlink:href="#e" transform="matrix(1,0,0,1,367.5366161871168,489.6461819952357) translate(0 14.222222222222223)"/><path d="M642.5 360H658" stroke="#5e5e5e" stroke-width="2" fill="none"/><path d="M642.53 361h-1.03v-2h1.03zM659 361h-1.03v-2H659z" fill="#5e5e5e"/><path d="M702 360h16" stroke="#5e5e5e" stroke-width="2" fill="none"/><path d="M702.03 361H701v-2h1.03zM719 361h-1.03v-2H719z" fill="#5e5e5e"/><path d="M762 360h16" stroke="#5e5e5e" stroke-width="2" fill="none"/><path d="M762.03 361H761v-2h1.03zM779 361h-1.03v-2H779z" fill="#5e5e5e"/><path d="M822 360h16" stroke="#5e5e5e" stroke-width="2" fill="none"/><path d="M822.03 361H821v-2h1.03zM839 361h-1.03v-2H839z" fill="#5e5e5e"/><path d="M882 359.98l.77-.02 1.7-.1 1.67-.18 1.6-.24 1.58-.3 1.55-.36 1.52-.42 1.5-.5 1.5-.55 1.5-.62 1.5-.7 1.5-.8 1.52-.88 1.56-.98 1.58-1.1 1.63-1.24 1.68-1.4 1.76-1.58 1.84-1.8 1.96-2.1 2.1-2.42 2.27-2.88 2.54-3.5 2.9-4.37 3.53-5.83 4.92-9 21.03-41.2 3.52-5.83 2.9-4.38 2.54-3.5 2.27-2.88 2.1-2.43 1.95-2.1 1.84-1.8 1.76-1.58 1.7-1.4 1.62-1.23 1.58-1.12 1.56-.98 1.52-.9 1.08-.55" stroke="#5e5e5e" stroke-width="2" fill="none"/><path d="M882.05 360.98L881 361v-2l1-.02z" fill="#5e5e5e"/><path d="M995.35 240.75l-12.8 7.82-2.15-9.02z" stroke="#5e5e5e" stroke-width="2" fill="#5e5e5e"/><path d="M882 360h98" stroke="#5e5e5e" stroke-width="2" fill="none"/><path d="M882.03 361H881v-2h1.03z" fill="#5e5e5e"/><path d="M995.26 360L981 364.64v-9.28z" stroke="#5e5e5e" stroke-width="2" fill="#5e5e5e"/><path d="M882 360.02l.77.02 1.7.1 1.67.18 1.6.24 1.58.3 1.55.36 1.52.42 1.5.5 1.5.55 1.5.62 1.5.7 1.5.8 1.52.88 1.56.98 1.58 1.1 1.63 1.24 1.68 1.4 1.76 1.58 1.84 1.8 1.96 2.1 2.1 2.42 2.27 2.88 2.54 3.5 2.9 4.37 3.53 5.83 4.92 9 21.03 41.2 3.52 5.83 2.9 4.38 2.54 3.5 2.27 2.88 2.1 2.43 1.95 2.1 1.84 1.8 1.76 1.58 1.7 1.4 1.62 1.23 1.58 1.12 1.56.98 1.52.9 1.08.55" stroke="#5e5e5e" stroke-width="2" fill="none"/><path d="M882.05 359.02l-.04 2-1-.02v-2z" fill="#5e5e5e"/><path d="M995.35 479.25l-14.95 1.2 2.15-9.02z" stroke="#5e5e5e" stroke-width="2" fill="#5e5e5e"/><path d="M400 126c0-3.3 2.7-6 6-6h148c3.3 0 6 2.7 6 6v28c0 3.3-2.7 6-6 6H406c-3.3 0-6-2.7-6-6z" stroke="#000" stroke-opacity="0" stroke-width="3" fill="#fff" fill-opacity="0"/><use xlink:href="#f" transform="matrix(1,0,0,1,405,125) translate(5.1388888888889 19.75)"/><use xlink:href="#g" transform="matrix(1,0,0,1,405,125) translate(55.083333333333336 19.75)"/><path d="M401.4 238.6l.3.7-.3.7-.7.3-.7-.3-.3-.7.3-.7.7-.3zm2.82-2.82l.3.7-.3.7-.7.3-.7-.3-.3-.7.3-.7.7-.3zm2.8-2.8l.3.7-.3.7-.7.3-.7-.3-.3-.7.3-.7.7-.3zm2.8-2.8l.3.7-.3.7-.7.3-.7-.3-.3-.7.3-.7.7-.3zm2.82-2.82l.3.7-.3.7-.7.3-.7-.3-.3-.7.3-.7.7-.3zm2.8-2.8l.3.7-.3.7-.7.3-.7-.3-.3-.7.3-.7.7-.3zm2.8-2.8l.3.7-.3.7-.7.3-.7-.3-.3-.7.3-.7.7-.3zm2.82-2.82l.3.7-.3.7-.7.3-.7-.3-.3-.7.3-.7.7-.3zm2.8-2.8l.3.7-.3.7-.7.3-.7-.3-.3-.7.3-.7.7-.3zm2.8-2.8l.3.7-.3.7-.7.3-.7-.3-.3-.7.3-.7.7-.3zm2.82-2.82l.3.7-.3.7-.7.3-.7-.3-.3-.7.3-.7.7-.3zm2.8-2.8l.3.7-.3.7-.7.3-.7-.3-.3-.7.3-.7.7-.3zm2.8-2.8l.3.7-.3.7-.7.3-.7-.3-.3-.7.3-.7.7-.3zm2.82-2.82l.3.7-.3.7-.7.3-.7-.3-.3-.7.3-.7.7-.3zm2.8-2.8l.3.7-.3.7-.7.3-.7-.3-.3-.7.3-.7.7-.3zm2.8-2.8l.3.7-.3.7-.7.3-.7-.3-.3-.7.3-.7.7-.3zm2.82-2.82l.3.7-.3.7-.7.3-.7-.3-.3-.7.3-.7.7-.3zm2.8-2.8l.3.7-.3.7-.7.3-.7-.3-.3-.7.3-.7.7-.3zm2.8-2.8l.3.7-.3.7-.7.3-.7-.3-.3-.7.3-.7.7-.3zm2.82-2.82l.3.7-.3.7-.7.3-.7-.3-.3-.7.3-.7.7-.3zm2.8-2.8l.3.7-.3.7-.7.3-.7-.3-.3-.7.3-.7.7-.3zm2.8-2.8l.3.7-.3.7-.7.3-.7-.3-.3-.7.3-.7.7-.3zm2.82-2.82l.3.7-.3.7-.7.3-.7-.3-.3-.7.3-.7.7-.3zm2.8-2.8l.3.7-.3.7-.7.3-.7-.3-.3-.7.3-.7.7-.3zm2.8-2.8l.3.7-.3.7-.7.3-.7-.3-.3-.7.3-.7.7-.3zm2.82-2.82l.3.7-.3.7-.7.3-.7-.3-.3-.7.3-.7.7-.3zm2.8-2.8l.3.7-.3.7-.7.3-.7-.3-.3-.7.3-.7.7-.3zm2.8-2.8l.3.7-.3.7-.7.3-.7-.3-.3-.7.3-.7.7-.3zM480 160l.3.7-.3.7-.7.3-.7-.3-.3-.7.3-.7.7-.3z" fill="#5e5e5e"/><path d="M479.98 161.43l-1.4-1.4 2.83-.03zM401.43 239.98l-.72.73-1.4-1.4.72-.73z" fill="#5e5e5e"/><path d="M442.3 274.53l.3.7-.3.72-.7.3-.72-.3-.3-.7.3-.72.7-.3zm1.26-3.8l.3.7-.3.7-.7.3-.7-.3-.3-.7.3-.7.7-.3zm1.27-3.82l.3.72-.3.7-.7.3-.7-.3-.3-.7.3-.7.7-.3zm1.27-3.8l.3.7-.3.72-.7.3-.7-.3-.3-.7.3-.7.7-.3zm1.27-3.8l.3.7-.3.7-.7.3-.7-.3-.3-.7.3-.7.7-.3zm1.27-3.8l.3.7-.3.7-.7.3-.7-.3-.3-.7.3-.7.7-.3zm1.27-3.82l.3.7-.3.7-.7.3-.7-.3-.3-.7.3-.7.7-.3zm1.28-3.8l.3.7-.3.7-.7.3-.7-.3-.3-.7.3-.7.7-.3zm1.27-3.82l.3.7-.3.7-.7.3-.7-.3-.3-.7.3-.7.7-.3zm1.27-3.8l.3.7-.3.7-.7.3-.7-.3-.3-.7.3-.7.7-.3zm1.27-3.82l.3.7-.3.7-.7.3-.72-.3-.3-.7.3-.7.7-.3zm1.26-3.8l.3.7-.3.7-.7.3-.7-.3-.3-.7.3-.7.7-.3zm1.27-3.82l.3.7-.3.7-.7.3-.7-.3-.3-.7.3-.7.7-.3zm1.27-3.8l.3.7-.3.7-.7.3-.7-.3-.3-.7.3-.7.7-.3zm1.27-3.82l.3.7-.3.7-.7.3-.7-.3-.3-.7.3-.7.7-.3zm1.27-3.8l.3.7-.3.7-.7.3-.7-.3-.3-.7.3-.7.7-.3zm1.27-3.82l.3.7-.3.7-.7.3-.7-.3-.3-.7.3-.7.7-.3zm1.28-3.8l.3.7-.3.7-.7.3-.7-.3-.3-.7.3-.7.7-.3zm1.27-3.82l.3.7-.3.7-.7.3-.7-.3-.3-.7.3-.7.7-.3zm1.27-3.8l.3.7-.3.7-.7.3-.7-.3-.3-.7.3-.7.7-.3zm1.27-3.82l.28.7-.3.7-.7.3-.7-.3-.3-.7.3-.7.7-.3zm1.26-3.8l.3.7-.3.7-.7.3-.7-.3-.3-.7.3-.7.7-.3zm1.27-3.82l.3.7-.3.7-.7.3-.7-.3-.3-.7.3-.7.7-.3zm1.27-3.8l.3.7-.3.7-.7.3-.7-.3-.3-.7.3-.7.7-.3zm1.27-3.82l.3.7-.3.7-.7.3-.7-.3-.3-.7.3-.7.7-.3zm1.27-3.8l.3.7-.3.7-.7.3-.7-.3-.3-.7.3-.7.7-.3zm1.27-3.82l.3.7-.3.7-.7.3-.7-.3-.3-.7.3-.7.7-.3zm1.28-3.8l.3.7-.3.7-.7.3-.7-.3-.3-.7.3-.7.7-.3zm1.27-3.82l.3.7-.3.72-.7.3-.7-.3-.3-.7.3-.72.7-.3zm1.27-3.8l.3.7-.3.7-.7.3-.7-.3-.3-.7.3-.7.7-.3zm1.27-3.82l.28.7-.3.72-.7.3-.7-.3-.3-.7.3-.72.7-.3z" fill="#5e5e5e"/><path d="M480.62 161.3l-1.9-.64.23-.66h2.1zM441.27 279.34l-.32.98-1.9-.64.33-.97z" fill="#5e5e5e"/><path d="M666 320c-3.3 0-6-2.7-6-6v-8c0-3.3 2.7-6 6-6h208c3.3 0 6 2.7 6 6v8c0 3.3-2.7 6-6 6z" fill="none"/><path d="M880 320c0-5.52-4.48-10-10-10h-90c-5.52 0-10-4.48-10-10 0 5.52-4.48 10-10 10h-90c-5.52 0-10 4.48-10 10" fill="none"/><path d="M880 319c.55 0 1 .45 1 1s-.45 1-1 1-1-.45-1-1 .45-1 1-1zm-.84-3.8c.56 0 1 .46 1 1 0 .56-.44 1-1 1-.55 0-1-.44-1-1 0-.54.45-1 1-1zM877 312c.54 0 1 .46 1 1 0 .56-.46 1-1 1-.56 0-1-.44-1-1 0-.54.44-1 1-1zm-3.2-2.16c.54 0 1 .44 1 1 0 .55-.46 1-1 1-.56 0-1-.45-1-1 0-.56.44-1 1-1zM870 309c.55 0 1 .45 1 1s-.45 1-1 1-1-.45-1-1 .45-1 1-1zm-3.9 0c.54 0 1 .45 1 1s-.46 1-1 1c-.57 0-1-.45-1-1s.43-1 1-1zm-3.93 0c.56 0 1 .45 1 1s-.44 1-1 1c-.55 0-1-.45-1-1s.45-1 1-1zm-3.9 0c.54 0 1 .45 1 1s-.46 1-1 1c-.56 0-1-.45-1-1s.44-1 1-1zm-3.92 0c.55 0 1 .45 1 1s-.45 1-1 1-1-.45-1-1 .45-1 1-1zm-3.92 0c.56 0 1 .45 1 1s-.44 1-1 1c-.55 0-1-.45-1-1s.45-1 1-1zm-3.9 0c.54 0 1 .45 1 1s-.46 1-1 1c-.56 0-1-.45-1-1s.44-1 1-1zm-3.92 0c.56 0 1 .45 1 1s-.44 1-1 1c-.54 0-1-.45-1-1s.46-1 1-1zm-3.9 0c.55 0 1 .45 1 1s-.45 1-1 1c-.56 0-1-.45-1-1s.44-1 1-1zm-3.92 0c.55 0 1 .45 1 1s-.45 1-1 1-1-.45-1-1 .45-1 1-1zm-3.9 0c.54 0 1 .45 1 1s-.46 1-1 1c-.56 0-1-.45-1-1s.44-1 1-1zm-3.92 0c.55 0 1 .45 1 1s-.45 1-1 1c-.56 0-1-.45-1-1s.44-1 1-1zm-3.92 0c.56 0 1 .45 1 1s-.44 1-1 1c-.55 0-1-.45-1-1s.45-1 1-1zm-3.9 0c.54 0 1 .45 1 1s-.46 1-1 1c-.56 0-1-.45-1-1s.44-1 1-1zm-3.92 0c.55 0 1 .45 1 1s-.45 1-1 1-1-.45-1-1 .45-1 1-1zm-3.92 0c.56 0 1 .45 1 1s-.44 1-1 1c-.55 0-1-.45-1-1s.45-1 1-1zm-3.9 0c.54 0 1 .45 1 1s-.46 1-1 1c-.56 0-1-.45-1-1s.44-1 1-1zm-3.92 0c.55 0 1 .45 1 1s-.45 1-1 1-1-.45-1-1 .45-1 1-1zm-3.9 0c.54 0 1 .45 1 1s-.46 1-1 1c-.57 0-1-.45-1-1s.43-1 1-1zm-3.93 0c.55 0 1 .45 1 1s-.45 1-1 1-1-.45-1-1 .45-1 1-1zm-3.9 0c.54 0 1 .45 1 1s-.46 1-1 1c-.56 0-1-.45-1-1s.44-1 1-1zm-3.92 0c.55 0 1 .45 1 1s-.45 1-1 1c-.56 0-1-.45-1-1s.44-1 1-1zm-3.92 0c.57 0 1 .45 1 1s-.43 1-1 1c-.54 0-1-.45-1-1s.46-1 1-1zm-3.9 0c.55 0 1 .45 1 1s-.45 1-1 1-1-.45-1-1 .45-1 1-1zm-3.8-.84c.56 0 1 .45 1 1 0 .56-.44 1-1 1-.54 0-1-.44-1-1 0-.55.46-1 1-1zM773 306c.56 0 1 .44 1 1 0 .54-.44 1-1 1-.54 0-1-.46-1-1 0-.56.46-1 1-1zm-2.16-3.2c.55 0 1 .44 1 1 0 .54-.45 1-1 1-.56 0-1-.46-1-1 0-.56.44-1 1-1zM770 299c.55 0 1 .45 1 1s-.45 1-1 1-1-.45-1-1 .45-1 1-1zm-.84 3.8c.56 0 1 .44 1 1 0 .54-.44 1-1 1-.55 0-1-.46-1-1 0-.56.45-1 1-1zM767 306c.54 0 1 .44 1 1 0 .54-.46 1-1 1-.56 0-1-.46-1-1 0-.56.44-1 1-1zm-3.2 2.16c.54 0 1 .45 1 1 0 .56-.46 1-1 1-.56 0-1-.44-1-1 0-.55.44-1 1-1zm-3.8.84c.55 0 1 .45 1 1s-.45 1-1 1-1-.45-1-1 .45-1 1-1zm-3.9 0c.54 0 1 .45 1 1s-.46 1-1 1c-.57 0-1-.45-1-1s.43-1 1-1zm-3.93 0c.56 0 1 .45 1 1s-.44 1-1 1c-.55 0-1-.45-1-1s.45-1 1-1zm-3.9 0c.54 0 1 .45 1 1s-.46 1-1 1c-.56 0-1-.45-1-1s.44-1 1-1zm-3.92 0c.55 0 1 .45 1 1s-.45 1-1 1-1-.45-1-1 .45-1 1-1zm-3.92 0c.56 0 1 .45 1 1s-.44 1-1 1c-.55 0-1-.45-1-1s.45-1 1-1zm-3.9 0c.54 0 1 .45 1 1s-.46 1-1 1c-.56 0-1-.45-1-1s.44-1 1-1zm-3.92 0c.56 0 1 .45 1 1s-.44 1-1 1c-.54 0-1-.45-1-1s.46-1 1-1zm-3.9 0c.55 0 1 .45 1 1s-.45 1-1 1c-.56 0-1-.45-1-1s.44-1 1-1zm-3.92 0c.55 0 1 .45 1 1s-.45 1-1 1-1-.45-1-1 .45-1 1-1zm-3.9 0c.54 0 1 .45 1 1s-.46 1-1 1c-.56 0-1-.45-1-1s.44-1 1-1zm-3.92 0c.55 0 1 .45 1 1s-.45 1-1 1c-.56 0-1-.45-1-1s.44-1 1-1zm-3.92 0c.56 0 1 .45 1 1s-.44 1-1 1c-.55 0-1-.45-1-1s.45-1 1-1zm-3.9 0c.54 0 1 .45 1 1s-.46 1-1 1c-.56 0-1-.45-1-1s.44-1 1-1zm-3.92 0c.55 0 1 .45 1 1s-.45 1-1 1-1-.45-1-1 .45-1 1-1zm-3.92 0c.56 0 1 .45 1 1s-.44 1-1 1c-.55 0-1-.45-1-1s.45-1 1-1zm-3.9 0c.54 0 1 .45 1 1s-.46 1-1 1c-.56 0-1-.45-1-1s.44-1 1-1zm-3.92 0c.55 0 1 .45 1 1s-.45 1-1 1-1-.45-1-1 .45-1 1-1zm-3.9 0c.54 0 1 .45 1 1s-.46 1-1 1c-.57 0-1-.45-1-1s.43-1 1-1zm-3.93 0c.55 0 1 .45 1 1s-.45 1-1 1-1-.45-1-1 .45-1 1-1zm-3.9 0c.54 0 1 .45 1 1s-.46 1-1 1c-.56 0-1-.45-1-1s.44-1 1-1zm-3.92 0c.55 0 1 .45 1 1s-.45 1-1 1c-.56 0-1-.45-1-1s.44-1 1-1zm-3.92 0c.57 0 1 .45 1 1s-.43 1-1 1c-.54 0-1-.45-1-1s.46-1 1-1zm-3.9 0c.55 0 1 .45 1 1s-.45 1-1 1-1-.45-1-1 .45-1 1-1zm-3.8.84c.56 0 1 .45 1 1s-.44 1-1 1c-.55 0-1-.45-1-1s.45-1 1-1zm-3.27 2.1c.55 0 1 .44 1 1 0 .54-.45 1-1 1s-1-.46-1-1c0-.56.45-1 1-1zm-2.1 3.26c.56 0 1 .45 1 1 0 .56-.44 1-1 1-.54 0-1-.44-1-1 0-.55.46-1 1-1z" fill="#5e5e5e"/><path d="M660 266c0-3.3 2.7-6 6-6h208c3.3 0 6 2.7 6 6v28c0 3.3-2.7 6-6 6H666c-3.3 0-6-2.7-6-6z" stroke="#000" stroke-opacity="0" stroke-width="3" fill="#fff" fill-opacity="0"/><use xlink:href="#h" transform="matrix(1,0,0,1,665,265) translate(51.777777777777786 19.75)"/><path d="M440 506c0-3.3 2.7-6 6-6h68c3.3 0 6 2.7 6 6v68c0 3.3-2.7 6-6 6h-68c-3.3 0-6-2.7-6-6z" stroke="#5e5e5e" stroke-width="3" fill="#d1bcd2"/><use xlink:href="#i" transform="matrix(1,0,0,1,445,505) translate(-0.9999999999999858 27)"/><use xlink:href="#j" transform="matrix(1,0,0,1,445,505) translate(10.083333333333343 50.99999999999999)"/><path d="M569.6 505.94l-1.47 3.4-1.47 3.04-1.47 2.72-1.47 2.46-1.46 2.23-1.45 2.02-1.45 1.85-1.46 1.7-1.44 1.58-1.47 1.45-1.48 1.34-1.5 1.25-1.5 1.15-1.53 1.07-1.57 1-1.6.93-1.62.85-1.66.8-1.72.73-1.78.66-1.85.6-1.92.54-2 .47-2.1.4-2.22.34-2.33.25-2.48.14-1.63.04-.04-2 1.58-.03 2.4-.16 2.25-.24 2.14-.32 2-.4 1.93-.44 1.84-.52 1.78-.57 1.7-.63 1.64-.7 1.6-.75 1.55-.82 1.52-.9 1.47-.94 1.46-1.03 1.45-1.1 1.42-1.2 1.4-1.28 1.42-1.4 1.4-1.5 1.4-1.64 1.4-1.78 1.4-1.96 1.4-2.16 1.43-2.4 1.43-2.63 1.43-2.96 1.34-3.05h2.16zm11.02-65.9l-.22 7.4-.97 13.5-1.2 10.42-1.32 8.4-.87 4.36H574l.94-4.7 1.3-8.33 1.2-10.34.97-13.42.22-7.37z" fill="#5e5e5e"/><path d="M522.55 540.98l-1.05.02v-2l1-.02zM584.27 439.1l-9.27-.2 4.93-14.16z" fill="#5e5e5e"/><path d="M585.63 440.12l-12.02-.25 6.4-18.37zm-9.23-2.2l6.52.15-3.05-10.1z" fill="#5e5e5e"/><g><use xlink:href="#e" transform="matrix(1,0,0,1,558.0639419263026,484.12063650629847) translate(0 14.222222222222223)"/></g><defs><path fill="#333" d="M175 0L67-191c6 58 2 128 3 191H24v-248h59L193-55c-6-58-2-129-3-193h46V0h-61" id="k"/><path fill="#333" d="M110-194c64 0 96 36 96 99 0 64-35 99-97 99-61 0-95-36-95-99 0-62 34-99 96-99zm-1 164c35 0 45-28 45-65 0-40-10-65-43-65-34 0-45 26-45 65 0 36 10 65 43 65" id="l"/><path fill="#333" d="M88-194c31-1 46 15 58 34l-1-101h50l1 261h-48c-2-10 0-23-3-31C134-8 116 4 84 4 32 4 16-41 15-95c0-56 19-97 73-99zm17 164c33 0 40-30 41-66 1-37-9-64-41-64s-38 30-39 65c0 43 13 65 39 65" id="m"/><path fill="#333" d="M185-48c-13 30-37 53-82 52C43 2 14-33 14-96s30-98 90-98c62 0 83 45 84 108H66c0 31 8 55 39 56 18 0 30-7 34-22zm-45-69c5-46-57-63-70-21-2 6-4 13-4 21h74" id="n"/><g id="a"><use transform="matrix(0.05555555555555554,0,0,0.05555555555555554,0,0)" xlink:href="#k"/><use transform="matrix(0.05555555555555554,0,0,0.05555555555555554,14.388888888888884,0)" xlink:href="#l"/><use transform="matrix(0.05555555555555554,0,0,0.05555555555555554,26.555555555555546,0)" xlink:href="#m"/><use transform="matrix(0.05555555555555554,0,0,0.05555555555555554,38.72222222222221,0)" xlink:href="#n"/></g><path fill="#333" d="M24-248c93 1 206-16 204 79-1 75-69 88-152 82V0H24v-248zm52 121c47 0 100 7 100-41 0-47-54-39-100-39v80" id="o"/><path fill="#333" d="M147 0H94L2-248h55l64 206c17-72 42-137 63-206h54" id="p"/><g id="b"><use transform="matrix(0.055555555555555546,0,0,0.055555555555555546,0,0)" xlink:href="#o"/><use transform="matrix(0.055555555555555546,0,0,0.055555555555555546,13.33333333333333,0)" xlink:href="#p"/></g><path fill="#333" d="M133 41v34c-50 4-88-6-87-53 0-46 9-101-40-98v-34c48 2 40-52 40-98-1-47 37-57 87-53v34c-79-14-6 124-77 134 73 11-4 147 77 134" id="q"/><path fill="#333" d="M24 0v-54h51V0H24" id="r"/><path fill="#333" d="M94-36c2 56 4 113-52 111H8V41C85 54 13-83 84-94c-39-5-38-51-36-97 1-27-12-38-40-36v-34c49-4 87 6 86 53s-8 101 41 98v34c-26 1-42 13-41 40" id="s"/><g id="c"><use transform="matrix(0.049382716049382706,0,0,0.049382716049382706,0,0)" xlink:href="#q"/><use transform="matrix(0.049382716049382706,0,0,0.049382716049382706,6.913580246913579,0)" xlink:href="#r"/><use transform="matrix(0.049382716049382706,0,0,0.049382716049382706,11.85185185185185,0)" xlink:href="#r"/><use transform="matrix(0.049382716049382706,0,0,0.049382716049382706,16.79012345679012,0)" xlink:href="#r"/><use transform="matrix(0.049382716049382706,0,0,0.049382716049382706,21.728395061728392,0)" xlink:href="#s"/></g><path fill="#333" d="M67-125c0 53 21 87 73 88 37 1 54-22 65-47l45 17C233-25 199 4 140 4 58 4 20-42 15-125 8-235 124-281 211-232c18 10 29 29 36 50l-46 12c-8-25-30-41-62-41-52 0-71 34-72 86" id="t"/><g id="d"><use transform="matrix(0.05555555555555554,0,0,0.05555555555555554,0,0)" xlink:href="#t"/><use transform="matrix(0.05555555555555554,0,0,0.05555555555555554,14.388888888888884,0)" xlink:href="#p"/></g><g id="e"><use transform="matrix(0.04938271604938272,0,0,0.04938271604938272,0,0)" xlink:href="#q"/><use transform="matrix(0.04938271604938272,0,0,0.04938271604938272,6.913580246913581,0)" xlink:href="#r"/><use transform="matrix(0.04938271604938272,0,0,0.04938271604938272,11.851851851851853,0)" xlink:href="#r"/><use transform="matrix(0.04938271604938272,0,0,0.04938271604938272,16.790123456790127,0)" xlink:href="#r"/><use transform="matrix(0.04938271604938272,0,0,0.04938271604938272,21.7283950617284,0)" xlink:href="#s"/></g><path fill="#333" d="M238-95c0 69-44 99-111 99C63 4 22-25 22-93v-155h51v151c-1 38 19 59 55 60 90 1 49-130 58-211h52v153" id="u"/><path fill="#333" d="M137-138c1-29-70-34-71-4 15 46 118 7 119 86 1 83-164 76-172 9l43-7c4 19 20 25 44 25 33 8 57-30 24-41C81-84 22-81 20-136c-2-80 154-74 161-7" id="v"/><path fill="#333" d="M135-150c-39-12-60 13-60 57V0H25l-1-190h47c2 13-1 29 3 40 6-28 27-53 61-41v41" id="w"/><g id="f"><use transform="matrix(0.055555555555555546,0,0,0.055555555555555546,0,0)" xlink:href="#u"/><use transform="matrix(0.055555555555555546,0,0,0.055555555555555546,14.388888888888886,0)" xlink:href="#v"/><use transform="matrix(0.055555555555555546,0,0,0.055555555555555546,25.499999999999993,0)" xlink:href="#n"/><use transform="matrix(0.055555555555555546,0,0,0.055555555555555546,36.6111111111111,0)" xlink:href="#w"/></g><path fill="#333" d="M240-174c0 40-23 61-54 70L253 0h-59l-57-94H76V0H24v-248c93 4 217-23 216 74zM76-134c48-2 112 12 112-38 0-48-66-32-112-35v73" id="x"/><path fill="#333" d="M84 4C32 4 15-41 15-95c0-55 18-99 73-99 29 0 47 12 58 34l2-30h48l-1 265h-49V-32C136-9 114 4 84 4zm21-34c32 0 41-29 41-66 0-36-9-64-40-64-33 0-39 30-40 65 0 43 13 65 39 65" id="y"/><path fill="#333" d="M85 4C-2 5 27-109 22-190h50c7 57-23 150 33 157 60-5 35-97 40-157h50l1 190h-47c-2-12 1-28-3-38-12 25-28 42-61 42" id="z"/><path fill="#333" d="M115-3C79 11 28 4 28-45v-112H4v-33h27l15-45h31v45h36v33H77v99c-1 23 16 31 38 25v30" id="A"/><g id="g"><use transform="matrix(0.055555555555555546,0,0,0.055555555555555546,0,0)" xlink:href="#x"/><use transform="matrix(0.055555555555555546,0,0,0.055555555555555546,14.388888888888886,0)" xlink:href="#n"/><use transform="matrix(0.055555555555555546,0,0,0.055555555555555546,25.499999999999993,0)" xlink:href="#y"/><use transform="matrix(0.055555555555555546,0,0,0.055555555555555546,37.66666666666666,0)" xlink:href="#z"/><use transform="matrix(0.055555555555555546,0,0,0.055555555555555546,49.83333333333332,0)" xlink:href="#n"/><use transform="matrix(0.055555555555555546,0,0,0.055555555555555546,60.944444444444436,0)" xlink:href="#v"/><use transform="matrix(0.055555555555555546,0,0,0.055555555555555546,72.05555555555554,0)" xlink:href="#A"/><use transform="matrix(0.055555555555555546,0,0,0.055555555555555546,78.66666666666666,0)" xlink:href="#v"/></g><path fill="#333" d="M182-130c37 4 62 22 62 59C244 23 116-4 24 0v-248c84 5 203-23 205 63 0 31-19 50-47 55zM76-148c40-3 101 13 101-30 0-44-60-28-101-31v61zm0 110c48-3 116 14 116-37 0-48-69-32-116-35v72" id="B"/><path fill="#333" d="M25 0v-261h50V0H25" id="C"/><path fill="#333" d="M190-63c-7 42-38 67-86 67-59 0-84-38-90-98-12-110 154-137 174-36l-49 2c-2-19-15-32-35-32-30 0-35 28-38 64-6 74 65 87 74 30" id="D"/><path fill="#333" d="M147 0L96-86 75-71V0H25v-261h50v150l67-79h53l-66 74L201 0h-54" id="E"/><path fill="#333" d="M114-157C55-157 80-60 75 0H25v-261h50l-1 109c12-26 28-41 61-42 86-1 58 113 63 194h-50c-7-57 23-157-34-157" id="F"/><path fill="#333" d="M133-34C117-15 103 5 69 4 32 3 11-16 11-54c-1-60 55-63 116-61 1-26-3-47-28-47-18 1-26 9-28 27l-52-2c7-38 36-58 82-57s74 22 75 68l1 82c-1 14 12 18 25 15v27c-30 8-71 5-69-32zm-48 3c29 0 43-24 42-57-32 0-66-3-65 30 0 17 8 27 23 27" id="G"/><path fill="#333" d="M25-224v-37h50v37H25zM25 0v-190h50V0H25" id="H"/><path fill="#333" d="M135-194c87-1 58 113 63 194h-50c-7-57 23-157-34-157-59 0-34 97-39 157H25l-1-190h47c2 12-1 28 3 38 12-26 28-41 61-42" id="I"/><g id="h"><use transform="matrix(0.055555555555555546,0,0,0.055555555555555546,0,0)" xlink:href="#B"/><use transform="matrix(0.055555555555555546,0,0,0.055555555555555546,14.388888888888886,0)" xlink:href="#C"/><use transform="matrix(0.055555555555555546,0,0,0.055555555555555546,19.94444444444444,0)" xlink:href="#l"/><use transform="matrix(0.055555555555555546,0,0,0.055555555555555546,32.1111111111111,0)" xlink:href="#D"/><use transform="matrix(0.055555555555555546,0,0,0.055555555555555546,43.22222222222221,0)" xlink:href="#E"/><use transform="matrix(0.055555555555555546,0,0,0.055555555555555546,54.333333333333314,0)" xlink:href="#D"/><use transform="matrix(0.055555555555555546,0,0,0.055555555555555546,65.44444444444443,0)" xlink:href="#F"/><use transform="matrix(0.055555555555555546,0,0,0.055555555555555546,77.61111111111109,0)" xlink:href="#G"/><use transform="matrix(0.055555555555555546,0,0,0.055555555555555546,88.7222222222222,0)" xlink:href="#H"/><use transform="matrix(0.055555555555555546,0,0,0.055555555555555546,94.27777777777776,0)" xlink:href="#I"/></g><path fill="#333" d="M14-72v-43h91v43H14" id="J"/><g id="i"><use transform="matrix(0.05555555555555554,0,0,0.05555555555555554,0,0)" xlink:href="#k"/><use transform="matrix(0.05555555555555554,0,0,0.05555555555555554,14.388888888888884,0)" xlink:href="#l"/><use transform="matrix(0.05555555555555554,0,0,0.05555555555555554,26.555555555555546,0)" xlink:href="#I"/><use transform="matrix(0.05555555555555554,0,0,0.05555555555555554,38.72222222222221,0)" xlink:href="#J"/><use transform="matrix(0.05555555555555554,0,0,0.05555555555555554,45.333333333333314,0)" xlink:href="#o"/><use transform="matrix(0.05555555555555554,0,0,0.05555555555555554,58.66666666666665,0)" xlink:href="#p"/></g><g id="j"><use transform="matrix(0.05555555555555554,0,0,0.05555555555555554,0,0)" xlink:href="#k"/><use transform="matrix(0.05555555555555554,0,0,0.05555555555555554,14.388888888888884,0)" xlink:href="#l"/><use transform="matrix(0.05555555555555554,0,0,0.05555555555555554,26.555555555555546,0)" xlink:href="#m"/><use transform="matrix(0.05555555555555554,0,0,0.05555555555555554,38.72222222222221,0)" xlink:href="#n"/></g></defs></g></svg>