<svg xmlns="http://www.w3.org/2000/svg" xmlns:xlink="http://www.w3.org/1999/xlink" xmlns:lucid="lucid" width="619.5" height="380"><g transform="translate(-570.25 -60)" lucid:page-tab-id="0_0"><path d="M790.25 266c0-3.3 2.7-6 6-6h8c3.3 0 6 2.7 6 6v8c0 3.3-2.7 6-6 6h-8c-3.3 0-6-2.7-6-6z" stroke="#5e5e5e" fill="#b2d6ef"/><path d="M830.25 266c0-3.3 2.7-6 6-6h8c3.3 0 6 2.7 6 6v8c0 3.3-2.7 6-6 6h-8c-3.3 0-6-2.7-6-6z" fill-opacity="0"/><path d="M830.75 266c0 .28-.22.5-.5.5s-.5-.22-.5-.5.22-.5.5-.5.5.22.5.5zm.5-1.8c0 .28-.24.5-.5.5-.3 0-.5-.22-.5-.5s.2-.5.5-.5c.26 0 .5.22.5.5zm.74-1.65c0 .28-.24.5-.5.5-.3 0-.5-.22-.5-.5 0-.27.2-.5.5-.5.26 0 .5.23.5.5zm1.3-1.3c0 .26-.22.5-.5.5-.27 0-.5-.24-.5-.5 0-.3.23-.5.5-.5.28 0 .5.2.5.5zm1.65-.76c0 .26-.22.5-.5.5s-.5-.24-.5-.5c0-.3.22-.5.5-.5s.5.2.5.5zm1.8-.5c0 .28-.22.5-.5.5s-.5-.22-.5-.5.22-.5.5-.5.5.22.5.5zm2 0c0 .28-.22.5-.5.5s-.5-.22-.5-.5.22-.5.5-.5.5.22.5.5zm2 0c0 .28-.22.5-.5.5s-.5-.22-.5-.5.22-.5.5-.5.5.22.5.5zm2 0c0 .28-.22.5-.5.5s-.5-.22-.5-.5.22-.5.5-.5.5.22.5.5zm2 0c0 .28-.22.5-.5.5s-.5-.22-.5-.5.22-.5.5-.5.5.22.5.5zm1.8.5c0 .26-.22.5-.5.5s-.5-.24-.5-.5c0-.3.22-.5.5-.5s.5.2.5.5zm1.65.74c0 .27-.23.5-.5.5-.28 0-.5-.23-.5-.5 0-.28.22-.5.5-.5.27 0 .5.22.5.5zm1.3 1.3c0 .3-.2.5-.5.5-.26 0-.5-.2-.5-.5 0-.26.24-.5.5-.5.3 0 .5.24.5.5zm.76 1.66c0 .28-.22.5-.5.5-.27 0-.5-.22-.5-.5s.23-.5.5-.5c.28 0 .5.22.5.5zm.5 1.8c0 .28-.23.5-.5.5-.3 0-.5-.22-.5-.5s.2-.5.5-.5c.27 0 .5.22.5.5zm0 2c0 .28-.23.5-.5.5-.3 0-.5-.22-.5-.5s.2-.5.5-.5c.27 0 .5.22.5.5zm0 2c0 .28-.23.5-.5.5-.3 0-.5-.22-.5-.5s.2-.5.5-.5c.27 0 .5.22.5.5zm0 2c0 .28-.23.5-.5.5-.3 0-.5-.22-.5-.5s.2-.5.5-.5c.27 0 .5.22.5.5zm0 2c0 .28-.23.5-.5.5-.3 0-.5-.22-.5-.5s.2-.5.5-.5c.27 0 .5.22.5.5zm-.5 1.8c0 .28-.22.5-.5.5-.27 0-.5-.22-.5-.5s.23-.5.5-.5c.28 0 .5.22.5.5zm-.75 1.65c0 .27-.2.5-.5.5-.26 0-.5-.23-.5-.5 0-.28.24-.5.5-.5.3 0 .5.22.5.5zm-1.3 1.3c0 .3-.23.5-.5.5-.28 0-.5-.2-.5-.5 0-.26.22-.5.5-.5.27 0 .5.24.5.5zm-1.65.76c0 .3-.22.5-.5.5s-.5-.2-.5-.5c0-.26.22-.5.5-.5s.5.24.5.5zm-1.8.5c0 .28-.22.5-.5.5s-.5-.22-.5-.5.22-.5.5-.5.5.22.5.5zm-2 0c0 .28-.22.5-.5.5s-.5-.22-.5-.5.22-.5.5-.5.5.22.5.5zm-2 0c0 .28-.22.5-.5.5s-.5-.22-.5-.5.22-.5.5-.5.5.22.5.5zm-2 0c0 .28-.22.5-.5.5s-.5-.22-.5-.5.22-.5.5-.5.5.22.5.5zm-2 0c0 .28-.22.5-.5.5s-.5-.22-.5-.5.22-.5.5-.5.5.22.5.5zm-1.8-.5c0 .3-.22.5-.5.5s-.5-.2-.5-.5c0-.26.22-.5.5-.5s.5.24.5.5zm-1.65-.74c0 .28-.22.5-.5.5-.27 0-.5-.22-.5-.5 0-.27.23-.5.5-.5.28 0 .5.23.5.5zm-1.3-1.3c0 .26-.24.5-.5.5-.3 0-.5-.24-.5-.5 0-.3.2-.5.5-.5.26 0 .5.2.5.5zm-.76-1.66c0 .28-.23.5-.5.5-.28 0-.5-.22-.5-.5s.22-.5.5-.5c.27 0 .5.22.5.5zm-.5-1.8c0 .28-.2.5-.5.5-.27 0-.5-.22-.5-.5s.23-.5.5-.5c.3 0 .5.22.5.5zm0-2c0 .28-.2.5-.5.5-.27 0-.5-.22-.5-.5s.23-.5.5-.5c.3 0 .5.22.5.5zm0-2c0 .28-.2.5-.5.5-.27 0-.5-.22-.5-.5s.23-.5.5-.5c.3 0 .5.22.5.5zm0-2c0 .28-.2.5-.5.5-.27 0-.5-.22-.5-.5s.23-.5.5-.5c.3 0 .5.22.5.5z" fill="#5e5e5e"/><path d="M870.25 266c0-3.3 2.7-6 6-6h8c3.3 0 6 2.7 6 6v8c0 3.3-2.7 6-6 6h-8c-3.3 0-6-2.7-6-6z" fill-opacity="0"/><path d="M870.75 266c0 .28-.22.5-.5.5s-.5-.22-.5-.5.22-.5.5-.5.5.22.5.5zm.5-1.8c0 .28-.24.5-.5.5-.3 0-.5-.22-.5-.5s.2-.5.5-.5c.26 0 .5.22.5.5zm.74-1.65c0 .28-.24.5-.5.5-.3 0-.5-.22-.5-.5 0-.27.2-.5.5-.5.26 0 .5.23.5.5zm1.3-1.3c0 .26-.22.5-.5.5-.27 0-.5-.24-.5-.5 0-.3.23-.5.5-.5.28 0 .5.2.5.5zm1.65-.76c0 .26-.22.5-.5.5s-.5-.24-.5-.5c0-.3.22-.5.5-.5s.5.2.5.5zm1.8-.5c0 .28-.22.5-.5.5s-.5-.22-.5-.5.22-.5.5-.5.5.22.5.5zm2 0c0 .28-.22.5-.5.5s-.5-.22-.5-.5.22-.5.5-.5.5.22.5.5zm2 0c0 .28-.22.5-.5.5s-.5-.22-.5-.5.22-.5.5-.5.5.22.5.5zm2 0c0 .28-.22.5-.5.5s-.5-.22-.5-.5.22-.5.5-.5.5.22.5.5zm2 0c0 .28-.22.5-.5.5s-.5-.22-.5-.5.22-.5.5-.5.5.22.5.5zm1.8.5c0 .26-.22.5-.5.5s-.5-.24-.5-.5c0-.3.22-.5.5-.5s.5.2.5.5zm1.65.74c0 .27-.23.5-.5.5-.28 0-.5-.23-.5-.5 0-.28.22-.5.5-.5.27 0 .5.22.5.5zm1.3 1.3c0 .3-.2.5-.5.5-.26 0-.5-.2-.5-.5 0-.26.24-.5.5-.5.3 0 .5.24.5.5zm.76 1.66c0 .28-.22.5-.5.5-.27 0-.5-.22-.5-.5s.23-.5.5-.5c.28 0 .5.22.5.5zm.5 1.8c0 .28-.23.5-.5.5-.3 0-.5-.22-.5-.5s.2-.5.5-.5c.27 0 .5.22.5.5zm0 2c0 .28-.23.5-.5.5-.3 0-.5-.22-.5-.5s.2-.5.5-.5c.27 0 .5.22.5.5zm0 2c0 .28-.23.5-.5.5-.3 0-.5-.22-.5-.5s.2-.5.5-.5c.27 0 .5.22.5.5zm0 2c0 .28-.23.5-.5.5-.3 0-.5-.22-.5-.5s.2-.5.5-.5c.27 0 .5.22.5.5zm0 2c0 .28-.23.5-.5.5-.3 0-.5-.22-.5-.5s.2-.5.5-.5c.27 0 .5.22.5.5zm-.5 1.8c0 .28-.22.5-.5.5-.27 0-.5-.22-.5-.5s.23-.5.5-.5c.28 0 .5.22.5.5zm-.75 1.65c0 .27-.2.5-.5.5-.26 0-.5-.23-.5-.5 0-.28.24-.5.5-.5.3 0 .5.22.5.5zm-1.3 1.3c0 .3-.23.5-.5.5-.28 0-.5-.2-.5-.5 0-.26.22-.5.5-.5.27 0 .5.24.5.5zm-1.65.76c0 .3-.22.5-.5.5s-.5-.2-.5-.5c0-.26.22-.5.5-.5s.5.24.5.5zm-1.8.5c0 .28-.22.5-.5.5s-.5-.22-.5-.5.22-.5.5-.5.5.22.5.5zm-2 0c0 .28-.22.5-.5.5s-.5-.22-.5-.5.22-.5.5-.5.5.22.5.5zm-2 0c0 .28-.22.5-.5.5s-.5-.22-.5-.5.22-.5.5-.5.5.22.5.5zm-2 0c0 .28-.22.5-.5.5s-.5-.22-.5-.5.22-.5.5-.5.5.22.5.5zm-2 0c0 .28-.22.5-.5.5s-.5-.22-.5-.5.22-.5.5-.5.5.22.5.5zm-1.8-.5c0 .3-.22.5-.5.5s-.5-.2-.5-.5c0-.26.22-.5.5-.5s.5.24.5.5zm-1.65-.74c0 .28-.22.5-.5.5-.27 0-.5-.22-.5-.5 0-.27.23-.5.5-.5.28 0 .5.23.5.5zm-1.3-1.3c0 .26-.24.5-.5.5-.3 0-.5-.24-.5-.5 0-.3.2-.5.5-.5.26 0 .5.2.5.5zm-.76-1.66c0 .28-.23.5-.5.5-.28 0-.5-.22-.5-.5s.22-.5.5-.5c.27 0 .5.22.5.5zm-.5-1.8c0 .28-.2.5-.5.5-.27 0-.5-.22-.5-.5s.23-.5.5-.5c.3 0 .5.22.5.5zm0-2c0 .28-.2.5-.5.5-.27 0-.5-.22-.5-.5s.23-.5.5-.5c.3 0 .5.22.5.5zm0-2c0 .28-.2.5-.5.5-.27 0-.5-.22-.5-.5s.23-.5.5-.5c.3 0 .5.22.5.5zm0-2c0 .28-.2.5-.5.5-.27 0-.5-.22-.5-.5s.23-.5.5-.5c.3 0 .5.22.5.5z" fill="#5e5e5e"/><path d="M910.25 266c0-3.3 2.7-6 6-6h8c3.3 0 6 2.7 6 6v8c0 3.3-2.7 6-6 6h-8c-3.3 0-6-2.7-6-6z" fill-opacity="0"/><path d="M910.75 266c0 .28-.22.5-.5.5s-.5-.22-.5-.5.22-.5.5-.5.5.22.5.5zm.5-1.8c0 .28-.24.5-.5.5-.3 0-.5-.22-.5-.5s.2-.5.5-.5c.26 0 .5.22.5.5zm.74-1.65c0 .28-.24.5-.5.5-.3 0-.5-.22-.5-.5 0-.27.2-.5.5-.5.26 0 .5.23.5.5zm1.3-1.3c0 .26-.22.5-.5.5-.27 0-.5-.24-.5-.5 0-.3.23-.5.5-.5.28 0 .5.2.5.5zm1.65-.76c0 .26-.22.5-.5.5s-.5-.24-.5-.5c0-.3.22-.5.5-.5s.5.2.5.5zm1.8-.5c0 .28-.22.5-.5.5s-.5-.22-.5-.5.22-.5.5-.5.5.22.5.5zm2 0c0 .28-.22.5-.5.5s-.5-.22-.5-.5.22-.5.5-.5.5.22.5.5zm2 0c0 .28-.22.5-.5.5s-.5-.22-.5-.5.22-.5.5-.5.5.22.5.5zm2 0c0 .28-.22.5-.5.5s-.5-.22-.5-.5.22-.5.5-.5.5.22.5.5zm2 0c0 .28-.22.5-.5.5s-.5-.22-.5-.5.22-.5.5-.5.5.22.5.5zm1.8.5c0 .26-.22.5-.5.5s-.5-.24-.5-.5c0-.3.22-.5.5-.5s.5.2.5.5zm1.65.74c0 .27-.23.5-.5.5-.28 0-.5-.23-.5-.5 0-.28.22-.5.5-.5.27 0 .5.22.5.5zm1.3 1.3c0 .3-.2.5-.5.5-.26 0-.5-.2-.5-.5 0-.26.24-.5.5-.5.3 0 .5.24.5.5zm.76 1.66c0 .28-.22.5-.5.5-.27 0-.5-.22-.5-.5s.23-.5.5-.5c.28 0 .5.22.5.5zm.5 1.8c0 .28-.23.5-.5.5-.3 0-.5-.22-.5-.5s.2-.5.5-.5c.27 0 .5.22.5.5zm0 2c0 .28-.23.5-.5.5-.3 0-.5-.22-.5-.5s.2-.5.5-.5c.27 0 .5.22.5.5zm0 2c0 .28-.23.5-.5.5-.3 0-.5-.22-.5-.5s.2-.5.5-.5c.27 0 .5.22.5.5zm0 2c0 .28-.23.5-.5.5-.3 0-.5-.22-.5-.5s.2-.5.5-.5c.27 0 .5.22.5.5zm0 2c0 .28-.23.5-.5.5-.3 0-.5-.22-.5-.5s.2-.5.5-.5c.27 0 .5.22.5.5zm-.5 1.8c0 .28-.22.5-.5.5-.27 0-.5-.22-.5-.5s.23-.5.5-.5c.28 0 .5.22.5.5zm-.75 1.65c0 .27-.2.5-.5.5-.26 0-.5-.23-.5-.5 0-.28.24-.5.5-.5.3 0 .5.22.5.5zm-1.3 1.3c0 .3-.23.5-.5.5-.28 0-.5-.2-.5-.5 0-.26.22-.5.5-.5.27 0 .5.24.5.5zm-1.65.76c0 .3-.22.5-.5.5s-.5-.2-.5-.5c0-.26.22-.5.5-.5s.5.24.5.5zm-1.8.5c0 .28-.22.5-.5.5s-.5-.22-.5-.5.22-.5.5-.5.5.22.5.5zm-2 0c0 .28-.22.5-.5.5s-.5-.22-.5-.5.22-.5.5-.5.5.22.5.5zm-2 0c0 .28-.22.5-.5.5s-.5-.22-.5-.5.22-.5.5-.5.5.22.5.5zm-2 0c0 .28-.22.5-.5.5s-.5-.22-.5-.5.22-.5.5-.5.5.22.5.5zm-2 0c0 .28-.22.5-.5.5s-.5-.22-.5-.5.22-.5.5-.5.5.22.5.5zm-1.8-.5c0 .3-.22.5-.5.5s-.5-.2-.5-.5c0-.26.22-.5.5-.5s.5.24.5.5zm-1.65-.74c0 .28-.22.5-.5.5-.27 0-.5-.22-.5-.5 0-.27.23-.5.5-.5.28 0 .5.23.5.5zm-1.3-1.3c0 .26-.24.5-.5.5-.3 0-.5-.24-.5-.5 0-.3.2-.5.5-.5.26 0 .5.2.5.5zm-.76-1.66c0 .28-.23.5-.5.5-.28 0-.5-.22-.5-.5s.22-.5.5-.5c.27 0 .5.22.5.5zm-.5-1.8c0 .28-.2.5-.5.5-.27 0-.5-.22-.5-.5s.23-.5.5-.5c.3 0 .5.22.5.5zm0-2c0 .28-.2.5-.5.5-.27 0-.5-.22-.5-.5s.23-.5.5-.5c.3 0 .5.22.5.5zm0-2c0 .28-.2.5-.5.5-.27 0-.5-.22-.5-.5s.23-.5.5-.5c.3 0 .5.22.5.5zm0-2c0 .28-.2.5-.5.5-.27 0-.5-.22-.5-.5s.23-.5.5-.5c.3 0 .5.22.5.5zM811.75 270c0 .28-.22.5-.5.5s-.5-.22-.5-.5.22-.5.5-.5.5.22.5.5zm2 0c0 .28-.22.5-.5.5s-.5-.22-.5-.5.22-.5.5-.5.5.22.5.5zm2 0c0 .28-.22.5-.5.5s-.5-.22-.5-.5.22-.5.5-.5.5.22.5.5zm2 0c0 .28-.22.5-.5.5s-.5-.22-.5-.5.22-.5.5-.5.5.22.5.5zm2 0c0 .28-.22.5-.5.5s-.5-.22-.5-.5.22-.5.5-.5.5.22.5.5zm2 0c0 .28-.22.5-.5.5s-.5-.22-.5-.5.22-.5.5-.5.5.22.5.5zm2 0c0 .28-.22.5-.5.5s-.5-.22-.5-.5.22-.5.5-.5.5.22.5.5zm2 0c0 .28-.22.5-.5.5s-.5-.22-.5-.5.22-.5.5-.5.5.22.5.5zm2 0c0 .28-.22.5-.5.5s-.5-.22-.5-.5.22-.5.5-.5.5.22.5.5z" fill="#5e5e5e"/><path d="M811.26 270.5h-.5v-1h.5zM829.75 270.5h-.5v-1h.5zM851.75 270c0 .28-.22.5-.5.5s-.5-.22-.5-.5.22-.5.5-.5.5.22.5.5zm2 0c0 .28-.22.5-.5.5s-.5-.22-.5-.5.22-.5.5-.5.5.22.5.5zm2 0c0 .28-.22.5-.5.5s-.5-.22-.5-.5.22-.5.5-.5.5.22.5.5zm2 0c0 .28-.22.5-.5.5s-.5-.22-.5-.5.22-.5.5-.5.5.22.5.5zm2 0c0 .28-.22.5-.5.5s-.5-.22-.5-.5.22-.5.5-.5.5.22.5.5zm2 0c0 .28-.22.5-.5.5s-.5-.22-.5-.5.22-.5.5-.5.5.22.5.5zm2 0c0 .28-.22.5-.5.5s-.5-.22-.5-.5.22-.5.5-.5.5.22.5.5zm2 0c0 .28-.22.5-.5.5s-.5-.22-.5-.5.22-.5.5-.5.5.22.5.5zm2 0c0 .28-.22.5-.5.5s-.5-.22-.5-.5.22-.5.5-.5.5.22.5.5z" fill="#5e5e5e"/><path d="M851.26 270.5h-.5v-1h.5zM869.75 270.5h-.5v-1h.5zM891.75 270c0 .28-.22.5-.5.5s-.5-.22-.5-.5.22-.5.5-.5.5.22.5.5zm2 0c0 .28-.22.5-.5.5s-.5-.22-.5-.5.22-.5.5-.5.5.22.5.5zm2 0c0 .28-.22.5-.5.5s-.5-.22-.5-.5.22-.5.5-.5.5.22.5.5zm2 0c0 .28-.22.5-.5.5s-.5-.22-.5-.5.22-.5.5-.5.5.22.5.5zm2 0c0 .28-.22.5-.5.5s-.5-.22-.5-.5.22-.5.5-.5.5.22.5.5zm2 0c0 .28-.22.5-.5.5s-.5-.22-.5-.5.22-.5.5-.5.5.22.5.5zm2 0c0 .28-.22.5-.5.5s-.5-.22-.5-.5.22-.5.5-.5.5.22.5.5zm2 0c0 .28-.22.5-.5.5s-.5-.22-.5-.5.22-.5.5-.5.5.22.5.5zm2 0c0 .28-.22.5-.5.5s-.5-.22-.5-.5.22-.5.5-.5.5.22.5.5z" fill="#5e5e5e"/><path d="M891.26 270.5h-.5v-1h.5zM909.75 270.5h-.5v-1h.5z" fill="#5e5e5e"/><path d="M949.75 266c0-3.3 2.7-6 6-6h8c3.3 0 6 2.7 6 6v8c0 3.3-2.7 6-6 6h-8c-3.3 0-6-2.7-6-6z" fill-opacity="0"/><path d="M950.25 266c0 .28-.22.5-.5.5s-.5-.22-.5-.5.22-.5.5-.5.5.22.5.5zm.5-1.8c0 .28-.24.5-.5.5-.3 0-.5-.22-.5-.5s.2-.5.5-.5c.26 0 .5.22.5.5zm.74-1.65c0 .28-.24.5-.5.5-.3 0-.5-.22-.5-.5 0-.27.2-.5.5-.5.26 0 .5.23.5.5zm1.3-1.3c0 .26-.22.5-.5.5-.27 0-.5-.24-.5-.5 0-.3.23-.5.5-.5.28 0 .5.2.5.5zm1.65-.76c0 .26-.22.5-.5.5s-.5-.24-.5-.5c0-.3.22-.5.5-.5s.5.2.5.5zm1.8-.5c0 .28-.22.5-.5.5s-.5-.22-.5-.5.22-.5.5-.5.5.22.5.5zm2 0c0 .28-.22.5-.5.5s-.5-.22-.5-.5.22-.5.5-.5.5.22.5.5zm2 0c0 .28-.22.5-.5.5s-.5-.22-.5-.5.22-.5.5-.5.5.22.5.5zm2 0c0 .28-.22.5-.5.5s-.5-.22-.5-.5.22-.5.5-.5.5.22.5.5zm2 0c0 .28-.22.5-.5.5s-.5-.22-.5-.5.22-.5.5-.5.5.22.5.5zm1.8.5c0 .26-.22.5-.5.5s-.5-.24-.5-.5c0-.3.22-.5.5-.5s.5.2.5.5zm1.65.74c0 .27-.23.5-.5.5-.28 0-.5-.23-.5-.5 0-.28.22-.5.5-.5.27 0 .5.22.5.5zm1.3 1.3c0 .3-.2.5-.5.5-.26 0-.5-.2-.5-.5 0-.26.24-.5.5-.5.3 0 .5.24.5.5zm.76 1.66c0 .28-.22.5-.5.5-.27 0-.5-.22-.5-.5s.23-.5.5-.5c.28 0 .5.22.5.5zm.5 1.8c0 .28-.23.5-.5.5-.3 0-.5-.22-.5-.5s.2-.5.5-.5c.27 0 .5.22.5.5zm0 2c0 .28-.23.5-.5.5-.3 0-.5-.22-.5-.5s.2-.5.5-.5c.27 0 .5.22.5.5zm0 2c0 .28-.23.5-.5.5-.3 0-.5-.22-.5-.5s.2-.5.5-.5c.27 0 .5.22.5.5zm0 2c0 .28-.23.5-.5.5-.3 0-.5-.22-.5-.5s.2-.5.5-.5c.27 0 .5.22.5.5zm0 2c0 .28-.23.5-.5.5-.3 0-.5-.22-.5-.5s.2-.5.5-.5c.27 0 .5.22.5.5zm-.5 1.8c0 .28-.22.5-.5.5-.27 0-.5-.22-.5-.5s.23-.5.5-.5c.28 0 .5.22.5.5zm-.75 1.65c0 .27-.2.5-.5.5-.26 0-.5-.23-.5-.5 0-.28.24-.5.5-.5.3 0 .5.22.5.5zm-1.3 1.3c0 .3-.23.5-.5.5-.28 0-.5-.2-.5-.5 0-.26.22-.5.5-.5.27 0 .5.24.5.5zm-1.65.76c0 .3-.22.5-.5.5s-.5-.2-.5-.5c0-.26.22-.5.5-.5s.5.24.5.5zm-1.8.5c0 .28-.22.5-.5.5s-.5-.22-.5-.5.22-.5.5-.5.5.22.5.5zm-2 0c0 .28-.22.5-.5.5s-.5-.22-.5-.5.22-.5.5-.5.5.22.5.5zm-2 0c0 .28-.22.5-.5.5s-.5-.22-.5-.5.22-.5.5-.5.5.22.5.5zm-2 0c0 .28-.22.5-.5.5s-.5-.22-.5-.5.22-.5.5-.5.5.22.5.5zm-2 0c0 .28-.22.5-.5.5s-.5-.22-.5-.5.22-.5.5-.5.5.22.5.5zm-1.8-.5c0 .3-.22.5-.5.5s-.5-.2-.5-.5c0-.26.22-.5.5-.5s.5.24.5.5zm-1.65-.74c0 .28-.22.5-.5.5-.27 0-.5-.22-.5-.5 0-.27.23-.5.5-.5.28 0 .5.23.5.5zm-1.3-1.3c0 .26-.24.5-.5.5-.3 0-.5-.24-.5-.5 0-.3.2-.5.5-.5.26 0 .5.2.5.5zm-.76-1.66c0 .28-.23.5-.5.5-.28 0-.5-.22-.5-.5s.22-.5.5-.5c.27 0 .5.22.5.5zm-.5-1.8c0 .28-.2.5-.5.5-.27 0-.5-.22-.5-.5s.23-.5.5-.5c.3 0 .5.22.5.5zm0-2c0 .28-.2.5-.5.5-.27 0-.5-.22-.5-.5s.23-.5.5-.5c.3 0 .5.22.5.5zm0-2c0 .28-.2.5-.5.5-.27 0-.5-.22-.5-.5s.23-.5.5-.5c.3 0 .5.22.5.5zm0-2c0 .28-.2.5-.5.5-.27 0-.5-.22-.5-.5s.23-.5.5-.5c.3 0 .5.22.5.5z" fill="#5e5e5e"/><path d="M989.75 266c0-3.3 2.7-6 6-6h8c3.3 0 6 2.7 6 6v8c0 3.3-2.7 6-6 6h-8c-3.3 0-6-2.7-6-6z" fill-opacity="0"/><path d="M990.25 266c0 .28-.22.5-.5.5s-.5-.22-.5-.5.22-.5.5-.5.5.22.5.5zm.5-1.8c0 .28-.24.5-.5.5-.3 0-.5-.22-.5-.5s.2-.5.5-.5c.26 0 .5.22.5.5zm.74-1.65c0 .28-.24.5-.5.5-.3 0-.5-.22-.5-.5 0-.27.2-.5.5-.5.26 0 .5.23.5.5zm1.3-1.3c0 .26-.22.5-.5.5-.27 0-.5-.24-.5-.5 0-.3.23-.5.5-.5.28 0 .5.2.5.5zm1.65-.76c0 .26-.22.5-.5.5s-.5-.24-.5-.5c0-.3.22-.5.5-.5s.5.2.5.5zm1.8-.5c0 .28-.22.5-.5.5s-.5-.22-.5-.5.22-.5.5-.5.5.22.5.5zm2 0c0 .28-.22.5-.5.5s-.5-.22-.5-.5.22-.5.5-.5.5.22.5.5zm2 0c0 .28-.22.5-.5.5s-.5-.22-.5-.5.22-.5.5-.5.5.22.5.5zm2 0c0 .28-.22.5-.5.5s-.5-.22-.5-.5.22-.5.5-.5.5.22.5.5zm2 0c0 .28-.22.5-.5.5s-.5-.22-.5-.5.22-.5.5-.5.5.22.5.5zm1.8.5c0 .26-.22.5-.5.5s-.5-.24-.5-.5c0-.3.22-.5.5-.5s.5.2.5.5zm1.65.74c0 .27-.23.5-.5.5-.28 0-.5-.23-.5-.5 0-.28.22-.5.5-.5.27 0 .5.22.5.5zm1.3 1.3c0 .3-.2.5-.5.5-.26 0-.5-.2-.5-.5 0-.26.24-.5.5-.5.3 0 .5.24.5.5zm.76 1.66c0 .28-.22.5-.5.5-.27 0-.5-.22-.5-.5s.23-.5.5-.5c.28 0 .5.22.5.5zm.5 1.8c0 .28-.23.5-.5.5-.3 0-.5-.22-.5-.5s.2-.5.5-.5c.27 0 .5.22.5.5zm0 2c0 .28-.23.5-.5.5-.3 0-.5-.22-.5-.5s.2-.5.5-.5c.27 0 .5.22.5.5zm0 2c0 .28-.23.5-.5.5-.3 0-.5-.22-.5-.5s.2-.5.5-.5c.27 0 .5.22.5.5zm0 2c0 .28-.23.5-.5.5-.3 0-.5-.22-.5-.5s.2-.5.5-.5c.27 0 .5.22.5.5zm0 2c0 .28-.23.5-.5.5-.3 0-.5-.22-.5-.5s.2-.5.5-.5c.27 0 .5.22.5.5zm-.5 1.8c0 .28-.22.5-.5.5-.27 0-.5-.22-.5-.5s.23-.5.5-.5c.28 0 .5.22.5.5zm-.75 1.65c0 .27-.2.5-.5.5-.26 0-.5-.23-.5-.5 0-.28.24-.5.5-.5.3 0 .5.22.5.5zm-1.3 1.3c0 .3-.23.5-.5.5-.28 0-.5-.2-.5-.5 0-.26.22-.5.5-.5.27 0 .5.24.5.5zm-1.65.76c0 .3-.22.5-.5.5s-.5-.2-.5-.5c0-.26.22-.5.5-.5s.5.24.5.5zm-1.8.5c0 .28-.22.5-.5.5s-.5-.22-.5-.5.22-.5.5-.5.5.22.5.5zm-2 0c0 .28-.22.5-.5.5s-.5-.22-.5-.5.22-.5.5-.5.5.22.5.5zm-2 0c0 .28-.22.5-.5.5s-.5-.22-.5-.5.22-.5.5-.5.5.22.5.5zm-2 0c0 .28-.22.5-.5.5s-.5-.22-.5-.5.22-.5.5-.5.5.22.5.5zm-2 0c0 .28-.22.5-.5.5s-.5-.22-.5-.5.22-.5.5-.5.5.22.5.5zm-1.8-.5c0 .3-.22.5-.5.5s-.5-.2-.5-.5c0-.26.22-.5.5-.5s.5.24.5.5zm-1.65-.74c0 .28-.22.5-.5.5-.27 0-.5-.22-.5-.5 0-.27.23-.5.5-.5.28 0 .5.23.5.5zm-1.3-1.3c0 .26-.24.5-.5.5-.3 0-.5-.24-.5-.5 0-.3.2-.5.5-.5.26 0 .5.2.5.5zm-.76-1.66c0 .28-.23.5-.5.5-.28 0-.5-.22-.5-.5s.22-.5.5-.5c.27 0 .5.22.5.5zm-.5-1.8c0 .28-.2.5-.5.5-.27 0-.5-.22-.5-.5s.23-.5.5-.5c.3 0 .5.22.5.5zm0-2c0 .28-.2.5-.5.5-.27 0-.5-.22-.5-.5s.23-.5.5-.5c.3 0 .5.22.5.5zm0-2c0 .28-.2.5-.5.5-.27 0-.5-.22-.5-.5s.23-.5.5-.5c.3 0 .5.22.5.5zm0-2c0 .28-.2.5-.5.5-.27 0-.5-.22-.5-.5s.23-.5.5-.5c.3 0 .5.22.5.5z" fill="#5e5e5e"/><path d="M1029.75 266c0-3.3 2.7-6 6-6h8c3.3 0 6 2.7 6 6v8c0 3.3-2.7 6-6 6h-8c-3.3 0-6-2.7-6-6z" fill-opacity="0"/><path d="M1030.25 266c0 .28-.22.5-.5.5s-.5-.22-.5-.5.22-.5.5-.5.5.22.5.5zm.5-1.8c0 .28-.24.5-.5.5-.3 0-.5-.22-.5-.5s.2-.5.5-.5c.26 0 .5.22.5.5zm.74-1.65c0 .28-.24.5-.5.5-.3 0-.5-.22-.5-.5 0-.27.2-.5.5-.5.26 0 .5.23.5.5zm1.3-1.3c0 .26-.22.5-.5.5-.27 0-.5-.24-.5-.5 0-.3.23-.5.5-.5.28 0 .5.2.5.5zm1.65-.76c0 .26-.22.5-.5.5s-.5-.24-.5-.5c0-.3.22-.5.5-.5s.5.2.5.5zm1.8-.5c0 .28-.22.5-.5.5s-.5-.22-.5-.5.22-.5.5-.5.5.22.5.5zm2 0c0 .28-.22.5-.5.5s-.5-.22-.5-.5.22-.5.5-.5.5.22.5.5zm2 0c0 .28-.22.5-.5.5s-.5-.22-.5-.5.22-.5.5-.5.5.22.5.5zm2 0c0 .28-.22.5-.5.5s-.5-.22-.5-.5.22-.5.5-.5.5.22.5.5zm2 0c0 .28-.22.5-.5.5s-.5-.22-.5-.5.22-.5.5-.5.5.22.5.5zm1.8.5c0 .26-.22.5-.5.5s-.5-.24-.5-.5c0-.3.22-.5.5-.5s.5.2.5.5zm1.65.74c0 .27-.23.5-.5.5-.28 0-.5-.23-.5-.5 0-.28.22-.5.5-.5.27 0 .5.22.5.5zm1.3 1.3c0 .3-.2.5-.5.5-.26 0-.5-.2-.5-.5 0-.26.24-.5.5-.5.3 0 .5.24.5.5zm.76 1.66c0 .28-.22.5-.5.5-.27 0-.5-.22-.5-.5s.23-.5.5-.5c.28 0 .5.22.5.5zm.5 1.8c0 .28-.23.5-.5.5-.3 0-.5-.22-.5-.5s.2-.5.5-.5c.27 0 .5.22.5.5zm0 2c0 .28-.23.5-.5.5-.3 0-.5-.22-.5-.5s.2-.5.5-.5c.27 0 .5.22.5.5zm0 2c0 .28-.23.5-.5.5-.3 0-.5-.22-.5-.5s.2-.5.5-.5c.27 0 .5.22.5.5zm0 2c0 .28-.23.5-.5.5-.3 0-.5-.22-.5-.5s.2-.5.5-.5c.27 0 .5.22.5.5zm0 2c0 .28-.23.5-.5.5-.3 0-.5-.22-.5-.5s.2-.5.5-.5c.27 0 .5.22.5.5zm-.5 1.8c0 .28-.22.5-.5.5-.27 0-.5-.22-.5-.5s.23-.5.5-.5c.28 0 .5.22.5.5zm-.75 1.65c0 .27-.2.5-.5.5-.26 0-.5-.23-.5-.5 0-.28.24-.5.5-.5.3 0 .5.22.5.5zm-1.3 1.3c0 .3-.23.5-.5.5-.28 0-.5-.2-.5-.5 0-.26.22-.5.5-.5.27 0 .5.24.5.5zm-1.65.76c0 .3-.22.5-.5.5s-.5-.2-.5-.5c0-.26.22-.5.5-.5s.5.24.5.5zm-1.8.5c0 .28-.22.5-.5.5s-.5-.22-.5-.5.22-.5.5-.5.5.22.5.5zm-2 0c0 .28-.22.5-.5.5s-.5-.22-.5-.5.22-.5.5-.5.5.22.5.5zm-2 0c0 .28-.22.5-.5.5s-.5-.22-.5-.5.22-.5.5-.5.5.22.5.5zm-2 0c0 .28-.22.5-.5.5s-.5-.22-.5-.5.22-.5.5-.5.5.22.5.5zm-2 0c0 .28-.22.5-.5.5s-.5-.22-.5-.5.22-.5.5-.5.5.22.5.5zm-1.8-.5c0 .3-.22.5-.5.5s-.5-.2-.5-.5c0-.26.22-.5.5-.5s.5.24.5.5zm-1.65-.74c0 .28-.22.5-.5.5-.27 0-.5-.22-.5-.5 0-.27.23-.5.5-.5.28 0 .5.23.5.5zm-1.3-1.3c0 .26-.24.5-.5.5-.3 0-.5-.24-.5-.5 0-.3.2-.5.5-.5.26 0 .5.2.5.5zm-.76-1.66c0 .28-.23.5-.5.5-.28 0-.5-.22-.5-.5s.22-.5.5-.5c.27 0 .5.22.5.5zm-.5-1.8c0 .28-.2.5-.5.5-.27 0-.5-.22-.5-.5s.23-.5.5-.5c.3 0 .5.22.5.5zm0-2c0 .28-.2.5-.5.5-.27 0-.5-.22-.5-.5s.23-.5.5-.5c.3 0 .5.22.5.5zm0-2c0 .28-.2.5-.5.5-.27 0-.5-.22-.5-.5s.23-.5.5-.5c.3 0 .5.22.5.5zm0-2c0 .28-.2.5-.5.5-.27 0-.5-.22-.5-.5s.23-.5.5-.5c.3 0 .5.22.5.5zM931.25 270c0 .28-.22.5-.5.5s-.5-.22-.5-.5.22-.5.5-.5.5.22.5.5zm2 0c0 .28-.22.5-.5.5s-.5-.22-.5-.5.22-.5.5-.5.5.22.5.5zm2 0c0 .28-.22.5-.5.5s-.5-.22-.5-.5.22-.5.5-.5.5.22.5.5zm2 0c0 .28-.22.5-.5.5s-.5-.22-.5-.5.22-.5.5-.5.5.22.5.5zm2 0c0 .28-.22.5-.5.5s-.5-.22-.5-.5.22-.5.5-.5.5.22.5.5zm2 0c0 .28-.22.5-.5.5s-.5-.22-.5-.5.22-.5.5-.5.5.22.5.5zm2 0c0 .28-.22.5-.5.5s-.5-.22-.5-.5.22-.5.5-.5.5.22.5.5zm2 0c0 .28-.22.5-.5.5s-.5-.22-.5-.5.22-.5.5-.5.5.22.5.5zm2 0c0 .28-.22.5-.5.5s-.5-.22-.5-.5.22-.5.5-.5.5.22.5.5z" fill="#5e5e5e"/><path d="M930.76 270h-.5" stroke="#5e5e5e" fill="none"/><path d="M949.25 270.5h-.5v-1h.5zM971.25 270c0 .28-.22.5-.5.5s-.5-.22-.5-.5.22-.5.5-.5.5.22.5.5zm2 0c0 .28-.22.5-.5.5s-.5-.22-.5-.5.22-.5.5-.5.5.22.5.5zm2 0c0 .28-.22.5-.5.5s-.5-.22-.5-.5.22-.5.5-.5.5.22.5.5zm2 0c0 .28-.22.5-.5.5s-.5-.22-.5-.5.22-.5.5-.5.5.22.5.5zm2 0c0 .28-.22.5-.5.5s-.5-.22-.5-.5.22-.5.5-.5.5.22.5.5zm2 0c0 .28-.22.5-.5.5s-.5-.22-.5-.5.22-.5.5-.5.5.22.5.5zm2 0c0 .28-.22.5-.5.5s-.5-.22-.5-.5.22-.5.5-.5.5.22.5.5zm2 0c0 .28-.22.5-.5.5s-.5-.22-.5-.5.22-.5.5-.5.5.22.5.5zm2 0c0 .28-.22.5-.5.5s-.5-.22-.5-.5.22-.5.5-.5.5.22.5.5z" fill="#5e5e5e"/><path d="M970.76 270.5h-.5v-1h.5zM989.25 270.5h-.5v-1h.5zM1011.25 270c0 .28-.22.5-.5.5s-.5-.22-.5-.5.22-.5.5-.5.5.22.5.5zm2 0c0 .28-.22.5-.5.5s-.5-.22-.5-.5.22-.5.5-.5.5.22.5.5zm2 0c0 .28-.22.5-.5.5s-.5-.22-.5-.5.22-.5.5-.5.5.22.5.5zm2 0c0 .28-.22.5-.5.5s-.5-.22-.5-.5.22-.5.5-.5.5.22.5.5zm2 0c0 .28-.22.5-.5.5s-.5-.22-.5-.5.22-.5.5-.5.5.22.5.5zm2 0c0 .28-.22.5-.5.5s-.5-.22-.5-.5.22-.5.5-.5.5.22.5.5zm2 0c0 .28-.22.5-.5.5s-.5-.22-.5-.5.22-.5.5-.5.5.22.5.5zm2 0c0 .28-.22.5-.5.5s-.5-.22-.5-.5.22-.5.5-.5.5.22.5.5zm2 0c0 .28-.22.5-.5.5s-.5-.22-.5-.5.22-.5.5-.5.5.22.5.5z" fill="#5e5e5e"/><path d="M1010.76 270.5h-.5v-1h.5zM1029.25 270.5h-.5v-1h.5z" fill="#5e5e5e"/><path d="M1069.75 266c0-3.3 2.7-6 6-6h8c3.3 0 6 2.7 6 6v8c0 3.3-2.7 6-6 6h-8c-3.3 0-6-2.7-6-6z" fill-opacity="0"/><path d="M1070.25 266c0 .28-.22.5-.5.5s-.5-.22-.5-.5.22-.5.5-.5.5.22.5.5zm.5-1.8c0 .28-.24.5-.5.5-.3 0-.5-.22-.5-.5s.2-.5.5-.5c.26 0 .5.22.5.5zm.74-1.65c0 .28-.24.5-.5.5-.3 0-.5-.22-.5-.5 0-.27.2-.5.5-.5.26 0 .5.23.5.5zm1.3-1.3c0 .26-.22.5-.5.5-.27 0-.5-.24-.5-.5 0-.3.23-.5.5-.5.28 0 .5.2.5.5zm1.65-.76c0 .26-.22.5-.5.5s-.5-.24-.5-.5c0-.3.22-.5.5-.5s.5.2.5.5zm1.8-.5c0 .28-.22.5-.5.5s-.5-.22-.5-.5.22-.5.5-.5.5.22.5.5zm2 0c0 .28-.22.5-.5.5s-.5-.22-.5-.5.22-.5.5-.5.5.22.5.5zm2 0c0 .28-.22.5-.5.5s-.5-.22-.5-.5.22-.5.5-.5.5.22.5.5zm2 0c0 .28-.22.5-.5.5s-.5-.22-.5-.5.22-.5.5-.5.5.22.5.5zm2 0c0 .28-.22.5-.5.5s-.5-.22-.5-.5.22-.5.5-.5.5.22.5.5zm1.8.5c0 .26-.22.5-.5.5s-.5-.24-.5-.5c0-.3.22-.5.5-.5s.5.2.5.5zm1.65.74c0 .27-.23.5-.5.5-.28 0-.5-.23-.5-.5 0-.28.22-.5.5-.5.27 0 .5.22.5.5zm1.3 1.3c0 .3-.2.5-.5.5-.26 0-.5-.2-.5-.5 0-.26.24-.5.5-.5.3 0 .5.24.5.5zm.76 1.66c0 .28-.22.5-.5.5-.27 0-.5-.22-.5-.5s.23-.5.5-.5c.28 0 .5.22.5.5zm.5 1.8c0 .28-.23.5-.5.5-.3 0-.5-.22-.5-.5s.2-.5.5-.5c.27 0 .5.22.5.5zm0 2c0 .28-.23.5-.5.5-.3 0-.5-.22-.5-.5s.2-.5.5-.5c.27 0 .5.22.5.5zm0 2c0 .28-.23.5-.5.5-.3 0-.5-.22-.5-.5s.2-.5.5-.5c.27 0 .5.22.5.5zm0 2c0 .28-.23.5-.5.5-.3 0-.5-.22-.5-.5s.2-.5.5-.5c.27 0 .5.22.5.5zm0 2c0 .28-.23.5-.5.5-.3 0-.5-.22-.5-.5s.2-.5.5-.5c.27 0 .5.22.5.5zm-.5 1.8c0 .28-.22.5-.5.5-.27 0-.5-.22-.5-.5s.23-.5.5-.5c.28 0 .5.22.5.5zm-.75 1.65c0 .27-.2.5-.5.5-.26 0-.5-.23-.5-.5 0-.28.24-.5.5-.5.3 0 .5.22.5.5zm-1.3 1.3c0 .3-.23.5-.5.5-.28 0-.5-.2-.5-.5 0-.26.22-.5.5-.5.27 0 .5.24.5.5zm-1.65.76c0 .3-.22.5-.5.5s-.5-.2-.5-.5c0-.26.22-.5.5-.5s.5.24.5.5zm-1.8.5c0 .28-.22.5-.5.5s-.5-.22-.5-.5.22-.5.5-.5.5.22.5.5zm-2 0c0 .28-.22.5-.5.5s-.5-.22-.5-.5.22-.5.5-.5.5.22.5.5zm-2 0c0 .28-.22.5-.5.5s-.5-.22-.5-.5.22-.5.5-.5.5.22.5.5zm-2 0c0 .28-.22.5-.5.5s-.5-.22-.5-.5.22-.5.5-.5.5.22.5.5zm-2 0c0 .28-.22.5-.5.5s-.5-.22-.5-.5.22-.5.5-.5.5.22.5.5zm-1.8-.5c0 .3-.22.5-.5.5s-.5-.2-.5-.5c0-.26.22-.5.5-.5s.5.24.5.5zm-1.65-.74c0 .28-.22.5-.5.5-.27 0-.5-.22-.5-.5 0-.27.23-.5.5-.5.28 0 .5.23.5.5zm-1.3-1.3c0 .26-.24.5-.5.5-.3 0-.5-.24-.5-.5 0-.3.2-.5.5-.5.26 0 .5.2.5.5zm-.76-1.66c0 .28-.23.5-.5.5-.28 0-.5-.22-.5-.5s.22-.5.5-.5c.27 0 .5.22.5.5zm-.5-1.8c0 .28-.2.5-.5.5-.27 0-.5-.22-.5-.5s.23-.5.5-.5c.3 0 .5.22.5.5zm0-2c0 .28-.2.5-.5.5-.27 0-.5-.22-.5-.5s.23-.5.5-.5c.3 0 .5.22.5.5zm0-2c0 .28-.2.5-.5.5-.27 0-.5-.22-.5-.5s.23-.5.5-.5c.3 0 .5.22.5.5zm0-2c0 .28-.2.5-.5.5-.27 0-.5-.22-.5-.5s.23-.5.5-.5c.3 0 .5.22.5.5z" fill="#5e5e5e"/><path d="M1109.75 266c0-3.3 2.7-6 6-6h8c3.3 0 6 2.7 6 6v8c0 3.3-2.7 6-6 6h-8c-3.3 0-6-2.7-6-6z" fill-opacity="0"/><path d="M1110.25 266c0 .28-.22.5-.5.5s-.5-.22-.5-.5.22-.5.5-.5.5.22.5.5zm.5-1.8c0 .28-.24.5-.5.5-.3 0-.5-.22-.5-.5s.2-.5.5-.5c.26 0 .5.22.5.5zm.74-1.65c0 .28-.24.5-.5.5-.3 0-.5-.22-.5-.5 0-.27.2-.5.5-.5.26 0 .5.23.5.5zm1.3-1.3c0 .26-.22.5-.5.5-.27 0-.5-.24-.5-.5 0-.3.23-.5.5-.5.28 0 .5.2.5.5zm1.65-.76c0 .26-.22.5-.5.5s-.5-.24-.5-.5c0-.3.22-.5.5-.5s.5.2.5.5zm1.8-.5c0 .28-.22.5-.5.5s-.5-.22-.5-.5.22-.5.5-.5.5.22.5.5zm2 0c0 .28-.22.5-.5.5s-.5-.22-.5-.5.22-.5.5-.5.5.22.5.5zm2 0c0 .28-.22.5-.5.5s-.5-.22-.5-.5.22-.5.5-.5.5.22.5.5zm2 0c0 .28-.22.5-.5.5s-.5-.22-.5-.5.22-.5.5-.5.5.22.5.5zm2 0c0 .28-.22.5-.5.5s-.5-.22-.5-.5.22-.5.5-.5.5.22.5.5zm1.8.5c0 .26-.22.5-.5.5s-.5-.24-.5-.5c0-.3.22-.5.5-.5s.5.2.5.5zm1.65.74c0 .27-.23.5-.5.5-.28 0-.5-.23-.5-.5 0-.28.22-.5.5-.5.27 0 .5.22.5.5zm1.3 1.3c0 .3-.2.5-.5.5-.26 0-.5-.2-.5-.5 0-.26.24-.5.5-.5.3 0 .5.24.5.5zm.76 1.66c0 .28-.22.5-.5.5-.27 0-.5-.22-.5-.5s.23-.5.5-.5c.28 0 .5.22.5.5zm.5 1.8c0 .28-.23.5-.5.5-.3 0-.5-.22-.5-.5s.2-.5.5-.5c.27 0 .5.22.5.5zm0 2c0 .28-.23.5-.5.5-.3 0-.5-.22-.5-.5s.2-.5.5-.5c.27 0 .5.22.5.5zm0 2c0 .28-.23.5-.5.5-.3 0-.5-.22-.5-.5s.2-.5.5-.5c.27 0 .5.22.5.5zm0 2c0 .28-.23.5-.5.5-.3 0-.5-.22-.5-.5s.2-.5.5-.5c.27 0 .5.22.5.5zm0 2c0 .28-.23.5-.5.5-.3 0-.5-.22-.5-.5s.2-.5.5-.5c.27 0 .5.22.5.5zm-.5 1.8c0 .28-.22.5-.5.5-.27 0-.5-.22-.5-.5s.23-.5.5-.5c.28 0 .5.22.5.5zm-.75 1.65c0 .27-.2.5-.5.5-.26 0-.5-.23-.5-.5 0-.28.24-.5.5-.5.3 0 .5.22.5.5zm-1.3 1.3c0 .3-.23.5-.5.5-.28 0-.5-.2-.5-.5 0-.26.22-.5.5-.5.27 0 .5.24.5.5zm-1.65.76c0 .3-.22.5-.5.5s-.5-.2-.5-.5c0-.26.22-.5.5-.5s.5.24.5.5zm-1.8.5c0 .28-.22.5-.5.5s-.5-.22-.5-.5.22-.5.5-.5.5.22.5.5zm-2 0c0 .28-.22.5-.5.5s-.5-.22-.5-.5.22-.5.5-.5.5.22.5.5zm-2 0c0 .28-.22.5-.5.5s-.5-.22-.5-.5.22-.5.5-.5.5.22.5.5zm-2 0c0 .28-.22.5-.5.5s-.5-.22-.5-.5.22-.5.5-.5.5.22.5.5zm-2 0c0 .28-.22.5-.5.5s-.5-.22-.5-.5.22-.5.5-.5.5.22.5.5zm-1.8-.5c0 .3-.22.5-.5.5s-.5-.2-.5-.5c0-.26.22-.5.5-.5s.5.24.5.5zm-1.65-.74c0 .28-.22.5-.5.5-.27 0-.5-.22-.5-.5 0-.27.23-.5.5-.5.28 0 .5.23.5.5zm-1.3-1.3c0 .26-.24.5-.5.5-.3 0-.5-.24-.5-.5 0-.3.2-.5.5-.5.26 0 .5.2.5.5zm-.76-1.66c0 .28-.23.5-.5.5-.28 0-.5-.22-.5-.5s.22-.5.5-.5c.27 0 .5.22.5.5zm-.5-1.8c0 .28-.2.5-.5.5-.27 0-.5-.22-.5-.5s.23-.5.5-.5c.3 0 .5.22.5.5zm0-2c0 .28-.2.5-.5.5-.27 0-.5-.22-.5-.5s.23-.5.5-.5c.3 0 .5.22.5.5zm0-2c0 .28-.2.5-.5.5-.27 0-.5-.22-.5-.5s.23-.5.5-.5c.3 0 .5.22.5.5zm0-2c0 .28-.2.5-.5.5-.27 0-.5-.22-.5-.5s.23-.5.5-.5c.3 0 .5.22.5.5z" fill="#5e5e5e"/><path d="M1149.75 266c0-3.3 2.7-6 6-6h8c3.3 0 6 2.7 6 6v8c0 3.3-2.7 6-6 6h-8c-3.3 0-6-2.7-6-6z" fill-opacity="0"/><path d="M1150.25 266c0 .28-.22.5-.5.5s-.5-.22-.5-.5.22-.5.5-.5.5.22.5.5zm.5-1.8c0 .28-.24.5-.5.5-.3 0-.5-.22-.5-.5s.2-.5.5-.5c.26 0 .5.22.5.5zm.74-1.65c0 .28-.24.5-.5.5-.3 0-.5-.22-.5-.5 0-.27.2-.5.5-.5.26 0 .5.23.5.5zm1.3-1.3c0 .26-.22.5-.5.5-.27 0-.5-.24-.5-.5 0-.3.23-.5.5-.5.28 0 .5.2.5.5zm1.65-.76c0 .26-.22.5-.5.5s-.5-.24-.5-.5c0-.3.22-.5.5-.5s.5.2.5.5zm1.8-.5c0 .28-.22.5-.5.5s-.5-.22-.5-.5.22-.5.5-.5.5.22.5.5zm2 0c0 .28-.22.5-.5.5s-.5-.22-.5-.5.22-.5.5-.5.5.22.5.5zm2 0c0 .28-.22.5-.5.5s-.5-.22-.5-.5.22-.5.5-.5.5.22.5.5zm2 0c0 .28-.22.5-.5.5s-.5-.22-.5-.5.22-.5.5-.5.5.22.5.5zm2 0c0 .28-.22.5-.5.5s-.5-.22-.5-.5.22-.5.5-.5.5.22.5.5zm1.8.5c0 .26-.22.5-.5.5s-.5-.24-.5-.5c0-.3.22-.5.5-.5s.5.2.5.5zm1.65.74c0 .27-.23.5-.5.5-.28 0-.5-.23-.5-.5 0-.28.22-.5.5-.5.27 0 .5.22.5.5zm1.3 1.3c0 .3-.2.5-.5.5-.26 0-.5-.2-.5-.5 0-.26.24-.5.5-.5.3 0 .5.24.5.5zm.76 1.66c0 .28-.22.5-.5.5-.27 0-.5-.22-.5-.5s.23-.5.5-.5c.28 0 .5.22.5.5zm.5 1.8c0 .28-.23.5-.5.5-.3 0-.5-.22-.5-.5s.2-.5.5-.5c.27 0 .5.22.5.5zm0 2c0 .28-.23.5-.5.5-.3 0-.5-.22-.5-.5s.2-.5.5-.5c.27 0 .5.22.5.5zm0 2c0 .28-.23.5-.5.5-.3 0-.5-.22-.5-.5s.2-.5.5-.5c.27 0 .5.22.5.5zm0 2c0 .28-.23.5-.5.5-.3 0-.5-.22-.5-.5s.2-.5.5-.5c.27 0 .5.22.5.5zm0 2c0 .28-.23.5-.5.5-.3 0-.5-.22-.5-.5s.2-.5.5-.5c.27 0 .5.22.5.5zm-.5 1.8c0 .28-.22.5-.5.5-.27 0-.5-.22-.5-.5s.23-.5.5-.5c.28 0 .5.22.5.5zm-.75 1.65c0 .27-.2.5-.5.5-.26 0-.5-.23-.5-.5 0-.28.24-.5.5-.5.3 0 .5.22.5.5zm-1.3 1.3c0 .3-.23.5-.5.5-.28 0-.5-.2-.5-.5 0-.26.22-.5.5-.5.27 0 .5.24.5.5zm-1.65.76c0 .3-.22.5-.5.5s-.5-.2-.5-.5c0-.26.22-.5.5-.5s.5.24.5.5zm-1.8.5c0 .28-.22.5-.5.5s-.5-.22-.5-.5.22-.5.5-.5.5.22.5.5zm-2 0c0 .28-.22.5-.5.5s-.5-.22-.5-.5.22-.5.5-.5.5.22.5.5zm-2 0c0 .28-.22.5-.5.5s-.5-.22-.5-.5.22-.5.5-.5.5.22.5.5zm-2 0c0 .28-.22.5-.5.5s-.5-.22-.5-.5.22-.5.5-.5.5.22.5.5zm-2 0c0 .28-.22.5-.5.5s-.5-.22-.5-.5.22-.5.5-.5.5.22.5.5zm-1.8-.5c0 .3-.22.5-.5.5s-.5-.2-.5-.5c0-.26.22-.5.5-.5s.5.24.5.5zm-1.65-.74c0 .28-.22.5-.5.5-.27 0-.5-.22-.5-.5 0-.27.23-.5.5-.5.28 0 .5.23.5.5zm-1.3-1.3c0 .26-.24.5-.5.5-.3 0-.5-.24-.5-.5 0-.3.2-.5.5-.5.26 0 .5.2.5.5zm-.76-1.66c0 .28-.23.5-.5.5-.28 0-.5-.22-.5-.5s.22-.5.5-.5c.27 0 .5.22.5.5zm-.5-1.8c0 .28-.2.5-.5.5-.27 0-.5-.22-.5-.5s.23-.5.5-.5c.3 0 .5.22.5.5zm0-2c0 .28-.2.5-.5.5-.27 0-.5-.22-.5-.5s.23-.5.5-.5c.3 0 .5.22.5.5zm0-2c0 .28-.2.5-.5.5-.27 0-.5-.22-.5-.5s.23-.5.5-.5c.3 0 .5.22.5.5zm0-2c0 .28-.2.5-.5.5-.27 0-.5-.22-.5-.5s.23-.5.5-.5c.3 0 .5.22.5.5zM1051.25 270c0 .28-.22.5-.5.5s-.5-.22-.5-.5.22-.5.5-.5.5.22.5.5zm2 0c0 .28-.22.5-.5.5s-.5-.22-.5-.5.22-.5.5-.5.5.22.5.5zm2 0c0 .28-.22.5-.5.5s-.5-.22-.5-.5.22-.5.5-.5.5.22.5.5zm2 0c0 .28-.22.5-.5.5s-.5-.22-.5-.5.22-.5.5-.5.5.22.5.5zm2 0c0 .28-.22.5-.5.5s-.5-.22-.5-.5.22-.5.5-.5.5.22.5.5zm2 0c0 .28-.22.5-.5.5s-.5-.22-.5-.5.22-.5.5-.5.5.22.5.5zm2 0c0 .28-.22.5-.5.5s-.5-.22-.5-.5.22-.5.5-.5.5.22.5.5zm2 0c0 .28-.22.5-.5.5s-.5-.22-.5-.5.22-.5.5-.5.5.22.5.5zm2 0c0 .28-.22.5-.5.5s-.5-.22-.5-.5.22-.5.5-.5.5.22.5.5z" fill="#5e5e5e"/><path d="M1050.76 270h-.5" stroke="#5e5e5e" fill="none"/><path d="M1069.25 270.5h-.5v-1h.5zM1091.25 270c0 .28-.22.5-.5.5s-.5-.22-.5-.5.22-.5.5-.5.5.22.5.5zm2 0c0 .28-.22.5-.5.5s-.5-.22-.5-.5.22-.5.5-.5.5.22.5.5zm2 0c0 .28-.22.5-.5.5s-.5-.22-.5-.5.22-.5.5-.5.5.22.5.5zm2 0c0 .28-.22.5-.5.5s-.5-.22-.5-.5.22-.5.5-.5.5.22.5.5zm2 0c0 .28-.22.5-.5.5s-.5-.22-.5-.5.22-.5.5-.5.5.22.5.5zm2 0c0 .28-.22.5-.5.5s-.5-.22-.5-.5.22-.5.5-.5.5.22.5.5zm2 0c0 .28-.22.5-.5.5s-.5-.22-.5-.5.22-.5.5-.5.5.22.5.5zm2 0c0 .28-.22.5-.5.5s-.5-.22-.5-.5.22-.5.5-.5.5.22.5.5zm2 0c0 .28-.22.5-.5.5s-.5-.22-.5-.5.22-.5.5-.5.5.22.5.5z" fill="#5e5e5e"/><path d="M1090.76 270.5h-.5v-1h.5zM1109.25 270.5h-.5v-1h.5zM1131.25 270c0 .28-.22.5-.5.5s-.5-.22-.5-.5.22-.5.5-.5.5.22.5.5zm2 0c0 .28-.22.5-.5.5s-.5-.22-.5-.5.22-.5.5-.5.5.22.5.5zm2 0c0 .28-.22.5-.5.5s-.5-.22-.5-.5.22-.5.5-.5.5.22.5.5zm2 0c0 .28-.22.5-.5.5s-.5-.22-.5-.5.22-.5.5-.5.5.22.5.5zm2 0c0 .28-.22.5-.5.5s-.5-.22-.5-.5.22-.5.5-.5.5.22.5.5zm2 0c0 .28-.22.5-.5.5s-.5-.22-.5-.5.22-.5.5-.5.5.22.5.5zm2 0c0 .28-.22.5-.5.5s-.5-.22-.5-.5.22-.5.5-.5.5.22.5.5zm2 0c0 .28-.22.5-.5.5s-.5-.22-.5-.5.22-.5.5-.5.5.22.5.5zm2 0c0 .28-.22.5-.5.5s-.5-.22-.5-.5.22-.5.5-.5.5.22.5.5z" fill="#5e5e5e"/><path d="M1130.76 270.5h-.5v-1h.5zM1149.25 270.5h-.5v-1h.5z" fill="#5e5e5e"/><path d="M830.25 86c0-3.3 2.7-6 6-6h88c3.3 0 6 2.7 6 6v88c0 3.3-2.7 6-6 6h-88c-3.3 0-6-2.7-6-6z" stroke="#5e5e5e" stroke-width="2" fill="#d1bcd2"/><use xlink:href="#a" transform="matrix(1,0,0,1,835.25,85) translate(25.740740740740748 47.97222222222222)"/><use xlink:href="#b" transform="matrix(1,0,0,1,835.25,85) translate(54.382716049382715 47.97222222222222)"/><path d="M880.07 181.18l-79.64 78.14" stroke="#5e5e5e" stroke-width=".5" fill="none"/><path d="M880.24 181.36l-.35-.36h.7zM800.6 259.5h-.7l.36-.36z" fill="#5e5e5e"/><path d="M880.14 181.22l-39.78 78.06" stroke="#5e5e5e" stroke-width=".5" fill="none"/><path d="M880.36 181.34l-.45-.23.07-.1h.56zM840.6 259.4l-.07.1h-.56l.17-.34z" fill="#5e5e5e"/><path d="M880.25 181.25v78" stroke="#5e5e5e" stroke-width=".5" fill="none"/><path d="M880.5 181.26h-.5V181h.5zM880.5 259.5h-.5v-.26h.5z" fill="#5e5e5e"/><path d="M880.36 181.22l39.78 78.06" stroke="#5e5e5e" stroke-width=".5" fill="none"/><path d="M880.6 181.1l-.46.24-.17-.34h.56zM920.53 259.5h-.56l-.06-.1.46-.24z" fill="#5e5e5e"/><path d="M880.43 181.18l79.14 78.14" stroke="#5e5e5e" stroke-width=".5" fill="none"/><path d="M880.6 181l-.34.36-.37-.36h.7zM960.1 259.5h-.7l.34-.36z" fill="#5e5e5e"/><path d="M1030.25 86c0-3.3 2.7-6 6-6h88c3.3 0 6 2.7 6 6v88c0 3.3-2.7 6-6 6h-88c-3.3 0-6-2.7-6-6z" stroke="#5e5e5e" stroke-width="2" fill="#d1bcd2"/><use xlink:href="#c" transform="matrix(1,0,0,1,1035.25,85.00000000000001) translate(25.740740740740748 47.972222222222214)"/><use xlink:href="#d" transform="matrix(1,0,0,1,1035.25,85.00000000000001) translate(54.38271604938271 47.972222222222214)"/><path d="M1080.07 181.18l-78.64 78.14" stroke="#5e5e5e" stroke-width=".5" fill="none"/><path d="M1080.24 181.36l-.35-.36h.7zM1001.6 259.5h-.7l.36-.36z" fill="#5e5e5e"/><path d="M1080.14 181.22l-40.28 78.06" stroke="#5e5e5e" stroke-width=".5" fill="none"/><path d="M1080.35 181.34l-.44-.23.07-.1h.56zM1040.1 259.4l-.07.1h-.56l.18-.34z" fill="#5e5e5e"/><path d="M1079.75 259.25l-.33-78" stroke="#5e5e5e" stroke-width=".5" fill="none"/><path d="M1080 259.5h-.5v-.26h.5zM1079.67 181.26h-.5V181h.5z" fill="#5e5e5e"/><path d="M1119.64 259.28l-39.28-78.06" stroke="#5e5e5e" stroke-width=".5" fill="none"/><path d="M1120.03 259.5h-.56l-.06-.12.46-.22zM1080.6 181.12l-.46.22-.17-.34h.56z" fill="#5e5e5e"/><path d="M1159.57 259.32l-78.3-78.14" stroke="#5e5e5e" stroke-width=".5" fill="none"/><path d="M1160.1 259.5h-.7l.35-.36zM1081.44 181l-.35.36-.37-.36h.7z" fill="#5e5e5e"/><path d="M670.25 266c0-3.3 2.7-6 6-6h8c3.3 0 6 2.7 6 6v8c0 3.3-2.7 6-6 6h-8c-3.3 0-6-2.7-6-6zM710.25 266c0-3.3 2.7-6 6-6h8c3.3 0 6 2.7 6 6v8c0 3.3-2.7 6-6 6h-8c-3.3 0-6-2.7-6-6zM750.25 266c0-3.3 2.7-6 6-6h8c3.3 0 6 2.7 6 6v8c0 3.3-2.7 6-6 6h-8c-3.3 0-6-2.7-6-6z" stroke="#5e5e5e" fill="#99d5ca"/><path d="M691.25 270h18" stroke="#5e5e5e" fill="none"/><path d="M691.26 270.5h-.5v-1h.5zM709.75 270.5h-.5v-1h.5z" fill="#5e5e5e"/><path d="M731.25 270h18" stroke="#5e5e5e" fill="none"/><path d="M731.26 270.5h-.5v-1h.5zM749.75 270.5h-.5v-1h.5z" fill="#5e5e5e"/><path d="M771.25 270h18" stroke="#5e5e5e" fill="none"/><path d="M771.26 270.5h-.5v-1h.5z" fill="#5e5e5e"/><path d="M789.24 270h.5" stroke="#5e5e5e" fill="none"/><path d="M630.25 266c0-3.3 2.7-6 6-6h8c3.3 0 6 2.7 6 6v8c0 3.3-2.7 6-6 6h-8c-3.3 0-6-2.7-6-6z" stroke="#5e5e5e" fill="#99d5ca"/><path d="M651.25 270h18" stroke="#5e5e5e" fill="none"/><path d="M651.26 270.5h-.5v-1h.5z" fill="#5e5e5e"/><path d="M669.24 270h.5" stroke="#5e5e5e" fill="none"/><path d="M630.25 86c0-3.3 2.7-6 6-6h88c3.3 0 6 2.7 6 6v88c0 3.3-2.7 6-6 6h-88c-3.3 0-6-2.7-6-6z" stroke="#5e5e5e" stroke-width="2" fill="#d1bcd2"/><use xlink:href="#a" transform="matrix(1,0,0,1,635.25,85) translate(25.740740740740748 47.97222222222222)"/><use xlink:href="#e" transform="matrix(1,0,0,1,635.25,85) translate(54.382716049382715 47.97222222222222)"/><path d="M680.14 181.22l-38.28 78.06" stroke="#5e5e5e" stroke-width=".5" fill="none"/><path d="M680.36 181.34l-.45-.22.07-.12h.56zM642.1 259.38l-.07.12h-.56l.17-.34z" fill="#5e5e5e"/><path d="M680.25 259.25v-78" stroke="#5e5e5e" stroke-width=".5" fill="none"/><path d="M680.5 259.5h-.5v-.26h.5zM680.5 181.26h-.5V181h.5z" fill="#5e5e5e"/><path d="M720.14 259.28l-39.78-78.06" stroke="#5e5e5e" stroke-width=".5" fill="none"/><path d="M720.53 259.5h-.56l-.06-.1.46-.24zM680.6 181.1l-.46.24-.17-.34h.56z" fill="#5e5e5e"/><path d="M760.07 259.32l-79.64-78.14" stroke="#5e5e5e" stroke-width=".5" fill="none"/><path d="M760.6 259.5h-.7l.34-.36zM680.6 181l-.34.36-.37-.36h.7z" fill="#5e5e5e"/><path d="M590.25 266c0-3.3 2.7-6 6-6h8c3.3 0 6 2.7 6 6v8c0 3.3-2.7 6-6 6h-8c-3.3 0-6-2.7-6-6z" stroke="#5e5e5e" fill="#b2d6ef"/><path d="M611.25 270h18" stroke="#5e5e5e" fill="none"/><path d="M611.26 270.5h-.5v-1h.5z" fill="#5e5e5e"/><path d="M629.24 270h.5" stroke="#5e5e5e" fill="none"/><path d="M680.07 181.18l-78.14 78.14" stroke="#5e5e5e" stroke-width=".5" fill="none"/><path d="M680.25 181.36l-.36-.36h.7zM602.1 259.5h-.7l.35-.36z" fill="#5e5e5e"/><path d="M600 366c0-3.3 2.7-6 6-6h388c3.3 0 6 2.7 6 6v48c0 3.3-2.7 6-6 6H606c-3.3 0-6-2.7-6-6z" stroke="#000" stroke-opacity="0" fill="#fff" fill-opacity="0"/><use xlink:href="#f" transform="matrix(1,0,0,1,605,365) translate(15.238427962962959 16.991702222222223)"/><use xlink:href="#g" transform="matrix(1,0,0,1,605,365) translate(50.77185240740741 16.991702222222223)"/><use xlink:href="#h" transform="matrix(1,0,0,1,605,365) translate(130.55353845679014 16.991702222222223)"/><use xlink:href="#i" transform="matrix(1,0,0,1,605,365) translate(180.53144438271607 16.991702222222223)"/><use xlink:href="#j" transform="matrix(1,0,0,1,605,365) translate(199.79075302469138 16.991702222222223)"/><use xlink:href="#k" transform="matrix(1,0,0,1,605,365) translate(261.42054067901233 16.991702222222223)"/><use xlink:href="#l" transform="matrix(1,0,0,1,605,365) translate(292.139137962963 16.991702222222223)"/><use xlink:href="#m" transform="matrix(1,0,0,1,605,365) translate(329.598493271605 16.991702222222223)"/><use xlink:href="#n" transform="matrix(1,0,0,1,605,365) translate(120.00906697530864 37.791755555555554)"/><use xlink:href="#o" transform="matrix(1,0,0,1,605,365) translate(207.44632820987653 37.791755555555554)"/><use xlink:href="#p" transform="matrix(1,0,0,1,605,365) translate(232.4352811728395 37.791755555555554)"/><use xlink:href="#q" transform="matrix(1,0,0,1,605,365) translate(246.87976265432098 37.791755555555554)"/><path d="M800 359.5l-.04-.48-.05-.48-.06-.48-.1-.48-.1-.48-.14-.48-.16-.5-.18-.48-.2-.5-.25-.5-.27-.53-.3-.53-.36-.55-.4-.58-.45-.6-.52-.62-.6-.66-.68-.7-.78-.74-.92-.8-1.07-.84-1.28-.92-1.52-1-1.84-1.12-2.24-1.24-2.83-1.4-3.62-1.6-4.77-1.9-6.56-2.27-9.65-2.9L741.8 329l-99.57-21.63-9.65-2.9-6.56-2.28-4.78-1.9-3.62-1.6-2.83-1.4-2.26-1.24-1.84-1.1-1.52-1.02-.34-.24" stroke="#5e5e5e" fill="none"/><path d="M800.5 360h-1v-.5l1-.02z" fill="#5e5e5e"/><path d="M601.13 281.86l11.67 9.42-7.77 5.06z" stroke="#5e5e5e" fill="#5e5e5e"/><path d="M800 359.5l.2-62.62" stroke="#5e5e5e" fill="none"/><path d="M800.5 359.5v.5h-1v-.52z" fill="#5e5e5e"/><path d="M800.24 282.12l4.6 14.28-9.28-.03z" stroke="#5e5e5e" fill="#5e5e5e"/><path d="M800 359.5l.04-.48.05-.48.06-.48.1-.48.1-.48.14-.48.16-.5.18-.48.2-.5.25-.5.27-.53.3-.53.36-.55.4-.58.45-.6.52-.62.6-.66.68-.7.78-.74.92-.8 1.07-.84 1.28-.92 1.52-1 1.84-1.12 2.24-1.24 2.83-1.4 3.62-1.6 4.77-1.9 6.56-2.27 9.65-2.9L858.2 329l99.57-21.63 9.65-2.9 6.56-2.28 4.78-1.9 3.62-1.6 2.83-1.4 2.26-1.24 1.84-1.1 1.52-1.02.34-.24" stroke="#5e5e5e" fill="none"/><path d="M800.5 359.5v.5h-1v-.52z" fill="#5e5e5e"/><path d="M998.87 281.86l-3.9 14.48-7.77-5.06z" stroke="#5e5e5e" fill="#5e5e5e"/><defs><path fill="#333" d="M24-248c93 1 206-16 204 79-1 75-69 88-152 82V0H24v-248zm52 121c47 0 100 7 100-41 0-47-54-39-100-39v80" id="r"/><path fill="#333" d="M147 0H94L2-248h55l64 206c17-72 42-137 63-206h54" id="s"/><g id="a"><use transform="matrix(0.049382716049382706,0,0,0.049382716049382706,0,0)" xlink:href="#r"/><use transform="matrix(0.049382716049382706,0,0,0.049382716049382706,11.85185185185185,0)" xlink:href="#s"/></g><path fill="#333" d="M182-182c0 78-84 86-111 141h115V0H12c-6-101 99-100 120-180 1-22-12-31-33-32-23 0-32 14-35 34l-49-3c5-45 32-70 84-70 51 0 83 22 83 69" id="t"/><use transform="matrix(0.049382716049382706,0,0,0.049382716049382706,0,0)" xlink:href="#t" id="b"/><g id="c"><use transform="matrix(0.0493827160493827,0,0,0.0493827160493827,0,0)" xlink:href="#r"/><use transform="matrix(0.0493827160493827,0,0,0.0493827160493827,11.851851851851848,0)" xlink:href="#s"/></g><path fill="#333" d="M128-127c34 4 56 21 59 58 7 91-148 94-172 28-4-9-6-17-7-26l51-5c1 24 16 35 40 36 23 0 39-12 38-36-1-31-31-36-65-34v-40c32 2 59-3 59-33 0-20-13-33-34-33s-33 13-35 32l-50-3c6-44 37-68 86-68 50 0 83 20 83 66 0 35-22 52-53 58" id="u"/><use transform="matrix(0.0493827160493827,0,0,0.0493827160493827,0,0)" xlink:href="#u" id="d"/><path fill="#333" d="M23 0v-37h61v-169l-59 37v-38l62-41h46v211h57V0H23" id="v"/><use transform="matrix(0.049382716049382706,0,0,0.049382716049382706,0,0)" xlink:href="#v" id="e"/><path d="M136-208V0H84v-208H4v-40h212v40h-80" id="w"/><path d="M114-157C55-157 80-60 75 0H25v-261h50l-1 109c12-26 28-41 61-42 86-1 58 113 63 194h-50c-7-57 23-157-34-157" id="x"/><path d="M185-48c-13 30-37 53-82 52C43 2 14-33 14-96s30-98 90-98c62 0 83 45 84 108H66c0 31 8 55 39 56 18 0 30-7 34-22zm-45-69c5-46-57-63-70-21-2 6-4 13-4 21h74" id="y"/><g id="f"><use transform="matrix(0.04814827160493827,0,0,0.04814827160493827,0,0)" xlink:href="#w"/><use transform="matrix(0.04814827160493827,0,0,0.04814827160493827,10.544471481481482,0)" xlink:href="#x"/><use transform="matrix(0.04814827160493827,0,0,0.04814827160493827,21.088942962962964,0)" xlink:href="#y"/></g><path d="M137-138c1-29-70-34-71-4 15 46 118 7 119 86 1 83-164 76-172 9l43-7c4 19 20 25 44 25 33 8 57-30 24-41C81-84 22-81 20-136c-2-80 154-74 161-7" id="z"/><path d="M190-63c-7 42-38 67-86 67-59 0-84-38-90-98-12-110 154-137 174-36l-49 2c-2-19-15-32-35-32-30 0-35 28-38 64-6 74 65 87 74 30" id="A"/><path d="M88-194c31-1 46 15 58 34l-1-101h50l1 261h-48c-2-10 0-23-3-31C134-8 116 4 84 4 32 4 16-41 15-95c0-56 19-97 73-99zm17 164c33 0 40-30 41-66 1-37-9-64-41-64s-38 30-39 65c0 43 13 65 39 65" id="B"/><path d="M85 4C-2 5 27-109 22-190h50c7 57-23 150 33 157 60-5 35-97 40-157h50l1 190h-47c-2-12 1-28-3-38-12 25-28 42-61 42" id="C"/><path d="M25 0v-261h50V0H25" id="D"/><g id="g"><use transform="matrix(0.04814827160493827,0,0,0.04814827160493827,0,0)" xlink:href="#z"/><use transform="matrix(0.04814827160493827,0,0,0.04814827160493827,9.629654320987655,0)" xlink:href="#A"/><use transform="matrix(0.04814827160493827,0,0,0.04814827160493827,19.25930864197531,0)" xlink:href="#x"/><use transform="matrix(0.04814827160493827,0,0,0.04814827160493827,29.80378012345679,0)" xlink:href="#y"/><use transform="matrix(0.04814827160493827,0,0,0.04814827160493827,39.433434444444444,0)" xlink:href="#B"/><use transform="matrix(0.04814827160493827,0,0,0.04814827160493827,49.977905925925924,0)" xlink:href="#C"/><use transform="matrix(0.04814827160493827,0,0,0.04814827160493827,60.52237740740741,0)" xlink:href="#D"/><use transform="matrix(0.04814827160493827,0,0,0.04814827160493827,65.33720456790124,0)" xlink:href="#y"/></g><path d="M135-194c52 0 70 43 70 98 0 56-19 99-73 100-30 1-46-15-58-35L72 0H24l1-261h50v104c11-23 29-37 60-37zM114-30c31 0 40-27 40-66 0-37-7-63-39-63s-41 28-41 65c0 36 8 64 40 64" id="E"/><path d="M110-194c64 0 96 36 96 99 0 64-35 99-97 99-61 0-95-36-95-99 0-62 34-99 96-99zm-1 164c35 0 45-28 45-65 0-40-10-65-43-65-34 0-45 26-45 65 0 36 10 65 43 65" id="F"/><path d="M147 0L96-86 75-71V0H25v-261h50v150l67-79h53l-66 74L201 0h-54" id="G"/><g id="h"><use transform="matrix(0.04814827160493827,0,0,0.04814827160493827,0,0)" xlink:href="#E"/><use transform="matrix(0.04814827160493827,0,0,0.04814827160493827,10.544471481481482,0)" xlink:href="#D"/><use transform="matrix(0.04814827160493827,0,0,0.04814827160493827,15.35929864197531,0)" xlink:href="#F"/><use transform="matrix(0.04814827160493827,0,0,0.04814827160493827,25.90377012345679,0)" xlink:href="#A"/><use transform="matrix(0.04814827160493827,0,0,0.04814827160493827,35.53342444444445,0)" xlink:href="#G"/></g><path d="M25-224v-37h50v37H25zM25 0v-190h50V0H25" id="H"/><g id="i"><use transform="matrix(0.04814827160493827,0,0,0.04814827160493827,0,0)" xlink:href="#H"/><use transform="matrix(0.04814827160493827,0,0,0.04814827160493827,4.814827160493827,0)" xlink:href="#z"/></g><path d="M133-34C117-15 103 5 69 4 32 3 11-16 11-54c-1-60 55-63 116-61 1-26-3-47-28-47-18 1-26 9-28 27l-52-2c7-38 36-58 82-57s74 22 75 68l1 82c-1 14 12 18 25 15v27c-30 8-71 5-69-32zm-48 3c29 0 43-24 42-57-32 0-66-3-65 30 0 17 8 27 23 27" id="I"/><path d="M231 0h-52l-39-155L100 0H48L-1-190h46L77-45c9-52 24-97 36-145h53l37 145 32-145h46" id="J"/><path d="M123 10C108 53 80 86 19 72V37c35 8 53-11 59-39L3-190h52l48 148c12-52 28-100 44-148h51" id="K"/><g id="j"><use transform="matrix(0.04814827160493827,0,0,0.04814827160493827,0,0)" xlink:href="#I"/><use transform="matrix(0.04814827160493827,0,0,0.04814827160493827,9.629654320987655,0)" xlink:href="#D"/><use transform="matrix(0.04814827160493827,0,0,0.04814827160493827,14.444481481481482,0)" xlink:href="#J"/><use transform="matrix(0.04814827160493827,0,0,0.04814827160493827,27.925997530864198,0)" xlink:href="#I"/><use transform="matrix(0.04814827160493827,0,0,0.04814827160493827,37.55565185185185,0)" xlink:href="#K"/><use transform="matrix(0.04814827160493827,0,0,0.04814827160493827,47.1853061728395,0)" xlink:href="#z"/></g><path d="M115-3C79 11 28 4 28-45v-112H4v-33h27l15-45h31v45h36v33H77v99c-1 23 16 31 38 25v30" id="L"/><g id="k"><use transform="matrix(0.04814827160493827,0,0,0.04814827160493827,0,0)" xlink:href="#L"/><use transform="matrix(0.04814827160493827,0,0,0.04814827160493827,5.729644320987655,0)" xlink:href="#x"/><use transform="matrix(0.04814827160493827,0,0,0.04814827160493827,16.274115802469137,0)" xlink:href="#y"/></g><path d="M121-226c-27-7-43 5-38 36h38v33H83V0H34v-157H6v-33h28c-9-59 32-81 87-68v32" id="M"/><path d="M135-150c-39-12-60 13-60 57V0H25l-1-190h47c2 13-1 29 3 40 6-28 27-53 61-41v41" id="N"/><g id="l"><use transform="matrix(0.04814827160493827,0,0,0.04814827160493827,0,0)" xlink:href="#M"/><use transform="matrix(0.04814827160493827,0,0,0.04814827160493827,5.729644320987655,0)" xlink:href="#H"/><use transform="matrix(0.04814827160493827,0,0,0.04814827160493827,10.544471481481482,0)" xlink:href="#N"/><use transform="matrix(0.04814827160493827,0,0,0.04814827160493827,17.28522950617284,0)" xlink:href="#z"/><use transform="matrix(0.04814827160493827,0,0,0.04814827160493827,26.914883827160494,0)" xlink:href="#L"/></g><g id="m"><use transform="matrix(0.04814827160493827,0,0,0.04814827160493827,0,0)" xlink:href="#E"/><use transform="matrix(0.04814827160493827,0,0,0.04814827160493827,10.544471481481482,0)" xlink:href="#D"/><use transform="matrix(0.04814827160493827,0,0,0.04814827160493827,15.35929864197531,0)" xlink:href="#F"/><use transform="matrix(0.04814827160493827,0,0,0.04814827160493827,25.90377012345679,0)" xlink:href="#A"/><use transform="matrix(0.04814827160493827,0,0,0.04814827160493827,35.53342444444445,0)" xlink:href="#G"/></g><path d="M195-6C206 82 75 100 31 46c-4-6-6-13-8-21l49-6c3 16 16 24 34 25 40 0 42-37 40-79-11 22-30 35-61 35-53 0-70-43-70-97 0-56 18-96 73-97 30 0 46 14 59 34l2-30h47zm-90-29c32 0 41-27 41-63 0-35-9-62-40-62-32 0-39 29-40 63 0 36 9 62 39 62" id="O"/><path d="M135-194c87-1 58 113 63 194h-50c-7-57 23-157-34-157-59 0-34 97-39 157H25l-1-190h47c2 12-1 28 3 38 12-26 28-41 61-42" id="P"/><g id="n"><use transform="matrix(0.04814827160493827,0,0,0.04814827160493827,0,0)" xlink:href="#O"/><use transform="matrix(0.04814827160493827,0,0,0.04814827160493827,10.544471481481482,0)" xlink:href="#y"/><use transform="matrix(0.04814827160493827,0,0,0.04814827160493827,20.174125802469135,0)" xlink:href="#P"/><use transform="matrix(0.04814827160493827,0,0,0.04814827160493827,30.71859728395061,0)" xlink:href="#y"/><use transform="matrix(0.04814827160493827,0,0,0.04814827160493827,40.34825160493827,0)" xlink:href="#N"/><use transform="matrix(0.04814827160493827,0,0,0.04814827160493827,47.08900962962963,0)" xlink:href="#I"/><use transform="matrix(0.04814827160493827,0,0,0.04814827160493827,56.718663950617284,0)" xlink:href="#L"/><use transform="matrix(0.04814827160493827,0,0,0.04814827160493827,62.44830827160494,0)" xlink:href="#y"/><use transform="matrix(0.04814827160493827,0,0,0.04814827160493827,72.0779625925926,0)" xlink:href="#B"/></g><g id="o"><use transform="matrix(0.04814827160493827,0,0,0.04814827160493827,0,0)" xlink:href="#E"/><use transform="matrix(0.04814827160493827,0,0,0.04814827160493827,10.544471481481482,0)" xlink:href="#K"/></g><use transform="matrix(0.04814827160493827,0,0,0.04814827160493827,0,0)" xlink:href="#I" id="p"/><path d="M24-248c93 1 206-16 204 79-1 75-69 88-152 82V0H24v-248zm52 121c47 0 100 7 100-41 0-47-54-39-100-39v80" id="Q"/><path d="M147 0H94L2-248h55l64 206c17-72 42-137 63-206h54" id="R"/><g id="q"><use transform="matrix(0.04814827160493827,0,0,0.04814827160493827,0,0)" xlink:href="#Q"/><use transform="matrix(0.04814827160493827,0,0,0.04814827160493827,11.555585185185185,0)" xlink:href="#R"/></g></defs></g></svg>