<svg xmlns="http://www.w3.org/2000/svg" xmlns:xlink="http://www.w3.org/1999/xlink" xmlns:lucid="lucid" width="920" height="580"><g transform="translate(-140 -40)" lucid:page-tab-id="0_0"><path d="M420 140c0 11.05-8.95 20-20 20s-20-8.95-20-20 8.95-20 20-20 20 8.95 20 20z" stroke="#5e5e5e" stroke-width="3" fill="#99d5ca"/><path d="M420 580c0 11.05-8.95 20-20 20s-20-8.95-20-20 8.95-20 20-20 20 8.95 20 20zM180 340c11.05 0 20 8.95 20 20s-8.95 20-20 20-20-8.95-20-20 8.95-20 20-20zM620 340c11.05 0 20 8.95 20 20s-8.95 20-20 20-20-8.95-20-20 8.95-20 20-20zM258.58 190.3c7.8 7.8 7.8 20.47 0 28.28-7.8 7.8-20.48 7.8-28.3 0-7.8-7.8-7.8-20.48 0-28.3 7.82-7.8 20.5-7.8 28.3 0zM569.7 501.42c7.82 7.8 7.82 20.48 0 28.3-7.8 7.8-20.47 7.8-28.28 0-7.8-7.82-7.8-20.5 0-28.3 7.8-7.8 20.48-7.8 28.3 0zM230.3 501.42c7.8-7.8 20.47-7.8 28.28 0 7.8 7.8 7.8 20.48 0 28.3-7.8 7.8-20.48 7.8-28.3 0-7.8-7.82-7.8-20.5 0-28.3zM541.42 190.3c7.8-7.82 20.48-7.82 28.3 0 7.8 7.8 7.8 20.47 0 28.28-7.82 7.8-20.5 7.8-28.3 0-7.8-7.8-7.8-20.48 0-28.3z" stroke="#5e5e5e" stroke-width="3" fill="#e5e5e5"/><path d="M280 66c0-3.3 2.7-6 6-6h228c3.3 0 6 2.7 6 6v48c0 3.3-2.7 6-6 6H286c-3.3 0-6-2.7-6-6z" stroke="#000" stroke-opacity="0" stroke-width="3" fill="#fff" fill-opacity="0"/><use xlink:href="#a" transform="matrix(1,0,0,1,285,65) translate(32.86111111111114 28.5)"/><use xlink:href="#b" transform="matrix(1,0,0,1,285,65) translate(112.86111111111113 28.5)"/><path d="M332.06 149.8c4.34 10.16-.4 21.9-10.54 26.24-10.16 4.34-21.9-.38-26.25-10.54-4.33-10.16.4-21.9 10.55-26.25 10.16-4.33 21.9.4 26.24 10.55zM504.73 554.5c4.33 10.16-.4 21.9-10.55 26.25-10.16 4.33-21.9-.4-26.24-10.55-4.34-10.16.4-21.9 10.54-26.24 10.16-4.34 21.9.38 26.25 10.54zM189.8 427.94c10.16-4.34 21.9.4 26.24 10.54 4.34 10.16-.38 21.9-10.54 26.25-10.16 4.33-21.9-.4-26.25-10.55-4.33-10.16.4-21.9 10.55-26.24z" stroke="#5e5e5e" stroke-width="3" fill="#e5e5e5"/><path d="M594.5 255.27c10.16-4.33 21.9.4 26.25 10.55 4.33 10.16-.4 21.9-10.55 26.24-10.16 4.34-21.9-.4-26.24-10.54-4.34-10.16.38-21.9 10.54-26.25z" stroke="#5e5e5e" stroke-width="3" fill="#ff8f80"/><path d="M203.33 259.4c10.25 4.12 15.2 15.77 11.1 26.02-4.12 10.25-15.77 15.22-26.02 11.1-10.24-4.12-15.2-15.77-11.1-26.02 4.13-10.24 15.78-15.2 26.03-11.1z" stroke="#5e5e5e" stroke-width="3" fill="#e5e5e5"/><path d="M611.6 423.48c10.24 4.12 15.2 15.77 11.1 26.02-4.13 10.24-15.78 15.2-26.03 11.1-10.25-4.12-15.2-15.77-11.1-26.02 4.12-10.25 15.77-15.22 26.02-11.1z" stroke="#5e5e5e" stroke-width="3" fill="#ff8f80"/><path d="M299.4 556.67c4.12-10.25 15.77-15.2 26.02-11.1 10.25 4.12 15.22 15.77 11.1 26.02-4.12 10.24-15.77 15.2-26.02 11.1-10.24-4.13-15.2-15.78-11.1-26.03zM463.48 148.4c4.12-10.24 15.77-15.2 26.02-11.1 10.24 4.13 15.2 15.78 11.1 26.03-4.12 10.25-15.77 15.2-26.02 11.1-10.25-4.12-15.22-15.77-11.1-26.02z" stroke="#5e5e5e" stroke-width="3" fill="#e5e5e5"/><path d="M780 326c0-3.3 2.7-6 6-6h248c3.3 0 6 2.7 6 6v68c0 3.3-2.7 6-6 6H786c-3.3 0-6-2.7-6-6z" stroke="#000" stroke-opacity="0" stroke-width="3" fill="#fff" fill-opacity="0"/><use xlink:href="#c" transform="matrix(1,0,0,1,785,325) translate(22.694444444444457 26.9375)"/><use xlink:href="#d" transform="matrix(1,0,0,1,785,325) translate(88.75 26.9375)"/><use xlink:href="#e" transform="matrix(1,0,0,1,785,325) translate(113.08333333333333 26.9375)"/><use xlink:href="#f" transform="matrix(1,0,0,1,785,325) translate(158.58333333333331 26.9375)"/><use xlink:href="#g" transform="matrix(1,0,0,1,785,325) translate(42.86111111111114 50.9375)"/><use xlink:href="#h" transform="matrix(1,0,0,1,785,325) translate(122.86111111111113 50.9375)"/><path d="M780.14 359.5c0 .54-.45 1-1 1s-1-.46-1-1c0-.57.45-1 1-1s1 .43 1 1zm-3.4-2.05c0 .55-.44 1-1 1-.54 0-1-.45-1-1s.46-1 1-1c.56 0 1 .45 1 1zm-3.4-2.04c0 .56-.43 1-1 1-.54 0-1-.44-1-1 0-.54.46-1 1-1 .57 0 1 .46 1 1zm-3.38-2.03c0 .55-.45 1-1 1s-1-.45-1-1 .45-1 1-1 1 .45 1 1zm-3.4-2.04c0 .56-.44 1-1 1-.55 0-1-.44-1-1 0-.55.45-1 1-1 .56 0 1 .45 1 1zm-3.4-2.03c0 .55-.44 1-1 1-.54 0-1-.45-1-1 0-.56.46-1 1-1 .56 0 1 .44 1 1zm-3.4-2.04c0 .55-.43 1-1 1-.54 0-1-.45-1-1s.46-1 1-1c.57 0 1 .45 1 1zm-3.38-2.04c0 .55-.45 1-1 1s-1-.45-1-1 .45-1 1-1 1 .45 1 1zm-3.4-2.04c0 .55-.44 1-1 1-.55 0-1-.45-1-1s.45-1 1-1c.56 0 1 .45 1 1zm-3.4-2.04c0 .56-.44 1-1 1-.54 0-1-.44-1-1 0-.55.46-1 1-1 .56 0 1 .45 1 1zm-3.38-2.03c0 .56-.45 1-1 1-.56 0-1-.44-1-1 0-.55.44-1 1-1 .55 0 1 .45 1 1zm-3.4-2.03c0 .55-.45 1-1 1s-1-.45-1-1 .45-1 1-1 1 .45 1 1zm-3.4-2.04c0 .55-.44 1-1 1-.55 0-1-.45-1-1s.45-1 1-1c.56 0 1 .45 1 1zM736 333c0 .55-.44 1-1 1-.54 0-1-.45-1-1 0-.56.46-1 1-1 .56 0 1 .44 1 1zm-3.38-2.04c0 .55-.45 1-1 1-.56 0-1-.45-1-1 0-.56.44-1 1-1 .55 0 1 .44 1 1zm-3.4-2.04c0 .55-.45 1-1 1s-1-.45-1-1 .45-1 1-1 1 .45 1 1zm-3.4-2.04c0 .55-.44 1-1 1-.54 0-1-.45-1-1s.46-1 1-1c.56 0 1 .45 1 1zm-3.4-2.04c0 .55-.44 1-1 1-.54 0-1-.45-1-1s.46-1 1-1c.56 0 1 .45 1 1zm-3.38-2.04c0 .56-.45 1-1 1s-1-.44-1-1c0-.55.45-1 1-1s1 .45 1 1zm-3.4-2.03c0 .55-.44 1-1 1-.55 0-1-.45-1-1 0-.56.45-1 1-1 .56 0 1 .44 1 1zm-3.4-2.04c0 .55-.44 1-1 1-.54 0-1-.45-1-1s.46-1 1-1c.56 0 1 .45 1 1zm-3.4-2.04c0 .54-.43 1-1 1-.54 0-1-.46-1-1 0-.56.46-1 1-1 .57 0 1 .44 1 1zm-3.38-2.05c0 .55-.45 1-1 1s-1-.45-1-1 .45-1 1-1 1 .45 1 1zm-3.4-2.04c0 .57-.44 1-1 1-.55 0-1-.43-1-1 0-.54.45-1 1-1 .56 0 1 .46 1 1zm-3.4-2.02c0 .55-.44 1-1 1-.54 0-1-.45-1-1 0-.56.46-1 1-1 .56 0 1 .44 1 1zm-3.4-2.04c0 .55-.43 1-1 1-.54 0-1-.45-1-1s.46-1 1-1c.57 0 1 .45 1 1zm-3.38-2.04c0 .55-.45 1-1 1s-1-.45-1-1 .45-1 1-1 1 .45 1 1zm-3.4-2.04c0 .56-.44 1-1 1-.55 0-1-.44-1-1 0-.55.45-1 1-1 .56 0 1 .45 1 1zm-3.4-2.03c0 .55-.44 1-1 1-.54 0-1-.45-1-1 0-.56.46-1 1-1 .56 0 1 .44 1 1zm-3.38-2.04c0 .54-.45 1-1 1-.56 0-1-.46-1-1 0-.56.44-1 1-1 .55 0 1 .44 1 1zm-3.4-2.05c0 .55-.45 1-1 1s-1-.45-1-1 .45-1 1-1 1 .45 1 1zm-3.4-2.04c0 .56-.44 1-1 1-.55 0-1-.44-1-1 0-.54.45-1 1-1 .56 0 1 .46 1 1zm-3.4-2.03c0 .56-.44 1-1 1-.54 0-1-.44-1-1 0-.55.46-1 1-1 .56 0 1 .45 1 1zm-3.38-2.03c0 .55-.45 1-1 1s-1-.45-1-1c0-.56.45-1 1-1s1 .44 1 1zm-3.4-2.04c0 .55-.45 1-1 1s-1-.45-1-1 .45-1 1-1 1 .45 1 1zm-3.4-2.04c0 .55-.44 1-1 1-.54 0-1-.45-1-1s.46-1 1-1c.56 0 1 .45 1 1zm-3.4-2.04c0 .55-.43 1-1 1-.54 0-1-.45-1-1s.46-1 1-1c.57 0 1 .45 1 1zm-3.38-2.04c0 .56-.45 1-1 1s-1-.44-1-1c0-.55.45-1 1-1s1 .45 1 1zm-3.4-2.03c0 .55-.44 1-1 1-.55 0-1-.45-1-1 0-.56.45-1 1-1 .56 0 1 .44 1 1zm-3.4-2.04c0 .56-.44 1-1 1-.54 0-1-.44-1-1 0-.54.46-1 1-1 .56 0 1 .46 1 1zm-3.4-2.03c0 .55-.43 1-1 1-.54 0-1-.45-1-1s.46-1 1-1c.57 0 1 .45 1 1zm-3.38-2.04c0 .56-.45 1-1 1s-1-.44-1-1c0-.55.45-1 1-1s1 .45 1 1zm-3.4-2.03c0 .55-.44 1-1 1-.55 0-1-.45-1-1 0-.56.45-1 1-1 .56 0 1 .44 1 1zm-3.4-2.04c0 .55-.44 1-1 1-.54 0-1-.45-1-1s.46-1 1-1c.56 0 1 .45 1 1zm-3.38-2.04c0 .55-.45 1-1 1-.56 0-1-.45-1-1s.44-1 1-1c.55 0 1 .45 1 1zm-3.4-2.04c0 .55-.45 1-1 1s-1-.45-1-1 .45-1 1-1 1 .45 1 1zm-3.4-2.04c0 .56-.44 1-1 1-.55 0-1-.44-1-1 0-.55.45-1 1-1 .56 0 1 .45 1 1z" fill="#5e5e5e"/><path d="M780 358.83v2.34l-1.4-.84 1.04-1.72zM623.52 264.9l-1 1.67-.36-1.28-.7-1.53-.15-.2z" fill="#5e5e5e"/><path d="M780.13 360.5c0 .55-.44 1-1 1-.55 0-1-.45-1-1s.45-1 1-1c.56 0 1 .45 1 1zm-3.42 1.98c0 .55-.44 1-1 1-.54 0-1-.45-1-1s.46-1 1-1c.56 0 1 .45 1 1zm-3.42 1.98c0 .55-.45 1-1 1s-1-.45-1-1 .45-1 1-1 1 .45 1 1zm-3.43 1.98c0 .55-.44 1-1 1-.55 0-1-.45-1-1 0-.56.45-1 1-1 .56 0 1 .44 1 1zm-3.42 1.98c0 .55-.45 1-1 1s-1-.45-1-1c0-.56.45-1 1-1s1 .44 1 1zM763 370.4c0 .55-.45 1-1 1s-1-.45-1-1c0-.56.45-1 1-1s1 .44 1 1zm-3.42 1.97c0 .56-.45 1-1 1-.56 0-1-.44-1-1 0-.55.44-1 1-1 .55 0 1 .45 1 1zm-3.43 1.98c0 .56-.45 1-1 1s-1-.44-1-1c0-.55.45-1 1-1s1 .45 1 1zm-3.43 1.98c0 .55-.44 1-1 1-.55 0-1-.45-1-1s.45-1 1-1c.56 0 1 .45 1 1zm-3.42 1.98c0 .56-.45 1-1 1-.56 0-1-.44-1-1 0-.54.44-1 1-1 .55 0 1 .46 1 1zm-3.43 2c0 .54-.45 1-1 1s-1-.46-1-1c0-.56.45-1 1-1s1 .44 1 1zm-3.43 1.97c0 .55-.44 1-1 1-.55 0-1-.45-1-1s.45-1 1-1c.56 0 1 .45 1 1zm-3.42 1.98c0 .55-.45 1-1 1s-1-.45-1-1 .45-1 1-1 1 .45 1 1zm-3.43 1.98c0 .55-.46 1-1 1-.56 0-1-.45-1-1 0-.56.44-1 1-1 .54 0 1 .44 1 1zm-3.43 1.98c0 .56-.45 1-1 1-.56 0-1-.44-1-1 0-.55.44-1 1-1 .55 0 1 .45 1 1zm-3.43 2c0 .54-.45 1-1 1s-1-.46-1-1c0-.57.45-1 1-1s1 .43 1 1zm-3.43 1.96c0 .56-.44 1-1 1-.54 0-1-.44-1-1 0-.55.46-1 1-1 .56 0 1 .45 1 1zm-3.4 1.98c0 .56-.46 1-1 1-.57 0-1-.44-1-1 0-.55.43-1 1-1 .54 0 1 .45 1 1zm-3.44 1.98c0 .55-.45 1-1 1s-1-.45-1-1 .45-1 1-1 1 .45 1 1zm-3.43 1.98c0 .55-.44 1-1 1-.55 0-1-.45-1-1s.45-1 1-1c.56 0 1 .45 1 1zm-3.42 1.98c0 .55-.44 1-1 1-.55 0-1-.45-1-1s.45-1 1-1c.56 0 1 .45 1 1zm-3.42 1.98c0 .55-.45 1-1 1s-1-.45-1-1 .45-1 1-1 1 .45 1 1zm-3.43 1.98c0 .55-.44 1-1 1-.55 0-1-.45-1-1s.45-1 1-1c.56 0 1 .45 1 1zm-3.42 1.98c0 .55-.45 1-1 1s-1-.45-1-1c0-.56.45-1 1-1s1 .44 1 1zM697.9 408c0 .55-.45 1-1 1s-1-.45-1-1c0-.56.45-1 1-1s1 .44 1 1zm-3.42 1.98c0 .55-.45 1-1 1-.56 0-1-.45-1-1 0-.56.44-1 1-1 .55 0 1 .44 1 1zm-3.43 1.97c0 .56-.45 1-1 1s-1-.44-1-1c0-.55.45-1 1-1s1 .45 1 1zm-3.43 1.98c0 .56-.45 1-1 1s-1-.44-1-1c0-.55.45-1 1-1s1 .45 1 1zm-3.42 1.98c0 .56-.45 1-1 1-.56 0-1-.44-1-1 0-.54.44-1 1-1 .55 0 1 .46 1 1zm-3.43 2c0 .54-.45 1-1 1s-1-.46-1-1c0-.56.45-1 1-1s1 .44 1 1zm-3.43 1.97c0 .55-.44 1-1 1-.55 0-1-.45-1-1s.45-1 1-1c.56 0 1 .45 1 1zm-3.42 1.98c0 .55-.45 1-1 1-.56 0-1-.45-1-1s.44-1 1-1c.55 0 1 .45 1 1zm-3.43 1.98c0 .55-.46 1-1 1-.56 0-1-.45-1-1s.44-1 1-1c.54 0 1 .45 1 1zm-3.44 1.98c0 .56-.44 1-1 1-.55 0-1-.44-1-1 0-.54.45-1 1-1 .56 0 1 .46 1 1zm-3.42 2c0 .54-.45 1-1 1s-1-.46-1-1c0-.57.45-1 1-1s1 .43 1 1zm-3.43 1.97c0 .55-.44 1-1 1-.54 0-1-.45-1-1 0-.56.46-1 1-1 .56 0 1 .44 1 1zm-3.4 1.97c0 .56-.46 1-1 1-.57 0-1-.44-1-1 0-.55.43-1 1-1 .54 0 1 .45 1 1zm-3.44 1.98c0 .56-.45 1-1 1s-1-.44-1-1c0-.55.45-1 1-1s1 .45 1 1zm-3.43 1.98c0 .55-.45 1-1 1s-1-.45-1-1 .45-1 1-1 1 .45 1 1zm-3.42 1.98c0 .55-.44 1-1 1-.55 0-1-.45-1-1s.45-1 1-1c.56 0 1 .45 1 1zm-3.42 1.98c0 .55-.45 1-1 1s-1-.45-1-1 .45-1 1-1 1 .45 1 1zm-3.43 1.98c0 .55-.44 1-1 1-.55 0-1-.45-1-1s.45-1 1-1c.56 0 1 .45 1 1zm-3.42 1.98c0 .55-.45 1-1 1-.56 0-1-.45-1-1s.44-1 1-1c.55 0 1 .45 1 1zm-3.43 1.98c0 .55-.45 1-1 1s-1-.45-1-1 .45-1 1-1 1 .45 1 1zm-3.43 1.98c0 .55-.44 1-1 1-.55 0-1-.45-1-1 0-.56.45-1 1-1 .56 0 1 .44 1 1zm-3.42 1.98c0 .55-.45 1-1 1s-1-.45-1-1c0-.56.45-1 1-1s1 .44 1 1z" fill="#5e5e5e"/><path d="M780 361.15l-.4.23-1-1.73 1.4-.8zM625.47 450.4l-2.3 1.34.9-1.62.47-1.33z" fill="#5e5e5e"/><defs><path fill="#333" d="M24-248c93 1 206-16 204 79-1 75-69 88-152 82V0H24v-248zm52 121c47 0 100 7 100-41 0-47-54-39-100-39v80" id="i"/><path fill="#333" d="M135-150c-39-12-60 13-60 57V0H25l-1-190h47c2 13-1 29 3 40 6-28 27-53 61-41v41" id="j"/><path fill="#333" d="M25-224v-37h50v37H25zM25 0v-190h50V0H25" id="k"/><path fill="#333" d="M220-157c-53 9-28 100-34 157h-49v-107c1-27-5-49-29-50C55-147 81-57 75 0H25l-1-190h47c2 12-1 28 3 38 10-53 101-56 108 0 13-22 24-43 59-42 82 1 51 116 57 194h-49v-107c-1-25-5-48-29-50" id="l"/><path fill="#333" d="M133-34C117-15 103 5 69 4 32 3 11-16 11-54c-1-60 55-63 116-61 1-26-3-47-28-47-18 1-26 9-28 27l-52-2c7-38 36-58 82-57s74 22 75 68l1 82c-1 14 12 18 25 15v27c-30 8-71 5-69-32zm-48 3c29 0 43-24 42-57-32 0-66-3-65 30 0 17 8 27 23 27" id="m"/><path fill="#333" d="M123 10C108 53 80 86 19 72V37c35 8 53-11 59-39L3-190h52l48 148c12-52 28-100 44-148h51" id="n"/><g id="a"><use transform="matrix(0.055555555555555546,0,0,0.055555555555555546,0,0)" xlink:href="#i"/><use transform="matrix(0.055555555555555546,0,0,0.055555555555555546,13.33333333333333,0)" xlink:href="#j"/><use transform="matrix(0.055555555555555546,0,0,0.055555555555555546,21.111111111111107,0)" xlink:href="#k"/><use transform="matrix(0.055555555555555546,0,0,0.055555555555555546,26.66666666666666,0)" xlink:href="#l"/><use transform="matrix(0.055555555555555546,0,0,0.055555555555555546,44.444444444444436,0)" xlink:href="#m"/><use transform="matrix(0.055555555555555546,0,0,0.055555555555555546,55.55555555555554,0)" xlink:href="#j"/><use transform="matrix(0.055555555555555546,0,0,0.055555555555555546,63.33333333333332,0)" xlink:href="#n"/></g><path fill="#333" d="M147 0H94L2-248h55l64 206c17-72 42-137 63-206h54" id="o"/><path fill="#333" d="M25 0v-261h50V0H25" id="p"/><path fill="#333" d="M88-194c31-1 46 15 58 34l-1-101h50l1 261h-48c-2-10 0-23-3-31C134-8 116 4 84 4 32 4 16-41 15-95c0-56 19-97 73-99zm17 164c33 0 40-30 41-66 1-37-9-64-41-64s-38 30-39 65c0 43 13 65 39 65" id="q"/><path fill="#333" d="M115-3C79 11 28 4 28-45v-112H4v-33h27l15-45h31v45h36v33H77v99c-1 23 16 31 38 25v30" id="r"/><path fill="#333" d="M110-194c64 0 96 36 96 99 0 64-35 99-97 99-61 0-95-36-95-99 0-62 34-99 96-99zm-1 164c35 0 45-28 45-65 0-40-10-65-43-65-34 0-45 26-45 65 0 36 10 65 43 65" id="s"/><g id="b"><use transform="matrix(0.055555555555555546,0,0,0.055555555555555546,0,0)" xlink:href="#o"/><use transform="matrix(0.055555555555555546,0,0,0.055555555555555546,12.22222222222222,0)" xlink:href="#m"/><use transform="matrix(0.055555555555555546,0,0,0.055555555555555546,23.33333333333333,0)" xlink:href="#p"/><use transform="matrix(0.055555555555555546,0,0,0.055555555555555546,28.888888888888882,0)" xlink:href="#k"/><use transform="matrix(0.055555555555555546,0,0,0.055555555555555546,34.444444444444436,0)" xlink:href="#q"/><use transform="matrix(0.055555555555555546,0,0,0.055555555555555546,46.6111111111111,0)" xlink:href="#m"/><use transform="matrix(0.055555555555555546,0,0,0.055555555555555546,57.722222222222214,0)" xlink:href="#r"/><use transform="matrix(0.055555555555555546,0,0,0.055555555555555546,64.33333333333331,0)" xlink:href="#s"/><use transform="matrix(0.055555555555555546,0,0,0.055555555555555546,76.49999999999997,0)" xlink:href="#j"/></g><path fill="#333" d="M135-194c87-1 58 113 63 194h-50c-7-57 23-157-34-157-59 0-34 97-39 157H25l-1-190h47c2 12-1 28 3 38 12-26 28-41 61-42" id="t"/><path fill="#333" d="M195-6C206 82 75 100 31 46c-4-6-6-13-8-21l49-6c3 16 16 24 34 25 40 0 42-37 40-79-11 22-30 35-61 35-53 0-70-43-70-97 0-56 18-96 73-97 30 0 46 14 59 34l2-30h47zm-90-29c32 0 41-27 41-63 0-35-9-62-40-62-32 0-39 29-40 63 0 36 9 62 39 62" id="u"/><g id="c"><use transform="matrix(0.055555555555555546,0,0,0.055555555555555546,0,0)" xlink:href="#o"/><use transform="matrix(0.055555555555555546,0,0,0.055555555555555546,11.83333333333333,0)" xlink:href="#s"/><use transform="matrix(0.055555555555555546,0,0,0.055555555555555546,23.999999999999993,0)" xlink:href="#r"/><use transform="matrix(0.055555555555555546,0,0,0.055555555555555546,30.611111111111107,0)" xlink:href="#k"/><use transform="matrix(0.055555555555555546,0,0,0.055555555555555546,36.16666666666666,0)" xlink:href="#t"/><use transform="matrix(0.055555555555555546,0,0,0.055555555555555546,48.33333333333332,0)" xlink:href="#u"/></g><g id="d"><use transform="matrix(0.055555555555555546,0,0,0.055555555555555546,0,0)" xlink:href="#r"/><use transform="matrix(0.055555555555555546,0,0,0.055555555555555546,6.61111111111111,0)" xlink:href="#s"/></g><path fill="#333" d="M137-138c1-29-70-34-71-4 15 46 118 7 119 86 1 83-164 76-172 9l43-7c4 19 20 25 44 25 33 8 57-30 24-41C81-84 22-81 20-136c-2-80 154-74 161-7" id="v"/><path fill="#333" d="M147 0L96-86 75-71V0H25v-261h50v150l67-79h53l-66 74L201 0h-54" id="w"/><path fill="#333" d="M135-194c53 0 70 44 70 98 0 56-19 98-73 100-31 1-45-17-59-34 3 33 2 69 2 105H25l-1-265h48c2 10 0 23 3 31 11-24 29-35 60-35zM114-30c33 0 39-31 40-66 0-38-9-64-40-64-56 0-55 130 0 130" id="x"/><g id="e"><use transform="matrix(0.055555555555555546,0,0,0.055555555555555546,0,0)" xlink:href="#v"/><use transform="matrix(0.055555555555555546,0,0,0.055555555555555546,11.111111111111109,0)" xlink:href="#w"/><use transform="matrix(0.055555555555555546,0,0,0.055555555555555546,22.222222222222218,0)" xlink:href="#k"/><use transform="matrix(0.055555555555555546,0,0,0.055555555555555546,27.77777777777777,0)" xlink:href="#x"/></g><path fill="#333" d="M190-63c-7 42-38 67-86 67-59 0-84-38-90-98-12-110 154-137 174-36l-49 2c-2-19-15-32-35-32-30 0-35 28-38 64-6 74 65 87 74 30" id="y"/><path fill="#333" d="M85 4C-2 5 27-109 22-190h50c7 57-23 150 33 157 60-5 35-97 40-157h50l1 190h-47c-2-12 1-28-3-38-12 25-28 42-61 42" id="z"/><path fill="#333" d="M185-48c-13 30-37 53-82 52C43 2 14-33 14-96s30-98 90-98c62 0 83 45 84 108H66c0 31 8 55 39 56 18 0 30-7 34-22zm-45-69c5-46-57-63-70-21-2 6-4 13-4 21h74" id="A"/><g id="f"><use transform="matrix(0.055555555555555546,0,0,0.055555555555555546,0,0)" xlink:href="#y"/><use transform="matrix(0.055555555555555546,0,0,0.055555555555555546,11.111111111111109,0)" xlink:href="#z"/><use transform="matrix(0.055555555555555546,0,0,0.055555555555555546,23.27777777777777,0)" xlink:href="#j"/><use transform="matrix(0.055555555555555546,0,0,0.055555555555555546,31.05555555555555,0)" xlink:href="#j"/><use transform="matrix(0.055555555555555546,0,0,0.055555555555555546,38.83333333333333,0)" xlink:href="#A"/><use transform="matrix(0.055555555555555546,0,0,0.055555555555555546,49.944444444444436,0)" xlink:href="#t"/><use transform="matrix(0.055555555555555546,0,0,0.055555555555555546,62.1111111111111,0)" xlink:href="#r"/></g><g id="g"><use transform="matrix(0.055555555555555546,0,0,0.055555555555555546,0,0)" xlink:href="#i"/><use transform="matrix(0.055555555555555546,0,0,0.055555555555555546,13.33333333333333,0)" xlink:href="#j"/><use transform="matrix(0.055555555555555546,0,0,0.055555555555555546,21.111111111111107,0)" xlink:href="#k"/><use transform="matrix(0.055555555555555546,0,0,0.055555555555555546,26.66666666666666,0)" xlink:href="#l"/><use transform="matrix(0.055555555555555546,0,0,0.055555555555555546,44.444444444444436,0)" xlink:href="#m"/><use transform="matrix(0.055555555555555546,0,0,0.055555555555555546,55.55555555555554,0)" xlink:href="#j"/><use transform="matrix(0.055555555555555546,0,0,0.055555555555555546,63.33333333333332,0)" xlink:href="#n"/></g><g id="h"><use transform="matrix(0.055555555555555546,0,0,0.055555555555555546,0,0)" xlink:href="#o"/><use transform="matrix(0.055555555555555546,0,0,0.055555555555555546,12.22222222222222,0)" xlink:href="#m"/><use transform="matrix(0.055555555555555546,0,0,0.055555555555555546,23.33333333333333,0)" xlink:href="#p"/><use transform="matrix(0.055555555555555546,0,0,0.055555555555555546,28.888888888888882,0)" xlink:href="#k"/><use transform="matrix(0.055555555555555546,0,0,0.055555555555555546,34.444444444444436,0)" xlink:href="#q"/><use transform="matrix(0.055555555555555546,0,0,0.055555555555555546,46.6111111111111,0)" xlink:href="#m"/><use transform="matrix(0.055555555555555546,0,0,0.055555555555555546,57.722222222222214,0)" xlink:href="#r"/><use transform="matrix(0.055555555555555546,0,0,0.055555555555555546,64.33333333333331,0)" xlink:href="#s"/><use transform="matrix(0.055555555555555546,0,0,0.055555555555555546,76.49999999999997,0)" xlink:href="#j"/></g></defs></g></svg>