<svg xmlns="http://www.w3.org/2000/svg" xmlns:xlink="http://www.w3.org/1999/xlink" xmlns:lucid="lucid" width="640" height="380"><g transform="translate(-560 -59.99999999999993)" lucid:page-tab-id="0_0"><path d="M839 354c0 3.3-2.7 6-6 6h-28c-3.32 0-6-2.7-6-6v-28c0-3.3 2.68-6 6-6h28c3.3 0 6 2.7 6 6zM839 274c0 3.3-2.7 6-6 6h-28c-3.32 0-6-2.7-6-6v-28c0-3.3 2.68-6 6-6h28c3.3 0 6 2.7 6 6zM839 194c0 3.3-2.7 6-6 6h-28c-3.32 0-6-2.7-6-6v-28c0-3.3 2.68-6 6-6h28c3.3 0 6 2.7 6 6z" stroke="#000" fill="#ccc" fill-opacity=".58"/><path d="M819 319v-38" stroke="#000" fill="none"/><path d="M819.5 319.5h-1v-.5h1zM819.5 281h-1v-.5h1z"/><path d="M819 239v-38" stroke="#000" fill="none"/><path d="M819.5 239.5h-1v-.5h1zM819.5 201h-1v-.5h1z"/><path d="M760 354c0 3.3-2.7 6-6 6h-28c-3.3 0-6-2.7-6-6v-28c0-3.3 2.7-6 6-6h28c3.3 0 6 2.7 6 6zM760 274c0 3.3-2.7 6-6 6h-28c-3.3 0-6-2.7-6-6v-28c0-3.3 2.7-6 6-6h28c3.3 0 6 2.7 6 6zM760 194c0 3.3-2.7 6-6 6h-28c-3.3 0-6-2.7-6-6v-28c0-3.3 2.7-6 6-6h28c3.3 0 6 2.7 6 6z" stroke="#000" fill="#e5e5e5"/><path d="M740 319v-38" stroke="#000" fill="none"/><path d="M740.5 319.5h-1v-.5h1zM740.5 281h-1v-.5h1z"/><path d="M740 239v-38" stroke="#000" fill="none"/><path d="M740.5 239.5h-1v-.5h1zM740.5 201h-1v-.5h1z"/><path d="M580 326c0-3.3 2.7-6 6-6h108c3.3 0 6 2.7 6 6v28c0 3.3-2.7 6-6 6H586c-3.3 0-6-2.7-6-6z" stroke="#000" stroke-opacity="0" stroke-width="2" fill="#fff" fill-opacity="0"/><use xlink:href="#a" transform="matrix(1,0,0,1,585,325) translate(11.074074074074076 18.09722222222222)"/><use xlink:href="#b" transform="matrix(1,0,0,1,585,325) translate(59.41975308641975 18.09722222222222)"/><path d="M580 246c0-3.3 2.7-6 6-6h108c3.3 0 6 2.7 6 6v28c0 3.3-2.7 6-6 6H586c-3.3 0-6-2.7-6-6z" stroke="#000" stroke-opacity="0" stroke-width="2" fill="#fff" fill-opacity="0"/><use xlink:href="#a" transform="matrix(1,0,0,1,585,245) translate(11.074074074074076 18.09722222222222)"/><use xlink:href="#c" transform="matrix(1,0,0,1,585,245) translate(59.41975308641975 18.09722222222222)"/><path d="M580 166c0-3.3 2.7-6 6-6h108c3.3 0 6 2.7 6 6v28c0 3.3-2.7 6-6 6H586c-3.3 0-6-2.7-6-6z" stroke="#000" stroke-opacity="0" stroke-width="2" fill="#fff" fill-opacity="0"/><use xlink:href="#a" transform="matrix(1,0,0,1,585,165) translate(11.074074074074076 18.09722222222222)"/><use xlink:href="#d" transform="matrix(1,0,0,1,585,165) translate(59.41975308641975 18.09722222222222)"/><path d="M580 86c0-3.3 2.7-6 6-6h108c3.3 0 6 2.7 6 6v28c0 3.3-2.7 6-6 6H586c-3.3 0-6-2.7-6-6z" stroke="#000" stroke-opacity="0" stroke-width="2" fill="#fff" fill-opacity="0"/><use xlink:href="#a" transform="matrix(1,0,0,1,585,84.99999999999999) translate(11.074074074074076 18.09722222222222)"/><use xlink:href="#e" transform="matrix(1,0,0,1,585,84.99999999999999) translate(59.41975308641975 18.09722222222222)"/><path d="M760 114c0 3.3-2.7 6-6 6h-28c-3.3 0-6-2.7-6-6V86c0-3.3 2.7-6 6-6h28c3.3 0 6 2.7 6 6z" stroke="#000" fill="#e5e5e5"/><path d="M740 121v38" stroke="#5e5e5e" fill="none"/><path d="M740.5 121h-1v-.5h1zM740.5 159.5h-1v-.5h1z" fill="#5e5e5e"/><path d="M760 400c0 11.05-8.95 20-20 20s-20-8.95-20-20 8.95-20 20-20 20 8.95 20 20zM839 400c0 11.05-8.96 20-20 20-11.05 0-20-8.95-20-20s8.95-20 20-20c11.04 0 20 8.95 20 20z" stroke="#5e5e5e" fill-opacity="0"/><path d="M839 114c0 3.3-2.7 6-6 6h-28c-3.32 0-6-2.7-6-6V86c0-3.3 2.68-6 6-6h28c3.3 0 6 2.7 6 6z" fill-opacity="0"/><path d="M838 114c0-.55.45-1 1-1s1 .45 1 1-.45 1-1 1-1-.45-1-1zm-1.9 4.1c0-.55.45-1 1-1 .56 0 1 .45 1 1 0 .56-.44 1-1 1-.55 0-1-.44-1-1zM832 120c0-.55.45-1 1-1s1 .45 1 1-.45 1-1 1-1-.45-1-1zm-4 0c0-.55.45-1 1-1s1 .45 1 1-.45 1-1 1-1-.45-1-1zm-4 0c0-.55.45-1 1-1s1 .45 1 1-.45 1-1 1-1-.45-1-1zm-4 0c0-.55.45-1 1-1s1 .45 1 1-.45 1-1 1-1-.45-1-1zm-4 0c0-.55.45-1 1-1s1 .45 1 1-.45 1-1 1-1-.45-1-1zm-4 0c0-.55.45-1 1-1s1 .45 1 1-.45 1-1 1-1-.45-1-1zm-4 0c0-.55.45-1 1-1s1 .45 1 1-.45 1-1 1-1-.45-1-1zm-4 0c0-.55.45-1 1-1s1 .45 1 1-.45 1-1 1-1-.45-1-1zm-4.1-1.9c0-.55.44-1 1-1 .55 0 1 .45 1 1 0 .56-.45 1-1 1-.56 0-1-.44-1-1zM798 114c0-.55.45-1 1-1s1 .45 1 1-.45 1-1 1-1-.45-1-1zm0-4c0-.55.45-1 1-1s1 .45 1 1-.45 1-1 1-1-.45-1-1zm0-4c0-.55.45-1 1-1s1 .45 1 1-.45 1-1 1-1-.45-1-1zm0-4c0-.55.45-1 1-1s1 .45 1 1-.45 1-1 1-1-.45-1-1zm0-4c0-.55.45-1 1-1s1 .45 1 1-.45 1-1 1-1-.45-1-1zm0-4c0-.55.45-1 1-1s1 .45 1 1-.45 1-1 1-1-.45-1-1zm0-4c0-.55.45-1 1-1s1 .45 1 1-.45 1-1 1-1-.45-1-1zm0-4c0-.55.45-1 1-1s1 .45 1 1-.45 1-1 1-1-.45-1-1zm1.9-4.1c0-.56.44-1 1-1 .55 0 1 .44 1 1 0 .55-.45 1-1 1-.56 0-1-.45-1-1zM804 80c0-.55.45-1 1-1s1 .45 1 1-.45 1-1 1-1-.45-1-1zm4 0c0-.55.45-1 1-1s1 .45 1 1-.45 1-1 1-1-.45-1-1zm4 0c0-.55.45-1 1-1s1 .45 1 1-.45 1-1 1-1-.45-1-1zm4 0c0-.55.45-1 1-1s1 .45 1 1-.45 1-1 1-1-.45-1-1zm4 0c0-.55.45-1 1-1s1 .45 1 1-.45 1-1 1-1-.45-1-1zm4 0c0-.55.45-1 1-1s1 .45 1 1-.45 1-1 1-1-.45-1-1zm4 0c0-.55.45-1 1-1s1 .45 1 1-.45 1-1 1-1-.45-1-1zm4 0c0-.55.45-1 1-1s1 .45 1 1-.45 1-1 1-1-.45-1-1zm4.1 1.9c0-.56.45-1 1-1 .56 0 1 .44 1 1 0 .55-.44 1-1 1-.55 0-1-.45-1-1zM838 86c0-.55.45-1 1-1s1 .45 1 1-.45 1-1 1-1-.45-1-1zm0 4c0-.55.45-1 1-1s1 .45 1 1-.45 1-1 1-1-.45-1-1zm0 4c0-.55.45-1 1-1s1 .45 1 1-.45 1-1 1-1-.45-1-1zm0 4c0-.55.45-1 1-1s1 .45 1 1-.45 1-1 1-1-.45-1-1zm0 4c0-.55.45-1 1-1s1 .45 1 1-.45 1-1 1-1-.45-1-1zm0 4c0-.55.45-1 1-1s1 .45 1 1-.45 1-1 1-1-.45-1-1zm0 4c0-.55.45-1 1-1s1 .45 1 1-.45 1-1 1-1-.45-1-1z"/><path d="M819 121.5v37" stroke="#5e5e5e" fill="none"/><path d="M819.5 121.5h-1v-.5h1z" fill="#5e5e5e"/><path d="M819 158.5v.5" stroke="#5e5e5e" fill="none"/><path d="M761.5 100h18" stroke="#5e5e5e" stroke-width="2" fill="none"/><path d="M761.53 101h-1.03v-2h1.03z" fill="#5e5e5e"/><path d="M794.76 100l-14.26 4.64v-9.28z" stroke="#5e5e5e" stroke-width="2" fill="#5e5e5e"/><path d="M1180 354c0 3.3-2.7 6-6 6h-28c-3.3 0-6-2.7-6-6v-28c0-3.3 2.7-6 6-6h28c3.3 0 6 2.7 6 6zM1180 274c0 3.3-2.7 6-6 6h-28c-3.3 0-6-2.7-6-6v-28c0-3.3 2.7-6 6-6h28c3.3 0 6 2.7 6 6zM1180 194c0 3.3-2.7 6-6 6h-28c-3.3 0-6-2.7-6-6v-28c0-3.3 2.7-6 6-6h28c3.3 0 6 2.7 6 6z" stroke="#000" fill="#e5e5e5"/><path d="M1160 319v-38" stroke="#000" fill="none"/><path d="M1160.5 319.5h-1v-.5h1zM1160.5 281h-1v-.5h1z"/><path d="M1160 239v-38" stroke="#000" fill="none"/><path d="M1160.5 239.5h-1v-.5h1zM1160.5 201h-1v-.5h1z"/><path d="M920 326c0-3.3 2.7-6 6-6h108c3.3 0 6 2.7 6 6v28c0 3.3-2.7 6-6 6H926c-3.3 0-6-2.7-6-6z" stroke="#000" stroke-opacity="0" stroke-width="2" fill="#fff" fill-opacity="0"/><use xlink:href="#a" transform="matrix(1,0,0,1,925,325) translate(11.074074074074076 18.09722222222222)"/><use xlink:href="#b" transform="matrix(1,0,0,1,925,325) translate(59.41975308641975 18.09722222222222)"/><path d="M920 246c0-3.3 2.7-6 6-6h108c3.3 0 6 2.7 6 6v28c0 3.3-2.7 6-6 6H926c-3.3 0-6-2.7-6-6z" stroke="#000" stroke-opacity="0" stroke-width="2" fill="#fff" fill-opacity="0"/><use xlink:href="#a" transform="matrix(1,0,0,1,925,245) translate(11.074074074074076 18.09722222222222)"/><use xlink:href="#c" transform="matrix(1,0,0,1,925,245) translate(59.41975308641975 18.09722222222222)"/><path d="M920 166c0-3.3 2.7-6 6-6h108c3.3 0 6 2.7 6 6v28c0 3.3-2.7 6-6 6H926c-3.3 0-6-2.7-6-6z" stroke="#000" stroke-opacity="0" stroke-width="2" fill="#fff" fill-opacity="0"/><use xlink:href="#a" transform="matrix(1,0,0,1,925,165) translate(11.074074074074076 18.09722222222222)"/><use xlink:href="#d" transform="matrix(1,0,0,1,925,165) translate(59.41975308641975 18.09722222222222)"/><path d="M920 86c0-3.3 2.7-6 6-6h108c3.3 0 6 2.7 6 6v28c0 3.3-2.7 6-6 6H926c-3.3 0-6-2.7-6-6z" stroke="#000" stroke-opacity="0" stroke-width="2" fill="#fff" fill-opacity="0"/><use xlink:href="#a" transform="matrix(1,0,0,1,925,84.99999999999999) translate(11.074074074074076 18.09722222222222)"/><use xlink:href="#e" transform="matrix(1,0,0,1,925,84.99999999999999) translate(59.41975308641975 18.09722222222222)"/><path d="M1180 114c0 3.3-2.7 6-6 6h-28c-3.3 0-6-2.7-6-6V86c0-3.3 2.7-6 6-6h28c3.3 0 6 2.7 6 6z" stroke="#000" fill="#e5e5e5"/><path d="M1160 121v38" stroke="#5e5e5e" fill="none"/><path d="M1160.5 121h-1v-.5h1zM1160.5 159.5h-1v-.5h1z" fill="#5e5e5e"/><path d="M1100 400c0 11.05-8.95 20-20 20s-20-8.95-20-20 8.95-20 20-20 20 8.95 20 20zM1180 400c0 11.05-8.95 20-20 20s-20-8.95-20-20 8.95-20 20-20 20 8.95 20 20z" stroke="#5e5e5e" fill="#99d5ca"/><path d="M1100 354c0 3.3-2.7 6-6 6h-28c-3.3 0-6-2.7-6-6v-28c0-3.3 2.7-6 6-6h28c3.3 0 6 2.7 6 6zM1100 274c0 3.3-2.7 6-6 6h-28c-3.3 0-6-2.7-6-6v-28c0-3.3 2.7-6 6-6h28c3.3 0 6 2.7 6 6zM1100 194c0 3.3-2.7 6-6 6h-28c-3.3 0-6-2.7-6-6v-28c0-3.3 2.7-6 6-6h28c3.3 0 6 2.7 6 6z" stroke="#000" fill="#e5e5e5"/><path d="M1080 319v-38" stroke="#000" fill="none"/><path d="M1080.5 319.5h-1v-.5h1zM1080.5 281h-1v-.5h1z"/><path d="M1080 239v-38" stroke="#000" fill="none"/><path d="M1080.5 239.5h-1v-.5h1zM1080.5 201h-1v-.5h1z"/><g><path d="M1100 114c0 3.3-2.7 6-6 6h-28c-3.3 0-6-2.7-6-6V86c0-3.3 2.7-6 6-6h28c3.3 0 6 2.7 6 6z" stroke="#000" fill="#e5e5e5"/></g><path d="M1080 121v38" stroke="#5e5e5e" fill="none"/><path d="M1080.5 121h-1v-.5h1zM1080.5 159.5h-1v-.5h1z" fill="#5e5e5e"/><defs><path fill="#333" d="M160-131c35 5 61 23 61 61C221 17 115-2 30 0v-248c76 3 177-17 177 60 0 33-19 50-47 57zm-97-11c50-1 110 9 110-42 0-47-63-36-110-37v79zm0 115c55-2 124 14 124-45 0-56-70-42-124-44v89" id="f"/><path fill="#333" d="M24 0v-261h32V0H24" id="g"/><path fill="#333" d="M100-194c62-1 85 37 85 99 1 63-27 99-86 99S16-35 15-95c0-66 28-99 85-99zM99-20c44 1 53-31 53-75 0-43-8-75-51-75s-53 32-53 75 10 74 51 75" id="h"/><path fill="#333" d="M96-169c-40 0-48 33-48 73s9 75 48 75c24 0 41-14 43-38l32 2c-6 37-31 61-74 61-59 0-76-41-82-99-10-93 101-131 147-64 4 7 5 14 7 22l-32 3c-4-21-16-35-41-35" id="i"/><path fill="#333" d="M143 0L79-87 56-68V0H24v-261h32v163l83-92h37l-77 82L181 0h-38" id="j"/><g id="a"><use transform="matrix(0.04938271604938272,0,0,0.04938271604938272,0,0)" xlink:href="#f"/><use transform="matrix(0.04938271604938272,0,0,0.04938271604938272,11.851851851851853,0)" xlink:href="#g"/><use transform="matrix(0.04938271604938272,0,0,0.04938271604938272,15.753086419753087,0)" xlink:href="#h"/><use transform="matrix(0.04938271604938272,0,0,0.04938271604938272,25.629629629629633,0)" xlink:href="#i"/><use transform="matrix(0.04938271604938272,0,0,0.04938271604938272,34.51851851851852,0)" xlink:href="#j"/></g><path fill="#333" d="M158-156l-14 65h45v19h-49L124 0h-19l15-72H56L41 0H22l15-72H2v-19h39l14-65H11v-19h48l15-71h20l-16 71h64l16-71h19l-16 71h37v19h-40zm-83 0L61-91h63l14-65H75" id="k"/><path fill="#333" d="M27 0v-27h64v-190l-56 39v-29l58-41h29v221h61V0H27" id="l"/><path fill="#333" d="M155-56V0h-30v-56H8v-25l114-167h33v167h35v25h-35zm-30-156c-27 46-58 90-88 131h88v-131" id="m"/><path fill="#333" d="M64 0c3-98 48-159 88-221H18v-27h164v26C143-157 98-101 97 0H64" id="n"/><g id="b"><use transform="matrix(0.04938271604938272,0,0,0.04938271604938272,0,0)" xlink:href="#k"/><use transform="matrix(0.04938271604938272,0,0,0.04938271604938272,9.876543209876544,0)" xlink:href="#l"/><use transform="matrix(0.04938271604938272,0,0,0.04938271604938272,19.75308641975309,0)" xlink:href="#m"/><use transform="matrix(0.04938271604938272,0,0,0.04938271604938272,29.629629629629633,0)" xlink:href="#n"/></g><path fill="#333" d="M134-131c28 9 52 24 51 62-1 50-34 73-85 73S17-19 16-69c0-36 21-54 49-61-75-25-45-126 34-121 46 3 78 18 79 63 0 33-17 51-44 57zm-34-11c31 1 46-15 46-44 0-28-17-43-47-42-29 0-46 13-45 42 1 28 16 44 46 44zm1 122c35 0 51-18 51-52 0-30-18-46-53-46-33 0-51 17-51 47 0 34 19 51 53 51" id="o"/><g id="c"><use transform="matrix(0.04938271604938272,0,0,0.04938271604938272,0,0)" xlink:href="#k"/><use transform="matrix(0.04938271604938272,0,0,0.04938271604938272,9.876543209876544,0)" xlink:href="#l"/><use transform="matrix(0.04938271604938272,0,0,0.04938271604938272,19.75308641975309,0)" xlink:href="#m"/><use transform="matrix(0.04938271604938272,0,0,0.04938271604938272,29.629629629629633,0)" xlink:href="#o"/></g><path fill="#333" d="M99-251c64 0 84 50 84 122C183-37 130 33 47-8c-14-7-20-23-25-40l30-5c6 39 69 39 84 7 9-19 16-44 16-74-10 22-31 35-62 35-49 0-73-33-73-83 0-54 28-83 82-83zm-1 141c31-1 51-18 51-49 0-36-14-67-51-67-34 0-49 23-49 58 0 34 15 58 49 58" id="p"/><g id="d"><use transform="matrix(0.04938271604938272,0,0,0.04938271604938272,0,0)" xlink:href="#k"/><use transform="matrix(0.04938271604938272,0,0,0.04938271604938272,9.876543209876544,0)" xlink:href="#l"/><use transform="matrix(0.04938271604938272,0,0,0.04938271604938272,19.75308641975309,0)" xlink:href="#m"/><use transform="matrix(0.04938271604938272,0,0,0.04938271604938272,29.629629629629633,0)" xlink:href="#p"/></g><path fill="#333" d="M54-142c48-35 137-8 131 61C196 18 31 33 14-55l32-4c7 23 22 37 52 37 35-1 51-22 54-58 4-55-73-65-99-34H22l8-134h141v27H59" id="q"/><path fill="#333" d="M101-251c68 0 85 55 85 127S166 4 100 4C33 4 14-52 14-124c0-73 17-127 87-127zm-1 229c47 0 54-49 54-102s-4-102-53-102c-51 0-55 48-55 102 0 53 5 102 54 102" id="r"/><g id="e"><use transform="matrix(0.04938271604938272,0,0,0.04938271604938272,0,0)" xlink:href="#k"/><use transform="matrix(0.04938271604938272,0,0,0.04938271604938272,9.876543209876544,0)" xlink:href="#l"/><use transform="matrix(0.04938271604938272,0,0,0.04938271604938272,19.75308641975309,0)" xlink:href="#q"/><use transform="matrix(0.04938271604938272,0,0,0.04938271604938272,29.629629629629633,0)" xlink:href="#r"/></g></defs></g></svg>